<?xml version="1.0" standalone="no"?>
<!DOCTYPE svg PUBLIC "-//W3C//DTD SVG 1.1//EN" "http://www.w3.org/Graphics/SVG/1.1/DTD/svg11.dtd" >
<svg xmlns="http://www.w3.org/2000/svg" xmlns:xlink="http://www.w3.org/1999/xlink" version="1.1">
<metadata>
Created by FontForge 20170924 at Wed Aug 14 20:50:22 2019
 By www-data
Houston Comics Personal Use (c) deedeetype. 2019. All Rights Reserved
</metadata>
<defs>
<font id="HoustonComicsPersonalUse" horiz-adv-x="1044" >
  <font-face 
    font-family="Houston Comics Personal Use"
    font-weight="400"
    font-stretch="normal"
    units-per-em="2048"
    panose-1="2 0 5 0 0 0 0 0 0 0"
    ascent="1638"
    descent="-410"
    x-height="1253"
    cap-height="1245"
    bbox="-12 -476 1618 1796"
    underline-thickness="150"
    underline-position="-292"
    unicode-range="U+001D-F002"
  />
<missing-glyph horiz-adv-x="804" 
d="M0 0v1434h824v-1434h-824zM50 50h724v1334h-724v-1334zM225 1148q31 28 58 43q53 30 112 30q92 0 148 -47.5t56 -127.5q0 -49 -23 -98.5t-87 -129.5q-63 -80 -99 -132t-36 -99q0 -38 24 -133h-32q-35 97 -35 148q0 76 81.5 218t81.5 217q0 57 -33 90t-91 33
q-38 0 -69 -17q-26 -15 -56 -40v45zM289 334l57 58q11 10 20 10q10 0 22 -11l56 -60q9 -11 9 -20q0 -11 -10 -22l-56 -62q-14 -14 -21 -14q-11 0 -20 10l-61 71q-7 9 -7 18q0 10 11 22z" />
    <glyph glyph-name=".notdef" horiz-adv-x="804" 
d="M0 0v1434h824v-1434h-824zM50 50h724v1334h-724v-1334zM225 1148q31 28 58 43q53 30 112 30q92 0 148 -47.5t56 -127.5q0 -49 -23 -98.5t-87 -129.5q-63 -80 -99 -132t-36 -99q0 -38 24 -133h-32q-35 97 -35 148q0 76 81.5 218t81.5 217q0 57 -33 90t-91 33
q-38 0 -69 -17q-26 -15 -56 -40v45zM289 334l57 58q11 10 20 10q10 0 22 -11l56 -60q9 -11 9 -20q0 -11 -10 -22l-56 -62q-14 -14 -21 -14q-11 0 -20 10l-61 71q-7 9 -7 18q0 10 11 22z" />
    <glyph glyph-name=".null" horiz-adv-x="0" 
 />
    <glyph glyph-name=".null" horiz-adv-x="0" 
 />
    <glyph glyph-name="nonmarkingreturn" horiz-adv-x="508" 
 />
    <glyph glyph-name="space" unicode=" " horiz-adv-x="508" 
 />
    <glyph glyph-name="space" unicode="&#xa0;" horiz-adv-x="508" 
 />
    <glyph glyph-name="exclam" unicode="!" horiz-adv-x="433" 
d="M168 1281h285l-213 -961l-21 -2t-51.5 -3t-59 0.5t-44.5 7t-9 16.5q10 22 28.5 164t37.5 322t33 318zM126 98h7q72 -9 93 -67.5t-7.5 -110.5t-104.5 -44q-73 16 -93.5 69.5t7.5 102t98 50.5z" />
    <glyph glyph-name="quotedbl" unicode="&#x22;" horiz-adv-x="628" 
d="M129 1294l240 -12l-231 -323l-15 0.5t-36.5 1.5t-42 3t-32.5 4.5t-8 5.5q7 6 26.5 54t42.5 109.5t39.5 109zM408 1294l240 -12l-232 -323l-15 0.5t-36.5 1.5t-42 3t-32.5 4.5t-7 5.5q6 6 25.5 54t42.5 109.5t40 109z" />
    <glyph glyph-name="numbersign" unicode="#" horiz-adv-x="1269" 
d="M485 1237l282 -43l-99 -242q75 -11 148 -21q41 132 67.5 219l26.5 87l281 -43l-121 -297q178 -23 204 -19q13 3 14 -14t-6 -44.5t-17 -56t-17.5 -48.5l-7.5 -20l-247 14l-54 -133q130 -3 216.5 -3t99.5 5t15.5 -12t-1 -45.5t-10 -58t-12 -50l-5.5 -20.5l-387 -22
l-134 -326l-21 2t-51 5.5t-58 9t-43.5 13.5t-6.5 19q8 9 33.5 81.5t61.5 183.5l-216 -12l-123 -302l-21.5 2t-51 5.5t-58 9t-43.5 13.5t-6 19q7 9 30 74t57 167l-202 -12l51 281l65 -2.5t169 -5.5q24 76 47 151l-334 19l82 273l93 -14t235 -34q33 108 54 177.5zM578 732
l-59 -145q93 -3 188 -6q22 71 44 141z" />
    <glyph glyph-name="dollar" unicode="$" horiz-adv-x="1034" 
d="M781 1510l-53 -248q89 9 172 -15.5t154 -91.5q-13 -9 -32 -55.5t-38.5 -104t-33 -101.5l-13.5 -44q-45 55 -107.5 61.5t-128.5 -17.5t-119 -59.5t-78.5 -64.5t-7.5 -33q261 21 363 -43.5t81.5 -172.5t-125.5 -215t-257 -171q-4 -66 -6.5 -131t-3.5 -109.5l-1 -44.5
l-285 -15l69 251q-86 -2 -170 27t-161 95l159 348q71 -85 167 -101.5t178.5 4.5t110 50.5t-39.5 36.5q-227 19 -318.5 94t-79 177t98.5 202t214 168q2 77 3.5 146.5t2 115.5l0.5 46z" />
    <glyph glyph-name="percent" unicode="%" horiz-adv-x="1055" 
d="M311 1421q117 -1 172 -78t54.5 -186t-49 -207.5t-136.5 -142t-209 11.5q-97 50 -120 142.5t8 193t96 175t145 88.5q20 3 39 3zM709 1378h250l-633 -1468l-19 -1.5t-45.5 -3t-51.5 0t-39 6.5t-8 17q13 25 95.5 242t186.5 496.5t184 495zM304 1286q-26 0 -50.5 -63.5
t-35.5 -143.5t-1 -136t52 -48q29 10 50 69.5t29 133.5t-2 131t-42 57zM848 520q117 -1 172 -78t54 -186t-49 -207.5t-136 -142t-209 10.5q-97 51 -120.5 143.5t8 193t96.5 175t144 88.5q21 3 40 3zM841 385q-27 0 -51 -63.5t-35 -143.5t-1 -136t51 -49q30 11 51 70.5
t28.5 133.5t-2 131t-41.5 57z" />
    <glyph glyph-name="ampersand" unicode="&#x26;" horiz-adv-x="1025" 
d="M837 1330l-40 -415q-23 -3 -48 -5q-58 -3 -100 -19q-126 97 -198.5 104.5t-94 -35t4 -96t94.5 -79.5q-1 -15 -1 -52q-1 -31 -2 -62.5t-4.5 -53.5t-12.5 -22q-31 -8 -53.5 -16.5t-26.5 -11.5h-1q-111 -52 -118.5 -126t51.5 -129.5t147 -52.5t167 106q-78 6 -89 0
q-5 -5 -5.5 12t2.5 45.5t7 58t7 50l3 20.5l519 48l-34 -281l-36.5 5t-93.5 12q-132 -201 -280 -260q-146 -57 -277.5 -16.5t-217.5 139.5t-96 215t86 209q57 51 120 85q-76 80 -77 182t60.5 186t172 109.5t256.5 -47.5q-8 67 -14.5 116.5l-6.5 49.5z" />
    <glyph glyph-name="quotesingle" unicode="'" horiz-adv-x="350" 
d="M130 1294l240 -12l-232 -323l-15 0.5t-36.5 1.5t-42 3t-32.5 4.5t-7 5.5q6 6 25.5 54t42.5 109.5t40 109z" />
    <glyph glyph-name="comma" unicode="," horiz-adv-x="349" 
d="M129 97l240 -12l-232 -323l-15 0.5t-36.5 2t-42 3t-32 4t-7.5 5.5q7 6 26.5 54.5t42 110t39.5 108.5z" />
    <glyph glyph-name="hyphen" unicode="-" horiz-adv-x="823" 
d="M72 637l112 -8t257.5 -17.5t260.5 -15t132 -1.5q9 3 8.5 -8t-7 -29t-15 -37t-14.5 -32l-6 -13l-800 -17z" />
    <glyph glyph-name="hyphen" unicode="&#xad;" horiz-adv-x="823" 
d="M72 637l112 -8t257.5 -17.5t260.5 -15t132 -1.5q9 3 8.5 -8t-7 -29t-15 -37t-14.5 -32l-6 -13l-800 -17z" />
    <glyph glyph-name="period" unicode="." horiz-adv-x="227" 
d="M133 167q72 -9 93 -67.5t-7.5 -110.5t-103.5 -44q-75 17 -95 71.5t10 103t103 47.5z" />
    <glyph glyph-name="slash" unicode="/" horiz-adv-x="844" 
d="M579 1147h285l-671 -1317l-21.5 -1.5t-51.5 -3t-58.5 0t-45 7t-9.5 17.5q15 25 101.5 219.5t195 444t192 441.5z" />
    <glyph glyph-name="zero" unicode="0" horiz-adv-x="930" 
d="M619 1209q155 40 231.5 -26.5t88 -203t-29.5 -305.5t-121.5 -333t-187 -285.5t-227 -164t-240.5 31.5q-105 73 -119 214t38 312t146 334t205.5 279t215.5 147zM607 935q-34 -6 -85 -97.5t-101.5 -222.5t-83 -256.5t-29.5 -201t59 -55.5q40 20 88.5 109.5t92.5 211.5
t71.5 240.5t27.5 195.5t-40 76z" />
    <glyph glyph-name="one" unicode="1" horiz-adv-x="750" 
d="M161 714q1 0 3 30t4 76.5l4 93t3.5 78.5l1.5 32q11 16 113 58t237 80.5t243 43.5l-18 -51.5t-42 -120.5t-45 -128v0q-60 -174 -132.5 -380.5t-129 -365t-69.5 -188.5q-34 -9 -73 -16q-51 -9 -115 -26t-146 -54l304 955z" />
    <glyph glyph-name="two" unicode="2" horiz-adv-x="1013" 
d="M981 70l-104 -19t-254 -46t-297.5 -53.5t-242.5 -42.5q-1 0 -11 14q-10 13 -23.5 30.5t-26.5 30t-22 11.5l88 86.5t205 223t215.5 295t127.5 307.5q2 21 -22 14t-62 -30.5t-76 -52t-65 -49.5l-27 -21q-21 57 -57 159t-59 186l101 22t236 35t249 -7t149 -100
q30 -142 -31.5 -284.5t-154.5 -287.5q-52 -84 -98.5 -168.5t-76.5 -170.5l37.5 16.5t91.5 37.5t106 38t83 18q-5 -64 2 -109.5t19 -82.5z" />
    <glyph glyph-name="three" unicode="3" horiz-adv-x="1069" 
d="M282 1196l97.5 10t232.5 13t257 -14.5t180 -69.5q40 -44 19 -94.5t-77 -100.5t-120.5 -91.5t-112 -67l-47.5 -25.5l32 -12t75.5 -37t83.5 -63.5t59.5 -91.5t0.5 -121q-33 -115 -139 -211t-245.5 -169t-272 -119.5t-219 -62.5t-85.5 1q21 105 40 154q13 35 17 60.5
t-7 54.5l51.5 -1.5t126 10t146.5 48.5t116 112.5t36 201.5q-4 59 -48 57t-101.5 -33.5t-101.5 -61.5q-40 -27 -47 -27l7 27q14 52 35 139.5t23 136.5q0 11 16 18.5t43 14.5q51 13 112 46t97 113q18 49 -12 54.5t-87 -16t-117.5 -52.5t-104 -56.5l-43.5 -25.5q36 94 47.5 148
t15.5 93q3 46 21 111z" />
    <glyph glyph-name="four" unicode="4" horiz-adv-x="1206" 
d="M598 1166q103 -26 192 -16.5t172 36.5l-49.5 -85.5t-120 -209t-139.5 -247.5t-112.5 -208.5t-38.5 -88.5q16 -3 68 -2.5t105 9.5t70 32q11 20 32.5 76t44.5 121t39.5 113l16.5 48q76 -3 160.5 8.5t187.5 55.5l-211 -847q-55 16 -120 1t-133 -40q-63 -23 -123 -38l31 269
q0 -8 -69 -33.5t-170.5 -57t-202 -56.5t-164.5 -32.5t-57 14.5q13 30 102 208t202 402t200 396z" />
    <glyph glyph-name="five" unicode="5" horiz-adv-x="1149" 
d="M311 1045q193 20 393.5 75t404.5 123q30 10 60 19q-4 -2 -22 -37t-39.5 -83t-38 -87.5t-17.5 -49.5q-14 -10 -76 -24t-138 -27.5t-134 -23l-58 -9.5q-10 -32 -22 -66q-20 -54 -32 -102t-1 -79l40 6.5t95.5 5.5t107 -21.5t78 -72t8.5 -146.5q-25 -104 -122 -195.5
t-228 -165.5t-258.5 -123.5t-214 -68.5t-94.5 -2q-3 16 2.5 48.5t13.5 68.5q8 31 11.5 52.5t-1.5 20.5l69.5 35.5t160.5 88.5t163.5 110t84.5 104q5 35 -28.5 42t-87 -3.5t-108.5 -28.5t-93 -33l-38 -15q6 5 34.5 101.5t62 224.5t53.5 227.5t9 110.5z" />
    <glyph glyph-name="six" unicode="6" horiz-adv-x="846" 
d="M866 1243l-353 -513l22.5 -3t54.5 -8t62 -11.5t48 -12.5q132 -56 139 -162t-71 -228t-200.5 -228t-248.5 -162t-215.5 -30.5t-100.5 166.5q-3 134 82.5 335t202 403.5t208 342l91.5 139.5q128 -29 279 -28zM402 445q-26 -5 -48 -25t-32 -59q-32 -144 -2 -171.5t84 14.5
t93.5 108.5t25 111t-120.5 21.5z" />
    <glyph glyph-name="seven" unicode="7" horiz-adv-x="1186" 
d="M406 1204q190 -23 392 -16t408 55l-46 -214q-299 -336 -484 -613t-323 -530l-50.5 1.5t-116.5 3t-118 0t-60 -7.5q-8 -9 61 84q133 179 348 477.5t305 460.5l-395 -8q31 30 50 110.5t29 196.5z" />
    <glyph glyph-name="eight" unicode="8" horiz-adv-x="1152" 
d="M1170 970q-10 -135 -79 -242.5t-141 -168.5q-31 -26 -33.5 -55.5t3.5 -62.5q9 -41 2 -86q-34 -142 -126 -243t-207.5 -161.5t-223 -79t-172.5 4.5q-131 52 -162 133t2 171t94.5 168t115.5 122.5t65 34.5q-59 137 -20.5 265.5t139 232t228 166.5t246.5 71t195 -56t74 -214
zM726 938q-45 15 -99 -18.5t-98.5 -86.5t-62.5 -98.5t8 -55.5q172 -41 271.5 5.5t101 124t-120.5 129.5zM273 227q-14 -97 40 -115t133.5 13t142.5 81t68 88q-39 104 -123 117t-162 -39.5t-99 -144.5z" />
    <glyph glyph-name="nine" unicode="9" horiz-adv-x="971" 
d="M974 1063q-59 -184 -196.5 -432.5t-272 -444.5t-185.5 -223q-56 -28 -104.5 -33t-108.5 -3q-44 2 -103 1q161 229 292 453q-120 -28 -198 18t-88 153q-10 207 92 354t259 232.5t310 107t243.5 -23.5t59.5 -159zM402 663q49 13 88 69t63 123.5t26 115t-23 43.5
q-68 -20 -122.5 -79t-82.5 -127t-18.5 -112t69.5 -33z" />
    <glyph glyph-name="question" unicode="?" horiz-adv-x="710" 
d="M382 1355h37q12 -1 25 -1q111 -12 179.5 -95t87.5 -204t-20 -246t-142.5 -220.5t-278.5 -128.5l-42 -220l-21.5 -1t-51.5 -2t-58.5 0t-45 5.5t-9.5 13.5q10 14 8.5 76.5t-7.5 139.5t-12.5 135l-6.5 58q124 0 205 33.5t122 82.5t45 98.5t-27.5 83.5t-95 37.5t-156.5 -39.5
q-22 33 -39 104q-20 82 -50 132q133 103 212 132t142 26zM126 97q3 0 7 -1q72 -9 93 -67.5t-7.5 -110.5t-103.5 -44q-74 17 -94.5 70t7.5 102t98 51z" />
    <glyph glyph-name="at" unicode="@" horiz-adv-x="930" 
d="M68 106q-64 87 -66 217.5t49.5 270t147.5 254t229 168t293 11.5q85 -25 134.5 -115t68.5 -221q26 -190 -39 -311q-58 -99 -116 -96.5t-104.5 63t-71.5 134.5l-14 -14q-3 -5 -8 -10t-15 -13q-49 -47 -109 -88.5t-135 -54.5v0h-1q-31 -5 -64 12q-82 56 -65.5 156t91.5 203
t169.5 166.5t170.5 47.5q-18 -40 -30.5 -107t-17.5 -104q-22 5 -58 -15t-70 -51.5t-51.5 -60t-1.5 -40.5q13 -7 34.5 5.5t48.5 34.5q43 35 94.5 60.5t103 1t96.5 -137.5q14 32 20.5 82t-3.5 110l-1 3v3q-10 87 -47 154t-107.5 87t-182.5 -32q-132 -76 -228 -226.5
t-100 -284.5q16 -114 63 -159q46 -48 124 -58q76 -8 151 26.5t164 91.5l6 4q57 -76 103 -116q14 -13 28 -27q-109 -68 -230.5 -104t-240.5 -22q-60 7 -116.5 30t-95.5 72z" />
    <glyph glyph-name="A" unicode="A" 
d="M1064 1314q-37 -277 -50 -495t-17 -416q-4 -169 -13 -350q1 14 -48 14t-115 -8.5t-117.5 -18.5t-55.5 -15q-1 -5 1.5 34.5t7 102t9 126.5t8 108.5l3.5 44.5l-110 -13l-21 -47t-52.5 -114.5t-65 -133t-60 -106t-37.5 -32.5q-15 13 -65 17.5t-109 3t-104.5 -6.5t-51.5 -11
q-1 0 58.5 121t150.5 305q94 191 189.5 385t159 325.5t61.5 134.5zM734 841l-122 -210l16 1t38 4t40 9t24 16q4 11 5.5 39t1 60.5t-1.5 56.5z" />
    <glyph glyph-name="B" unicode="B" horiz-adv-x="1002" 
d="M754 1368q150 14 212 -11q56 -32 30.5 -118t-90.5 -187.5t-127 -179.5t-81 -94q8 2 43 4t80.5 -7.5t85 -42.5t55.5 -99q11 -59 -43 -154t-154 -196t-228.5 -179t-267.5 -103.5t-269 32.5l286 1249l-12 12l76.5 15t186.5 32t217 27zM506 1129l22 -5l-9 -33.5t-22 -81.5
t-25 -94.5t-18.5 -75t-3.5 -22.5q7 11 44 55q42 49 90 109.5t72.5 106t-4.5 46.5zM505 528q-3 -1 -6 -1q-38 -10 -80.5 -68t-76 -123.5t-46.5 -97.5l39.5 18t91.5 46.5t93 61.5t47 63q-21 107 -62 101z" />
    <glyph glyph-name="C" unicode="C" horiz-adv-x="945" 
d="M965 1030q-50 -4 -133 -71.5t-145 -126.5q-15 -15 -27 -26q-40 132 -99.5 154.5t-122.5 -29t-114 -142.5t-74.5 -187.5t-3 -163t100.5 -68.5v0q8 -1 45.5 3.5t83.5 27.5t79 76q74 1 111 -1t54 -4q14 -2 26 -2t31 4q-80 -168 -205.5 -285.5t-259 -151t-239.5 51.5
q-68 62 -70.5 195.5t45.5 301t131.5 331t187.5 285.5t213.5 164.5t209 -32t175.5 -304.5z" />
    <glyph glyph-name="D" unicode="D" horiz-adv-x="989" 
d="M588 1268q93 10 167 -14q163 -98 208.5 -262t-9 -348t-188.5 -342.5t-329.5 -244.5t-432.5 -54q-4 16 25 161.5t73 345t84 377.5q27 126 45.5 208t19.5 94q181 60 337 79zM482 1013q-6 -14 -28.5 -123t-50.5 -247.5t-49 -245.5l-21 -107q102 127 167.5 249.5t67.5 241
t-86 232.5z" />
    <glyph glyph-name="E" unicode="E" horiz-adv-x="755" 
d="M775 1319l-3.5 -39t-9.5 -88.5t-13 -88.5t-14 -43q-9 -3 -47.5 -20.5t-85.5 -39t-82.5 -38l-35.5 -16.5l-7 -205l229 42l-9 -60t-35 -148q-11 -34 -39.5 -49t-63.5 -17.5t-68.5 2t-55.5 10.5l-22 6q-12 -7 -28.5 -58t-28.5 -117t-9.5 -118.5t30.5 -62.5q1 -15 21 -17.5
t50.5 2.5t60.5 13.5t51 15.5l21 7l-10 -145q-2 -8 -76 -23t-177 -25t-190.5 -3t-115.5 42q-12 6 -1.5 113.5t33 265t48 315t43.5 265.5l18 108q3 -11 83.5 10t192.5 59t210 78t136 67z" />
    <glyph glyph-name="F" unicode="F" horiz-adv-x="813" 
d="M237 1221l593 207l3 -251l-267 -40l-9 -36t-21 -86.5t-20.5 -97.5t-7.5 -73q2 -19 23.5 -24t53.5 -1t64 11.5t53.5 14.5l21.5 7l-3.5 -34t-10.5 -81.5t-16 -91.5q-9 -31 -49.5 -43.5t-91 -13t-89 3l-38.5 3.5l-2.5 -80t-6.5 -185.5t-9 -191t-10 -103.5q-8 -14 -68 -22.5
t-136.5 -12.5t-135 -5.5l-58.5 -1.5l33.5 173.5t77.5 402t80.5 417t45.5 235.5z" />
    <glyph glyph-name="G" unicode="G" horiz-adv-x="1038" 
d="M1058 1382q-5 -16 -13 -54.5t-16 -83t-13.5 -77l-5.5 -32.5q-178 -51 -292.5 -156.5t-175 -233t-76 -243.5t4.5 -188.5t66 -68.5q75 16 109 91.5t30 161.5t-45 133l-3.5 15.5t-5.5 37t0.5 41.5t13.5 31q14 10 77.5 21t142 21t138 16.5l59.5 6.5q-5 -150 -43 -296.5
t-117 -271.5q-70 -105 -183.5 -176.5t-244 -84.5t-251.5 59q-175 114 -194.5 290.5t72.5 369.5t254 357t350.5 253.5t361.5 60.5z" />
    <glyph glyph-name="H" unicode="H" horiz-adv-x="1067" 
d="M280 1165q72 -27 148 -22q75 4 153 33l-10 -51q-11 -50 -25 -123q-15 -72 -28 -142q-13 -71 -18 -115q-6 -43 1 -36q20 23 65 34t86 -19l105 571q64 -8 158 5q94 14 172 52l-20 -123t-47 -300q-28 -177 -55 -353t-43 -292t-12 -113q2 7 -54 -3t-132 -31q-77 -21 -139 -46
q-62 -26 -73 -52l88 542q-36 1 -53.5 -8t-44.5 -36l-17 -55q-16 -55 -40 -134q-23 -80 -46 -158q-22 -77 -35 -127t-9 -44q4 8 -45 4q-48 -5 -117 -19q-69 -13 -125 -32t-68 -38z" />
    <glyph glyph-name="I" unicode="I" horiz-adv-x="621" 
d="M235 1236q127 -36 217 -30t189 39l-203 -1225q-7 9 -70 4.5t-145 -16t-147 -23t-76 -17.5q27 37 71 233.5t87 439.5t66.5 420t10.5 175z" />
    <glyph glyph-name="J" unicode="J" horiz-adv-x="849" 
d="M244 1246q145 40 303.5 37.5t304.5 -40.5q3 -98 7 -178q10 -144 4.5 -257.5t-48.5 -239t-149 -304.5q-57 -90 -170 -150t-231.5 -90t-191.5 -30.5t-50 28.5l12 99q145 40 230.5 156.5t124 272.5t44.5 314t-7 281q-22 14 -58 9.5t-76 -14.5q-30 -8 -58 -13z" />
    <glyph glyph-name="K" unicode="K" horiz-adv-x="993" 
d="M197 1237q4 4 50.5 17t104.5 26t100.5 16.5t39.5 -10.5q3 -10 -1 -65t-10 -124t-11.5 -122l-5.5 -53l253 410q92 2 145 -7.5t86 -21.5q33 -11 65 -14l-412 -594q121 -253 294 -516q-82 -1 -158 -33t-149 -81q-10 20 -20 42q-41 85 -89.5 176t-104.5 163l-64 -394
q-19 0 -38 1q-50 3 -112 -5.5t-160 -50.5z" />
    <glyph glyph-name="L" unicode="L" horiz-adv-x="769" 
d="M282 1167q45 19 117 57q87 47 176 86t141 30l-346 -1077q66 15 127 33q68 20 136 33.5t144 8.5l-20 -227q-175 -24 -364 -59t-405 -89q56 185 122 461.5t136 583.5q18 79 36 159z" />
    <glyph glyph-name="M" unicode="M" horiz-adv-x="1316" 
d="M333 1234q46 -3 96 -8q58 -8 109 -10t79 12l129 -225l352 333q87 24 143 28t95 -1q-14 -18 -50 -137.5t-80.5 -287.5t-83.5 -330.5t-58.5 -266.5t-6.5 -97q2 8 -47.5 5t-118 -13t-122.5 -22.5t-62 -23.5l92 389l-243 -201l-106 136l-174 -493q-31 17 -89.5 14.5
t-126.5 -11.5q-31 -4 -60 -7q78 239 153 518.5t148 572.5z" />
    <glyph glyph-name="N" unicode="N" horiz-adv-x="1350" 
d="M395 1260q25 1 49 -1q40 -4 82 3t89 47l224 -473l201 609q68 -6 145 21t157 65q14 7 28 13q-139 -410 -260.5 -787t-206.5 -686h-12q-58 4 -127.5 -2.5t-175.5 -43.5l-101 472l-161 -519q10 8 -13.5 8.5t-66 -5t-90.5 -12.5q-42 -6 -78.5 -10.5t-57 -5t-15.5 5.5
q22 29 85 225.5t136 445.5t123 435.5t46 194.5z" />
    <glyph glyph-name="O" unicode="O" horiz-adv-x="1034" 
d="M708 1344q130 10 221 -73.5t112 -273.5q13 -236 -77.5 -440.5t-238 -347t-304 -194t-273.5 18t-148 290.5q8 301 119.5 525.5t272.5 353t316 141.5zM684 1081h-1v0q-109 -51 -182.5 -163t-111.5 -244.5t-41 -245t28.5 -164t96.5 -2.5q84 76 131.5 209t68 272.5
t21.5 236.5t-10 101z" />
    <glyph glyph-name="P" unicode="P" horiz-adv-x="998" 
d="M689 1338q71 5 129 -1.5t91 -29.5q89 -74 99 -210t-45.5 -285t-164.5 -264q-73 -67 -171 -106.5t-174.5 -56l-76.5 -16.5l-51 -372q-33 4 -64 10q-56 12 -118 14.5t-143 -24.5q69 249 124 542t105 599q8 48 16 95q-5 8 62.5 30t172 44.5t209.5 30.5zM491 1108
l-14.5 -63.5t-33 -149t-33 -161t-14.5 -100.5q1 -35 24.5 -55.5t63 -8t86.5 77.5q37 52 71.5 125.5t42.5 147t-34.5 126t-158.5 61.5z" />
    <glyph glyph-name="Q" unicode="Q" horiz-adv-x="1088" 
d="M777 1354q125 0 211 -89t105 -276q15 -257 -87.5 -478t-266.5 -371l134 -169l-37.5 -24t-90.5 -55t-103 -56t-76 -30q-20 -1 -41 46.5t-40 120.5q-117 -47 -219 -35t-173 95.5t-93 248.5q9 317 126.5 552.5t286 370.5t331.5 148q17 1 33 1zM719 1078q-1 0 -1 -1
q-128 -61 -209.5 -198.5t-116.5 -292.5t-24 -268.5t67 -124.5q-10 47 -15 77l-5 30l114 107l59 -75q73 140 105 312t35.5 299.5t-9.5 134.5z" />
    <glyph glyph-name="R" unicode="R" horiz-adv-x="951" 
d="M760 1393q60 4 99.5 -5t47.5 -37q52 -113 50 -258t-61 -276t-177 -202l252 -515q-110 -4 -204.5 -29.5t-181.5 -59.5l-192 393l-22 -340q-164 -14 -371 -69l220 1249q5 13 96 45.5t215 63.5t229 40zM587 1188q-45 -2 -123 -33l-14 -59t-31.5 -138t-31 -146.5t-13.5 -90.5
q3 -43 55.5 -29t126.5 126q43 68 80.5 155t34 151.5t-83.5 63.5z" />
    <glyph glyph-name="S" unicode="S" horiz-adv-x="830" 
d="M800 1336q-10 -14 -18 -65t-13 -112.5t-8 -108l-3 -46.5q-56 32 -118.5 11.5t-121 -70t-101.5 -104.5t-61 -92.5t1 -34.5q240 125 354.5 113t126.5 -112t-54.5 -237t-189 -262t-277 -187.5t-317.5 -12.5l72 389q89 -49 186.5 -24t172 79t94.5 93t-47 18
q-232 -80 -338 -45t-113 141.5t61 240t183.5 250t254 172t274.5 6.5z" />
    <glyph glyph-name="T" unicode="T" horiz-adv-x="898" 
d="M0 1381q110 0 257 31.5t293.5 73.5t263.5 79q59 18 104 31q-12 -62 -21 -185.5t-11 -259.5l-362 -19l-98 -1059q4 0 -40.5 4t-116.5 7.5t-151 2.5q-9 4 7.5 105t47 251.5t63 300.5t56 253.5l23.5 103.5l-307 -16z" />
    <glyph glyph-name="U" unicode="U" horiz-adv-x="1060" 
d="M238 1119q71 -39 130 -36t114 20q30 9 60 15l-29 -84.5t-66 -205.5t-64 -241t-26.5 -198t47.5 -75q71 11 124.5 105t91.5 228.5t61.5 268t34.5 224.5l11 91q13 1 25 1q78 0 158.5 10t169.5 49l-24.5 -146t-65.5 -342.5t-90 -364.5t-98 -226q-54 -53 -180.5 -109
t-269.5 -88.5t-245 -14t-107 115.5q1 103 36.5 267.5t82 332.5t83 285.5z" />
    <glyph glyph-name="V" unicode="V" horiz-adv-x="893" 
d="M0 1062q65 -1 129 9t120 50l104 -411l305 554q56 -16 110.5 -9t108.5 21l36 8q-186 -350 -320 -656t-248 -596q-122 12 -186.5 1.5t-110.5 -28.5l-30 -10q0 138 2 274q4 195 2 392t-22 401z" />
    <glyph glyph-name="W" unicode="W" horiz-adv-x="1531" 
d="M167 1401q25 0 49 -1q83 -4 160.5 1t140.5 35l-6 -97t-14.5 -237t-14.5 -279.5t-6 -232.5t10 -93q14 7 46 54.5t68.5 107t62.5 106l26 46.5q33 -8 66.5 -3.5t90.5 26.5l100 -129l275 774q80 -30 162 -41t168 21q-147 -342 -261 -650t-210 -597q-25 1 -47 5q-33 7 -72 4.5
t-96 -35.5l-117 202l-204 -299q-77 5 -175.5 -10.5t-203.5 -39.5q-85 -18 -165 -32q70 287 112.5 696t54.5 698z" />
    <glyph glyph-name="X" unicode="X" horiz-adv-x="1228" 
d="M304 1112q172 16 291 56q18 -42 35 -95q18 -59 37.5 -100.5t41.5 -33.5q47 48 97 118t101 148q33 51 66 99q0 -5 29 -6t70.5 1t82.5 6t67 8t24 7q-16 8 -84.5 -85t-150 -223t-137 -235t-47.5 -122q11 -100 30 -173t41 -136q20 -58 38 -123q-36 -6 -65 -6q-34 1 -85 -9.5
t-149 -54.5q-23 43 -77 158l-254 -284q18 10 -8.5 8.5t-76 -9.5t-101.5 -16q-37 -6 -65.5 -10.5t-41.5 -6t-2 3.5q31 16 83.5 79t111.5 146t108.5 159t74 119.5t8.5 27.5q1 98 -15.5 195.5t-39.5 194.5q-22 96 -38 194z" />
    <glyph glyph-name="Y" unicode="Y" horiz-adv-x="1054" 
d="M11 942l270 147l256 -251l297 405q104 -16 240 10q-207 -330 -355 -622t-263 -563q-75 4 -152.5 -15t-155.5 -45l-34 -10l26 44q49 79 97 174t92 236q-41 131 -131.5 247.5t-197.5 228.5z" />
    <glyph glyph-name="Z" unicode="Z" horiz-adv-x="997" 
d="M248 1442q232 -18 374.5 -2.5t254.5 42.5q89 20 190 34l-683 -1138q113 34 182.5 67.5t135.5 73.5q71 43 185 101q-21 -110 -23 -179.5t1 -118.5q4 -53 -1 -105q-109 -38 -188.5 -51t-149.5 -17q-93 -4 -212 -30.5t-314 -118.5l15 156q115 171 170 279.5t117 260.5
q61 151 195 447l-281 -26l9 52.5t17 127t6 145.5z" />
    <glyph glyph-name="a" unicode="a" 
d="M1064 1314q-37 -277 -50 -495t-17 -416q-4 -169 -13 -350q1 14 -48 14t-115 -8.5t-117.5 -18.5t-55.5 -15q-1 -5 1.5 34.5t7 102t9 126.5t8 108.5l3.5 44.5l-110 -13l-21 -47t-52.5 -114.5t-65 -133t-60 -106t-37.5 -32.5q-15 13 -65 17.5t-109 3t-104.5 -6.5t-51.5 -11
q-1 0 58.5 121t150.5 305q94 191 189.5 385t159 325.5t61.5 134.5zM734 841l-122 -210l16 1t38 4t40 9t24 16q4 11 5.5 39t1 60.5t-1.5 56.5z" />
    <glyph glyph-name="b" unicode="b" horiz-adv-x="1002" 
d="M754 1368q150 14 212 -11q56 -32 30.5 -118t-90.5 -187.5t-127 -179.5t-81 -94q8 2 43 4t80.5 -7.5t85 -42.5t55.5 -99q11 -59 -43 -154t-154 -196t-228.5 -179t-267.5 -103.5t-269 32.5l286 1249l-12 12l76.5 15t186.5 32t217 27zM506 1129l22 -5l-9 -33.5t-22 -81.5
t-25 -94.5t-18.5 -75t-3.5 -22.5q7 11 44 55q42 49 90 109.5t72.5 106t-4.5 46.5zM505 528q-3 -1 -6 -1q-38 -10 -80.5 -68t-76 -123.5t-46.5 -97.5l39.5 18t91.5 46.5t93 61.5t47 63q-21 107 -62 101z" />
    <glyph glyph-name="c" unicode="c" horiz-adv-x="945" 
d="M965 1030q-50 -4 -133 -71.5t-145 -126.5q-15 -15 -27 -26q-40 132 -99.5 154.5t-122.5 -29t-114 -142.5t-74.5 -187.5t-3 -163t100.5 -68.5v0q8 -1 45.5 3.5t83.5 27.5t79 76q74 1 111 -1t54 -4q14 -2 26 -2t31 4q-80 -168 -205.5 -285.5t-259 -151t-239.5 51.5
q-68 62 -70.5 195.5t45.5 301t131.5 331t187.5 285.5t213.5 164.5t209 -32t175.5 -304.5z" />
    <glyph glyph-name="d" unicode="d" horiz-adv-x="989" 
d="M588 1268q93 10 167 -14q163 -98 208.5 -262t-9 -348t-188.5 -342.5t-329.5 -244.5t-432.5 -54q-4 16 25 161.5t73 345t84 377.5q27 126 45.5 208t19.5 94q181 60 337 79zM482 1013q-6 -14 -28.5 -123t-50.5 -247.5t-49 -245.5l-21 -107q102 127 167.5 249.5t67.5 241
t-86 232.5z" />
    <glyph glyph-name="e" unicode="e" horiz-adv-x="755" 
d="M775 1319l-3.5 -39t-9.5 -88.5t-13 -88.5t-14 -43q-9 -3 -47.5 -20.5t-85.5 -39t-82.5 -38l-35.5 -16.5l-7 -205l229 42l-9 -60t-35 -148q-11 -34 -39.5 -49t-63.5 -17.5t-68.5 2t-55.5 10.5l-22 6q-12 -7 -28.5 -58t-28.5 -117t-9.5 -118.5t30.5 -62.5q1 -15 21 -17.5
t50.5 2.5t60.5 13.5t51 15.5l21 7l-10 -145q-2 -8 -76 -23t-177 -25t-190.5 -3t-115.5 42q-12 6 -1.5 113.5t33 265t48 315t43.5 265.5l18 108q3 -11 83.5 10t192.5 59t210 78t136 67z" />
    <glyph glyph-name="f" unicode="f" horiz-adv-x="813" 
d="M237 1221l593 207l3 -251l-267 -40l-9 -36t-21 -86.5t-20.5 -97.5t-7.5 -73q2 -19 23.5 -24t53.5 -1t64 11.5t53.5 14.5l21.5 7l-3.5 -34t-10.5 -81.5t-16 -91.5q-9 -31 -49.5 -43.5t-91 -13t-89 3l-38.5 3.5l-2.5 -80t-6.5 -185.5t-9 -191t-10 -103.5q-8 -14 -68 -22.5
t-136.5 -12.5t-135 -5.5l-58.5 -1.5l33.5 173.5t77.5 402t80.5 417t45.5 235.5z" />
    <glyph glyph-name="g" unicode="g" horiz-adv-x="1038" 
d="M1058 1382q-5 -16 -13 -54.5t-16 -83t-13.5 -77l-5.5 -32.5q-178 -51 -292.5 -156.5t-175 -233t-76 -243.5t4.5 -188.5t66 -68.5q75 16 109 91.5t30 161.5t-45 133l-3.5 15.5t-5.5 37t0.5 41.5t13.5 31q14 10 77.5 21t142 21t138 16.5l59.5 6.5q-5 -150 -43 -296.5
t-117 -271.5q-70 -105 -183.5 -176.5t-244 -84.5t-251.5 59q-175 114 -194.5 290.5t72.5 369.5t254 357t350.5 253.5t361.5 60.5z" />
    <glyph glyph-name="h" unicode="h" horiz-adv-x="1067" 
d="M0 -66l280 1231q61 -23 124 -23q87 0 177 34l-10 -51q-24 -110 -53 -265q-21 -113 -21 -144q0 -8 2 -8l2 1q20 23 65 34q12 3 24 3q32 0 62 -22l105 571q24 -3 53 -3q154 0 277 60l-20 -123q-32 -198 -102 -653q-56 -364 -56 -401q0 -4 1 -4q0 3 -8 3q-45 0 -178 -37
q-193 -53 -212 -98l88 542h-7q-31 0 -47.5 -8.5t-43.5 -35.5l-103 -347q-45 -157 -45 -171v-1l1 2q0 4 -18 4q-44 0 -144 -20q-69 -13 -125 -32t-68 -38z" />
    <glyph glyph-name="i" unicode="i" horiz-adv-x="621" 
d="M235 1236q127 -36 217 -30t189 39l-203 -1225q-7 9 -70 4.5t-145 -16t-147 -23t-76 -17.5q27 37 71 233.5t87 439.5t66.5 420t10.5 175z" />
    <glyph glyph-name="j" unicode="j" horiz-adv-x="849" 
d="M244 1246q145 40 303.5 37.5t304.5 -40.5q3 -98 7 -178q10 -144 4.5 -257.5t-48.5 -239t-149 -304.5q-57 -90 -170 -150t-231.5 -90t-191.5 -30.5t-50 28.5l12 99q145 40 230.5 156.5t124 272.5t44.5 314t-7 281q-22 14 -58 9.5t-76 -14.5q-30 -8 -58 -13z" />
    <glyph glyph-name="k" unicode="k" horiz-adv-x="993" 
d="M197 1237q4 4 50.5 17t104.5 26t100.5 16.5t39.5 -10.5q3 -10 -1 -65t-10 -124t-11.5 -122l-5.5 -53l253 410q92 2 145 -7.5t86 -21.5q33 -11 65 -14l-412 -594q121 -253 294 -516q-82 -1 -158 -33t-149 -81q-10 20 -20 42q-41 85 -89.5 176t-104.5 163l-64 -394
q-19 0 -38 1q-50 3 -112 -5.5t-160 -50.5z" />
    <glyph glyph-name="l" unicode="l" horiz-adv-x="769" 
d="M282 1167q45 19 117 57q87 47 176 86t141 30l-346 -1077q66 15 127 33q68 20 136 33.5t144 8.5l-20 -227q-175 -24 -364 -59t-405 -89q56 185 122 461.5t136 583.5q18 79 36 159z" />
    <glyph glyph-name="m" unicode="m" horiz-adv-x="1316" 
d="M333 1234q46 -3 96 -8q58 -8 109 -10t79 12l129 -225l352 333q87 24 143 28t95 -1q-14 -18 -50 -137.5t-80.5 -287.5t-83.5 -330.5t-58.5 -266.5t-6.5 -97q2 8 -47.5 5t-118 -13t-122.5 -22.5t-62 -23.5l92 389l-243 -201l-106 136l-174 -493q-31 17 -89.5 14.5
t-126.5 -11.5q-31 -4 -60 -7q78 239 153 518.5t148 572.5z" />
    <glyph glyph-name="n" unicode="n" horiz-adv-x="1350" 
d="M395 1260q25 1 49 -1q40 -4 82 3t89 47l224 -473l201 609q68 -6 145 21t157 65q14 7 28 13q-139 -410 -260.5 -787t-206.5 -686h-12q-58 4 -127.5 -2.5t-175.5 -43.5l-101 472l-161 -519q10 8 -13.5 8.5t-66 -5t-90.5 -12.5q-42 -6 -78.5 -10.5t-57 -5t-15.5 5.5
q22 29 85 225.5t136 445.5t123 435.5t46 194.5z" />
    <glyph glyph-name="o" unicode="o" horiz-adv-x="1034" 
d="M708 1344q130 10 221 -73.5t112 -273.5q13 -236 -77.5 -440.5t-238 -347t-304 -194t-273.5 18t-148 290.5q8 301 119.5 525.5t272.5 353t316 141.5zM684 1081h-1v0q-109 -51 -182.5 -163t-111.5 -244.5t-41 -245t28.5 -164t96.5 -2.5q84 76 131.5 209t68 272.5
t21.5 236.5t-10 101z" />
    <glyph glyph-name="p" unicode="p" horiz-adv-x="998" 
d="M689 1338q71 5 129 -1.5t91 -29.5q89 -74 99 -210t-45.5 -285t-164.5 -264q-73 -67 -171 -106.5t-174.5 -56l-76.5 -16.5l-51 -372q-33 4 -64 10q-56 12 -118 14.5t-143 -24.5q69 249 124 542t105 599q8 48 16 95q-5 8 62.5 30t172 44.5t209.5 30.5zM491 1108
l-14.5 -63.5t-33 -149t-33 -161t-14.5 -100.5q1 -35 24.5 -55.5t63 -8t86.5 77.5q37 52 71.5 125.5t42.5 147t-34.5 126t-158.5 61.5z" />
    <glyph glyph-name="q" unicode="q" horiz-adv-x="1088" 
d="M777 1354q125 0 211 -89t105 -276q15 -257 -87.5 -478t-266.5 -371l134 -169l-37.5 -24t-90.5 -55t-103 -56t-76 -30q-20 -1 -41 46.5t-40 120.5q-117 -47 -219 -35t-173 95.5t-93 248.5q9 317 126.5 552.5t286 370.5t331.5 148q17 1 33 1zM719 1078q-1 0 -1 -1
q-128 -61 -209.5 -198.5t-116.5 -292.5t-24 -268.5t67 -124.5q-10 47 -15 77l-5 30l114 107l59 -75q73 140 105 312t35.5 299.5t-9.5 134.5z" />
    <glyph glyph-name="r" unicode="r" horiz-adv-x="951" 
d="M760 1393q60 4 99.5 -5t47.5 -37q52 -113 50 -258t-61 -276t-177 -202l252 -515q-110 -4 -204.5 -29.5t-181.5 -59.5l-192 393l-22 -340q-164 -14 -371 -69l220 1249q5 13 96 45.5t215 63.5t229 40zM587 1188q-45 -2 -123 -33l-14 -59t-31.5 -138t-31 -146.5t-13.5 -90.5
q3 -43 55.5 -29t126.5 126q43 68 80.5 155t34 151.5t-83.5 63.5z" />
    <glyph glyph-name="s" unicode="s" horiz-adv-x="830" 
d="M800 1336q-10 -14 -18 -65t-13 -112.5t-8 -108l-3 -46.5q-56 32 -118.5 11.5t-121 -70t-101.5 -104.5t-61 -92.5t1 -34.5q240 125 354.5 113t126.5 -112t-54.5 -237t-189 -262t-277 -187.5t-317.5 -12.5l72 389q89 -49 186.5 -24t172 79t94.5 93t-47 18
q-232 -80 -338 -45t-113 141.5t61 240t183.5 250t254 172t274.5 6.5z" />
    <glyph glyph-name="t" unicode="t" horiz-adv-x="898" 
d="M0 1381q110 0 257 31.5t293.5 73.5t263.5 79q59 18 104 31q-12 -62 -21 -185.5t-11 -259.5l-362 -19l-98 -1059q4 0 -40.5 4t-116.5 7.5t-151 2.5q-9 4 7.5 105t47 251.5t63 300.5t56 253.5l23.5 103.5l-307 -16z" />
    <glyph glyph-name="u" unicode="u" horiz-adv-x="1060" 
d="M238 1119q71 -39 130 -36t114 20q30 9 60 15l-29 -84.5t-66 -205.5t-64 -241t-26.5 -198t47.5 -75q71 11 124.5 105t91.5 228.5t61.5 268t34.5 224.5l11 91q13 1 25 1q78 0 158.5 10t169.5 49l-24.5 -146t-65.5 -342.5t-90 -364.5t-98 -226q-54 -53 -180.5 -109
t-269.5 -88.5t-245 -14t-107 115.5q1 103 36.5 267.5t82 332.5t83 285.5z" />
    <glyph glyph-name="v" unicode="v" horiz-adv-x="893" 
d="M0 1062q65 -1 129 9t120 50l104 -411l305 554q56 -16 110.5 -9t108.5 21l36 8q-186 -350 -320 -656t-248 -596q-122 12 -186.5 1.5t-110.5 -28.5l-30 -10q0 138 2 274q4 195 2 392t-22 401z" />
    <glyph glyph-name="w" unicode="w" horiz-adv-x="1531" 
d="M167 1401q25 0 49 -1q83 -4 160.5 1t140.5 35l-6 -97t-14.5 -237t-14.5 -279.5t-6 -232.5t10 -93q14 7 46 54.5t68.5 107t62.5 106l26 46.5q33 -8 66.5 -3.5t90.5 26.5l100 -129l275 774q80 -30 162 -41t168 21q-147 -342 -261 -650t-210 -597q-25 1 -47 5q-33 7 -72 4.5
t-96 -35.5l-117 202l-204 -299q-77 5 -175.5 -10.5t-203.5 -39.5q-85 -18 -165 -32q70 287 112.5 696t54.5 698z" />
    <glyph glyph-name="x" unicode="x" horiz-adv-x="1228" 
d="M304 1112q172 16 291 56q18 -42 35 -95q18 -59 37.5 -100.5t41.5 -33.5q47 48 97 118t101 148q33 51 66 99q0 -5 29 -6t70.5 1t82.5 6t67 8t24 7q-16 8 -84.5 -85t-150 -223t-137 -235t-47.5 -122q11 -100 30 -173t41 -136q20 -58 38 -123q-36 -6 -65 -6q-34 1 -85 -9.5
t-149 -54.5q-23 43 -77 158l-254 -284q18 10 -8.5 8.5t-76 -9.5t-101.5 -16q-37 -6 -65.5 -10.5t-41.5 -6t-2 3.5q31 16 83.5 79t111.5 146t108.5 159t74 119.5t8.5 27.5q1 98 -15.5 195.5t-39.5 194.5q-22 96 -38 194z" />
    <glyph glyph-name="y" unicode="y" horiz-adv-x="1054" 
d="M11 942l270 147l256 -251l297 405q104 -16 240 10q-207 -330 -355 -622t-263 -563q-75 4 -152.5 -15t-155.5 -45l-34 -10l26 44q49 79 97 174t92 236q-41 131 -131.5 247.5t-197.5 228.5z" />
    <glyph glyph-name="z" unicode="z" horiz-adv-x="997" 
d="M248 1442q232 -18 374.5 -2.5t254.5 42.5q89 20 190 34l-683 -1138q113 34 182.5 67.5t135.5 73.5q71 43 185 101q-21 -110 -23 -179.5t1 -118.5q4 -53 -1 -105q-109 -38 -188.5 -51t-149.5 -17q-93 -4 -212 -30.5t-314 -118.5l15 156q115 171 170 279.5t117 260.5
q61 151 195 447l-281 -26l9 52.5t17 127t6 145.5z" />
    <glyph glyph-name="Agrave" unicode="&#xc0;" 
d="M1064 1314q-37 -277 -50 -495t-17 -416q-4 -169 -13 -350q1 14 -48 14t-115 -8.5t-117.5 -18.5t-55.5 -15q-1 -5 1.5 34.5t7 102t9 126.5t8 108.5l3.5 44.5l-110 -13l-21 -47t-52.5 -114.5t-65 -133t-60 -106t-37.5 -32.5q-15 13 -65 17.5t-109 3t-104.5 -6.5t-51.5 -11
q-1 0 58.5 121t150.5 305q94 191 189.5 385t159 325.5t61.5 134.5zM734 841l-122 -210l16 1t38 4t40 9t24 16q4 11 5.5 39t1 60.5t-1.5 56.5zM836 1788l21.5 -47t49.5 -108.5t51 -109t28 -52.5q3 -3 -3.5 -7t-19 -8.5l-25 -9t-22 -7l-9.5 -2.5l-216 306z" />
    <glyph glyph-name="Aacute" unicode="&#xc1;" 
d="M1064 1314q-37 -277 -50 -495t-17 -416q-4 -169 -13 -350q1 14 -48 14t-115 -8.5t-117.5 -18.5t-55.5 -15q-1 -5 1.5 34.5t7 102t9 126.5t8 108.5l3.5 44.5l-110 -13l-21 -47t-52.5 -114.5t-65 -133t-60 -106t-37.5 -32.5q-15 13 -65 17.5t-109 3t-104.5 -6.5t-51.5 -11
q-1 0 58.5 121t150.5 305q94 191 189.5 385t159 325.5t61.5 134.5zM734 841l-122 -210l16 1t38 4t40 9t24 16q4 11 5.5 39t1 60.5t-1.5 56.5zM887 1745l145 -45l-216 -306l-9 2.5t-22 7t-25.5 9t-19 8.5t-3.5 7q6 5 29 52.5t51 109t49 108.5z" />
    <glyph glyph-name="Acircumflex" unicode="&#xc2;" 
d="M1064 1314q-37 -277 -50 -495t-17 -416q-4 -169 -13 -350q1 14 -48 14t-115 -8.5t-117.5 -18.5t-55.5 -15q-1 -5 1.5 34.5t7 102t9 126.5t8 108.5l3.5 44.5l-110 -13l-21 -47t-52.5 -114.5t-65 -133t-60 -106t-37.5 -32.5q-15 13 -65 17.5t-109 3t-104.5 -6.5t-51.5 -11
q-1 0 58.5 121t150.5 305q94 191 189.5 385t159 325.5t61.5 134.5zM734 841l-122 -210l16 1t38 4t40 9t24 16q4 11 5.5 39t1 60.5t-1.5 56.5zM851 1660l132 -158l-87 -73l-65 78q-7 -5 -13 -9q-6 -5 -14 -10t-21 -14q-12 -8 -28 -18.5t-28 -18l-12 -7.5q-13 38 -43 74
q-9 11 -17 23q37 26 68 43q42 23 85 60z" />
    <glyph glyph-name="Atilde" unicode="&#xc3;" 
d="M1064 1314q-37 -277 -50 -495t-17 -416q-4 -169 -13 -350q1 14 -48 14t-115 -8.5t-117.5 -18.5t-55.5 -15q-1 -5 1.5 34.5t7 102t9 126.5t8 108.5l3.5 44.5l-110 -13l-21 -47t-52.5 -114.5t-65 -133t-60 -106t-37.5 -32.5q-15 13 -65 17.5t-109 3t-104.5 -6.5t-51.5 -11
q-1 0 58.5 121t150.5 305q94 191 189.5 385t159 325.5t61.5 134.5zM734 841l-122 -210l16 1t38 4t40 9t24 16q4 11 5.5 39t1 60.5t-1.5 56.5zM943 1673q25 -36 45.5 -51.5t40.5 -24.5q-26 -30 -66.5 -66.5t-90.5 -55t-105 3.5q-28 17 -48 34q-26 27 -53.5 30t-78.5 -49
q-8 30 -28.5 48.5t-45.5 33.5q-1 1 -3 2q101 95 183 85q36 -6 59.5 -21t39.5 -31q19 -18 36.5 -25t44 11.5t70.5 75.5z" />
    <glyph glyph-name="Adieresis" unicode="&#xc4;" 
d="M1064 1314q-37 -277 -50 -495t-17 -416q-4 -169 -13 -350q1 14 -48 14t-115 -8.5t-117.5 -18.5t-55.5 -15q-1 -5 1.5 34.5t7 102t9 126.5t8 108.5l3.5 44.5l-110 -13l-21 -47t-52.5 -114.5t-65 -133t-60 -106t-37.5 -32.5q-15 13 -65 17.5t-109 3t-104.5 -6.5t-51.5 -11
q-1 0 58.5 121t150.5 305q94 191 189.5 385t159 325.5t61.5 134.5zM734 841l-122 -210l16 1t38 4t40 9t24 16q4 11 5.5 39t1 60.5t-1.5 56.5zM782 1554q26 -3 33.5 -23t-2.5 -37.5t-37 -14.5q-27 5 -34 24t3.5 35.5t36.5 15.5zM915 1552q26 -3 33.5 -23t-2.5 -37.5
t-37 -15.5q-27 6 -34 24.5t3.5 35t36.5 16.5z" />
    <glyph glyph-name="Aring" unicode="&#xc5;" 
d="M1064 1314q-37 -277 -50 -495t-17 -416q-4 -169 -13 -350q1 14 -48 14t-115 -8.5t-117.5 -18.5t-55.5 -15q-1 -5 1.5 34.5t7 102t9 126.5t8 108.5l3.5 44.5l-110 -13l-21 -47t-52.5 -114.5t-65 -133t-60 -106t-37.5 -32.5q-15 13 -65 17.5t-109 3t-104.5 -6.5t-51.5 -11
q-1 0 58.5 121t150.5 305q94 191 189.5 385t159 325.5t61.5 134.5zM734 841l-122 -210l16 1t38 4t40 9t24 16q4 11 5.5 39t1 60.5t-1.5 56.5zM836 1698q57 0 88.5 -43t25.5 -102q-8 -59 -49 -102t-98 -43t-88.5 43t-25.5 102q8 59 49 102t98 43zM825 1606q-12 0 -25.5 -14
t-17.5 -39q-2 -25 8.5 -39t22.5 -14q13 0 26.5 14t17.5 39q2 25 -8.5 39t-23.5 14z" />
    <glyph glyph-name="AE" unicode="&#xc6;" horiz-adv-x="1598" 
d="M1618 1315l-3.5 -38.5t-9.5 -88.5t-13 -88.5t-15 -43.5q-9 -3 -47 -20t-85 -38.5t-82.5 -38l-35.5 -16.5l-7 -205l229 42l-9.5 -60t-35.5 -148q-11 -34 -39 -49t-63.5 -17.5t-68.5 2t-55 10l-22 5.5q-12 -6 -29 -57t-29 -117.5t-9 -119t31 -62.5q0 -15 20.5 -17.5t50.5 3
t60.5 14t51 15l20.5 6.5l-10 -144q-2 -9 -76 -23.5t-176.5 -24.5t-190 -3t-115.5 42q-6 1 -6 23q-48 -5 -93.5 -12t-75.5 -13.5t-32 -10.5q-1 -5 1.5 34t7 102t9 127t8 108.5l3.5 44.5l-110 -14l-21 -47t-52.5 -114t-65 -132.5t-60 -106t-37.5 -33.5q-15 13 -65 17.5
t-109 3.5t-104.5 -6t-51.5 -11q-1 -1 58.5 120.5t150.5 305.5q94 191 189.5 384.5t159 325t61.5 134.5l444 45q-15 -109 -26 -208q69 15 190.5 54.5t234 84t155.5 74.5zM734 838l-122 -210l16 1t38 4t40 8.5t24 15.5q4 11 5.5 39.5t1 61t-1.5 56.5z" />
    <glyph glyph-name="Ccedilla" unicode="&#xc7;" horiz-adv-x="945" 
d="M657 1362q88 3 167 -79.5t141 -271.5q-50 -5 -133 -72.5t-145 -126.5q-15 -15 -27 -25q-40 131 -99.5 153.5t-122.5 -29t-114 -142.5t-74.5 -187t-3 -162.5t100.5 -69.5v0q8 -1 45.5 4t83.5 27.5t79 75.5q74 1 111 -1t54 -4q14 -2 25.5 -2t31.5 5q-143 -289 -376 -406
l-8 -30q31 -15 64 -38.5t62 -62.5q31 -42 34 -106q-2 -64 -44 -116q-74 -96 -284 -172l-64 170q96 37 145.5 68t60.5 47q1 1 1.5 2t1.5 2v0v0v0v0q-6 8 -23.5 21.5t-39.5 24.5q-21 11 -35 16.5l-14 5.5l-79 26l25 104q-71 8 -131 58q-73 67 -71 215t60 329.5t154 351.5
t211 280.5t230 116.5z" />
    <glyph glyph-name="Egrave" unicode="&#xc8;" horiz-adv-x="755" 
d="M775 1319l-3.5 -39t-9.5 -88.5t-13 -88.5t-14 -43q-9 -3 -47.5 -20.5t-85.5 -39t-82.5 -38l-35.5 -16.5l-7 -205l229 42l-9 -60t-35 -148q-11 -34 -39.5 -49t-63.5 -17.5t-68.5 2t-55.5 10.5l-22 6q-12 -7 -28.5 -58t-28.5 -117t-9.5 -118.5t30.5 -62.5q1 -15 21 -17.5
t50.5 2.5t60.5 13.5t51 15.5l21 7l-10 -145q-2 -8 -76 -23t-177 -25t-190.5 -3t-115.5 42q-12 6 -1.5 113.5t33 265t48 315t43.5 265.5l18 108q3 -11 83.5 10t192.5 59t210 78t136 67zM355 1796l21.5 -47t49.5 -108.5t51 -109t28 -52.5q3 -3 -3.5 -7t-19 -8.5l-25 -9t-22 -7
l-9.5 -2.5l-216 306z" />
    <glyph glyph-name="Eacute" unicode="&#xc9;" horiz-adv-x="755" 
d="M775 1319l-3.5 -39t-9.5 -88.5t-13 -88.5t-14 -43q-9 -3 -47.5 -20.5t-85.5 -39t-82.5 -38l-35.5 -16.5l-7 -205l229 42l-9 -60t-35 -148q-11 -34 -39.5 -49t-63.5 -17.5t-68.5 2t-55.5 10.5l-22 6q-12 -7 -28.5 -58t-28.5 -117t-9.5 -118.5t30.5 -62.5q1 -15 21 -17.5
t50.5 2.5t60.5 13.5t51 15.5l21 7l-10 -145q-2 -8 -76 -23t-177 -25t-190.5 -3t-115.5 42q-12 6 -1.5 113.5t33 265t48 315t43.5 265.5l18 108q3 -11 83.5 10t192.5 59t210 78t136 67zM482 1719l145 -45l-216 -306l-9 2.5t-22 7t-25.5 9t-19 8.5t-3.5 7q6 5 29 52.5t51 109
t49 108.5z" />
    <glyph glyph-name="Ecircumflex" unicode="&#xca;" horiz-adv-x="755" 
d="M775 1319l-3.5 -39t-9.5 -88.5t-13 -88.5t-14 -43q-9 -3 -47.5 -20.5t-85.5 -39t-82.5 -38l-35.5 -16.5l-7 -205l229 42l-9 -60t-35 -148q-11 -34 -39.5 -49t-63.5 -17.5t-68.5 2t-55.5 10.5l-22 6q-12 -7 -28.5 -58t-28.5 -117t-9.5 -118.5t30.5 -62.5q1 -15 21 -17.5
t50.5 2.5t60.5 13.5t51 15.5l21 7l-10 -145q-2 -8 -76 -23t-177 -25t-190.5 -3t-115.5 42q-12 6 -1.5 113.5t33 265t48 315t43.5 265.5l18 108q3 -11 83.5 10t192.5 59t210 78t136 67zM440 1707l132 -158l-87 -73l-65 78q-7 -5 -13 -9q-6 -5 -14 -10t-21 -14
q-12 -8 -28 -18.5t-28 -18l-12 -7.5q-13 38 -43 74q-9 11 -17 23q37 26 68 43q42 23 85 60z" />
    <glyph glyph-name="Edieresis" unicode="&#xcb;" horiz-adv-x="755" 
d="M775 1319l-3.5 -39t-9.5 -88.5t-13 -88.5t-14 -43q-9 -3 -47.5 -20.5t-85.5 -39t-82.5 -38l-35.5 -16.5l-7 -205l229 42l-9 -60t-35 -148q-11 -34 -39.5 -49t-63.5 -17.5t-68.5 2t-55.5 10.5l-22 6q-12 -7 -28.5 -58t-28.5 -117t-9.5 -118.5t30.5 -62.5q1 -15 21 -17.5
t50.5 2.5t60.5 13.5t51 15.5l21 7l-10 -145q-2 -8 -76 -23t-177 -25t-190.5 -3t-115.5 42q-12 6 -1.5 113.5t33 265t48 315t43.5 265.5l18 108q3 -11 83.5 10t192.5 59t210 78t136 67zM370 1545q26 -3 33.5 -23t-2.5 -37.5t-37 -14.5q-27 5 -34 24t3.5 35.5t36.5 15.5z
M503 1543q26 -3 33.5 -23t-2.5 -37.5t-37 -15.5q-27 6 -34 24.5t3.5 35t36.5 16.5z" />
    <glyph glyph-name="Igrave" unicode="&#xcc;" horiz-adv-x="621" 
d="M235 1236q127 -36 217 -30t189 39l-203 -1225q-7 9 -70 4.5t-145 -16t-147 -23t-76 -17.5q27 37 71 233.5t87 439.5t66.5 420t10.5 175zM355 1796l21.5 -47t49.5 -108.5t51 -109t28 -52.5q3 -3 -3.5 -7t-19 -8.5l-25 -9t-22 -7l-9.5 -2.5l-216 306z" />
    <glyph glyph-name="Iacute" unicode="&#xcd;" horiz-adv-x="621" 
d="M235 1236q127 -36 217 -30t189 39l-203 -1225q-7 9 -70 4.5t-145 -16t-147 -23t-76 -17.5q27 37 71 233.5t87 439.5t66.5 420t10.5 175zM438 1756l145 -45l-216 -306l-9 2.5t-22 7t-25.5 9t-19 8.5t-3.5 7q6 5 29 52.5t51 109t49 108.5z" />
    <glyph glyph-name="Icircumflex" unicode="&#xce;" horiz-adv-x="621" 
d="M235 1236q127 -36 217 -30t189 39l-203 -1225q-7 9 -70 4.5t-145 -16t-147 -23t-76 -17.5q27 37 71 233.5t87 439.5t66.5 420t10.5 175zM440 1667l132 -158l-87 -73l-65 78q-7 -5 -13 -9q-6 -5 -14 -10t-21 -14q-12 -8 -28 -18.5t-28 -18l-12 -7.5q-13 38 -43 74
q-9 11 -17 23q37 26 68 43q42 23 85 60z" />
    <glyph glyph-name="Idieresis" unicode="&#xcf;" horiz-adv-x="621" 
d="M235 1236q127 -36 217 -30t189 39l-203 -1225q-7 9 -70 4.5t-145 -16t-147 -23t-76 -17.5q27 37 71 233.5t87 439.5t66.5 420t10.5 175zM370 1545q26 -3 33.5 -23t-2.5 -37.5t-37 -14.5q-27 5 -34 24t3.5 35.5t36.5 15.5zM503 1543q26 -3 33.5 -23t-2.5 -37.5t-37 -15.5
q-27 6 -34 24.5t3.5 35t36.5 16.5z" />
    <glyph glyph-name="Eth" unicode="&#xd0;" horiz-adv-x="988" 
d="M644 1275q60 0 110 -17q164 -98 209 -262t-9 -348.5t-188 -342.5t-329.5 -244t-432.5 -54q-4 20 32.5 198t86.5 407l-115 5l58 179l-3 -12t94 -20q14 63 27 121q28 127 46.5 211.5t20.5 96.5q180 60 337 79v0q29 3 56 3zM481 1017q-4 -10 -20.5 -87t-38.5 -186
q103 -6 118 -3q8 3 7 -8t-6 -29t-11.5 -36.5t-12 -32l-5.5 -13.5l-115 -3q-26 -130 -45 -227.5l-19 -97.5q102 127 167.5 249.5t67.5 241t-87 232.5z" />
    <glyph glyph-name="Ntilde" unicode="&#xd1;" horiz-adv-x="1350" 
d="M395 1260q25 1 49 -1q40 -4 82 3t89 47l224 -473l201 609q68 -6 145 21t157 65q14 7 28 13q-139 -410 -260.5 -787t-206.5 -686h-12q-58 4 -127.5 -2.5t-175.5 -43.5l-101 472l-161 -519q10 8 -13.5 8.5t-66 -5t-90.5 -12.5q-42 -6 -78.5 -10.5t-57 -5t-15.5 5.5
q22 29 85 225.5t136 445.5t123 435.5t46 194.5zM943 1709q25 -36 45.5 -51.5t40.5 -24.5q-26 -30 -66.5 -66.5t-90.5 -55t-105 3.5q-28 17 -48 34q-26 27 -53.5 30t-78.5 -49q-8 30 -28.5 48.5t-45.5 33.5q-1 1 -3 2q101 95 183 85q36 -6 59.5 -21t39.5 -31q19 -18 36.5 -25
t44 11.5t70.5 75.5z" />
    <glyph glyph-name="Ograve" unicode="&#xd2;" horiz-adv-x="1034" 
d="M708 1344q130 10 221 -73.5t112 -273.5q13 -236 -77.5 -440.5t-238 -347t-304 -194t-273.5 18t-148 290.5q8 301 119.5 525.5t272.5 353t316 141.5zM684 1081h-1v0q-109 -51 -182.5 -163t-111.5 -244.5t-41 -245t28.5 -164t96.5 -2.5q84 76 131.5 209t68 272.5
t21.5 236.5t-10 101zM532 1771l21.5 -47t49.5 -108.5t51 -109t28 -52.5q3 -3 -3.5 -7t-19 -8.5l-25 -9t-22 -7l-9.5 -2.5l-216 306z" />
    <glyph glyph-name="Oacute" unicode="&#xd3;" horiz-adv-x="1034" 
d="M708 1344q130 10 221 -73.5t112 -273.5q13 -236 -77.5 -440.5t-238 -347t-304 -194t-273.5 18t-148 290.5q8 301 119.5 525.5t272.5 353t316 141.5zM684 1081h-1v0q-109 -51 -182.5 -163t-111.5 -244.5t-41 -245t28.5 -164t96.5 -2.5q84 76 131.5 209t68 272.5
t21.5 236.5t-10 101zM664 1746l145 -45l-216 -306l-9 2.5t-22 7t-25.5 9t-19 8.5t-3.5 7q6 5 29 52.5t51 109t49 108.5z" />
    <glyph glyph-name="Ocircumflex" unicode="&#xd4;" horiz-adv-x="1034" 
d="M708 1344q130 10 221 -73.5t112 -273.5q13 -236 -77.5 -440.5t-238 -347t-304 -194t-273.5 18t-148 290.5q8 301 119.5 525.5t272.5 353t316 141.5zM684 1081h-1v0q-109 -51 -182.5 -163t-111.5 -244.5t-41 -245t28.5 -164t96.5 -2.5q84 76 131.5 209t68 272.5
t21.5 236.5t-10 101zM689 1687l132 -158l-87 -73l-65 78q-7 -5 -13 -9q-6 -5 -14 -10t-21 -14q-12 -8 -28 -18.5t-28 -18l-12 -7.5q-13 38 -43 74q-9 11 -17 23q37 26 68 43q42 23 85 60z" />
    <glyph glyph-name="Otilde" unicode="&#xd5;" horiz-adv-x="1034" 
d="M708 1344q130 10 221 -73.5t112 -273.5q13 -236 -77.5 -440.5t-238 -347t-304 -194t-273.5 18t-148 290.5q8 301 119.5 525.5t272.5 353t316 141.5zM684 1081h-1v0q-109 -51 -182.5 -163t-111.5 -244.5t-41 -245t28.5 -164t96.5 -2.5q84 76 131.5 209t68 272.5
t21.5 236.5t-10 101zM735 1685q25 -36 45.5 -51.5t40.5 -24.5q-26 -30 -66.5 -66.5t-90.5 -55t-105 3.5q-28 17 -48 34q-26 27 -53.5 30t-78.5 -49q-8 30 -28.5 48.5t-45.5 33.5q-1 1 -3 2q101 95 183 85q36 -6 59.5 -21t39.5 -31q19 -18 36.5 -25t44 11.5t70.5 75.5z" />
    <glyph glyph-name="Odieresis" unicode="&#xd6;" horiz-adv-x="1034" 
d="M708 1344q130 10 221 -73.5t112 -273.5q13 -236 -77.5 -440.5t-238 -347t-304 -194t-273.5 18t-148 290.5q8 301 119.5 525.5t272.5 353t316 141.5zM684 1081h-1v0q-109 -51 -182.5 -163t-111.5 -244.5t-41 -245t28.5 -164t96.5 -2.5q84 76 131.5 209t68 272.5
t21.5 236.5t-10 101zM696 1541q26 -3 33.5 -23t-2.5 -37.5t-37 -14.5q-27 5 -34 24t3.5 35.5t36.5 15.5zM829 1539q26 -3 33.5 -23t-2.5 -37.5t-37 -15.5q-27 6 -34 24.5t3.5 35t36.5 16.5z" />
    <glyph glyph-name="multiply" unicode="&#xd7;" horiz-adv-x="697" 
d="M618 861q10 -9 21.5 -21t21.5 -25t16.5 -21.5l6.5 -8.5l-229 -228q107 -76 184.5 -131l77.5 -55l-109 -142l-259 222l-230 -229l-119 133l68.5 57t165.5 137l-229 196l7.5 11t18 26.5t22.5 29.5t21.5 20t13.5 -1q7 -10 79.5 -64t173.5 -127q101 85 174.5 149t80.5 75
q2 6 8 4.5t14 -7.5z" />
    <glyph glyph-name="Oslash" unicode="&#xd8;" horiz-adv-x="1053" 
d="M940 1507l122 -145l-22.5 -34t-57.5 -88q62 -83 78 -234q13 -227 -70.5 -424.5t-222 -340.5t-290 -204t-272.5 -15q-124 -199 -137 -232q-6 -21 -14.5 -10.5t-18 38.5t-17.5 60t-13 56l-5 24l94 155q-57 78 -75 219q9 302 120.5 526.5t272 352.5t315.5 141q60 5 113 -10z
M680 1079q-118 -68 -191 -203t-103 -281zM698 799q-160 -250 -317 -496q15 -43 42.5 -54t69.5 22q90 83 139 231.5t66 296.5z" />
    <glyph glyph-name="Ugrave" unicode="&#xd9;" horiz-adv-x="1060" 
d="M238 1119q71 -39 130 -36t114 20q30 9 60 15l-29 -84.5t-66 -205.5t-64 -241t-26.5 -198t47.5 -75q71 11 124.5 105t91.5 228.5t61.5 268t34.5 224.5l11 91q13 1 25 1q78 0 158.5 10t169.5 49l-24.5 -146t-65.5 -342.5t-90 -364.5t-98 -226q-54 -53 -180.5 -109
t-269.5 -88.5t-245 -14t-107 115.5q1 103 36.5 267.5t82 332.5t83 285.5zM499 1771l21.5 -47t49.5 -108.5t51 -109t28 -52.5q3 -3 -3.5 -7t-19 -8.5l-25 -9t-22 -7l-9.5 -2.5l-216 306z" />
    <glyph glyph-name="Uacute" unicode="&#xda;" horiz-adv-x="1060" 
d="M238 1119q71 -39 130 -36t114 20q30 9 60 15l-29 -84.5t-66 -205.5t-64 -241t-26.5 -198t47.5 -75q71 11 124.5 105t91.5 228.5t61.5 268t34.5 224.5l11 91q13 1 25 1q78 0 158.5 10t169.5 49l-24.5 -146t-65.5 -342.5t-90 -364.5t-98 -226q-54 -53 -180.5 -109
t-269.5 -88.5t-245 -14t-107 115.5q1 103 36.5 267.5t82 332.5t83 285.5zM655 1691l145 -45l-216 -306l-9 2.5t-22 7t-25.5 9t-19 8.5t-3.5 7q6 5 29 52.5t51 109t49 108.5z" />
    <glyph glyph-name="Ucircumflex" unicode="&#xdb;" horiz-adv-x="1060" 
d="M238 1119q71 -39 130 -36t114 20q30 9 60 15l-29 -84.5t-66 -205.5t-64 -241t-26.5 -198t47.5 -75q71 11 124.5 105t91.5 228.5t61.5 268t34.5 224.5l11 91q13 1 25 1q78 0 158.5 10t169.5 49l-24.5 -146t-65.5 -342.5t-90 -364.5t-98 -226q-54 -53 -180.5 -109
t-269.5 -88.5t-245 -14t-107 115.5q1 103 36.5 267.5t82 332.5t83 285.5zM620 1707l132 -158l-87 -73l-65 78q-7 -5 -13 -9q-6 -5 -14 -10t-21 -14q-12 -8 -28 -18.5t-28 -18l-12 -7.5q-13 38 -43 74q-9 11 -17 23q37 26 68 43q42 23 85 60z" />
    <glyph glyph-name="Udieresis" unicode="&#xdc;" horiz-adv-x="1060" 
d="M238 1119q71 -39 130 -36t114 20q30 9 60 15l-29 -84.5t-66 -205.5t-64 -241t-26.5 -198t47.5 -75q71 11 124.5 105t91.5 228.5t61.5 268t34.5 224.5l11 91q13 1 25 1q78 0 158.5 10t169.5 49l-24.5 -146t-65.5 -342.5t-90 -364.5t-98 -226q-54 -53 -180.5 -109
t-269.5 -88.5t-245 -14t-107 115.5q1 103 36.5 267.5t82 332.5t83 285.5zM569 1515q26 -3 33.5 -23t-2.5 -37.5t-37 -14.5q-27 5 -34 24t3.5 35.5t36.5 15.5zM702 1513q26 -3 33.5 -23t-2.5 -37.5t-37 -15.5q-27 6 -34 24.5t3.5 35t36.5 16.5z" />
    <glyph glyph-name="Yacute" unicode="&#xdd;" horiz-adv-x="1054" 
d="M11 942l270 147l256 -251l297 405q104 -16 240 10q-207 -330 -355 -622t-263 -563q-75 4 -152.5 -15t-155.5 -45l-34 -10l26 44q49 79 97 174t92 236q-41 131 -131.5 247.5t-197.5 228.5zM600 1673l145 -45l-216 -306l-9 2.5t-22 7t-25.5 9t-19 8.5t-3.5 7q6 5 29 52.5
t51 109t49 108.5z" />
    <glyph glyph-name="Thorn" unicode="&#xde;" horiz-adv-x="1128" 
d="M640 1276l-39 -240q66 10 126 13v0q93 6 167 -9q173 -65 213.5 -176t-29 -233t-226.5 -220.5t-378 -139.5l-37 -220q-6 9 -69 4.5t-145 -15.5t-147 -22.5t-76 -17.5q26 35 68 221.5t84 421.5t67.5 416.5t18.5 207.5q126 -35 215 -29.5t187 38.5zM238 1267h-2h-1q1 2 3 0z
M621 890q-6 -10 -31.5 -87t-55.5 -170l-28 -167q92 75 147.5 146.5t53 141t-85.5 136.5z" />
    <glyph glyph-name="germandbls" unicode="&#xdf;" horiz-adv-x="1115" 
d="M0 8q11 93 42.5 249t84.5 338t127 352.5t170 291.5t214 155.5t258 -56.5q106 -73 126.5 -160t-9 -181.5t-75.5 -187.5q-37 -78 -63 -151q92 -64 154 -133t83 -149q23 -108 -24.5 -198.5t-125.5 -137.5q-152 -95 -330 -51q-91 25 -158 108t-68 197q70 -13 135.5 -12.5
t129.5 5.5q9 1 19 2q0 -78 37.5 -108.5t106.5 14.5q33 25 16.5 63.5t-62.5 84t-102 93.5q-77 65 -128 123q5 10 12 22q31 55 75.5 140t79 173t36 150.5t-53.5 72.5q-45 3 -88 -58.5t-79.5 -152t-63 -176.5t-38.5 -133q-41 -154 -66 -293.5t-37.5 -229.5l-12.5 -90
q-108 38 -322 24z" />
    <glyph glyph-name="agrave" unicode="&#xe0;" 
d="M1064 1314q-37 -277 -50 -495t-17 -416q-4 -169 -13 -350q1 14 -48 14t-115 -8.5t-117.5 -18.5t-55.5 -15q-1 -5 1.5 34.5t7 102t9 126.5t8 108.5l3.5 44.5l-110 -13l-21 -47t-52.5 -114.5t-65 -133t-60 -106t-37.5 -32.5q-15 13 -65 17.5t-109 3t-104.5 -6.5t-51.5 -11
q-1 0 58.5 121t150.5 305q94 191 189.5 385t159 325.5t61.5 134.5zM734 841l-122 -210l16 1t38 4t40 9t24 16q4 11 5.5 39t1 60.5t-1.5 56.5zM836 1788l21.5 -47t49.5 -108.5t51 -109t28 -52.5q3 -3 -3.5 -7t-19 -8.5l-25 -9t-22 -7l-9.5 -2.5l-216 306z" />
    <glyph glyph-name="aacute" unicode="&#xe1;" 
d="M1064 1314q-37 -277 -50 -495t-17 -416q-4 -169 -13 -350q1 14 -48 14t-115 -8.5t-117.5 -18.5t-55.5 -15q-1 -5 1.5 34.5t7 102t9 126.5t8 108.5l3.5 44.5l-110 -13l-21 -47t-52.5 -114.5t-65 -133t-60 -106t-37.5 -32.5q-15 13 -65 17.5t-109 3t-104.5 -6.5t-51.5 -11
q-1 0 58.5 121t150.5 305q94 191 189.5 385t159 325.5t61.5 134.5zM734 841l-122 -210l16 1t38 4t40 9t24 16q4 11 5.5 39t1 60.5t-1.5 56.5zM887 1745l145 -45l-216 -306l-9 2.5t-22 7t-25.5 9t-19 8.5t-3.5 7q6 5 29 52.5t51 109t49 108.5z" />
    <glyph glyph-name="acircumflex" unicode="&#xe2;" 
d="M1064 1314q-37 -277 -50 -495t-17 -416q-4 -169 -13 -350q1 14 -48 14t-115 -8.5t-117.5 -18.5t-55.5 -15q-1 -5 1.5 34.5t7 102t9 126.5t8 108.5l3.5 44.5l-110 -13l-21 -47t-52.5 -114.5t-65 -133t-60 -106t-37.5 -32.5q-15 13 -65 17.5t-109 3t-104.5 -6.5t-51.5 -11
q-1 0 58.5 121t150.5 305q94 191 189.5 385t159 325.5t61.5 134.5zM734 841l-122 -210l16 1t38 4t40 9t24 16q4 11 5.5 39t1 60.5t-1.5 56.5zM851 1660l132 -158l-87 -73l-65 78q-7 -5 -13 -9q-6 -5 -14 -10t-21 -14q-12 -8 -28 -18.5t-28 -18l-12 -7.5q-13 38 -43 74
q-9 11 -17 23q37 26 68 43q42 23 85 60z" />
    <glyph glyph-name="atilde" unicode="&#xe3;" 
d="M1064 1314q-37 -277 -50 -495t-17 -416q-4 -169 -13 -350q1 14 -48 14t-115 -8.5t-117.5 -18.5t-55.5 -15q-1 -5 1.5 34.5t7 102t9 126.5t8 108.5l3.5 44.5l-110 -13l-21 -47t-52.5 -114.5t-65 -133t-60 -106t-37.5 -32.5q-15 13 -65 17.5t-109 3t-104.5 -6.5t-51.5 -11
q-1 0 58.5 121t150.5 305q94 191 189.5 385t159 325.5t61.5 134.5zM734 841l-122 -210l16 1t38 4t40 9t24 16q4 11 5.5 39t1 60.5t-1.5 56.5zM943 1673q25 -36 45.5 -51.5t40.5 -24.5q-26 -30 -66.5 -66.5t-90.5 -55t-105 3.5q-28 17 -48 34q-26 27 -53.5 30t-78.5 -49
q-8 30 -28.5 48.5t-45.5 33.5q-1 1 -3 2q101 95 183 85q36 -6 59.5 -21t39.5 -31q19 -18 36.5 -25t44 11.5t70.5 75.5z" />
    <glyph glyph-name="adieresis" unicode="&#xe4;" 
d="M1064 1314q-37 -277 -50 -495t-17 -416q-4 -169 -13 -350q1 14 -48 14t-115 -8.5t-117.5 -18.5t-55.5 -15q-1 -5 1.5 34.5t7 102t9 126.5t8 108.5l3.5 44.5l-110 -13l-21 -47t-52.5 -114.5t-65 -133t-60 -106t-37.5 -32.5q-15 13 -65 17.5t-109 3t-104.5 -6.5t-51.5 -11
q-1 0 58.5 121t150.5 305q94 191 189.5 385t159 325.5t61.5 134.5zM734 841l-122 -210l16 1t38 4t40 9t24 16q4 11 5.5 39t1 60.5t-1.5 56.5zM782 1554q26 -3 33.5 -23t-2.5 -37.5t-37 -14.5q-27 5 -34 24t3.5 35.5t36.5 15.5zM915 1552q26 -3 33.5 -23t-2.5 -37.5
t-37 -15.5q-27 6 -34 24.5t3.5 35t36.5 16.5z" />
    <glyph glyph-name="aring" unicode="&#xe5;" 
d="M1064 1314q-37 -277 -50 -495t-17 -416q-4 -169 -13 -350q1 14 -48 14t-115 -8.5t-117.5 -18.5t-55.5 -15q-1 -5 1.5 34.5t7 102t9 126.5t8 108.5l3.5 44.5l-110 -13l-21 -47t-52.5 -114.5t-65 -133t-60 -106t-37.5 -32.5q-15 13 -65 17.5t-109 3t-104.5 -6.5t-51.5 -11
q-1 0 58.5 121t150.5 305q94 191 189.5 385t159 325.5t61.5 134.5zM734 841l-122 -210l16 1t38 4t40 9t24 16q4 11 5.5 39t1 60.5t-1.5 56.5zM836 1698q57 0 88.5 -43t25.5 -102q-8 -59 -49 -102t-98 -43t-88.5 43t-25.5 102q8 59 49 102t98 43zM825 1606q-12 0 -25.5 -14
t-17.5 -39q-2 -25 8.5 -39t22.5 -14q13 0 26.5 14t17.5 39q2 25 -8.5 39t-23.5 14z" />
    <glyph glyph-name="ae" unicode="&#xe6;" horiz-adv-x="1598" 
d="M1618 1315l-3.5 -38.5t-9.5 -88.5t-13 -88.5t-15 -43.5q-9 -3 -47 -20t-85 -38.5t-82.5 -38l-35.5 -16.5l-7 -205l229 42l-9.5 -60t-35.5 -148q-11 -34 -39 -49t-63.5 -17.5t-68.5 2t-55 10l-22 5.5q-12 -6 -29 -57t-29 -117.5t-9 -119t31 -62.5q0 -15 20.5 -17.5t50.5 3
t60.5 14t51 15l20.5 6.5l-10 -144q-2 -9 -76 -23.5t-176.5 -24.5t-190 -3t-115.5 42q-6 1 -6 23q-48 -5 -93.5 -12t-75.5 -13.5t-32 -10.5q-1 -5 1.5 34t7 102t9 127t8 108.5l3.5 44.5l-110 -14l-21 -47t-52.5 -114t-65 -132.5t-60 -106t-37.5 -33.5q-15 13 -65 17.5
t-109 3.5t-104.5 -6t-51.5 -11q-1 -1 58.5 120.5t150.5 305.5q94 191 189.5 384.5t159 325t61.5 134.5l444 45q-15 -109 -26 -208q69 15 190.5 54.5t234 84t155.5 74.5zM734 838l-122 -210l16 1t38 4t40 8.5t24 15.5q4 11 5.5 39.5t1 61t-1.5 56.5z" />
    <glyph glyph-name="ccedilla" unicode="&#xe7;" horiz-adv-x="945" 
d="M657 1362q88 3 167 -79.5t141 -271.5q-50 -5 -133 -72.5t-145 -126.5q-15 -15 -27 -25q-40 131 -99.5 153.5t-122.5 -29t-114 -142.5t-74.5 -187t-3 -162.5t100.5 -69.5v0q8 -1 45.5 4t83.5 27.5t79 75.5q74 1 111 -1t54 -4q14 -2 25.5 -2t31.5 5q-143 -289 -376 -406
l-8 -30q31 -15 64 -38.5t62 -62.5q31 -42 34 -106q-2 -64 -44 -116q-74 -96 -284 -172l-64 170q96 37 145.5 68t60.5 47q1 1 1.5 2t1.5 2v0v0v0v0q-6 8 -23.5 21.5t-39.5 24.5q-21 11 -35 16.5l-14 5.5l-79 26l25 104q-71 8 -131 58q-73 67 -71 215t60 329.5t154 351.5
t211 280.5t230 116.5z" />
    <glyph glyph-name="egrave" unicode="&#xe8;" horiz-adv-x="755" 
d="M775 1319l-3.5 -39t-9.5 -88.5t-13 -88.5t-14 -43q-9 -3 -47.5 -20.5t-85.5 -39t-82.5 -38l-35.5 -16.5l-7 -205l229 42l-9 -60t-35 -148q-11 -34 -39.5 -49t-63.5 -17.5t-68.5 2t-55.5 10.5l-22 6q-12 -7 -28.5 -58t-28.5 -117t-9.5 -118.5t30.5 -62.5q1 -15 21 -17.5
t50.5 2.5t60.5 13.5t51 15.5l21 7l-10 -145q-2 -8 -76 -23t-177 -25t-190.5 -3t-115.5 42q-12 6 -1.5 113.5t33 265t48 315t43.5 265.5l18 108q3 -11 83.5 10t192.5 59t210 78t136 67zM355 1796l21.5 -47t49.5 -108.5t51 -109t28 -52.5q3 -3 -3.5 -7t-19 -8.5l-25 -9t-22 -7
l-9.5 -2.5l-216 306z" />
    <glyph glyph-name="eacute" unicode="&#xe9;" horiz-adv-x="755" 
d="M775 1319l-3.5 -39t-9.5 -88.5t-13 -88.5t-14 -43q-9 -3 -47.5 -20.5t-85.5 -39t-82.5 -38l-35.5 -16.5l-7 -205l229 42l-9 -60t-35 -148q-11 -34 -39.5 -49t-63.5 -17.5t-68.5 2t-55.5 10.5l-22 6q-12 -7 -28.5 -58t-28.5 -117t-9.5 -118.5t30.5 -62.5q1 -15 21 -17.5
t50.5 2.5t60.5 13.5t51 15.5l21 7l-10 -145q-2 -8 -76 -23t-177 -25t-190.5 -3t-115.5 42q-12 6 -1.5 113.5t33 265t48 315t43.5 265.5l18 108q3 -11 83.5 10t192.5 59t210 78t136 67zM482 1719l145 -45l-216 -306l-9 2.5t-22 7t-25.5 9t-19 8.5t-3.5 7q6 5 29 52.5t51 109
t49 108.5z" />
    <glyph glyph-name="ecircumflex" unicode="&#xea;" horiz-adv-x="755" 
d="M775 1319l-3.5 -39t-9.5 -88.5t-13 -88.5t-14 -43q-9 -3 -47.5 -20.5t-85.5 -39t-82.5 -38l-35.5 -16.5l-7 -205l229 42l-9 -60t-35 -148q-11 -34 -39.5 -49t-63.5 -17.5t-68.5 2t-55.5 10.5l-22 6q-12 -7 -28.5 -58t-28.5 -117t-9.5 -118.5t30.5 -62.5q1 -15 21 -17.5
t50.5 2.5t60.5 13.5t51 15.5l21 7l-10 -145q-2 -8 -76 -23t-177 -25t-190.5 -3t-115.5 42q-12 6 -1.5 113.5t33 265t48 315t43.5 265.5l18 108q3 -11 83.5 10t192.5 59t210 78t136 67zM440 1707l132 -158l-87 -73l-65 78q-7 -5 -13 -9q-6 -5 -14 -10t-21 -14
q-12 -8 -28 -18.5t-28 -18l-12 -7.5q-13 38 -43 74q-9 11 -17 23q37 26 68 43q42 23 85 60z" />
    <glyph glyph-name="edieresis" unicode="&#xeb;" horiz-adv-x="755" 
d="M775 1319l-3.5 -39t-9.5 -88.5t-13 -88.5t-14 -43q-9 -3 -47.5 -20.5t-85.5 -39t-82.5 -38l-35.5 -16.5l-7 -205l229 42l-9 -60t-35 -148q-11 -34 -39.5 -49t-63.5 -17.5t-68.5 2t-55.5 10.5l-22 6q-12 -7 -28.5 -58t-28.5 -117t-9.5 -118.5t30.5 -62.5q1 -15 21 -17.5
t50.5 2.5t60.5 13.5t51 15.5l21 7l-10 -145q-2 -8 -76 -23t-177 -25t-190.5 -3t-115.5 42q-12 6 -1.5 113.5t33 265t48 315t43.5 265.5l18 108q3 -11 83.5 10t192.5 59t210 78t136 67zM370 1545q26 -3 33.5 -23t-2.5 -37.5t-37 -14.5q-27 5 -34 24t3.5 35.5t36.5 15.5z
M503 1543q26 -3 33.5 -23t-2.5 -37.5t-37 -15.5q-27 6 -34 24.5t3.5 35t36.5 16.5z" />
    <glyph glyph-name="igrave" unicode="&#xec;" horiz-adv-x="621" 
d="M235 1236q127 -36 217 -30t189 39l-203 -1225q-7 9 -70 4.5t-145 -16t-147 -23t-76 -17.5q27 37 71 233.5t87 439.5t66.5 420t10.5 175zM355 1796l21.5 -47t49.5 -108.5t51 -109t28 -52.5q3 -3 -3.5 -7t-19 -8.5l-25 -9t-22 -7l-9.5 -2.5l-216 306z" />
    <glyph glyph-name="iacute" unicode="&#xed;" horiz-adv-x="621" 
d="M235 1236q127 -36 217 -30t189 39l-203 -1225q-7 9 -70 4.5t-145 -16t-147 -23t-76 -17.5q27 37 71 233.5t87 439.5t66.5 420t10.5 175zM438 1756l145 -45l-216 -306l-9 2.5t-22 7t-25.5 9t-19 8.5t-3.5 7q6 5 29 52.5t51 109t49 108.5z" />
    <glyph glyph-name="icircumflex" unicode="&#xee;" horiz-adv-x="621" 
d="M235 1236q127 -36 217 -30t189 39l-203 -1225q-7 9 -70 4.5t-145 -16t-147 -23t-76 -17.5q27 37 71 233.5t87 439.5t66.5 420t10.5 175zM440 1667l132 -158l-87 -73l-65 78q-7 -5 -13 -9q-6 -5 -14 -10t-21 -14q-12 -8 -28 -18.5t-28 -18l-12 -7.5q-13 38 -43 74
q-9 11 -17 23q37 26 68 43q42 23 85 60z" />
    <glyph glyph-name="idieresis" unicode="&#xef;" horiz-adv-x="621" 
d="M235 1236q127 -36 217 -30t189 39l-203 -1225q-7 9 -70 4.5t-145 -16t-147 -23t-76 -17.5q27 37 71 233.5t87 439.5t66.5 420t10.5 175zM370 1545q26 -3 33.5 -23t-2.5 -37.5t-37 -14.5q-27 5 -34 24t3.5 35.5t36.5 15.5zM503 1543q26 -3 33.5 -23t-2.5 -37.5t-37 -15.5
q-27 6 -34 24.5t3.5 35t36.5 16.5z" />
    <glyph glyph-name="eth" unicode="&#xf0;" horiz-adv-x="988" 
d="M644 1275q60 0 110 -17q164 -98 209 -262t-9 -348.5t-188 -342.5t-329.5 -244t-432.5 -54q-4 20 32.5 198t86.5 407l-115 5l58 179l-3 -12t94 -20q14 63 27 121q28 127 46.5 211.5t20.5 96.5q180 60 337 79v0q29 3 56 3zM481 1017q-4 -10 -20.5 -87t-38.5 -186
q103 -6 118 -3q8 3 7 -8t-6 -29t-11.5 -36.5t-12 -32l-5.5 -13.5l-115 -3q-26 -130 -45 -227.5l-19 -97.5q102 127 167.5 249.5t67.5 241t-87 232.5z" />
    <glyph glyph-name="ntilde" unicode="&#xf1;" horiz-adv-x="1350" 
d="M395 1260q25 1 49 -1q40 -4 82 3t89 47l224 -473l201 609q68 -6 145 21t157 65q14 7 28 13q-139 -410 -260.5 -787t-206.5 -686h-12q-58 4 -127.5 -2.5t-175.5 -43.5l-101 472l-161 -519q10 8 -13.5 8.5t-66 -5t-90.5 -12.5q-42 -6 -78.5 -10.5t-57 -5t-15.5 5.5
q22 29 85 225.5t136 445.5t123 435.5t46 194.5zM943 1709q25 -36 45.5 -51.5t40.5 -24.5q-26 -30 -66.5 -66.5t-90.5 -55t-105 3.5q-28 17 -48 34q-26 27 -53.5 30t-78.5 -49q-8 30 -28.5 48.5t-45.5 33.5q-1 1 -3 2q101 95 183 85q36 -6 59.5 -21t39.5 -31q19 -18 36.5 -25
t44 11.5t70.5 75.5z" />
    <glyph glyph-name="ograve" unicode="&#xf2;" horiz-adv-x="1034" 
d="M708 1344q130 10 221 -73.5t112 -273.5q13 -236 -77.5 -440.5t-238 -347t-304 -194t-273.5 18t-148 290.5q8 301 119.5 525.5t272.5 353t316 141.5zM684 1081h-1v0q-109 -51 -182.5 -163t-111.5 -244.5t-41 -245t28.5 -164t96.5 -2.5q84 76 131.5 209t68 272.5
t21.5 236.5t-10 101zM532 1771l21.5 -47t49.5 -108.5t51 -109t28 -52.5q3 -3 -3.5 -7t-19 -8.5l-25 -9t-22 -7l-9.5 -2.5l-216 306z" />
    <glyph glyph-name="oacute" unicode="&#xf3;" horiz-adv-x="1034" 
d="M708 1344q130 10 221 -73.5t112 -273.5q13 -236 -77.5 -440.5t-238 -347t-304 -194t-273.5 18t-148 290.5q8 301 119.5 525.5t272.5 353t316 141.5zM684 1081h-1v0q-109 -51 -182.5 -163t-111.5 -244.5t-41 -245t28.5 -164t96.5 -2.5q84 76 131.5 209t68 272.5
t21.5 236.5t-10 101zM664 1746l145 -45l-216 -306l-9 2.5t-22 7t-25.5 9t-19 8.5t-3.5 7q6 5 29 52.5t51 109t49 108.5z" />
    <glyph glyph-name="ocircumflex" unicode="&#xf4;" horiz-adv-x="1034" 
d="M708 1344q130 10 221 -73.5t112 -273.5q13 -236 -77.5 -440.5t-238 -347t-304 -194t-273.5 18t-148 290.5q8 301 119.5 525.5t272.5 353t316 141.5zM684 1081h-1v0q-109 -51 -182.5 -163t-111.5 -244.5t-41 -245t28.5 -164t96.5 -2.5q84 76 131.5 209t68 272.5
t21.5 236.5t-10 101zM689 1687l132 -158l-87 -73l-65 78q-7 -5 -13 -9q-6 -5 -14 -10t-21 -14q-12 -8 -28 -18.5t-28 -18l-12 -7.5q-13 38 -43 74q-9 11 -17 23q37 26 68 43q42 23 85 60z" />
    <glyph glyph-name="otilde" unicode="&#xf5;" horiz-adv-x="1034" 
d="M708 1344q130 10 221 -73.5t112 -273.5q13 -236 -77.5 -440.5t-238 -347t-304 -194t-273.5 18t-148 290.5q8 301 119.5 525.5t272.5 353t316 141.5zM684 1081h-1v0q-109 -51 -182.5 -163t-111.5 -244.5t-41 -245t28.5 -164t96.5 -2.5q84 76 131.5 209t68 272.5
t21.5 236.5t-10 101zM735 1685q25 -36 45.5 -51.5t40.5 -24.5q-26 -30 -66.5 -66.5t-90.5 -55t-105 3.5q-28 17 -48 34q-26 27 -53.5 30t-78.5 -49q-8 30 -28.5 48.5t-45.5 33.5q-1 1 -3 2q101 95 183 85q36 -6 59.5 -21t39.5 -31q19 -18 36.5 -25t44 11.5t70.5 75.5z" />
    <glyph glyph-name="odieresis" unicode="&#xf6;" horiz-adv-x="1034" 
d="M708 1344q130 10 221 -73.5t112 -273.5q13 -236 -77.5 -440.5t-238 -347t-304 -194t-273.5 18t-148 290.5q8 301 119.5 525.5t272.5 353t316 141.5zM684 1081h-1v0q-109 -51 -182.5 -163t-111.5 -244.5t-41 -245t28.5 -164t96.5 -2.5q84 76 131.5 209t68 272.5
t21.5 236.5t-10 101zM696 1541q26 -3 33.5 -23t-2.5 -37.5t-37 -14.5q-27 5 -34 24t3.5 35.5t36.5 15.5zM829 1539q26 -3 33.5 -23t-2.5 -37.5t-37 -15.5q-27 6 -34 24.5t3.5 35t36.5 16.5z" />
    <glyph glyph-name="divide" unicode="&#xf7;" horiz-adv-x="820" 
d="M96 631l112 -8t257.5 -17.5t260.5 -15t132 -1.5q9 2 8.5 -8.5t-7 -29t-14.5 -37t-14.5 -32l-6.5 -13.5l-800 -17zM452 990q72 -9 93 -67.5t-7.5 -110.5t-103.5 -44q-75 17 -95 71.5t10 103t103 47.5zM445 298q73 -9 93.5 -67.5t-8 -110.5t-103.5 -44q-75 17 -94.5 71.5
t10 103t102.5 47.5z" />
    <glyph glyph-name="oslash" unicode="&#xf8;" horiz-adv-x="1053" 
d="M940 1507l122 -145l-22.5 -34t-57.5 -88q62 -83 78 -234q13 -227 -70.5 -424.5t-222 -340.5t-290 -204t-272.5 -15q-124 -199 -137 -232q-6 -21 -14.5 -10.5t-18 38.5t-17.5 60t-13 56l-5 24l94 155q-57 78 -75 219q9 302 120.5 526.5t272 352.5t315.5 141q60 5 113 -10z
M680 1079q-118 -68 -191 -203t-103 -281zM698 799q-160 -250 -317 -496q15 -43 42.5 -54t69.5 22q90 83 139 231.5t66 296.5z" />
    <glyph glyph-name="ugrave" unicode="&#xf9;" horiz-adv-x="1060" 
d="M238 1119q71 -39 130 -36t114 20q30 9 60 15l-29 -84.5t-66 -205.5t-64 -241t-26.5 -198t47.5 -75q71 11 124.5 105t91.5 228.5t61.5 268t34.5 224.5l11 91q13 1 25 1q78 0 158.5 10t169.5 49l-24.5 -146t-65.5 -342.5t-90 -364.5t-98 -226q-54 -53 -180.5 -109
t-269.5 -88.5t-245 -14t-107 115.5q1 103 36.5 267.5t82 332.5t83 285.5zM499 1771l21.5 -47t49.5 -108.5t51 -109t28 -52.5q3 -3 -3.5 -7t-19 -8.5l-25 -9t-22 -7l-9.5 -2.5l-216 306z" />
    <glyph glyph-name="uacute" unicode="&#xfa;" horiz-adv-x="1060" 
d="M238 1119q71 -39 130 -36t114 20q30 9 60 15l-29 -84.5t-66 -205.5t-64 -241t-26.5 -198t47.5 -75q71 11 124.5 105t91.5 228.5t61.5 268t34.5 224.5l11 91q13 1 25 1q78 0 158.5 10t169.5 49l-24.5 -146t-65.5 -342.5t-90 -364.5t-98 -226q-54 -53 -180.5 -109
t-269.5 -88.5t-245 -14t-107 115.5q1 103 36.5 267.5t82 332.5t83 285.5zM655 1691l145 -45l-216 -306l-9 2.5t-22 7t-25.5 9t-19 8.5t-3.5 7q6 5 29 52.5t51 109t49 108.5z" />
    <glyph glyph-name="ucircumflex" unicode="&#xfb;" horiz-adv-x="1060" 
d="M238 1119q71 -39 130 -36t114 20q30 9 60 15l-29 -84.5t-66 -205.5t-64 -241t-26.5 -198t47.5 -75q71 11 124.5 105t91.5 228.5t61.5 268t34.5 224.5l11 91q13 1 25 1q78 0 158.5 10t169.5 49l-24.5 -146t-65.5 -342.5t-90 -364.5t-98 -226q-54 -53 -180.5 -109
t-269.5 -88.5t-245 -14t-107 115.5q1 103 36.5 267.5t82 332.5t83 285.5zM620 1707l132 -158l-87 -73l-65 78q-7 -5 -13 -9q-6 -5 -14 -10t-21 -14q-12 -8 -28 -18.5t-28 -18l-12 -7.5q-13 38 -43 74q-9 11 -17 23q37 26 68 43q42 23 85 60z" />
    <glyph glyph-name="udieresis" unicode="&#xfc;" horiz-adv-x="1060" 
d="M238 1119q71 -39 130 -36t114 20q30 9 60 15l-29 -84.5t-66 -205.5t-64 -241t-26.5 -198t47.5 -75q71 11 124.5 105t91.5 228.5t61.5 268t34.5 224.5l11 91q13 1 25 1q78 0 158.5 10t169.5 49l-24.5 -146t-65.5 -342.5t-90 -364.5t-98 -226q-54 -53 -180.5 -109
t-269.5 -88.5t-245 -14t-107 115.5q1 103 36.5 267.5t82 332.5t83 285.5zM569 1515q26 -3 33.5 -23t-2.5 -37.5t-37 -14.5q-27 5 -34 24t3.5 35.5t36.5 15.5zM702 1513q26 -3 33.5 -23t-2.5 -37.5t-37 -15.5q-27 6 -34 24.5t3.5 35t36.5 16.5z" />
    <glyph glyph-name="yacute" unicode="&#xfd;" horiz-adv-x="1054" 
d="M11 942l270 147l256 -251l297 405q104 -16 240 10q-207 -330 -355 -622t-263 -563q-75 4 -152.5 -15t-155.5 -45l-34 -10l26 44q49 79 97 174t92 236q-41 131 -131.5 247.5t-197.5 228.5zM608 1715l145 -45l-216 -306l-9 2.5t-22 7t-25.5 9t-19 8.5t-3.5 7q6 5 29 52.5
t51 109t49 108.5z" />
    <glyph glyph-name="thorn" unicode="&#xfe;" horiz-adv-x="1128" 
d="M640 1276l-39 -240q66 10 126 13v0q93 6 167 -9q173 -65 213.5 -176t-29 -233t-226.5 -220.5t-378 -139.5l-37 -220q-6 9 -69 4.5t-145 -15.5t-147 -22.5t-76 -17.5q26 35 68 221.5t84 421.5t67.5 416.5t18.5 207.5q126 -35 215 -29.5t187 38.5zM238 1267h-2h-1q1 2 3 0z
M621 890q-6 -10 -31.5 -87t-55.5 -170l-28 -167q92 75 147.5 146.5t53 141t-85.5 136.5z" />
    <glyph glyph-name="ydieresis" unicode="&#xff;" horiz-adv-x="1054" 
d="M11 942l270 147l256 -251l297 405q104 -16 240 10q-207 -330 -355 -622t-263 -563q-75 4 -152.5 -15t-155.5 -45l-34 -10l26 44q49 79 97 174t92 236q-41 131 -131.5 247.5t-197.5 228.5zM370 1545q26 -3 33.5 -23t-2.5 -37.5t-37 -14.5q-27 5 -34 24t3.5 35.5t36.5 15.5
zM503 1543q26 -3 33.5 -23t-2.5 -37.5t-37 -15.5q-27 6 -34 24.5t3.5 35t36.5 16.5z" />
    <glyph glyph-name="uniF001" unicode="&#xf001;" horiz-adv-x="1073" 
 />
    <glyph glyph-name="uniF001" unicode="&#xfb01;" horiz-adv-x="1073" 
 />
    <glyph glyph-name="uniF002" unicode="&#xf002;" horiz-adv-x="1081" 
 />
    <glyph glyph-name="uniF002" unicode="&#xfb02;" horiz-adv-x="1081" 
 />
    </font>
</defs>
</svg>
