<?xml version="1.0" standalone="no"?>
<!DOCTYPE svg PUBLIC "-//W3C//DTD SVG 1.1//EN" "http://www.w3.org/Graphics/SVG/1.1/DTD/svg11.dtd" >
<svg xmlns="http://www.w3.org/2000/svg" xmlns:xlink="http://www.w3.org/1999/xlink" version="1.1">
<metadata>
Created by FontForge 20170924 at Thu May  3 10:12:49 2018
 By www-data
2018 Iconian Fonts - www.iconian.com
</metadata>
<defs>
<font id="CampJusticeItalic" horiz-adv-x="611" >
  <font-face 
    font-family="Camp Justice Italic"
    font-weight="400"
    font-style="italic"
    font-stretch="normal"
    units-per-em="1000"
    panose-1="0 0 0 0 0 0 0 0 0 0"
    ascent="800"
    descent="-200"
    x-height="670"
    cap-height="868"
    bbox="-77 -170 1311.13 883"
    underline-thickness="50"
    underline-position="-125"
    unicode-range="U+0020-2122"
  />
<missing-glyph horiz-adv-x="500" 
 />
    <glyph glyph-name=".notdef" horiz-adv-x="500" 
 />
    <glyph glyph-name="FL0020h" unicode=" " horiz-adv-x="287" 
 />
    <glyph glyph-name="FL0021h" unicode="!" horiz-adv-x="343" 
d="M260 0h-177l55 168h177zM382 232h-271l207 636h271z" />
    <glyph glyph-name="FL0022h" unicode="&#x22;" horiz-adv-x="467" 
d="M532 670h-60l54 168h177l-54 -168l-155 -116zM314 670h-60l54 168h177l-54 -168l-155 -116z" />
    <glyph glyph-name="FL0023h" unicode="#" horiz-adv-x="755" 
d="M213 544l-55 -170h82l-26 -78h-82l-55 -170h82l-41 -126h271l41 126h72l-41 -126h178l41 126h80l55 170h-80l26 78h80l55 170h-80l41 126h-178l-41 -126h-72l41 126h-271l-41 -126h-82zM583 374l-26 -78h-72l26 78h72z" />
    <glyph glyph-name="FL0024h" unicode="$" horiz-adv-x="539" 
d="M189 470l-71 -219h200l-28 -84h-200l-54 -167h145l-26 -79h177l26 79h5c22.667 0 45.167 7.16699 67.5 21.5s42.833 31.833 61.5 52.5s34.667 42.5 48 65.5s22.666 43.167 27.999 60.5l72 221h-200l26 82h200l55 167h-145l26 80h-177l-26 -80h-5
c-23.333 0 -46 -7.16699 -68 -21.5s-42.333 -31.833 -61 -52.5s-34.667 -42.5 -48 -65.5s-22.666 -43.167 -27.999 -60.5z" />
    <glyph glyph-name="FL0025h" unicode="%" horiz-adv-x="897" 
d="M298 0h175l341 670h-176zM751 256h40l-46 -142h-40zM897 110l47.999 148c2.66699 9.33301 4.5 20.333 5.5 33s0.166992 24.834 -2.5 36.501s-7.5 21.5 -14.5 29.5s-16.833 12 -29.5 12h-143c-12.667 0 -25.167 -4 -37.5 -12s-23.666 -17.833 -33.999 -29.5
s-19.166 -23.834 -26.499 -36.501s-12.333 -23.667 -15 -33l-48 -148c-3.33301 -9.33301 -5.33301 -20.333 -6 -33s0.333008 -24.667 3 -36s7.5 -21 14.5 -29s16.833 -12 29.5 -12h143c12.667 0 25.167 4 37.5 12s23.5 17.667 33.5 29s18.667 23.333 26 36
s12.666 23.667 15.999 33zM320.999 557h40l-46 -142h-40zM466.999 411l47.999 148c2.66699 9.33301 4.5 20.333 5.5 33s0.166992 24.834 -2.5 36.501s-7.5 21.5 -14.5 29.5s-16.833 12 -29.5 12h-143c-12.667 0 -25.167 -4 -37.5 -12s-23.666 -17.833 -33.999 -29.5
s-19.166 -23.834 -26.499 -36.501s-12.333 -23.667 -15 -33l-48 -148c-3.33301 -9.33301 -5.33301 -20.333 -6 -33s0.333008 -24.667 3 -36s7.5 -21 14.5 -29s16.833 -12 29.5 -12h143c12.667 0 25.167 4 37.5 12s23.5 17.667 33.5 29s18.667 23.333 26 36
s12.666 23.667 15.999 33z" />
    <glyph glyph-name="FL0026h" unicode="&#x26;" horiz-adv-x="650" 
d="M470 503l194.998 -0.000976562l55 167h-326c-23.333 0 -46 -7.16699 -68 -21.5s-42.333 -31.833 -61 -52.5s-34.667 -42.5 -48 -65.5s-22.666 -43.167 -27.999 -60.5l-18 -54c-3.33301 -13.333 -4 -28 -2 -44s6 -28.333 12 -37
c-13.333 -12.667 -26.166 -26.667 -38.499 -42s-20.833 -29.666 -25.5 -42.999l-16 -50c-5.33301 -17.333 -8.83301 -37.5 -10.5 -60.5s0 -44.833 5 -65.5s13.833 -38.167 26.5 -52.5s30.667 -21.5 54 -21.5h386l82 251h52l55 170h-307zM388.998 250.999h83l-28 -84h-83z
" />
    <glyph glyph-name="FL0027h" unicode="'" horiz-adv-x="249" 
d="M314 670h-60l54 168h177l-54 -168l-155 -116z" />
    <glyph glyph-name="FL0028h" unicode="(" horiz-adv-x="420" 
d="M253 668l-152.001 -468c-5.33301 -17.333 -8.83301 -37.5 -10.5 -60.5s0 -44.833 5 -65.5s13.833 -38.167 26.5 -52.5s30.667 -21.5 54 -21.5h208l54 167h-77l174 534h77l54 167h-208c-23.333 0 -46 -7.16699 -68 -21.5s-42.333 -31.833 -61 -52.5
s-34.667 -42.5 -48 -65.5s-22.666 -43.167 -27.999 -60.5z" />
    <glyph glyph-name="FL0029h" unicode=")" horiz-adv-x="328" 
d="M509 668l-152.001 -468c-5.33301 -17.333 -14.666 -37.5 -27.999 -60.5s-29.333 -44.833 -48 -65.5s-39.167 -38.167 -61.5 -52.5s-44.833 -21.5 -67.5 -21.5h-116l54 167h77l174 534h-77l54 167h116c23.333 0 41.333 -7.16699 54 -21.5s21.5 -31.833 26.5 -52.5
s6.66699 -42.5 5 -65.5s-5.16699 -43.167 -10.5 -60.5z" />
    <glyph glyph-name="FL0419h" unicode="*" horiz-adv-x="348" 
d="M384 564l130 91l-41 44l76 14l1 120l-75 -39l39 74h-125l-9 -72l-44 42l-73 -125l58 -13l-66 -44l71 -92l49 73z" />
    <glyph glyph-name="FL002Bh" unicode="+" horiz-adv-x="467" 
d="M321 533l-36 -112h-112l-55 -170h112l-37 -113h170l37 113h113l55 170h-113l36 112h-170z" />
    <glyph glyph-name="FL002Ch" unicode="," horiz-adv-x="249" 
d="M96 0h-60l55 168h177l-55 -168l-155 -116z" />
    <glyph glyph-name="FL002Dh" unicode="-" horiz-adv-x="361" 
d="M118 251h289l55 170h-289z" />
    <glyph glyph-name="FL002Eh" unicode="." horiz-adv-x="249" 
d="M213 0h-177l55 168h177z" />
    <glyph glyph-name="FL002Fh" unicode="/" horiz-adv-x="448" 
d="M645 670h-271l-353 -670h272z" />
    <glyph glyph-name="acute" unicode="0" 
d="M254 670h539l-218 -670h-539zM561 503h-91l-109 -336h91z" />
    <glyph glyph-name="FL0031h" unicode="1" horiz-adv-x="418" 
d="M382 0l218 670h-346l-55 -167h75l-163 -503h271z" />
    <glyph glyph-name="FL0032h" unicode="2" horiz-adv-x="539" 
d="M172 419h200l27 84h-200l55 167h327c23.333 0 41.333 -7.16699 54 -21.5s21.5 -31.833 26.5 -52.5s6.66699 -42.5 5 -65.5s-5.16699 -43.167 -10.5 -60.5l-72 -221h-200l-27 -82h200l-54 -167h-467z" />
    <glyph glyph-name="FL00BCh" unicode="3" horiz-adv-x="518" 
d="M635 470l-17.998 -54c-3.33301 -6.66699 -7.33301 -13.834 -12 -21.501s-9.83398 -15.167 -15.501 -22.5s-11.5 -14.333 -17.5 -21s-11.667 -12 -17 -16c5.33301 -12.667 9.16602 -26.667 11.499 -42s1.16602 -29.666 -3.50098 -42.999l-16 -50
c-5.33301 -17.333 -14.666 -37.5 -27.999 -60.5s-29.333 -44.833 -48 -65.5s-39.167 -38.167 -61.5 -52.5s-44.833 -21.5 -67.5 -21.5h-306l54 167h175l28 84h-162l55 170h162l26 82h-175l55 167h306c23.333 0 41.333 -7.16699 54 -21.5s21.5 -31.833 26.5 -52.5
s6.66699 -42.5 5 -65.5s-5.16699 -43.167 -10.5 -60.5z" />
    <glyph glyph-name="FL0034h" unicode="4" 
d="M254 670l-136 -419h268l-82 -251h271l218 670h-271l-81 -249h-91l81 249h-177z" />
    <glyph glyph-name="FL0035h" unicode="5" horiz-adv-x="539" 
d="M118 251h200.001l-28 -84h-200l-54 -167h327c22.667 0 45.167 7.16699 67.5 21.5s42.833 31.833 61.5 52.5s34.667 42.5 48 65.5s22.666 43.167 27.999 60.5l72 221h-208l26 82h208l55 167h-467z" />
    <glyph glyph-name="FL0036h" unicode="6" 
d="M101 200l88.001 270c5.33301 17.333 14.666 37.5 27.999 60.5s29.333 44.833 48 65.5s39 38.167 61 52.5s44.667 21.5 68 21.5h399l-55 -167h-268l-26 -82h268l-137 -421h-399c-23.333 0 -41.333 7.16699 -54 21.5s-21.5 31.833 -26.5 52.5s-6.66699 42.5 -5 65.5
s5.16699 43.167 10.5 60.5zM389.001 251l-28 -84h91l28 84h-91z" />
    <glyph glyph-name="FL0037h" unicode="7" horiz-adv-x="539" 
d="M651 457l-359 -457h-256l367 503h-204l55 167h467z" />
    <glyph glyph-name="FL003Bh" unicode="8" 
d="M728 470l-17.9961 -53.999c-3.33301 -6.66699 -7.33301 -13.834 -12 -21.501s-9.83398 -15.167 -15.501 -22.5s-11.5 -14.333 -17.5 -21s-11.667 -12 -17 -16c5.33301 -12.667 9.16602 -26.667 11.499 -42s1.16602 -29.666 -3.50098 -42.999l-16 -50
c-5.33301 -17.333 -14.666 -37.5 -27.999 -60.5s-29.333 -44.833 -48 -65.5s-39.167 -38.167 -61.5 -52.5s-44.833 -21.5 -67.5 -21.5h-259c-23.333 0 -41.333 7.16699 -54 21.5s-21.5 31.833 -26.5 52.5s-6.66699 42.5 -5 65.5s5.16699 43.167 10.5 60.5l16 50
c4.66699 13.333 13.167 27.666 25.5 42.999s25.166 29.333 38.499 42c-6 8.66699 -10 21 -12 37s-1.33301 30.667 2 44l18 54c5.33301 17.333 14.666 37.5 27.999 60.5s29.333 44.833 48 65.5s39 38.167 61 52.5s44.667 21.5 68 21.5h259c23.333 0 41.333 -7.16699 54 -21.5
s21.5 -31.833 26.5 -52.5s6.66699 -42.5 5 -65.5s-5.16699 -43.167 -10.5 -60.5zM389.004 251.001l-28 -84h96l28 84h-96zM470.004 503.001l-26 -82h96l26 82h-96z" />
    <glyph glyph-name="FL003Ah" unicode="9" 
d="M727 470l-88.001 -269.999c-5.33301 -17.333 -14.666 -37.5 -27.999 -60.5s-29.333 -44.833 -48 -65.5s-39.167 -38.167 -61.5 -52.5s-44.833 -21.5 -67.5 -21.5h-399l54 167h268l27 82h-268l71 220c6 17.333 16 37.666 30 60.999s30.333 45.333 49 66s39 38.167 61 52.5
s44 21.5 66 21.5h259c23.333 0 41.333 -7.16699 54 -21.5s21.5 -31.833 26.5 -52.5s6.66699 -42.5 5 -65.5s-5.16699 -43.167 -10.5 -60.5zM438.999 419.001l27 84h-91l-27 -84h91z" />
    <glyph glyph-name="FL003Dh" unicode=":" horiz-adv-x="249" 
d="M213 0h-177l55 168h177zM313 308h-177l55 168h177z" />
    <glyph glyph-name="FL003Fh" unicode=";" horiz-adv-x="249" 
d="M313 308h-177l55 168h177zM96 0h-60l55 168h177l-55 -168l-155 -116z" />
    <glyph glyph-name="FL003Ch" unicode="&#x3c;" horiz-adv-x="524" 
d="M232 0l-104 330l322 340h271l-306 -328l88 -342h-271z" />
    <glyph glyph-name="FL004Bh" unicode="=" horiz-adv-x="385" 
d="M152 357h313l55 170h-313zM83 145h313l55 170h-313z" />
    <glyph glyph-name="FL003Eh" unicode="&#x3e;" horiz-adv-x="492" 
d="M201 0h-180l373 330l-155 340h180l163 -328z" />
    <glyph glyph-name="FL0040h" unicode="?" horiz-adv-x="539" 
d="M615 349h-199l-38 -117h-268l94 287h200l59 182h-200l54 167h327c23.333 0 41.333 -7.16699 54 -21.5s21.5 -31.833 26.5 -52.5s6.66699 -42.5 5 -65.5s-5.16699 -43.167 -10.5 -60.5zM258 0h-177l55 168h177z" />
    <glyph glyph-name="FL07B6h" unicode="@" horiz-adv-x="1119" 
d="M1001 419l10.001 31c6 17.333 9.66699 37.5 11 60.5s-0.5 44.833 -5.5 65.5s-14 38.167 -27 52.5s-30.833 21.5 -53.5 21.5h-237c-23.333 0 -46 -7.16699 -68 -21.5s-42.167 -31.833 -60.5 -52.5s-34.166 -42.5 -47.499 -65.5s-23 -43.167 -29 -60.5l-10 -31
c-5.33301 -17.333 -8.83301 -37.5 -10.5 -60.5s0 -44.833 5 -65.5s13.833 -38.167 26.5 -52.5s30.667 -21.5 54 -21.5h455c22.667 0 45.167 7.16699 67.5 21.5s42.833 31.833 61.5 52.5s34.667 42.5 48 65.5s22.666 43.167 27.999 60.5l81 249
c5.33301 17.333 8.83301 37.5 10.5 60.5s0 44.833 -5 65.5s-13.833 38.167 -26.5 52.5s-30.667 21.5 -54 21.5h-767c-23.333 0 -46 -7.16699 -68 -21.5s-42.333 -31.833 -61 -52.5s-34.667 -42.5 -48 -65.5s-22.666 -43.167 -27.999 -60.5l-152 -468
c-5.33301 -17.333 -8.83301 -37.5 -10.5 -60.5s0 -44.833 5 -65.5s13.833 -38.167 26.5 -52.5s30.667 -21.5 54 -21.5h873l54 167h-742l174 534h599l-103 -315h-44c3.33301 6.66699 6.16602 12.667 8.49902 18s4.16602 10.333 5.49902 15zM645.001 386l32 97h74l-32 -97h-74
z" />
    <glyph glyph-name="FL0041h" unicode="A" 
d="M792 668c5.33301 17.333 8.83301 37.5 10.5 60.5s0 44.833 -5 65.5s-13.833 38.167 -26.5 52.5s-30.667 21.5 -54 21.5h-399l-282 -868h177l100 307h91l-100 -307h271zM441 701h91l-73 -224h-91z" />
    <glyph glyph-name="FL0042h" unicode="B" 
d="M36 0l398.997 0.000976562c22.667 0 45.167 7.16699 67.5 21.5s42.833 31.833 61.5 52.5s34.667 42.5 48 65.5s22.666 43.167 27.999 60.5l48 148c4.66699 13.333 5.83398 27.666 3.50098 42.999s-6.16602 29.333 -11.499 42c6 4.66699 12.333 10.5 19 17.5
s12.834 14.333 18.501 22s10.834 15.5 15.501 23.5s8 15.333 10 22l49 150c5.33301 17.333 8.83301 37.5 10.5 60.5s0 44.833 -5 65.5s-13.833 38.167 -26.5 52.5s-30.667 21.5 -54 21.5h-399zM456.997 167.001h-96l59 182h96zM534.997 701.001h96l-59 -182h-96z" />
    <glyph glyph-name="FL0043h" unicode="C" horiz-adv-x="518" 
d="M253 668l-152.001 -468c-5.33301 -17.333 -8.83301 -37.5 -10.5 -60.5s0 -44.833 5 -65.5s13.833 -38.167 26.5 -52.5s30.667 -21.5 54 -21.5h306l54 167h-175l174 534h175l54 167h-306c-23.333 0 -46 -7.16699 -68 -21.5s-42.333 -31.833 -61 -52.5
s-34.667 -42.5 -48 -65.5s-22.666 -43.167 -27.999 -60.5z" />
    <glyph glyph-name="FL0044h" unicode="D" 
d="M640 200l152.001 468c5.33301 17.333 8.83301 37.5 10.5 60.5s0 44.833 -5 65.5s-13.833 38.167 -26.5 52.5s-30.667 21.5 -54 21.5h-399l-282 -868h399c22.667 0 45.167 7.16699 67.5 21.5s42.833 31.833 61.5 52.5s34.667 42.5 48 65.5s22.666 43.167 27.999 60.5z
M441.001 701h91l-174 -534h-91z" />
    <glyph glyph-name="FL0045h" unicode="E" horiz-adv-x="518" 
d="M253 668l-152.001 -468c-5.33301 -17.333 -8.83301 -37.5 -10.5 -60.5s0 -44.833 5 -65.5s13.833 -38.167 26.5 -52.5s30.667 -21.5 54 -21.5h306l54 167h-175l59 182h162l56 170h-162l59 182h175l54 167h-306c-23.333 0 -46 -7.16699 -68 -21.5
s-42.333 -31.833 -61 -52.5s-34.667 -42.5 -48 -65.5s-22.666 -43.167 -27.999 -60.5z" />
    <glyph glyph-name="FL0046h" unicode="F" horiz-adv-x="518" 
d="M253 668l-217.001 -668h271l113 349h162l56 170h-162l59 182h175l54 167h-306c-23.333 0 -46 -7.16699 -68 -21.5s-42.333 -31.833 -61 -52.5s-34.667 -42.5 -48 -65.5s-22.666 -43.167 -27.999 -60.5z" />
    <glyph glyph-name="FL0047h" unicode="G" 
d="M101 200c-5.33301 -17.333 -8.83398 -37.5 -10.501 -60.5s0 -44.833 5 -65.5s13.833 -38.167 26.5 -52.5s30.667 -21.5 54 -21.5h399l181 558h-177l-127 -391h-91l174 534h268l54 167h-399c-23.333 0 -46 -7.16699 -68 -21.5s-42.333 -31.833 -61 -52.5
s-34.667 -42.5 -48 -65.5s-22.666 -43.167 -27.999 -60.5z" />
    <glyph glyph-name="FL0048h" unicode="H" 
d="M575 0h-177l113 349h-91l-113 -349h-271l282 868h271l-113 -349h91l113 349h177z" />
    <glyph glyph-name="FL0049h" unicode="I" horiz-adv-x="343" 
d="M36 0h271l282 868h-271z" />
    <glyph glyph-name="FL004Ah" unicode="J" horiz-adv-x="490" 
d="M519 200c-5.33301 -17.333 -14.667 -37.5 -28 -60.5s-29.333 -44.833 -48 -65.5s-39.167 -38.167 -61.5 -52.5s-44.833 -21.5 -67.5 -21.5h-278l54 167h147l228 701h271z" />
    <glyph glyph-name="FL0051h" unicode="K" horiz-adv-x="616" 
d="M36 0l282 868h271l-79 -243l155 243h213l-299 -434l16 -434h-213l4 244l-79 -244h-271z" />
    <glyph glyph-name="FL004Ch" unicode="L" horiz-adv-x="489" 
d="M36 0h417l54 167h-146l228 701h-271z" />
    <glyph glyph-name="FL004Dh" unicode="M" horiz-adv-x="878" 
d="M842 0l218 670c5.33301 17.333 8.83301 37.5 10.5 60.5s0 44.833 -5 65.5s-13.833 38.167 -26.5 52.5s-30.667 21.5 -54 21.5h-666l-283 -870h177l228 703h90l-228 -703h177l228 703h91l-228 -703h271z" />
    <glyph glyph-name="FL004Eh" unicode="N" 
d="M575 0h-271l228 701h-91l-228 -701h-177l282 868h399c23.333 0 41.333 -7.16699 54 -21.5s21.5 -31.833 26.5 -52.5s6.66699 -42.5 5 -65.5s-5.16699 -43.167 -10.5 -60.5z" />
    <glyph glyph-name="FL004Fh" unicode="O" 
d="M640 200l152 468c5.33301 17.333 8.83301 37.5 10.5 60.5s0 44.833 -5 65.5s-13.833 38.167 -26.5 52.5s-30.667 21.5 -54 21.5h-259c-23.333 0 -46 -7.16699 -68 -21.5s-42.333 -31.833 -61 -52.5s-34.667 -42.5 -48 -65.5s-22.666 -43.167 -27.999 -60.5l-152 -468
c-5.33301 -17.333 -8.83301 -37.5 -10.5 -60.5s0 -44.833 5 -65.5s13.833 -38.167 26.5 -52.5s30.667 -21.5 54 -21.5h259c22.667 0 45.167 7.16699 67.5 21.5s42.833 31.833 61.5 52.5s34.667 42.5 48 65.5s22.666 43.167 27.999 60.5zM436 701h96l-174 -534h-96z" />
    <glyph glyph-name="FL0050h" unicode="P" 
d="M307 0l99.001 306h128c22.667 0 45.167 7.16699 67.5 21.5s42.833 31.833 61.5 52.5s34.667 42.5 48 65.5s22.666 43.167 27.999 60.5l53 162c5.33301 17.333 8.83301 37.5 10.5 60.5s0 44.833 -5 65.5s-13.833 38.167 -26.5 52.5s-30.667 21.5 -54 21.5h-399l-282 -868
h271zM631.001 701l-73 -224h-96l73 224h96z" />
    <glyph glyph-name="FL0056h" unicode="Q" 
d="M640 200l152 468c5.33301 17.333 8.83301 37.5 10.5 60.5s0 44.833 -5 65.5s-13.833 38.167 -26.5 52.5s-30.667 21.5 -54 21.5h-259c-23.333 0 -46 -7.16699 -68 -21.5s-42.333 -31.833 -61 -52.5s-34.667 -42.5 -48 -65.5s-22.666 -43.167 -27.999 -60.5l-152 -468
c-5.33301 -17.333 -8.83301 -37.5 -10.5 -60.5s0 -44.833 5 -65.5s13.833 -38.167 26.5 -52.5s30.667 -21.5 54 -21.5h163l17 -60h189l-23 95c14 10.667 27.333 23.167 40 37.5s24.167 29 34.5 44s19.166 29.833 26.499 44.5s13 27.667 17 39zM314 327l122 374h96l-122 -374
h-96zM311 167h-49l31 95z" />
    <glyph glyph-name="FL0052h" unicode="R" 
d="M307 0l84 258l-4 -258h208l8 328c16 10 31.333 22.333 46 37s28 30.334 40 47.001s22.333 33.167 31 49.5s15 31.166 19 44.499l53 162c5.33301 17.333 8.83301 37.5 10.5 60.5s0 44.833 -5 65.5s-13.833 38.167 -26.5 52.5s-30.667 21.5 -54 21.5h-399l-282 -868h271z
M631 701l-73 -224h-96l73 224h96z" />
    <glyph glyph-name="FL0053h" unicode="S" horiz-adv-x="539" 
d="M149 349h200l-59 -182h-200l-54 -167h327c22.667 0 45.167 7.16699 67.5 21.5s42.833 31.833 61.5 52.5s34.667 42.5 48 65.5s22.666 43.167 27.999 60.5l104 319h-200l59 182h200l54 167h-327c-23.333 0 -46 -7.16699 -68 -21.5s-42.333 -31.833 -61 -52.5
s-34.667 -42.5 -48 -65.5s-22.666 -43.167 -27.999 -60.5z" />
    <glyph glyph-name="FL0054h" unicode="T" horiz-adv-x="551" 
d="M743 701l54 167h-479l-54 -167h104l-228 -701h271l228 701h104z" />
    <glyph glyph-name="FL0055h" unicode="U" 
d="M318 868h271l-228 -701h91l228 701h177l-282 -868h-399c-23.333 0 -41.333 7.16699 -54 21.5s-21.5 31.833 -26.5 52.5s-6.66699 42.5 -5 65.5s5.16699 43.167 10.5 60.5z" />
    <glyph glyph-name="FL0058h" unicode="V" horiz-adv-x="581" 
d="M842 868h-271l-151 -347l60 347h-177l-160 -868h283z" />
    <glyph glyph-name="FL0057h" unicode="W" horiz-adv-x="878" 
d="M318 868l-217 -668c-5.33301 -17.333 -8.83301 -37.5 -10.5 -60.5s0 -44.833 5 -65.5s13.833 -38.167 26.5 -52.5s30.667 -21.5 54 -21.5h666l282 868h-177l-228 -701h-90l228 701h-177l-228 -701h-91l228 701h-271z" />
    <glyph glyph-name="FL0FE7h" unicode="X" horiz-adv-x="581" 
d="M842 868h-271l-151 -347l60 347h-177l-80 -434l-202 -434h177l166 347l-75 -347h271l74 434z" />
    <glyph glyph-name="FL0059h" unicode="Y" 
d="M640 200c-5.33301 -17.333 -14.667 -37.5 -28 -60.5s-29.333 -44.833 -48 -65.5s-39.167 -38.167 -61.5 -52.5s-44.833 -21.5 -67.5 -21.5h-399l54 167h362l59 182h-222c-23.333 0 -41.333 7.16699 -54 21.5s-21.5 31.833 -26.5 52.5s-6.66699 42.5 -5 65.5
s5.16699 43.167 10.5 60.5l105 321h271l-115 -354h91l115 354h177z" />
    <glyph glyph-name="FL005Ah" unicode="Z" horiz-adv-x="539" 
d="M717 660l-366 -493h206l-54 -167h-467l68 209l366 492h-206l54 167h467z" />
    <glyph glyph-name="FL005Bh" unicode="[" horiz-adv-x="420" 
d="M202 512l-115.001 -354c-5.33301 -17.333 -8.83301 -37.5 -10.5 -60.5s0 -44.833 5 -65.5s13.833 -38.167 26.5 -52.5s30.667 -21.5 54 -21.5h208l55 167h-77l136 420h77l54 167h-208c-23.333 0 -46 -7.16699 -68 -21.5s-42.167 -31.833 -60.5 -52.5
s-34.166 -42.5 -47.499 -65.5s-23 -43.167 -29 -60.5z" />
    <glyph glyph-name="FL005Ch" unicode="\" horiz-adv-x="340" 
d="M416 670h-177l-96 -670h176z" />
    <glyph glyph-name="FL005Dh" unicode="]" horiz-adv-x="329" 
d="M459 512l-115.001 -354c-5.33301 -17.333 -14.666 -37.5 -27.999 -60.5s-29.333 -44.833 -48 -65.5s-39.167 -38.167 -61.5 -52.5s-44.833 -21.5 -67.5 -21.5h-117l55 167h77l136 420h-77l54 167h117c22.667 0 40.5 -7.16699 53.5 -21.5s22 -31.833 27 -52.5
s6.83301 -42.5 5.5 -65.5s-5 -43.167 -11 -60.5z" />
    <glyph glyph-name="FL005Eh" unicode="^" horiz-adv-x="606" 
d="M585 0l82 670h-305l-341 -670h564zM344 168h-62l83 158z" />
    <glyph glyph-name="FL005Fh" unicode="_" horiz-adv-x="463" 
d="M427 0h-391l55 168h391z" />
    <glyph glyph-name="FL0060h" unicode="`" horiz-adv-x="259" 
d="M455 883h-198l12 -168h186v168z" />
    <glyph glyph-name="a" unicode="a" 
d="M575 0l153 470c5.33301 17.333 8.83301 37.5 10.5 60.5s0 44.833 -5 65.5s-13.833 38.167 -26.5 52.5s-30.667 21.5 -54 21.5h-399l-218 -670h177l72 223h91l-72 -223h271zM376 503h91l-35 -110h-91z" />
    <glyph glyph-name="b" unicode="b" 
d="M36 0l398.997 0.000976562c22.667 0 45.167 7.16699 67.5 21.5s42.833 31.833 61.5 52.5s34.667 42.5 48 65.5s22.666 43.167 27.999 60.5l16 50c4.66699 13.333 5.83398 27.666 3.50098 42.999s-6.16602 29.333 -11.499 42c6 4.66699 12.333 10.5 19 17.5
s12.834 14.333 18.501 22s10.834 15.5 15.501 23.5s8 15.333 10 22l17 50c5.33301 17.333 8.83301 37.5 10.5 60.5s0 44.833 -5 65.5s-13.833 38.167 -26.5 52.5s-30.667 21.5 -54 21.5h-399zM456.997 167.001h-96l28 84h96zM469.997 503.001h96l-26 -82h-96z" />
    <glyph glyph-name="c" unicode="c" horiz-adv-x="518" 
d="M101 200c-5.33301 -17.333 -8.83398 -37.5 -10.501 -60.5s0 -44.833 5 -65.5s13.833 -38.167 26.5 -52.5s30.667 -21.5 54 -21.5h306l54 167h-175l109 336h175l55 167h-306c-23.333 0 -46 -7.16699 -68 -21.5s-42.333 -31.833 -61 -52.5s-34.667 -42.5 -48 -65.5
s-22.666 -43.167 -27.999 -60.5z" />
    <glyph glyph-name="d" unicode="d" 
d="M640 200l88.001 270c5.33301 17.333 8.83301 37.5 10.5 60.5s0 44.833 -5 65.5s-13.833 38.167 -26.5 52.5s-30.667 21.5 -54 21.5h-399l-218 -670h399c22.667 0 45.167 7.16699 67.5 21.5s42.833 31.833 61.5 52.5s34.667 42.5 48 65.5s22.666 43.167 27.999 60.5z
M376.001 503h91l-109 -336h-91z" />
    <glyph glyph-name="e" unicode="e" horiz-adv-x="518" 
d="M189 470l-88.001 -270c-5.33301 -17.333 -8.83301 -37.5 -10.5 -60.5s0 -44.833 5 -65.5s13.833 -38.167 26.5 -52.5s30.667 -21.5 54 -21.5h306l54 167h-175l28 84h162l55 170h-162l26 82h175l55 167h-306c-23.333 0 -46 -7.16699 -68 -21.5s-42.333 -31.833 -61 -52.5
s-34.667 -42.5 -48 -65.5s-22.666 -43.167 -27.999 -60.5z" />
    <glyph glyph-name="f" unicode="f" horiz-adv-x="518" 
d="M189 470l-153.001 -470h271l82 251h162l55 170h-162l26 82h175l55 167h-306c-23.333 0 -46 -7.16699 -68 -21.5s-42.333 -31.833 -61 -52.5s-34.667 -42.5 -48 -65.5s-22.666 -43.167 -27.999 -60.5z" />
    <glyph glyph-name="g" unicode="g" 
d="M101 200c-5.33301 -17.333 -8.83398 -37.5 -10.501 -60.5s0 -44.833 5 -65.5s13.833 -38.167 26.5 -52.5s30.667 -21.5 54 -21.5h399l130 400h-177l-76 -233h-91l109 336h268l55 167h-399c-23.333 0 -46 -7.16699 -68 -21.5s-42.333 -31.833 -61 -52.5
s-34.667 -42.5 -48 -65.5s-22.666 -43.167 -27.999 -60.5z" />
    <glyph glyph-name="h" unicode="h" 
d="M575 0h-177l82 251h-91l-82 -251h-271l218 670h271l-81 -249h91l81 249h177z" />
    <glyph glyph-name="i" unicode="i" horiz-adv-x="343" 
d="M307 0h-271l218 670h271z" />
    <glyph glyph-name="j" unicode="j" horiz-adv-x="490" 
d="M519 200c-5.33301 -17.333 -14.667 -37.5 -28 -60.5s-29.333 -44.833 -48 -65.5s-39.167 -38.167 -61.5 -52.5s-44.833 -21.5 -67.5 -21.5h-278l54 167h147l164 503h271z" />
    <glyph glyph-name="FL006Bh" unicode="k" horiz-adv-x="616" 
d="M36 0l218 670h271l-53 -163l128 163h213l-270 -335l52 -335h-213l-22 163l-53 -163h-271z" />
    <glyph glyph-name="l" unicode="l" horiz-adv-x="489" 
d="M36 0h417l54 167h-146l164 503h-271z" />
    <glyph glyph-name="m" unicode="m" horiz-adv-x="878" 
d="M842 0l153 470c5.33301 17.333 8.83301 37.5 10.5 60.5s0 44.833 -5 65.5s-13.833 38.167 -26.5 52.5s-30.667 21.5 -54 21.5h-666l-218 -670h177l163 503h90l-163 -503h177l163 503h91l-163 -503h271z" />
    <glyph glyph-name="n" unicode="n" 
d="M575 0h-271l163 503h-91l-163 -503h-177l218 670h399c23.333 0 41.333 -7.16699 54 -21.5s21.5 -31.833 26.5 -52.5s6.66699 -42.5 5 -65.5s-5.16699 -43.167 -10.5 -60.5z" />
    <glyph glyph-name="o" unicode="o" 
d="M640 200l88 270c5.33301 17.333 8.83301 37.5 10.5 60.5s0 44.833 -5 65.5s-13.833 38.167 -26.5 52.5s-30.667 21.5 -54 21.5h-259c-23.333 0 -46 -7.16699 -68 -21.5s-42.333 -31.833 -61 -52.5s-34.667 -42.5 -48 -65.5s-22.666 -43.167 -27.999 -60.5l-88 -270
c-5.33301 -17.333 -8.83301 -37.5 -10.5 -60.5s0 -44.833 5 -65.5s13.833 -38.167 26.5 -52.5s30.667 -21.5 54 -21.5h259c22.667 0 45.167 7.16699 67.5 21.5s42.833 31.833 61.5 52.5s34.667 42.5 48 65.5s22.666 43.167 27.999 60.5zM371 503h96l-109 -336h-96z" />
    <glyph glyph-name="p" unicode="p" 
d="M307 0l72.001 222h128c22.667 0 45.167 7.16699 67.5 21.5s42.833 31.833 61.5 52.5s34.667 42.5 48 65.5s22.666 43.167 27.999 60.5l16 48c5.33301 17.333 8.83301 37.5 10.5 60.5s0 44.833 -5 65.5s-13.833 38.167 -26.5 52.5s-30.667 21.5 -54 21.5h-399l-218 -670
h271zM566.001 503l-35 -110h-96l35 110h96z" />
    <glyph glyph-name="q" unicode="q" 
d="M640 200l88 270c5.33301 17.333 8.83301 37.5 10.5 60.5s0 44.833 -5 65.5s-13.833 38.167 -26.5 52.5s-30.667 21.5 -54 21.5h-259c-23.333 0 -46 -7.16699 -68 -21.5s-42.333 -31.833 -61 -52.5s-34.667 -42.5 -48 -65.5s-22.666 -43.167 -27.999 -60.5l-88 -270
c-5.33301 -17.333 -8.83301 -37.5 -10.5 -60.5s0 -44.833 5 -65.5s13.833 -38.167 26.5 -52.5s30.667 -21.5 54 -21.5h159l19 -60h191l-23 95c14 10.667 27.333 23.167 40 37.5s24.167 29 34.5 44s19.166 29.833 26.499 44.5s13 27.667 17 39zM307 304l64 199h96l-64 -199
h-96zM306 167h-44l27 83z" />
    <glyph glyph-name="r" unicode="r" 
d="M307 0l53 163.999l22 -164h213l-32 235c18 8.66699 35 20.667 51 36s30.5 31.833 43.5 49.5s24.167 35.334 33.5 53.001s16.333 33.5 21 47.5l16 49c5.33301 17.333 8.83301 37.5 10.5 60.5s0 44.833 -5 65.5s-13.833 38.167 -26.5 52.5s-30.667 21.5 -54 21.5h-399
l-218 -670h271zM566 502.999l-36 -111h-96l36 111h96z" />
    <glyph glyph-name="s" unicode="s" horiz-adv-x="539" 
d="M118 251h200l-28 -84h-200l-54 -167h327c22.667 0 45.167 7.16699 67.5 21.5s42.833 31.833 61.5 52.5s34.667 42.5 48 65.5s22.666 43.167 27.999 60.5l72 221h-200l26 82h200l55 167h-327c-23.333 0 -46 -7.16699 -68 -21.5s-42.333 -31.833 -61 -52.5
s-34.667 -42.5 -48 -65.5s-22.666 -43.167 -27.999 -60.5z" />
    <glyph glyph-name="t" unicode="t" horiz-adv-x="551" 
d="M678 503l55 167h-479l-55 -167h104l-163 -503h271l163 503h104z" />
    <glyph glyph-name="u" unicode="u" 
d="M254 670h271l-164 -503h91l164 503h177l-218 -670h-399c-23.333 0 -41.333 7.16699 -54 21.5s-21.5 31.833 -26.5 52.5s-6.66699 42.5 -5 65.5s5.16699 43.167 10.5 60.5z" />
    <glyph glyph-name="v" unicode="v" horiz-adv-x="581" 
d="M778 670h-271l-132 -276l41 276h-177l-96 -670h283z" />
    <glyph glyph-name="w" unicode="w" horiz-adv-x="878" 
d="M254 670l-153 -470c-5.33301 -17.333 -8.83301 -37.5 -10.5 -60.5s0 -44.833 5 -65.5s13.833 -38.167 26.5 -52.5s30.667 -21.5 54 -21.5h666l218 670h-177l-164 -503h-90l164 503h-177l-164 -503h-91l164 503h-271z" />
    <glyph glyph-name="FL007Bh" unicode="x" horiz-adv-x="585" 
d="M198 0h-177l168 330l50 340h177l-38 -273l133 273h271l-177 -328l-41 -342h-271l45 273z" />
    <glyph glyph-name="FL0079h" unicode="y" 
d="M640 200c-5.33301 -17.333 -14.667 -37.5 -28 -60.5s-29.333 -44.833 -48 -65.5s-39.167 -38.167 -61.5 -52.5s-44.833 -21.5 -67.5 -21.5h-399l54 167h362l27 81h-222c-22.667 0 -40.5 7.16699 -53.5 21.5s-22 31.833 -27 52.5s-6.83301 42.5 -5.5 65.5
s5 43.167 11 60.5l72 222h271l-83 -255h91l83 255h177z" />
    <glyph glyph-name="FL007Ah" unicode="z" horiz-adv-x="539" 
d="M651 457l-298 -290h204l-54 -167h-467l70 214l297 289h-204l55 167h467z" />
    <glyph glyph-name="FL007Ch" unicode="{" 
d="M253 668c5.33301 17.333 14.667 37.5 28 60.5s29.333 44.833 48 65.5s39 38.167 61 52.5s44.667 21.5 68 21.5h399l-282 -868h-177l100 307h-91l-100 -307h-271zM626.001 701h-91l-73 -224h91z" />
    <glyph glyph-name="FL007Eh" unicode="|" horiz-adv-x="525" 
d="M452 167l174 534h91l54 167h-453l-54 -167h91l-174 -534h-91l-54 -167h453l54 167h-91z" />
    <glyph glyph-name="FL007Dh" unicode="}" 
d="M36 0l153.001 470c5.33301 17.333 14.666 37.5 27.999 60.5s29.333 44.833 48 65.5s39 38.167 61 52.5s44.667 21.5 68 21.5h399l-218 -670h-177l72 223h-91l-72 -223h-271zM561.001 503h-91l-35 -110h91z" />
    <glyph glyph-name="FL0030h" unicode="~" 
d="M101 200l88 270c5.33301 17.333 14.666 37.5 27.999 60.5s29.333 44.833 48 65.5s39 38.167 61 52.5s44.667 21.5 68 21.5h259c23.333 0 41.333 -7.16699 54 -21.5s21.5 -31.833 26.5 -52.5s6.66699 -42.5 5 -65.5s-5.16699 -43.167 -10.5 -60.5l-88 -270
c-5.33301 -17.333 -14.666 -37.5 -27.999 -60.5s-29.333 -44.833 -48 -65.5s-39.167 -38.167 -61.5 -52.5s-44.833 -21.5 -67.5 -21.5h-259c-23.333 0 -41.333 7.16699 -54 21.5s-21.5 31.833 -26.5 52.5s-6.66699 42.5 -5 65.5s5.16699 43.167 10.5 60.5zM566 503h-96
l-109 -336h96z" />
    <glyph glyph-name="FL007Fh" horiz-adv-x="175" 
 />
    <glyph glyph-name="space" unicode="&#xa0;" horiz-adv-x="280" 
 />
    <glyph glyph-name="FL00A1h" unicode="&#xa1;" horiz-adv-x="343" 
d="M542 868h-177l-55 -168h177zM514 636h-271l-207 -636h271z" />
    <glyph glyph-name="FL00A2h" unicode="&#xa2;" horiz-adv-x="518" 
d="M129 285c-6 -17.333 -9.66797 -37.5 -11.001 -60.5s0.5 -44.833 5.5 -65.5s14 -38.167 27 -52.5s30.833 -21.5 53.5 -21.5h49l-28 -85h177l28 85h80l54 167h-175l53 165h175l55 167h-80l28 86h-177l-28 -86h-49c-23.333 0 -46 -7.16699 -68 -21.5
s-42.333 -31.833 -61 -52.5s-34.667 -42.5 -48 -65.5s-22.666 -43.167 -27.999 -60.5z" />
    <glyph glyph-name="FL00A3h" unicode="&#xa3;" horiz-adv-x="591" 
d="M118 251h72.999l-27 -81h-73l-55 -170h519l54 167h-175l28 84h108l55 170h-108l26 82h47l55 167h-178c-23.333 0 -46 -7.16699 -68 -21.5s-42.333 -31.833 -61 -52.5s-34.667 -42.5 -48 -65.5s-22.666 -43.167 -27.999 -60.5l-16 -49h-73z" />
    <glyph glyph-name="FL00A4h" unicode="&#xa4;" horiz-adv-x="585" 
d="M293 0h271l41 342l177 328h-271l-28 -57h-76l9 57h-177l-50 -340l-168 -330h177l30 60h74zM370 475h75l-90 -277h-75z" />
    <glyph glyph-name="FL00A5h" unicode="&#xa5;" horiz-adv-x="585" 
d="M115 243h112l-2 -37h-122l-55 -169h125l-12 -37h271l12 37h119l55 169h-114l22 37h104l55 169h-57l154 258h-271l-95 -156v156h-177l-8 -258h-61z" />
    <glyph glyph-name="FL00A6h" unicode="&#xa6;" horiz-adv-x="525" 
d="M452 167l109 336h91l55 167h-453l-55 -167h91l-109 -336h-91l-54 -167h453l54 167h-91z" />
    <glyph glyph-name="FL00A7h" unicode="&#xa7;" horiz-adv-x="585" 
d="M228 445l-20.002 -102l-187 -343h271l28 57h93c18 0 35.667 6 53 18s33.333 26.5 48 43.5s27.334 35 38.001 54s18.334 35.5 23.001 49.5l38 118l169 330h-177l-31 -60h-185c-18 0 -35.667 -6 -53 -18s-33.166 -26.5 -47.499 -43.5s-26.833 -35 -37.5 -54
s-18.334 -35.5 -23.001 -49.5zM431.998 195h-75l90 277h75z" />
    <glyph glyph-name="FL00A8h" unicode="&#xa8;" horiz-adv-x="483" 
d="M523 714h156l55 168h-156zM268 714h198l55 168h-198z" />
    <glyph glyph-name="copyright" unicode="&#xa9;" horiz-adv-x="292" 
d="M428 868c-9.33301 0 -30.668 -4.66797 -64.001 -14.001c-24 -11.333 -43.333 -26.333 -58 -45c-18 -21.333 -30.333 -41.333 -37 -60c-6 -21.333 -6.66699 -41 -2 -59c2.66699 -10.667 6.33398 -19.334 11.001 -26.001s11 -13 19 -19c12.667 -10 30.667 -15 54 -15
c4 0 25.667 5 65 15c11.333 6 21.5 12.333 30.5 19s18.167 15.334 27.5 26.001c18.667 20.667 30.334 40.334 35.001 59.001c7.33301 23.333 8.66602 43.333 3.99902 60c-4 18.667 -14.667 33.667 -32 45c-26 9.33301 -43.667 14 -53 14zM421.998 848.999
c8.66699 0 16.668 -0.833008 24.001 -2.5s14.333 -5.16699 21 -10.5c12 -8.66699 20.333 -21 25 -37c4 -16 2.66699 -32.667 -4 -50c-5.33301 -18.667 -15 -35 -29 -49c-14.667 -18 -31 -30.333 -49 -37c-16.667 -8.66699 -34.334 -13 -53.001 -13
c-20 0 -35.333 4.33301 -46 13c-11.333 10 -19.666 22.333 -24.999 37c-2.66699 12 -1.33398 28.333 3.99902 49c6 18 15.667 34.667 29 50c15.333 17.333 32 30 50 38s35.667 12 53 12zM421.999 729.999c-12 -20 -28.6699 -30 -50.0029 -30c-26 0 -34 16.333 -24 49
c11.333 33.333 31 50 59 50c16 0 25 -8.33301 27 -25l20 4c0.666992 26 -13.333 39 -42 39c-19.333 0 -36.666 -5.66699 -51.999 -17s-26.666 -28.333 -33.999 -51s-7.16602 -39.667 0.500977 -51s21.167 -17 40.5 -17c30.667 0 55 14.667 73 44z" />
    <glyph glyph-name="FL00AAh" unicode="&#xaa;" 
d="M728 470c5.33301 17.333 8.83301 37.5 10.5 60.5s0 44.833 -5 65.5s-13.833 38.167 -26.5 52.5s-30.667 21.5 -54 21.5h-399l-55 -167h268l-26 -82h-268l-137 -421h539zM386 251l-28 -84h-91l28 84h91z" />
    <glyph glyph-name="FL00ABh" unicode="&#xab;" horiz-adv-x="459" 
d="M530 329l-64 -198l-147 67l90 277l190 67l-51 -156l-100 -29zM311 329l-64 -198l-147 67l90 277l190 67l-51 -156l-100 -29z" />
    <glyph glyph-name="FL00ACh" unicode="&#xac;" horiz-adv-x="422" 
d="M173 421l-55 -170h180l-37 -113h170l92 283h-350z" />
    <glyph glyph-name="FL00ADh" unicode="&#xad;" horiz-adv-x="293" 
d="M118 251h221l55 170h-221z" />
    <glyph glyph-name="FL00AEh" unicode="&#xae;" horiz-adv-x="292" 
d="M428 868c-9.33301 0 -30.668 -4.66797 -64.001 -14.001c-24 -11.333 -43.333 -26.333 -58 -45c-18 -21.333 -30.333 -41.333 -37 -60c-6 -21.333 -6.66699 -41 -2 -59c2.66699 -10.667 6.33398 -19.334 11.001 -26.001s11 -13 19 -19c12.667 -10 30.667 -15 54 -15
c4 0 25.667 5 65 15c11.333 6 21.5 12.333 30.5 19s18.167 15.334 27.5 26.001c18.667 20.667 30.334 40.334 35.001 59.001c7.33301 23.333 8.66602 43.333 3.99902 60c-4 18.667 -14.667 33.667 -32 45c-26 9.33301 -43.667 14 -53 14zM421.998 848.999
c8.66699 0 16.668 -0.833008 24.001 -2.5s14.333 -5.16699 21 -10.5c12 -8.66699 20.333 -21 25 -37c4 -16 2.66699 -32.667 -4 -50c-5.33301 -18.667 -15 -35 -29 -49c-14.667 -18 -31 -30.333 -49 -37c-16.667 -8.66699 -34.334 -13 -53.001 -13
c-20 0 -35.333 4.33301 -46 13c-11.333 10 -19.666 22.333 -24.999 37c-2.66699 12 -1.33398 28.333 3.99902 49c6 18 15.667 34.667 29 50c15.333 17.333 32 30 50 38s35.667 12 53 12zM316.999 683.999h20.001l18 54h12c7.33301 0 12 -1.33301 14 -4
c3.33301 -4 7.66602 -14.333 12.999 -31l4 -19h26l-9 27c-3.33301 8.66699 -6 15 -8 19s-5.66699 7.66699 -11 11c26 2.66699 42 14.667 48 36c2.66699 6.66699 3 13 1 19c-2 4.66699 -5.66699 8.66699 -11 12c-2.66699 2.66699 -13.667 4 -33 4h-42zM360 754.999l13.001 39
h22c14 0 21.333 -0.333008 22 -1c6 -2.66699 7.66699 -9 5 -19c-1.33301 -6 -4.83301 -10.667 -10.5 -14s-14.834 -5 -27.501 -5h-24z" />
    <glyph glyph-name="FL00AFh" unicode="&#xaf;" horiz-adv-x="463" 
d="M654 700h-391l55 168h391z" />
    <glyph glyph-name="FL00B0h" unicode="&#xb0;" horiz-adv-x="270" 
d="M268 714h198l55 168h-198zM370 823h64l-16 -51h-64z" />
    <glyph glyph-name="FL00B1h" unicode="&#xb1;" horiz-adv-x="467" 
d="M349 618l-37 -112h-112l-55 -170h112l-37 -113h170l37 113h113l55 170h-113l37 112h-170zM91 170l-55 -170h395l55 170h-395z" />
    <glyph glyph-name="FL00B2h" unicode="&#xb2;" horiz-adv-x="329" 
d="M273 729l103 0.000976562l8 26h-103l37 113h180c12.667 0 22.5 -4 29.5 -12s11.833 -17.833 14.5 -29.5s3.5 -23.834 2.5 -36.501s-2.83301 -23.667 -5.5 -33l-39 -121h-103l-8 -23h103l-37 -114h-257z" />
    <glyph glyph-name="FL00B3h" unicode="&#xb3;" horiz-adv-x="318" 
d="M528 757l-8.99902 -29.001c-4 -7.33301 -9.33301 -15.333 -16 -24s-13 -15.667 -19 -21c3.33301 -7.33301 5.66602 -15.166 6.99902 -23.499s0.666016 -16.166 -2.00098 -23.499l-9 -27c-3.33301 -9.33301 -8.66602 -20.333 -15.999 -33s-16 -24.667 -26 -36
s-21.167 -21 -33.5 -29s-24.833 -12 -37.5 -12h-169l37 114h92l8 24h-85l31 94h85l7 24h-92l37 113h169c12.667 0 22.5 -4 29.5 -12s11.833 -17.833 14.5 -29.5s3.5 -23.834 2.5 -36.501s-2.83301 -23.667 -5.5 -33z" />
    <glyph glyph-name="FL00B4h" unicode="&#xb4;" horiz-adv-x="215" 
d="M377 882l-109 -168h143l122 168h-156z" />
    <glyph glyph-name="FL00B5h" unicode="&#xb5;" 
d="M793 670h-270.999l-164 -503h-91l164 503h-177l-218 -670h399c22.667 0 45.167 7.16699 67.5 21.5s42.833 31.833 61.5 52.5s34.667 42.5 48 65.5s22.666 43.167 27.999 60.5z" />
    <glyph glyph-name="FL00B6h" unicode="&#xb6;" horiz-adv-x="787" 
d="M666 701h41.999l-255 -783h271l309 950h-575c-23.333 0 -46 -7.16699 -68 -21.5s-42.333 -31.833 -61 -52.5s-34.667 -42.5 -48 -65.5s-22.666 -43.167 -27.999 -60.5l-53 -162c-5.33301 -17.333 -8.83301 -37.5 -10.5 -60.5s0 -44.833 5 -65.5
s13.833 -38.167 26.5 -52.5s30.667 -21.5 54 -21.5h85l-126 -388h177z" />
    <glyph glyph-name="FL00B7h" unicode="&#xb7;" horiz-adv-x="249" 
d="M295 252h-177l54 168h177z" />
    <glyph glyph-name="FL00B8h" unicode="&#xb8;" horiz-adv-x="213" 
d="M36 0l-13 -40h-58l-42 -130h199l55 170h-141z" />
    <glyph glyph-name="FL00BBh" unicode="&#xb9;" horiz-adv-x="267" 
d="M393 499l120 369h-195l-37 -113h43l-83 -256h152z" />
    <glyph glyph-name="FL00BAh" unicode="&#xba;" horiz-adv-x="369" 
d="M385 755h40l-46 -142h-40zM531 609l47.999 148c2.66699 9.33301 4.5 20.333 5.5 33s0.166992 24.834 -2.5 36.501s-7.5 21.5 -14.5 29.5s-16.833 12 -29.5 12h-143c-12.667 0 -25.167 -4 -37.5 -12s-23.666 -17.833 -33.999 -29.5s-19.166 -23.834 -26.499 -36.501
s-12.333 -23.667 -15 -33l-48 -148c-3.33301 -9.33301 -5.33301 -20.333 -6 -33s0.333008 -24.667 3 -36s7.5 -21 14.5 -29s16.833 -12 29.5 -12h143c12.667 0 25.167 4 37.5 12s23.5 17.667 33.5 29s18.667 23.333 26 36s12.666 23.667 15.999 33z" />
    <glyph glyph-name="FL00BDh" unicode="&#xbb;" horiz-adv-x="459" 
d="M530 329l-64 -198l-147 67l90 277l190 67l-51 -156l-100 -29zM311 329l-64 -198l-147 67l90 277l190 67l-51 -156l-100 -29z" />
    <glyph glyph-name="FL00BEh" unicode="&#xbc;" horiz-adv-x="825" 
d="M212 0h175l341 670h-176zM612 369l-78 -240h143l-42 -129h154l120 369h-154l-41 -126h-39l41 126h-104zM329 301l120 369h-195l-37 -113h43l-83 -256h152z" />
    <glyph glyph-name="FL02E0h" unicode="&#xbd;" horiz-adv-x="785" 
d="M177 301l83 256h-43l37 113h195l-120 -369h-152zM552 670h176l-341 -670h-175zM567 230l103 0.000976562l8 26h-103l37 113h180c12.667 0 22.5 -4 29.5 -12s11.833 -17.833 14.5 -29.5s3.5 -23.834 2.5 -36.501s-2.83301 -23.667 -5.5 -33l-39 -121h-103l-8 -23h103
l-37 -114h-257z" />
    <glyph glyph-name="FL0293h" unicode="&#xbe;" horiz-adv-x="860" 
d="M464 559c2.66699 9.33301 4.5 20.3311 5.5 32.998s0.166992 24.834 -2.5 36.501s-7.5 21.5 -14.5 29.5s-16.833 12 -29.5 12h-169l-37 -113h92l-8 -24h-85l-30 -94h85l-8 -24h-92l-37 -114h169c12.667 0 25.167 4 37.5 12s23.5 17.667 33.5 29s18.667 23.333 26 36
s12.666 23.667 15.999 33l8 27c4.66699 14.667 3.33398 30.334 -3.99902 47.001c6 5.33301 12.167 12.333 18.5 21s11.5 16.667 15.5 24zM247 -0.00195312h175l341 670h-176zM647 368.998l-78 -240h143l-42 -129h154l120 369h-154l-41 -126h-39l41 126h-104z" />
    <glyph glyph-name="FL00BFh" unicode="&#xbf;" horiz-adv-x="539" 
d="M205 519h199l38 117h268l-94 -287h-200l-59 -182h200l-54 -167h-327c-23.333 0 -41.333 7.16699 -54 21.5s-21.5 31.833 -26.5 52.5s-6.66699 42.5 -5 65.5s5.16699 43.167 10.5 60.5zM562 868h177l-55 -168h-177z" />
    <glyph glyph-name="FL00C0h" unicode="&#xc0;" 
d="M644 883h-198l12 -168h186v168zM575 0l153 470c5.33301 17.333 8.83301 37.5 10.5 60.5s0 44.833 -5 65.5s-13.833 38.167 -26.5 52.5s-30.667 21.5 -54 21.5h-399l-218 -670h177l72 223h91l-72 -223h271zM376 503h91l-35 -110h-91z" />
    <glyph glyph-name="FL00C1h" unicode="&#xc1;" 
d="M546 882l-109 -168h143l122 168h-156zM575 0l153 470c5.33301 17.333 8.83301 37.5 10.5 60.5s0 44.833 -5 65.5s-13.833 38.167 -26.5 52.5s-30.667 21.5 -54 21.5h-399l-218 -670h177l72 223h91l-72 -223h271zM376 503h91l-35 -110h-91z" />
    <glyph glyph-name="FL00C2h" unicode="&#xc2;" 
d="M545 714h198l-12 168h-277l-122 -168h156l59 91zM575 0l153 470c5.33301 17.333 8.83301 37.5 10.5 60.5s0 44.833 -5 65.5s-13.833 38.167 -26.5 52.5s-30.667 21.5 -54 21.5h-399l-218 -670h177l72 223h91l-72 -223h271zM376 503h91l-35 -110h-91z" />
    <glyph glyph-name="FL00C3h" unicode="&#xc3;" horiz-adv-x="599" 
d="M464 793l6 -79h257l122 168h-142l-52 -80l-5 80h-259l-122 -168h144zM575 0l153 470c5.33301 17.333 8.83301 37.5 10.5 60.5s0 44.833 -5 65.5s-13.833 38.167 -26.5 52.5s-30.667 21.5 -54 21.5h-399l-218 -670h177l72 223h91l-72 -223h271zM376 503h91l-35 -110h-91z
" />
    <glyph glyph-name="FL00C4h" unicode="&#xc4;" 
d="M587 714h156l55 168h-156zM332 714h198l55 168h-198zM575 0l153 470c5.33301 17.333 8.83301 37.5 10.5 60.5s0 44.833 -5 65.5s-13.833 38.167 -26.5 52.5s-30.667 21.5 -54 21.5h-399l-218 -670h177l72 223h91l-72 -223h271zM376 503h91l-35 -110h-91z" />
    <glyph glyph-name="FL00C5h" unicode="&#xc5;" 
d="M438 714h198l55 168h-198zM575 0l153 470c5.33301 17.333 8.83301 37.5 10.5 60.5s0 44.833 -5 65.5s-13.833 38.167 -26.5 52.5s-30.667 21.5 -54 21.5h-399l-218 -670h177l72 223h91l-72 -223h271zM376 503h91l-35 -110h-91zM540 823h64l-16 -51h-64z" />
    <glyph glyph-name="FL00C6h" unicode="&#xc6;" horiz-adv-x="785" 
d="M318 868h713l-54 -167h-174l-60 -183h161l-55 -170h-161l-59 -181h174l-54 -167h-445l104 320h-91l-104 -320h-177zM441 701l-69 -211h91l69 211h-91z" />
    <glyph glyph-name="FL00C7h" unicode="&#xc7;" horiz-adv-x="518" 
d="M253 668l-152.001 -468c-5.33301 -17.333 -8.83301 -37.5 -10.5 -60.5s0 -44.833 5 -65.5s13.833 -38.167 26.5 -52.5s30.667 -21.5 54 -21.5h66l-13 -40h-58l-42 -130h199l55 170h99l54 167h-175l174 534h175l54 167h-306c-23.333 0 -46 -7.16699 -68 -21.5
s-42.333 -31.833 -61 -52.5s-34.667 -42.5 -48 -65.5s-22.666 -43.167 -27.999 -60.5z" />
    <glyph glyph-name="FL00C8h" unicode="&#xc8;" horiz-adv-x="518" 
d="M101 200c-5.33301 -17.333 -8.83398 -37.5 -10.501 -60.5s0 -44.833 5 -65.5s13.833 -38.167 26.5 -52.5s30.667 -21.5 54 -21.5h306l54 167h-175l28 84h162l55 170h-162l26 82h175l55 167h-306c-23.333 0 -46 -7.16699 -68 -21.5s-42.333 -31.833 -61 -52.5
s-34.667 -42.5 -48 -65.5s-22.666 -43.167 -27.999 -60.5zM643.999 883h-198l12 -168h186v168z" />
    <glyph glyph-name="FL00C9h" unicode="&#xc9;" horiz-adv-x="518" 
d="M101 200c-5.33301 -17.333 -8.83398 -37.5 -10.501 -60.5s0 -44.833 5 -65.5s13.833 -38.167 26.5 -52.5s30.667 -21.5 54 -21.5h306l54 167h-175l28 84h162l55 170h-162l26 82h175l55 167h-306c-23.333 0 -46 -7.16699 -68 -21.5s-42.333 -31.833 -61 -52.5
s-34.667 -42.5 -48 -65.5s-22.666 -43.167 -27.999 -60.5zM545.999 882l-109 -168h143l122 168h-156z" />
    <glyph glyph-name="FL00CAh" unicode="&#xca;" horiz-adv-x="518" 
d="M483 714h-198l122 168h277l12 -168h-156l1 91zM101 200l88.001 270c5.33301 17.333 14.666 37.5 27.999 60.5s29.333 44.833 48 65.5s39 38.167 61 52.5s44.667 21.5 68 21.5h306l-55 -167h-175l-26 -82h162l-55 -170h-162l-28 -84h175l-54 -167h-306
c-23.333 0 -41.333 7.16699 -54 21.5s-21.5 31.833 -26.5 52.5s-6.66699 42.5 -5 65.5s5.16699 43.167 10.5 60.5z" />
    <glyph glyph-name="FL00CBh" unicode="&#xcb;" horiz-adv-x="518" 
d="M483 714h-198l55 168h198zM696 714h-156l55 168h156zM101 200l88.001 270c5.33301 17.333 14.666 37.5 27.999 60.5s29.333 44.833 48 65.5s39 38.167 61 52.5s44.667 21.5 68 21.5h306l-55 -167h-175l-26 -82h162l-55 -170h-162l-28 -84h175l-54 -167h-306
c-23.333 0 -41.333 7.16699 -54 21.5s-21.5 31.833 -26.5 52.5s-6.66699 42.5 -5 65.5s5.16699 43.167 10.5 60.5z" />
    <glyph glyph-name="FL00CCh" unicode="&#xcc;" horiz-adv-x="343" 
d="M509 882l-1 -168h-143l-12 168h156zM254 670h271l-218 -670h-271z" />
    <glyph glyph-name="FL00CDh" unicode="&#xcd;" horiz-adv-x="343" 
d="M387 883h198l-122 -168h-186zM307 0h-271l218 670h271z" />
    <glyph glyph-name="FL00CEh" unicode="&#xce;" horiz-adv-x="343" 
d="M396 714h-198l122 168h277l12 -168h-156l1 91zM307 0h-271l218 670h271z" />
    <glyph glyph-name="FL00CFh" unicode="&#xcf;" horiz-adv-x="343" 
d="M396 714h-198l55 168h198zM609 714h-156l55 168h156zM307 0h-271l218 670h271z" />
    <glyph glyph-name="FL00D0h" unicode="&#xd0;" horiz-adv-x="663" 
d="M118 251h52.001l-82 -251h399c22.667 0 45.167 7.16699 67.5 21.5s42.833 31.833 61.5 52.5s34.667 42.5 48 65.5s22.666 43.167 27.999 60.5l88 270c5.33301 17.333 8.83301 37.5 10.5 60.5s0 44.833 -5 65.5s-13.833 38.167 -26.5 52.5s-30.667 21.5 -54 21.5h-399
l-81 -249h-52zM428.001 503h91l-109 -336h-91l28 84h52l55 170h-52z" />
    <glyph glyph-name="FL00D1h" unicode="&#xd1;" 
d="M470 793l6 -79h257l122 168h-142l-52 -80l-5 80h-259l-122 -168h144zM304 0h271l153 470c5.33301 17.333 8.83301 37.5 10.5 60.5s0 44.833 -5 65.5s-13.833 38.167 -26.5 52.5s-30.667 21.5 -54 21.5h-399l-218 -670h177l163 503h91z" />
    <glyph glyph-name="FL00D2h" unicode="&#xd2;" 
d="M644 883h-198l12 -168h186v168zM640 200l88 270c5.33301 17.333 8.83301 37.5 10.5 60.5s0 44.833 -5 65.5s-13.833 38.167 -26.5 52.5s-30.667 21.5 -54 21.5h-259c-23.333 0 -46 -7.16699 -68 -21.5s-42.333 -31.833 -61 -52.5s-34.667 -42.5 -48 -65.5
s-22.666 -43.167 -27.999 -60.5l-88 -270c-5.33301 -17.333 -8.83301 -37.5 -10.5 -60.5s0 -44.833 5 -65.5s13.833 -38.167 26.5 -52.5s30.667 -21.5 54 -21.5h259c22.667 0 45.167 7.16699 67.5 21.5s42.833 31.833 61.5 52.5s34.667 42.5 48 65.5
s22.666 43.167 27.999 60.5zM371 503h96l-109 -336h-96z" />
    <glyph glyph-name="FL00D3h" unicode="&#xd3;" 
d="M546 882l-109 -168h143l122 168h-156zM640 200l88 270c5.33301 17.333 8.83301 37.5 10.5 60.5s0 44.833 -5 65.5s-13.833 38.167 -26.5 52.5s-30.667 21.5 -54 21.5h-259c-23.333 0 -46 -7.16699 -68 -21.5s-42.333 -31.833 -61 -52.5s-34.667 -42.5 -48 -65.5
s-22.666 -43.167 -27.999 -60.5l-88 -270c-5.33301 -17.333 -8.83301 -37.5 -10.5 -60.5s0 -44.833 5 -65.5s13.833 -38.167 26.5 -52.5s30.667 -21.5 54 -21.5h259c22.667 0 45.167 7.16699 67.5 21.5s42.833 31.833 61.5 52.5s34.667 42.5 48 65.5
s22.666 43.167 27.999 60.5zM371 503h96l-109 -336h-96z" />
    <glyph glyph-name="FL00D4h" unicode="&#xd4;" 
d="M545 714h198l-12 168h-277l-122 -168h156l59 91zM640 200l88 270c5.33301 17.333 8.83301 37.5 10.5 60.5s0 44.833 -5 65.5s-13.833 38.167 -26.5 52.5s-30.667 21.5 -54 21.5h-259c-23.333 0 -46 -7.16699 -68 -21.5s-42.333 -31.833 -61 -52.5
s-34.667 -42.5 -48 -65.5s-22.666 -43.167 -27.999 -60.5l-88 -270c-5.33301 -17.333 -8.83301 -37.5 -10.5 -60.5s0 -44.833 5 -65.5s13.833 -38.167 26.5 -52.5s30.667 -21.5 54 -21.5h259c22.667 0 45.167 7.16699 67.5 21.5s42.833 31.833 61.5 52.5
s34.667 42.5 48 65.5s22.666 43.167 27.999 60.5zM371 503h96l-109 -336h-96z" />
    <glyph glyph-name="FL00D5h" unicode="&#xd5;" horiz-adv-x="599" 
d="M262 167l109 336h96l-109 -336h-96zM640 200l88 270c5.33301 17.333 8.83301 37.5 10.5 60.5s0 44.833 -5 65.5s-13.833 38.167 -26.5 52.5s-30.667 21.5 -54 21.5h-259c-23.333 0 -46 -7.16699 -68 -21.5s-42.333 -31.833 -61 -52.5s-34.667 -42.5 -48 -65.5
s-22.666 -43.167 -27.999 -60.5l-88 -270c-5.33301 -17.333 -8.83301 -37.5 -10.5 -60.5s0 -44.833 5 -65.5s13.833 -38.167 26.5 -52.5s30.667 -21.5 54 -21.5h259c22.667 0 45.167 7.16699 67.5 21.5s42.833 31.833 61.5 52.5s34.667 42.5 48 65.5
s22.666 43.167 27.999 60.5zM464 793l6 -79h257l122 168h-142l-52 -80l-5 80h-259l-122 -168h144z" />
    <glyph glyph-name="FL00D6h" unicode="&#xd6;" 
d="M545 714h198l55 168h-198zM332 714h156l55 168h-156zM640 200l88 270c5.33301 17.333 8.83301 37.5 10.5 60.5s0 44.833 -5 65.5s-13.833 38.167 -26.5 52.5s-30.667 21.5 -54 21.5h-259c-23.333 0 -46 -7.16699 -68 -21.5s-42.333 -31.833 -61 -52.5
s-34.667 -42.5 -48 -65.5s-22.666 -43.167 -27.999 -60.5l-88 -270c-5.33301 -17.333 -8.83301 -37.5 -10.5 -60.5s0 -44.833 5 -65.5s13.833 -38.167 26.5 -52.5s30.667 -21.5 54 -21.5h259c22.667 0 45.167 7.16699 67.5 21.5s42.833 31.833 61.5 52.5
s34.667 42.5 48 65.5s22.666 43.167 27.999 60.5zM371 503h96l-109 -336h-96z" />
    <glyph glyph-name="FL0078h" unicode="&#xd7;" horiz-adv-x="581" 
d="M778 670l-168 -315l-50 -355h-177l41 276l-132 -276h-271l167 318l51 352h177l-41 -276l132 276h271z" />
    <glyph glyph-name="FL00D8h" unicode="&#xd8;" 
d="M640 200l152 468c5.33301 17.333 8.83301 37.5 10.5 60.5s0 44.833 -5 65.5s-13.833 38.167 -26.5 52.5s-30.667 21.5 -54 21.5h-259c-23.333 0 -46 -7.16699 -68 -21.5s-42.333 -31.833 -61 -52.5s-34.667 -42.5 -48 -65.5s-22.666 -43.167 -27.999 -60.5l-152 -468
c-5.33301 -17.333 -8.83301 -37.5 -10.5 -60.5s0 -44.833 5 -65.5s13.833 -38.167 26.5 -52.5s30.667 -21.5 54 -21.5h259c22.667 0 45.167 7.16699 67.5 21.5s42.833 31.833 61.5 52.5s34.667 42.5 48 65.5s22.666 43.167 27.999 60.5zM262 167l17 50l193 299l-114 -349
h-96zM436 701h96l-15 -46l-192 -294z" />
    <glyph glyph-name="FL00D9h" unicode="&#xd9;" 
d="M254 670h271l-164 -503h91l164 503h177l-218 -670h-399c-23.333 0 -41.333 7.16699 -54 21.5s-21.5 31.833 -26.5 52.5s-6.66699 42.5 -5 65.5s5.16699 43.167 10.5 60.5zM639 882l-1 -168h-143l-12 168h156z" />
    <glyph glyph-name="FL00DAh" unicode="&#xda;" 
d="M254 670h271l-164 -503h91l164 503h177l-218 -670h-399c-23.333 0 -41.333 7.16699 -54 21.5s-21.5 31.833 -26.5 52.5s-6.66699 42.5 -5 65.5s5.16699 43.167 10.5 60.5zM541 883h198l-122 -168h-186z" />
    <glyph glyph-name="FL00DBh" unicode="&#xdb;" 
d="M254 670h271l-164 -503h91l164 503h177l-218 -670h-399c-23.333 0 -41.333 7.16699 -54 21.5s-21.5 31.833 -26.5 52.5s-6.66699 42.5 -5 65.5s5.16699 43.167 10.5 60.5zM530 714h-198l122 168h277l12 -168h-156l1 91z" />
    <glyph glyph-name="FL00DCh" unicode="&#xdc;" 
d="M530 714h-198l55 168h198zM743 714h-156l55 168h156zM254 670h271l-164 -503h91l164 503h177l-218 -670h-399c-23.333 0 -41.333 7.16699 -54 21.5s-21.5 31.833 -26.5 52.5s-6.66699 42.5 -5 65.5s5.16699 43.167 10.5 60.5z" />
    <glyph glyph-name="FL00DDh" unicode="&#xdd;" 
d="M640 200c-5.33301 -17.333 -14.667 -37.5 -28 -60.5s-29.333 -44.833 -48 -65.5s-39.167 -38.167 -61.5 -52.5s-44.833 -21.5 -67.5 -21.5h-399l54 167h362l27 81h-222c-22.667 0 -40.5 7.16699 -53.5 21.5s-22 31.833 -27 52.5s-6.83301 42.5 -5.5 65.5
s5 43.167 11 60.5l72 222h271l-83 -255h91l83 255h177zM540.999 883h198l-122 -168h-186z" />
    <glyph glyph-name="FL00DEh" unicode="&#xde;" 
d="M36 0h271.001l50 153h128c23.333 0 46 7.16699 68 21.5s42.167 31.833 60.5 52.5s34.166 42.5 47.499 65.5s23 43.167 29 60.5l52 162c6 17.333 9.66699 37.5 11 60.5s-0.5 44.833 -5.5 65.5s-14 38.167 -27 52.5s-30.833 21.5 -53.5 21.5h-128l50 153h-271zM581.001 548
l-73 -224h-96l73 224h96z" />
    <glyph glyph-name="FL00DFh" unicode="&#xdf;" 
d="M470 503h95.9971l-26 -82h-55l-55 -170h55l-28 -84h-55l-54 -167h87c22.667 0 45.167 7.16699 67.5 21.5s42.833 31.833 61.5 52.5s34.667 42.5 48 65.5s22.666 43.167 27.999 60.5l16 50c4.66699 13.333 5.83398 27.666 3.50098 42.999s-6.16602 29.333 -11.499 42
c5.33301 4 11 9.33301 17 16s11.833 13.667 17.5 21s10.834 14.833 15.501 22.5s8.66699 14.834 12 21.501l18 54c5.33301 17.333 8.83301 37.5 10.5 60.5s0 44.833 -5 65.5s-13.833 38.167 -26.5 52.5s-30.667 21.5 -54 21.5h-259c-23.333 0 -46 -7.16699 -68 -21.5
s-42.333 -31.833 -61 -52.5s-34.667 -42.5 -48 -65.5s-22.666 -43.167 -27.999 -60.5l-191 -587h271z" />
    <glyph glyph-name="FL00E0h" unicode="&#xe0;" 
d="M644 883h-198l12 -168h186v168zM575 0l153 470c5.33301 17.333 8.83301 37.5 10.5 60.5s0 44.833 -5 65.5s-13.833 38.167 -26.5 52.5s-30.667 21.5 -54 21.5h-399l-218 -670h177l72 223h91l-72 -223h271zM376 503h91l-35 -110h-91z" />
    <glyph glyph-name="FL00E1h" unicode="&#xe1;" 
d="M546 882l-109 -168h143l122 168h-156zM575 0l153 470c5.33301 17.333 8.83301 37.5 10.5 60.5s0 44.833 -5 65.5s-13.833 38.167 -26.5 52.5s-30.667 21.5 -54 21.5h-399l-218 -670h177l72 223h91l-72 -223h271zM376 503h91l-35 -110h-91z" />
    <glyph glyph-name="FL00E2h" unicode="&#xe2;" 
d="M545 714h198l-12 168h-277l-122 -168h156l59 91zM575 0l153 470c5.33301 17.333 8.83301 37.5 10.5 60.5s0 44.833 -5 65.5s-13.833 38.167 -26.5 52.5s-30.667 21.5 -54 21.5h-399l-218 -670h177l72 223h91l-72 -223h271zM376 503h91l-35 -110h-91z" />
    <glyph glyph-name="FL00E4h" unicode="&#xe3;" horiz-adv-x="599" 
d="M464 793l6 -79h257l122 168h-142l-52 -80l-5 80h-259l-122 -168h144zM575 0l153 470c5.33301 17.333 8.83301 37.5 10.5 60.5s0 44.833 -5 65.5s-13.833 38.167 -26.5 52.5s-30.667 21.5 -54 21.5h-399l-218 -670h177l72 223h91l-72 -223h271zM376 503h91l-35 -110h-91z
" />
    <glyph glyph-name="FL00E3h" unicode="&#xe4;" 
d="M587 714h156l55 168h-156zM332 714h198l55 168h-198zM575 0l153 470c5.33301 17.333 8.83301 37.5 10.5 60.5s0 44.833 -5 65.5s-13.833 38.167 -26.5 52.5s-30.667 21.5 -54 21.5h-399l-218 -670h177l72 223h91l-72 -223h271zM376 503h91l-35 -110h-91z" />
    <glyph glyph-name="FL00E5h" unicode="&#xe5;" 
d="M438 714h198l55 168h-198zM575 0l153 470c5.33301 17.333 8.83301 37.5 10.5 60.5s0 44.833 -5 65.5s-13.833 38.167 -26.5 52.5s-30.667 21.5 -54 21.5h-399l-218 -670h177l72 223h91l-72 -223h271zM376 503h91l-35 -110h-91zM540 823h64l-16 -51h-64z" />
    <glyph glyph-name="FL00E6h" unicode="&#xe6;" horiz-adv-x="785" 
d="M254 670h713l-55 -167h-174l-26 -82h161l-55 -170h-161l-28 -84h174l-54 -167h-445l72 223h-91l-72 -223h-177zM376 503l-35 -110h91l35 110h-91z" />
    <glyph glyph-name="FL00E7h" unicode="&#xe7;" horiz-adv-x="518" 
d="M101 200c-5.33301 -17.333 -8.83398 -37.5 -10.501 -60.5s0 -44.833 5 -65.5s13.833 -38.167 26.5 -52.5s30.667 -21.5 54 -21.5h66l-13 -40h-58l-42 -130h199l55 170h99l54 167h-175l109 336h175l55 167h-306c-23.333 0 -46 -7.16699 -68 -21.5
s-42.333 -31.833 -61 -52.5s-34.667 -42.5 -48 -65.5s-22.666 -43.167 -27.999 -60.5z" />
    <glyph glyph-name="FL00E8h" unicode="&#xe8;" horiz-adv-x="518" 
d="M101 200c-5.33301 -17.333 -8.83398 -37.5 -10.501 -60.5s0 -44.833 5 -65.5s13.833 -38.167 26.5 -52.5s30.667 -21.5 54 -21.5h306l54 167h-175l28 84h162l55 170h-162l26 82h175l55 167h-306c-23.333 0 -46 -7.16699 -68 -21.5s-42.333 -31.833 -61 -52.5
s-34.667 -42.5 -48 -65.5s-22.666 -43.167 -27.999 -60.5zM643.999 883h-198l12 -168h186v168z" />
    <glyph glyph-name="FL00E9h" unicode="&#xe9;" horiz-adv-x="518" 
d="M101 200c-5.33301 -17.333 -8.83398 -37.5 -10.501 -60.5s0 -44.833 5 -65.5s13.833 -38.167 26.5 -52.5s30.667 -21.5 54 -21.5h306l54 167h-175l28 84h162l55 170h-162l26 82h175l55 167h-306c-23.333 0 -46 -7.16699 -68 -21.5s-42.333 -31.833 -61 -52.5
s-34.667 -42.5 -48 -65.5s-22.666 -43.167 -27.999 -60.5zM545.999 882l-109 -168h143l122 168h-156z" />
    <glyph glyph-name="FL00EAh" unicode="&#xea;" horiz-adv-x="518" 
d="M483 714h-198l122 168h277l12 -168h-156l1 91zM101 200l88.001 270c5.33301 17.333 14.666 37.5 27.999 60.5s29.333 44.833 48 65.5s39 38.167 61 52.5s44.667 21.5 68 21.5h306l-55 -167h-175l-26 -82h162l-55 -170h-162l-28 -84h175l-54 -167h-306
c-23.333 0 -41.333 7.16699 -54 21.5s-21.5 31.833 -26.5 52.5s-6.66699 42.5 -5 65.5s5.16699 43.167 10.5 60.5z" />
    <glyph glyph-name="FL00EBh" unicode="&#xeb;" horiz-adv-x="518" 
d="M483 714h-198l55 168h198zM696 714h-156l55 168h156zM101 200l88.001 270c5.33301 17.333 14.666 37.5 27.999 60.5s29.333 44.833 48 65.5s39 38.167 61 52.5s44.667 21.5 68 21.5h306l-55 -167h-175l-26 -82h162l-55 -170h-162l-28 -84h175l-54 -167h-306
c-23.333 0 -41.333 7.16699 -54 21.5s-21.5 31.833 -26.5 52.5s-6.66699 42.5 -5 65.5s5.16699 43.167 10.5 60.5z" />
    <glyph glyph-name="FL00ECh" unicode="&#xec;" horiz-adv-x="343" 
d="M509 882l-1 -168h-143l-12 168h156zM254 670h271l-218 -670h-271z" />
    <glyph glyph-name="FL00EDh" unicode="&#xed;" horiz-adv-x="343" 
d="M387 883h198l-122 -168h-186zM307 0h-271l218 670h271z" />
    <glyph glyph-name="FL00EEh" unicode="&#xee;" horiz-adv-x="343" 
d="M396 714h-198l122 168h277l12 -168h-156l1 91zM307 0h-271l218 670h271z" />
    <glyph glyph-name="FL00EFh" unicode="&#xef;" horiz-adv-x="343" 
d="M396 714h-198l55 168h198zM609 714h-156l55 168h156zM307 0h-271l218 670h271z" />
    <glyph glyph-name="FL00F0h" unicode="&#xf0;" 
d="M640 200l88.001 270c5.33301 17.333 8.83301 37.5 10.5 60.5s0 44.833 -5 65.5s-13.833 38.167 -26.5 52.5s-30.667 21.5 -54 21.5h-74l30 93h-177l-30 -93h-148l-55 -167h268l-26 -82h-268l-137 -421h399c22.667 0 45.167 7.16699 67.5 21.5s42.833 31.833 61.5 52.5
s34.667 42.5 48 65.5s22.666 43.167 27.999 60.5zM295.001 251h91l-28 -84h-91z" />
    <glyph glyph-name="FL00F1h" unicode="&#xf1;" 
d="M470 793l6 -79h257l122 168h-142l-52 -80l-5 80h-259l-122 -168h144zM304 0h271l153 470c5.33301 17.333 8.83301 37.5 10.5 60.5s0 44.833 -5 65.5s-13.833 38.167 -26.5 52.5s-30.667 21.5 -54 21.5h-399l-218 -670h177l163 503h91z" />
    <glyph glyph-name="FL00F3h" unicode="&#xf2;" 
d="M644 883h-198l12 -168h186v168zM640 200l88 270c5.33301 17.333 8.83301 37.5 10.5 60.5s0 44.833 -5 65.5s-13.833 38.167 -26.5 52.5s-30.667 21.5 -54 21.5h-259c-23.333 0 -46 -7.16699 -68 -21.5s-42.333 -31.833 -61 -52.5s-34.667 -42.5 -48 -65.5
s-22.666 -43.167 -27.999 -60.5l-88 -270c-5.33301 -17.333 -8.83301 -37.5 -10.5 -60.5s0 -44.833 5 -65.5s13.833 -38.167 26.5 -52.5s30.667 -21.5 54 -21.5h259c22.667 0 45.167 7.16699 67.5 21.5s42.833 31.833 61.5 52.5s34.667 42.5 48 65.5
s22.666 43.167 27.999 60.5zM371 503h96l-109 -336h-96z" />
    <glyph glyph-name="FL00F2h" unicode="&#xf3;" 
d="M546 882l-109 -168h143l122 168h-156zM640 200l88 270c5.33301 17.333 8.83301 37.5 10.5 60.5s0 44.833 -5 65.5s-13.833 38.167 -26.5 52.5s-30.667 21.5 -54 21.5h-259c-23.333 0 -46 -7.16699 -68 -21.5s-42.333 -31.833 -61 -52.5s-34.667 -42.5 -48 -65.5
s-22.666 -43.167 -27.999 -60.5l-88 -270c-5.33301 -17.333 -8.83301 -37.5 -10.5 -60.5s0 -44.833 5 -65.5s13.833 -38.167 26.5 -52.5s30.667 -21.5 54 -21.5h259c22.667 0 45.167 7.16699 67.5 21.5s42.833 31.833 61.5 52.5s34.667 42.5 48 65.5
s22.666 43.167 27.999 60.5zM371 503h96l-109 -336h-96z" />
    <glyph glyph-name="FL00F4h" unicode="&#xf4;" 
d="M545 714h198l-12 168h-277l-122 -168h156l59 91zM640 200l88 270c5.33301 17.333 8.83301 37.5 10.5 60.5s0 44.833 -5 65.5s-13.833 38.167 -26.5 52.5s-30.667 21.5 -54 21.5h-259c-23.333 0 -46 -7.16699 -68 -21.5s-42.333 -31.833 -61 -52.5
s-34.667 -42.5 -48 -65.5s-22.666 -43.167 -27.999 -60.5l-88 -270c-5.33301 -17.333 -8.83301 -37.5 -10.5 -60.5s0 -44.833 5 -65.5s13.833 -38.167 26.5 -52.5s30.667 -21.5 54 -21.5h259c22.667 0 45.167 7.16699 67.5 21.5s42.833 31.833 61.5 52.5
s34.667 42.5 48 65.5s22.666 43.167 27.999 60.5zM371 503h96l-109 -336h-96z" />
    <glyph glyph-name="FL00F5h" unicode="&#xf5;" horiz-adv-x="599" 
d="M262 167l109 336h96l-109 -336h-96zM640 200l88 270c5.33301 17.333 8.83301 37.5 10.5 60.5s0 44.833 -5 65.5s-13.833 38.167 -26.5 52.5s-30.667 21.5 -54 21.5h-259c-23.333 0 -46 -7.16699 -68 -21.5s-42.333 -31.833 -61 -52.5s-34.667 -42.5 -48 -65.5
s-22.666 -43.167 -27.999 -60.5l-88 -270c-5.33301 -17.333 -8.83301 -37.5 -10.5 -60.5s0 -44.833 5 -65.5s13.833 -38.167 26.5 -52.5s30.667 -21.5 54 -21.5h259c22.667 0 45.167 7.16699 67.5 21.5s42.833 31.833 61.5 52.5s34.667 42.5 48 65.5
s22.666 43.167 27.999 60.5zM464 793l6 -79h257l122 168h-142l-52 -80l-5 80h-259l-122 -168h144z" />
    <glyph glyph-name="FL00F6h" unicode="&#xf6;" 
d="M545 714h198l55 168h-198zM332 714h156l55 168h-156zM640 200l88 270c5.33301 17.333 8.83301 37.5 10.5 60.5s0 44.833 -5 65.5s-13.833 38.167 -26.5 52.5s-30.667 21.5 -54 21.5h-259c-23.333 0 -46 -7.16699 -68 -21.5s-42.333 -31.833 -61 -52.5
s-34.667 -42.5 -48 -65.5s-22.666 -43.167 -27.999 -60.5l-88 -270c-5.33301 -17.333 -8.83301 -37.5 -10.5 -60.5s0 -44.833 5 -65.5s13.833 -38.167 26.5 -52.5s30.667 -21.5 54 -21.5h259c22.667 0 45.167 7.16699 67.5 21.5s42.833 31.833 61.5 52.5
s34.667 42.5 48 65.5s22.666 43.167 27.999 60.5zM371 503h96l-109 -336h-96z" />
    <glyph glyph-name="FL00F7h" unicode="&#xf7;" horiz-adv-x="501" 
d="M321 459h156l55 168h-156zM118 251h429l55 170h-429zM187 45h156l54 168h-156z" />
    <glyph glyph-name="FL00F8h" unicode="&#xf8;" 
d="M640 200l88 270c5.33301 17.333 8.83301 37.5 10.5 60.5s0 44.833 -5 65.5s-13.833 38.167 -26.5 52.5s-30.667 21.5 -54 21.5h-259c-23.333 0 -46 -7.16699 -68 -21.5s-42.333 -31.833 -61 -52.5s-34.667 -42.5 -48 -65.5s-22.666 -43.167 -27.999 -60.5l-88 -270
c-5.33301 -17.333 -8.83301 -37.5 -10.5 -60.5s0 -44.833 5 -65.5s13.833 -38.167 26.5 -52.5s30.667 -21.5 54 -21.5h259c22.667 0 45.167 7.16699 67.5 21.5s42.833 31.833 61.5 52.5s34.667 42.5 48 65.5s22.666 43.167 27.999 60.5zM371 503h75l-161 -265zM288 167
l151 249l-81 -249h-70z" />
    <glyph glyph-name="FL00F9h" unicode="&#xf9;" 
d="M254 670h271l-164 -503h91l164 503h177l-218 -670h-399c-23.333 0 -41.333 7.16699 -54 21.5s-21.5 31.833 -26.5 52.5s-6.66699 42.5 -5 65.5s5.16699 43.167 10.5 60.5zM639 882l-1 -168h-143l-12 168h156z" />
    <glyph glyph-name="FL00FAh" unicode="&#xfa;" 
d="M254 670h271l-164 -503h91l164 503h177l-218 -670h-399c-23.333 0 -41.333 7.16699 -54 21.5s-21.5 31.833 -26.5 52.5s-6.66699 42.5 -5 65.5s5.16699 43.167 10.5 60.5zM541 883h198l-122 -168h-186z" />
    <glyph glyph-name="FL00FBh" unicode="&#xfb;" 
d="M254 670h271l-164 -503h91l164 503h177l-218 -670h-399c-23.333 0 -41.333 7.16699 -54 21.5s-21.5 31.833 -26.5 52.5s-6.66699 42.5 -5 65.5s5.16699 43.167 10.5 60.5zM530 714h-198l122 168h277l12 -168h-156l1 91z" />
    <glyph glyph-name="FL00FCh" unicode="&#xfc;" 
d="M530 714h-198l55 168h198zM743 714h-156l55 168h156zM254 670h271l-164 -503h91l164 503h177l-218 -670h-399c-23.333 0 -41.333 7.16699 -54 21.5s-21.5 31.833 -26.5 52.5s-6.66699 42.5 -5 65.5s5.16699 43.167 10.5 60.5z" />
    <glyph glyph-name="FL00FDh" unicode="&#xfd;" 
d="M640 200c-5.33301 -17.333 -14.667 -37.5 -28 -60.5s-29.333 -44.833 -48 -65.5s-39.167 -38.167 -61.5 -52.5s-44.833 -21.5 -67.5 -21.5h-399l54 167h362l27 81h-222c-22.667 0 -40.5 7.16699 -53.5 21.5s-22 31.833 -27 52.5s-6.83301 42.5 -5.5 65.5
s5 43.167 11 60.5l72 222h271l-83 -255h91l83 255h177zM540.999 883h198l-122 -168h-186z" />
    <glyph glyph-name="FL00FEh" unicode="&#xfe;" 
d="M307 0h-271.001l218 670h271l-36 -111h128c23.333 0 41.333 -7.16699 54 -21.5s21.5 -31.833 26.5 -52.5s6.66699 -42.5 5 -65.5s-5.16699 -43.167 -10.5 -60.5l-16 -48c-5.33301 -17.333 -14.666 -37.5 -27.999 -60.5s-29.333 -44.833 -48 -65.5
s-39.167 -38.167 -61.5 -52.5s-44.833 -21.5 -67.5 -21.5h-128zM494.999 282l35 110h-96l-35 -110h96z" />
    <glyph glyph-name="FL00FFh" unicode="&#xff;" 
d="M640 200c-5.33301 -17.333 -14.667 -37.5 -28 -60.5s-29.333 -44.833 -48 -65.5s-39.167 -38.167 -61.5 -52.5s-44.833 -21.5 -67.5 -21.5h-399l54 167h362l27 81h-222c-22.667 0 -40.5 7.16699 -53.5 21.5s-22 31.833 -27 52.5s-6.83301 42.5 -5.5 65.5
s5 43.167 11 60.5l72 222h271l-83 -255h91l83 255h177zM529.999 714h-198l55 168h198zM742.999 714h-156l55 168h156z" />
    <glyph glyph-name="FL0152h" unicode="&#x152;" horiz-adv-x="923" 
d="M101 200l152.001 468c5.33301 17.333 14.666 37.5 27.999 60.5s29.333 44.833 48 65.5s39 38.167 61 52.5s44.667 21.5 68 21.5h711l-54 -167h-175l-59 -182h162l-56 -170h-162l-59 -182h175l-54 -167h-711c-23.333 0 -41.333 7.16699 -54 21.5s-21.5 31.833 -26.5 52.5
s-6.66699 42.5 -5 65.5s5.16699 43.167 10.5 60.5zM495.001 167l174 534h-134l-174 -534h134z" />
    <glyph glyph-name="FL0153h" unicode="&#x153;" horiz-adv-x="923" 
d="M101 200l88.001 270c5.33301 17.333 14.666 37.5 27.999 60.5s29.333 44.833 48 65.5s39 38.167 61 52.5s44.667 21.5 68 21.5h711l-55 -167h-175l-26 -82h162l-55 -170h-162l-28 -84h175l-54 -167h-711c-23.333 0 -41.333 7.16699 -54 21.5s-21.5 31.833 -26.5 52.5
s-6.66699 42.5 -5 65.5s5.16699 43.167 10.5 60.5zM495.001 167l109 336h-134l-109 -336h134z" />
    <glyph glyph-name="FL0160h" unicode="&#x160;" horiz-adv-x="539" 
d="M564 882h198l-122 -168h-277l-12 168h156l-1 -91zM189 470c5.33301 17.333 14.666 37.5 27.999 60.5s29.333 44.833 48 65.5s39 38.167 61 52.5s44.667 21.5 68 21.5h327l-55 -167h-200l-26 -82h200l-72 -221c-5.33301 -17.333 -14.666 -37.5 -27.999 -60.5
s-29.333 -44.833 -48 -65.5s-39.167 -38.167 -61.5 -52.5s-44.833 -21.5 -67.5 -21.5h-327l54 167h200l28 84h-200z" />
    <glyph glyph-name="FL0161h" unicode="&#x161;" horiz-adv-x="539" 
d="M564 882h198l-122 -168h-277l-12 168h156l-1 -91zM189 470c5.33301 17.333 14.666 37.5 27.999 60.5s29.333 44.833 48 65.5s39 38.167 61 52.5s44.667 21.5 68 21.5h327l-55 -167h-200l-26 -82h200l-72 -221c-5.33301 -17.333 -14.666 -37.5 -27.999 -60.5
s-29.333 -44.833 -48 -65.5s-39.167 -38.167 -61.5 -52.5s-44.833 -21.5 -67.5 -21.5h-327l54 167h200l28 84h-200z" />
    <glyph glyph-name="FL0178h" unicode="&#x178;" 
d="M640 200c-5.33301 -17.333 -14.667 -37.5 -28 -60.5s-29.333 -44.833 -48 -65.5s-39.167 -38.167 -61.5 -52.5s-44.833 -21.5 -67.5 -21.5h-399l54 167h362l27 81h-222c-22.667 0 -40.5 7.16699 -53.5 21.5s-22 31.833 -27 52.5s-6.83301 42.5 -5.5 65.5
s5 43.167 11 60.5l72 222h271l-83 -255h91l83 255h177zM529.999 714h-198l55 168h198zM742.999 714h-156l55 168h156z" />
    <glyph glyph-name="FL017Dh" unicode="&#x17d;" horiz-adv-x="539" 
d="M564 882h198l-122 -168h-277l-12 168h156l-1 -91zM651 457l-298 -290h204l-54 -167h-467l70 214l297 289h-204l55 167h467z" />
    <glyph glyph-name="FL017Eh" unicode="&#x17e;" horiz-adv-x="539" 
d="M564 882h198l-122 -168h-277l-12 168h156l-1 -91zM651 457l-298 -290h204l-54 -167h-467l70 214l297 289h-204l55 167h467z" />
    <glyph glyph-name="FL0039h" unicode="&#x192;" 
d="M304 0l72.001 222h-128c-23.333 0 -41.333 7.16699 -54 21.5s-21.5 31.833 -26.5 52.5s-6.66699 42.5 -5 65.5s5.16699 43.167 10.5 60.5l16 48c5.33301 17.333 14.666 37.5 27.999 60.5s29.333 44.833 48 65.5s39 38.167 61 52.5s44.667 21.5 68 21.5h399l-218 -670
h-271zM371.001 503l-35 -110h96l35 110h-96z" />
    <glyph glyph-name="FL02C6h" unicode="&#x2c6;" horiz-adv-x="483" 
d="M481 714h198l-12 168h-277l-122 -168h156l59 91z" />
    <glyph glyph-name="FL02DCh" unicode="&#x2dc;" horiz-adv-x="529" 
d="M463 793l6 -79h257l122 168h-142l-52 -80l-5 80h-259l-122 -168h144z" />
    <glyph glyph-name="FL2013h" unicode="&#x2013;" horiz-adv-x="361" 
d="M118 251h289l55 170h-289z" />
    <glyph glyph-name="FL2014h" unicode="&#x2014;" horiz-adv-x="501" 
d="M118 251h429l55 170h-429z" />
    <glyph glyph-name="FL2018h" unicode="&#x2018;" horiz-adv-x="249" 
d="M323 700h-60l55 168h177l-55 -168l-154 -116z" />
    <glyph glyph-name="FL2019h" unicode="&#x2019;" horiz-adv-x="249" 
d="M259 502h-60l55 168h177l-55 -168l-155 -116z" />
    <glyph glyph-name="FL201Ah" unicode="&#x201a;" horiz-adv-x="249" 
d="M96 0h-60l55 168h177l-55 -168l-155 -116z" />
    <glyph glyph-name="FL201Ch" unicode="&#x201c;" horiz-adv-x="467" 
d="M541 700h-60l55 168h177l-55 -168l-154 -116zM323 700h-60l55 168h177l-55 -168l-154 -116z" />
    <glyph glyph-name="FL201Dh" unicode="&#x201d;" horiz-adv-x="467" 
d="M477 502h-60l55 168h177l-55 -168l-155 -116zM259 502h-60l55 168h177l-55 -168l-155 -116z" />
    <glyph glyph-name="FL201Eh" unicode="&#x201e;" horiz-adv-x="466" 
d="M313 0h-60l55 168h177l-55 -168l-155 -116zM96 0h-60l55 168h177l-55 -168l-155 -116z" />
    <glyph glyph-name="FL2020h" unicode="&#x2020;" horiz-adv-x="520" 
d="M213 544l-55 -170h88l-122 -374h271l122 374h89l55 170h-89l41 126h-271l-41 -126h-88z" />
    <glyph glyph-name="FL2021h" unicode="&#x2021;" horiz-adv-x="520" 
d="M213 544l-55 -170h88l-26 -78h-88l-55 -170h88l-41 -126h271l41 126h89l55 170h-89l26 78h89l55 170h-89l41 126h-271l-41 -126h-88z" />
    <glyph glyph-name="FL2022h" unicode="&#x2022;" 
d="M640 200l88 270c5.33301 17.333 8.83301 37.5 10.5 60.5s0 44.833 -5 65.5s-13.833 38.167 -26.5 52.5s-30.667 21.5 -54 21.5h-259c-23.333 0 -46 -7.16699 -68 -21.5s-42.333 -31.833 -61 -52.5s-34.667 -42.5 -48 -65.5s-22.666 -43.167 -27.999 -60.5l-88 -270
c-5.33301 -17.333 -8.83301 -37.5 -10.5 -60.5s0 -44.833 5 -65.5s13.833 -38.167 26.5 -52.5s30.667 -21.5 54 -21.5h259c22.667 0 45.167 7.16699 67.5 21.5s42.833 31.833 61.5 52.5s34.667 42.5 48 65.5s22.666 43.167 27.999 60.5z" />
    <glyph glyph-name="FL2026h" unicode="&#x2026;" horiz-adv-x="707" 
d="M671 0h-177l55 168h177zM442 0h-177l55 168h177zM213 0h-177l55 168h177z" />
    <glyph glyph-name="FL2030h" unicode="&#x2030;" horiz-adv-x="1221" 
d="M298 0h175l341 670h-176zM751 256h40l-46 -142h-40zM897 110l47.999 148c2.66699 9.33301 4.5 20.333 5.5 33s0.166992 24.834 -2.5 36.501s-7.5 21.5 -14.5 29.5s-16.833 12 -29.5 12h-143c-12.667 0 -25.167 -4 -37.5 -12s-23.666 -17.833 -33.999 -29.5
s-19.166 -23.834 -26.499 -36.501s-12.333 -23.667 -15 -33l-48 -148c-3.33301 -9.33301 -5.33301 -20.333 -6 -33s0.333008 -24.667 3 -36s7.5 -21 14.5 -29s16.833 -12 29.5 -12h143c12.667 0 25.167 4 37.5 12s23.5 17.667 33.5 29s18.667 23.333 26 36
s12.666 23.667 15.999 33zM320.999 557h40l-46 -142h-40zM466.999 411l47.999 148c2.66699 9.33301 4.5 20.333 5.5 33s0.166992 24.834 -2.5 36.501s-7.5 21.5 -14.5 29.5s-16.833 12 -29.5 12h-143c-12.667 0 -25.167 -4 -37.5 -12s-23.666 -17.833 -33.999 -29.5
s-19.166 -23.834 -26.499 -36.501s-12.333 -23.667 -15 -33l-48 -148c-3.33301 -9.33301 -5.33301 -20.333 -6 -33s0.333008 -24.667 3 -36s7.5 -21 14.5 -29s16.833 -12 29.5 -12h143c12.667 0 25.167 4 37.5 12s23.5 17.667 33.5 29s18.667 23.333 26 36
s12.666 23.667 15.999 33zM1075 256h40l-46 -142h-40zM1221 110l47.999 148c2.66699 9.33301 4.5 20.333 5.5 33s0.166992 24.834 -2.5 36.501s-7.5 21.5 -14.5 29.5s-16.833 12 -29.5 12h-143c-12.667 0 -25.167 -4 -37.5 -12s-23.666 -17.833 -33.999 -29.5
s-19.166 -23.834 -26.499 -36.501s-12.333 -23.667 -15 -33l-48 -148c-3.33301 -9.33301 -5.33301 -20.333 -6 -33s0.333008 -24.667 3 -36s7.5 -21 14.5 -29s16.833 -12 29.5 -12h143c12.667 0 25.167 4 37.5 12s23.5 17.667 33.5 29s18.667 23.333 26 36
s12.666 23.667 15.999 33z" />
    <glyph glyph-name="FL2039h" unicode="&#x2039;" horiz-adv-x="240" 
d="M311 329l-64 -198l-147 67l90 277l190 67l-51 -156l-100 -29z" />
    <glyph glyph-name="FL203Ah" unicode="&#x203a;" horiz-adv-x="240" 
d="M143 329l-64 -198l189 67l90 277l-146 67l-51 -156l82 -29z" />
    <glyph glyph-name="FL20ACh" unicode="&#x20ac;" horiz-adv-x="587" 
d="M154 362h69.002l-17 -52h-69l-55 -169h77c-0.666992 -16.667 0.166016 -33.334 2.49902 -50.001s6.66602 -31.834 12.999 -45.501s15.333 -24.667 27 -33s26.167 -12.5 43.5 -12.5h306l54 167h-93l47 143h-82l17 52h82l45 141h93l55 167h-306
c-17.333 0 -34.333 -4.16699 -51 -12.5s-32.667 -19.166 -48 -32.499s-29.5 -28.166 -42.5 -44.499s-24.5 -32.833 -34.5 -49.5h-78z" />
    <glyph glyph-name="FL2122h" unicode="&#x2122;" horiz-adv-x="618" 
d="M488 801l22 67h-192l-22 -67h42l-65 -201h108l65 201h42zM777 600l61 188.001c2 6.66699 3.33301 14.667 4 24s0 18.166 -2 26.499s-5.5 15.333 -10.5 21s-12.167 8.5 -21.5 8.5h-267l-87 -268h71l65 201h36l-65 -201h71l65 201h36l-65 -201h109z" />
    <glyph glyph-name=".null" horiz-adv-x="0" 
 />
    <glyph glyph-name="nonmarkingreturn" horiz-adv-x="500" 
 />
    </font>
</defs>
</svg>
