<?xml version="1.0" standalone="no"?>
<!DOCTYPE svg PUBLIC "-//W3C//DTD SVG 1.1//EN" "http://www.w3.org/Graphics/SVG/1.1/DTD/svg11.dtd" >
<svg xmlns="http://www.w3.org/2000/svg" xmlns:xlink="http://www.w3.org/1999/xlink" version="1.1">
<metadata>
Created by FontForge 20170924 at Thu May  3 10:14:42 2018
 By www-data
2018 Iconian Fonts - www.iconian.com
</metadata>
<defs>
<font id="CampJusticeSemi-Italic" horiz-adv-x="609" >
  <font-face 
    font-family="Camp Justice Semi-Italic"
    font-weight="400"
    font-style="italic"
    font-stretch="normal"
    units-per-em="1000"
    panose-1="0 0 0 0 0 0 0 0 0 0"
    ascent="800"
    descent="-200"
    x-height="670"
    cap-height="868"
    bbox="-56 -170 1236 883"
    underline-thickness="50"
    underline-position="-125"
    unicode-range="U+0020-2122"
  />
<missing-glyph horiz-adv-x="500" 
 />
    <glyph glyph-name=".notdef" horiz-adv-x="500" 
 />
    <glyph glyph-name="space" unicode=" " horiz-adv-x="287" 
 />
    <glyph glyph-name="space" unicode="&#xa0;" horiz-adv-x="287" 
 />
    <glyph glyph-name="FL0021h" unicode="!" horiz-adv-x="341" 
d="M259 0l33 168h-177l-33 -168h177zM351 232l124 636h-271l-124 -636h271z" />
    <glyph glyph-name="FL0022h" unicode="&#x22;" horiz-adv-x="465" 
d="M443 670l-22 -116l139 116l33 168h-177l-33 -168h60zM225 670l-22 -116l139 116l33 168h-177l-33 -168h60z" />
    <glyph glyph-name="FL0023h" unicode="#" horiz-adv-x="753" 
d="M141 544h82l24 126h271l-24 -126h72l24 126h178l-24 -126h80l-33 -170h-80l-15 -78h80l-34 -170h-80l-24 -126h-178l24 126h-72l-24 -126h-271l24 126h-82l34 170h82l15 78h-82zM533 374h-72l-15 -78h72z" />
    <glyph glyph-name="FL0024h" unicode="$" horiz-adv-x="537" 
d="M126 470c3.33301 17.333 10.333 37.5 21 60.5s23.834 44.833 39.501 65.5s33.5 38.167 53.5 52.5s41.667 21.5 65 21.5h5l16 80h177l-16 -80h145l-32 -167h-200l-16 -82h200l-43 -221c-3.33301 -17.333 -10.333 -37.5 -21 -60.5s-23.834 -44.833 -39.501 -65.5
s-33.667 -38.167 -54 -52.5s-41.833 -21.5 -64.5 -21.5h-5l-15 -79h-177l15 79h-145l32 167h200l17 84h-200z" />
    <glyph glyph-name="FL0025h" unicode="%" horiz-adv-x="895" 
d="M297 0l252 670h176l-253 -670h-175zM717 256l-28 -142h40l28 142h-40zM881 110c-2 -9.33301 -5.83301 -20.333 -11.5 -33s-12.834 -24.667 -21.501 -36s-18.5 -21 -29.5 -29s-22.833 -12 -35.5 -12h-143c-12.667 0 -23 4 -31 12s-14.167 17.667 -18.5 29s-7 23.333 -8 36
s-0.5 23.667 1.5 33l29 148c2 9.33301 5.83301 20.333 11.5 33s12.834 24.834 21.501 36.501s18.667 21.5 30 29.5s23.333 12 36 12h143c12.667 0 23 -4 31 -12s14 -17.833 18 -29.5s6.5 -23.834 7.5 -36.501s0.5 -23.667 -1.5 -33zM247 557l-27 -142h40l27 142h-40z
M412 411c-2 -9.33301 -5.83105 -20.333 -11.498 -33s-12.834 -24.667 -21.501 -36s-18.5 -21 -29.5 -29s-22.833 -12 -35.5 -12h-143c-12.667 0 -23 4 -31 12s-14.167 17.667 -18.5 29s-7 23.333 -8 36s-0.5 23.667 1.5 33l29 148c2 9.33301 5.83301 20.333 11.5 33
s12.667 24.834 21 36.501s18.166 21.5 29.499 29.5s23.333 12 36 12h143c12.667 0 23 -4 31 -12s14.167 -17.833 18.5 -29.5s7 -23.834 8 -36.501s0.5 -23.667 -1.5 -33z" />
    <glyph glyph-name="FL0026h" unicode="&#x26;" horiz-adv-x="648" 
d="M404 503l-15.999 -81.999h307l-33 -170h-52l-49 -251h-386c-23.333 0 -42.333 7.16699 -57 21.5s-25.834 31.833 -33.501 52.5s-12.167 42.5 -13.5 65.5s-0.333008 43.167 3 60.5l10 50c2.66699 13.333 9 27.666 19 42.999s21 29.333 33 42
c-7.33301 8.66699 -12.833 21 -16.5 37s-4.83398 30.667 -3.50098 44l10 54c3.33301 17.333 10.333 37.5 21 60.5s23.834 44.833 39.501 65.5s33.5 38.167 53.5 52.5s41.667 21.5 65 21.5h326l-32 -167h-195zM355.001 251.001l-17 -84h83l17 84h-83z" />
    <glyph glyph-name="FL0027h" unicode="'" horiz-adv-x="247" 
d="M225 670l-22 -116l139 116l33 168h-177l-33 -168h60z" />
    <glyph glyph-name="FL0028h" unicode="(" horiz-adv-x="418" 
d="M165 668c3.33301 17.333 10.168 37.5 20.501 60.5s23.5 44.833 39.5 65.5s34 38.167 54 52.5s41.667 21.5 65 21.5h208l-33 -167h-77l-104 -534h77l-32 -167h-208c-23.333 0 -42.333 7.16699 -57 21.5s-25.834 31.833 -33.501 52.5s-12.167 42.5 -13.5 65.5
s-0.333008 43.167 3 60.5z" />
    <glyph glyph-name="FL0029h" unicode=")" horiz-adv-x="326" 
d="M421 668c3.33301 17.333 4.16895 37.5 2.50195 60.5s-6.33398 44.833 -14.001 65.5s-18.834 38.167 -33.501 52.5s-33.334 21.5 -56.001 21.5h-116l-33 -167h77l-104 -534h-77l-32 -167h116c22.667 0 44.167 7.16699 64.5 21.5s38.333 31.833 54 52.5
s28.834 42.5 39.501 65.5s17.667 43.167 21 60.5z" />
    <glyph glyph-name="FL0419h" unicode="*" horiz-adv-x="346" 
d="M310 564l-19 73l-39 -73l-83 92l60 44l-60 13l57 125l49 -42v72h125l-30 -74l70 39l15 -120l-74 -14l46 -44z" />
    <glyph glyph-name="FL002Bh" unicode="+" horiz-adv-x="465" 
d="M251 533h170l-22 -112h113l-33 -170h-113l-22 -113h-170l22 113h-112l33 170h112z" />
    <glyph glyph-name="FL002Ch" unicode="," horiz-adv-x="247" 
d="M95 0l-23 -116l140 116l33 168h-177l-33 -168h60z" />
    <glyph glyph-name="FL002Dh" unicode="-" horiz-adv-x="359" 
d="M84 251l33 170h289l-33 -170h-289z" />
    <glyph glyph-name="FL002Eh" unicode="." horiz-adv-x="247" 
d="M212 0l33 168h-177l-33 -168h177z" />
    <glyph glyph-name="FL002Fh" unicode="/" horiz-adv-x="446" 
d="M556 670l-264 -670h-272l265 670h271z" />
    <glyph glyph-name="acute" unicode="0" 
d="M165 670l-130 -670h539l130 670h-539zM495 503l-66 -336h-91l66 336h91z" />
    <glyph glyph-name="FL0031h" unicode="1" horiz-adv-x="416" 
d="M381 0h-271l98 503h-75l32 167h346z" />
    <glyph glyph-name="FL0032h" unicode="2" horiz-adv-x="537" 
d="M116 419l-81 -419h467l32 167h-200l16 82h200l43 221c3.33301 17.333 4.33301 37.5 3 60.5s-5.83301 44.833 -13.5 65.5s-19 38.167 -34 52.5s-33.833 21.5 -56.5 21.5h-327l-32 -167h200l-17 -84h-200z" />
    <glyph glyph-name="FL00BCh" unicode="3" horiz-adv-x="516" 
d="M572 470c3.33301 17.333 4.33008 37.501 2.99707 60.501s-5.83301 44.833 -13.5 65.5s-19 38.167 -34 52.5s-33.833 21.5 -56.5 21.5h-306l-32 -167h175l-16 -82h-162l-33 -170h162l-17 -84h-175l-32 -167h306c22.667 0 44.167 7.16699 64.5 21.5s38.333 31.833 54 52.5
s28.834 42.5 39.501 65.5s17.667 43.167 21 60.5l10 50c2.66699 13.333 1.83398 27.666 -2.49902 42.999s-10.166 29.333 -17.499 42c10 8.66699 20.167 21 30.5 37s17.5 30.667 21.5 44z" />
    <glyph glyph-name="FL0034h" unicode="4" 
d="M165 670h177l-48 -249h91l48 249h271l-130 -670h-271l49 251h-268z" />
    <glyph glyph-name="FL0035h" unicode="5" horiz-adv-x="537" 
d="M84 251l81.001 419h467l-32 -167h-208l-16 -82h208l-43 -221c-3.33301 -17.333 -10.333 -37.5 -21 -60.5s-23.834 -44.833 -39.501 -65.5s-33.667 -38.167 -54 -52.5s-41.833 -21.5 -64.5 -21.5h-327l32 167h200l17 84h-200z" />
    <glyph glyph-name="FL0036h" unicode="6" 
d="M74 200c-3.33301 -17.333 -4.33301 -37.5 -3 -60.5s5.83301 -44.833 13.5 -65.5s18.834 -38.167 33.501 -52.5s33.667 -21.5 57 -21.5h399l82 421h-268l16 82h268l32 167h-399c-23.333 0 -45 -7.16699 -65 -21.5s-37.833 -31.833 -53.5 -52.5
s-28.834 -42.5 -39.501 -65.5s-17.667 -43.167 -21 -60.5zM355 251h91l-17 -84h-91z" />
    <glyph glyph-name="FL0037h" unicode="7" horiz-adv-x="537" 
d="M591 457l41 213h-467l-32 -167h204l-302 -503h256z" />
    <glyph glyph-name="FL003Bh" unicode="8" 
d="M665 470c3.33301 17.333 4.3291 37.5 2.99609 60.5s-5.83301 44.833 -13.5 65.5s-19 38.167 -34 52.5s-33.833 21.5 -56.5 21.5h-259c-23.333 0 -45 -7.16699 -65 -21.5s-37.833 -31.833 -53.5 -52.5s-28.834 -42.5 -39.501 -65.5s-17.667 -43.167 -21 -60.5l-10 -54
c-1.33301 -13.333 -0.166016 -28 3.50098 -44s9.16699 -28.333 16.5 -37c-12 -12.667 -23 -26.667 -33 -42s-16.333 -29.666 -19 -42.999l-10 -50c-3.33301 -17.333 -4.33301 -37.5 -3 -60.5s5.83301 -44.833 13.5 -65.5s18.834 -38.167 33.501 -52.5s33.667 -21.5 57 -21.5
h259c22.667 0 44.167 7.16699 64.5 21.5s38.333 31.833 54 52.5s28.834 42.5 39.501 65.5s17.667 43.167 21 60.5l10 50c2.66699 13.333 1.83398 27.666 -2.49902 42.999s-10.166 29.333 -17.499 42c10 8.66699 20.167 21 30.5 37s17.5 30.667 21.5 44zM354.996 251h96
l-17 -84h-96zM403.996 503h96l-16 -82h-96z" />
    <glyph glyph-name="FL003Ah" unicode="9" 
d="M664 470c3.33301 17.333 4.33203 37.499 2.99902 60.499s-5.83301 44.833 -13.5 65.5s-19 38.167 -34 52.5s-33.833 21.5 -56.5 21.5h-259c-22 0 -43 -7.16699 -63 -21.5s-38 -31.833 -54 -52.5s-29.5 -42.667 -40.5 -66s-18.167 -43.666 -21.5 -60.999l-43 -220h268
l-16 -82h-268l-32 -167h399c22.667 0 44.167 7.16699 64.5 21.5s38.333 31.833 54 52.5s28.834 42.5 39.501 65.5s17.667 43.167 21 60.5zM382.999 418.999h-91l17 84h91z" />
    <glyph glyph-name="FL003Dh" unicode=":" horiz-adv-x="247" 
d="M212 0l33 168h-177l-33 -168h177zM272 308l33 168h-177l-33 -168h177z" />
    <glyph glyph-name="FL003Fh" unicode=";" horiz-adv-x="247" 
d="M272 308l33 168h-177l-33 -168h177zM95 0l-23 -116l140 116l33 168h-177l-33 -168h60z" />
    <glyph glyph-name="FL003Ch" unicode="&#x3c;" horiz-adv-x="522" 
d="M231 0h271l-133 342l263 328h-271l-277 -340z" />
    <glyph glyph-name="FL004Bh" unicode="=" horiz-adv-x="383" 
d="M104 357l33 170h313l-33 -170h-313zM63 145l33 170h313l-33 -170h-313z" />
    <glyph glyph-name="FL003Eh" unicode="&#x3e;" horiz-adv-x="490" 
d="M200 0l336 342l-206 328h-180l200 -340l-330 -330h180z" />
    <glyph glyph-name="FL0040h" unicode="?" horiz-adv-x="537" 
d="M569 349l62.0039 319c3.33301 17.333 4.16602 37.5 2.49902 60.5s-6.33398 44.833 -14.001 65.5s-18.834 38.167 -33.501 52.5s-33.334 21.5 -56.001 21.5h-327l-33 -167h200l-35 -182h-200l-56 -287h268l23 117h199zM257.004 0l33 168h-177l-33 -168h177z" />
    <glyph glyph-name="FL07B6h" unicode="@" horiz-adv-x="1117" 
d="M945 419c-0.666992 -5.33301 -1.83398 -10.667 -3.50098 -16s-3.5 -11 -5.5 -17h44l61 315h-599l-104 -534h742l-32 -167h-873c-23.333 0 -42.333 7.16699 -57 21.5s-25.834 31.833 -33.501 52.5s-12.167 42.5 -13.5 65.5s-0.333008 43.167 3 60.5l91 468
c3.33301 17.333 10.166 37.5 20.499 60.5s23.5 44.833 39.5 65.5s34 38.167 54 52.5s41.667 21.5 65 21.5h767c22.667 0 41.334 -7.16699 56.001 -21.5s25.834 -31.833 33.501 -52.5s12.334 -42.5 14.001 -65.5s0.833984 -43.167 -2.49902 -60.5l-49 -249
c-3.33301 -17.333 -10.166 -37.5 -20.499 -60.5s-23.333 -44.833 -39 -65.5s-33.667 -38.167 -54 -52.5s-41.833 -21.5 -64.5 -21.5h-455c-23.333 0 -42.333 7.16699 -57 21.5s-25.834 31.833 -33.501 52.5s-12.334 42.5 -14.001 65.5s-0.833984 43.167 2.49902 60.5l6 31
c3.33301 17.333 10.333 37.5 21 60.5s23.834 44.833 39.501 65.5s33.5 38.167 53.5 52.5s41.667 21.5 65 21.5h237c22.667 0 41.5 -7.16699 56.5 -21.5s26.333 -31.833 34 -52.5s12.167 -42.5 13.5 -65.5s0.333008 -43.167 -3 -60.5zM594 385.999h74l19 97h-74z" />
    <glyph glyph-name="FL0041h" unicode="A" 
d="M704 668l-130.004 -668h-271l60 307h-91l-60 -307h-177l169 868h399c22.667 0 41.334 -7.16699 56.001 -21.5s25.834 -31.833 33.501 -52.5s12.334 -42.5 14.001 -65.5s0.833984 -43.167 -2.49902 -60.5zM347.996 701l-43 -224h91l43 224h-91z" />
    <glyph glyph-name="FL0042h" unicode="B" 
d="M35 0l168.999 868h399c22.667 0 41.334 -7.16699 56.001 -21.5s25.834 -31.833 33.501 -52.5s12.334 -42.5 14.001 -65.5s0.833984 -43.167 -2.49902 -60.5l-29 -150c-1.33301 -6.66699 -3.83301 -14 -7.5 -22s-8 -16 -13 -24s-10.333 -15.333 -16 -22
s-11.167 -12.334 -16.5 -17.001c7.33301 -12.667 13.166 -26.667 17.499 -42s5.16602 -29.666 2.49902 -42.999l-29 -148c-3.33301 -17.333 -10.333 -37.5 -21 -60.5s-23.834 -44.833 -39.501 -65.5s-33.667 -38.167 -54 -52.5s-41.833 -21.5 -64.5 -21.5h-399zM433.999 167
l36 182h-96l-36 -182h96zM441.999 701l-35 -182h96l35 182h-96z" />
    <glyph glyph-name="FL0043h" unicode="C" horiz-adv-x="516" 
d="M165 668c3.33301 17.333 10.168 37.5 20.501 60.5s23.5 44.833 39.5 65.5s34 38.167 54 52.5s41.667 21.5 65 21.5h306l-33 -167h-175l-104 -534h175l-32 -167h-306c-23.333 0 -42.333 7.16699 -57 21.5s-25.834 31.833 -33.501 52.5s-12.167 42.5 -13.5 65.5
s-0.333008 43.167 3 60.5z" />
    <glyph glyph-name="FL0044h" unicode="D" 
d="M613 200c-3.33301 -17.333 -10.3359 -37.5 -21.0029 -60.5s-23.834 -44.833 -39.501 -65.5s-33.667 -38.167 -54 -52.5s-41.833 -21.5 -64.5 -21.5h-399l169 868h399c22.667 0 41.334 -7.16699 56.001 -21.5s25.834 -31.833 33.501 -52.5s12.334 -42.5 14.001 -65.5
s0.833984 -43.167 -2.49902 -60.5zM347.997 701l-104 -534h91l104 534h-91z" />
    <glyph glyph-name="FL0045h" unicode="E" horiz-adv-x="516" 
d="M165 668c3.33301 17.333 10.168 37.5 20.501 60.5s23.5 44.833 39.5 65.5s34 38.167 54 52.5s41.667 21.5 65 21.5h306l-33 -167h-175l-35 -182h162l-33 -170h-162l-36 -182h175l-32 -167h-306c-23.333 0 -42.333 7.16699 -57 21.5s-25.834 31.833 -33.501 52.5
s-12.167 42.5 -13.5 65.5s-0.333008 43.167 3 60.5z" />
    <glyph glyph-name="FL0046h" unicode="F" horiz-adv-x="516" 
d="M165 668c3.33301 17.333 10.167 37.5 20.5 60.5s23.5 44.833 39.5 65.5s34 38.167 54 52.5s41.667 21.5 65 21.5h306l-33 -167h-175l-35 -182h162l-33 -170h-162l-68 -349h-271z" />
    <glyph glyph-name="FL0047h" unicode="G" 
d="M74 200l91.002 468c3.33301 17.333 10.166 37.5 20.499 60.5s23.5 44.833 39.5 65.5s34 38.167 54 52.5s41.667 21.5 65 21.5h399l-33 -167h-268l-104 -534h91l76 391h177l-108 -558h-399c-23.333 0 -42.333 7.16699 -57 21.5s-25.834 31.833 -33.501 52.5
s-12.167 42.5 -13.5 65.5s-0.333008 43.167 3 60.5z" />
    <glyph glyph-name="FL0048h" unicode="H" 
d="M574 0l169 868h-177l-68 -349h-91l68 349h-271l-169 -868h271l68 349h91l-68 -349h177z" />
    <glyph glyph-name="FL0049h" unicode="I" horiz-adv-x="341" 
d="M35 0l169 868h271l-169 -868h-271z" />
    <glyph glyph-name="FL004Ah" unicode="J" horiz-adv-x="488" 
d="M492 200l129.999 668h-271l-137 -701h-147l-32 -167h278c22.667 0 44.167 7.16699 64.5 21.5s38.333 31.833 54 52.5s28.834 42.5 39.501 65.5s17.667 43.167 21 60.5z" />
    <glyph glyph-name="FL0051h" unicode="K" horiz-adv-x="614" 
d="M35 0h271l47 244l28 -244h213l-73 434l243 434h-213l-124 -243l48 243h-271z" />
    <glyph glyph-name="FL004Ch" unicode="L" horiz-adv-x="487" 
d="M35 0l169 868h271l-137 -701h146l-32 -167h-417z" />
    <glyph glyph-name="FL004Dh" unicode="M" horiz-adv-x="876" 
d="M841 0h-271l137 703h-91l-137 -703h-177l137 703h-90l-137 -703h-177l169 870h666c22.667 0 41.5 -7.16699 56.5 -21.5s26.333 -31.833 34 -52.5s12.167 -42.5 13.5 -65.5s0.333008 -43.167 -3 -60.5z" />
    <glyph glyph-name="FL004Eh" unicode="N" 
d="M574 0l130.004 668c3.33301 17.333 4.16602 37.5 2.49902 60.5s-6.33398 44.833 -14.001 65.5s-18.834 38.167 -33.501 52.5s-33.334 21.5 -56.001 21.5h-399l-169 -868h177l136 701h91l-136 -701h271z" />
    <glyph glyph-name="FL004Fh" unicode="O" 
d="M613 200c-3.33301 -17.333 -10.334 -37.5 -21.001 -60.5s-23.834 -44.833 -39.501 -65.5s-33.667 -38.167 -54 -52.5s-41.833 -21.5 -64.5 -21.5h-259c-23.333 0 -42.333 7.16699 -57 21.5s-25.834 31.833 -33.501 52.5s-12.167 42.5 -13.5 65.5s-0.333008 43.167 3 60.5
l91 468c3.33301 17.333 10.166 37.5 20.499 60.5s23.5 44.833 39.5 65.5s34 38.167 54 52.5s41.667 21.5 65 21.5h259c22.667 0 41.334 -7.16699 56.001 -21.5s25.834 -31.833 33.501 -52.5s12.334 -42.5 14.001 -65.5s0.833984 -43.167 -2.49902 -60.5zM342.999 701
l-104 -534h96l104 534h-96z" />
    <glyph glyph-name="FL0050h" unicode="P" 
d="M306 0h-271.005l169 868h399c22.667 0 41.334 -7.16699 56.001 -21.5s25.834 -31.833 33.501 -52.5s12.334 -42.5 14.001 -65.5s0.833984 -43.167 -2.49902 -60.5l-32 -162c-3.33301 -17.333 -10.166 -37.5 -20.499 -60.5s-23.5 -44.833 -39.5 -65.5
s-34.167 -38.167 -54.5 -52.5s-41.833 -21.5 -64.5 -21.5h-128zM537.995 701h-96l-43 -224h96z" />
    <glyph glyph-name="FL0056h" unicode="Q" 
d="M613 200c-2 -12 -5.83301 -25.167 -11.5 -39.5s-12.834 -29 -21.501 -44s-18.334 -29.667 -29.001 -44s-22 -26.833 -34 -37.5l34 -95h-189l-24 60h-163c-23.333 0 -42.333 7.16699 -57 21.5s-25.834 31.833 -33.501 52.5s-12.167 42.5 -13.5 65.5
s-0.333008 43.167 3 60.5l91 468c3.33301 17.333 10.166 37.5 20.499 60.5s23.5 44.833 39.5 65.5s34 38.167 54 52.5s41.667 21.5 65 21.5h259c22.667 0 41.334 -7.16699 56.001 -21.5s25.834 -31.833 33.501 -52.5s12.334 -42.5 14.001 -65.5
s0.833984 -43.167 -2.49902 -60.5zM271 327h96l72 374h-96zM288 167l-30 95l-19 -95h49z" />
    <glyph glyph-name="FL0052h" unicode="R" 
d="M306 0l-271.004 -0.00195312l169 868h399c22.667 0 41.334 -7.16699 56.001 -21.5s25.834 -31.833 33.501 -52.5s12.334 -42.5 14.001 -65.5s0.833984 -43.167 -2.49902 -60.5l-32 -162c-2.66699 -13.333 -7.16699 -28.166 -13.5 -44.499s-14.333 -32.666 -24 -48.999
s-21 -32 -34 -47s-26.833 -27.5 -41.5 -37.5l35 -328h-208l-30 258zM537.996 700.998h-96l-43 -224h96z" />
    <glyph glyph-name="FL0053h" unicode="S" horiz-adv-x="537" 
d="M103 349l62.002 319c3.33301 17.333 10.166 37.5 20.499 60.5s23.5 44.833 39.5 65.5s34 38.167 54 52.5s41.667 21.5 65 21.5h327l-33 -167h-200l-35 -182h200l-62 -319c-3.33301 -17.333 -10.333 -37.5 -21 -60.5s-23.834 -44.833 -39.501 -65.5
s-33.667 -38.167 -54 -52.5s-41.833 -21.5 -64.5 -21.5h-327l32 167h200l36 182h-200z" />
    <glyph glyph-name="FL0054h" unicode="T" horiz-adv-x="549" 
d="M650 701h-104l-136 -701h-271l136 701h-104l33 167h479z" />
    <glyph glyph-name="FL0055h" unicode="U" 
d="M204 868l-130.001 -668c-3.33301 -17.333 -4.33301 -37.5 -3 -60.5s5.83301 -44.833 13.5 -65.5s18.834 -38.167 33.501 -52.5s33.667 -21.5 57 -21.5h399l169 868h-177l-137 -701h-91l137 701h-271z" />
    <glyph glyph-name="FL0058h" unicode="V" horiz-adv-x="579" 
d="M728 868l-303 -868h-283l47 868h177l-15 -347l106 347h271z" />
    <glyph glyph-name="FL0057h" unicode="W" horiz-adv-x="876" 
d="M204 868h271.001l-137 -701h91l137 701h177l-137 -701h90l137 701h177l-169 -868h-666c-23.333 0 -42.333 7.16699 -57 21.5s-25.834 31.833 -33.501 52.5s-12.167 42.5 -13.5 65.5s-0.333008 43.167 3 60.5z" />
    <glyph glyph-name="FL0FE7h" unicode="X" horiz-adv-x="579" 
d="M728 868l-152 -434l-17 -434h-271l29 347l-120 -347h-177l145 434l24 434h177l-15 -347l106 347h271z" />
    <glyph glyph-name="FL0059h" unicode="Y" 
d="M613 200l129.998 670h-177l-69 -354h-91l69 354h-271l-62 -321c-3.33301 -17.333 -4.33301 -37.5 -3 -60.5s5.83301 -44.833 13.5 -65.5s18.834 -38.167 33.501 -52.5s33.667 -21.5 57 -21.5h222l-36 -182h-362l-32 -167h399c22.667 0 44.167 7.16699 64.5 21.5
s38.333 31.833 54 52.5s28.834 42.5 39.501 65.5s17.667 43.167 21 60.5z" />
    <glyph glyph-name="FL005Ah" unicode="Z" horiz-adv-x="537" 
d="M630 660l41 208h-467l-33 -167h206l-301 -492l-41 -209h467l32 167h-206z" />
    <glyph glyph-name="FL005Bh" unicode="[" horiz-adv-x="418" 
d="M135 512c3.33301 17.333 10.168 37.5 20.501 60.5s23.333 44.833 39 65.5s33.5 38.167 53.5 52.5s41.667 21.5 65 21.5h208l-32 -167h-77l-82 -420h77l-32 -167h-208c-23.333 0 -42.333 7.16699 -57 21.5s-25.834 31.833 -33.501 52.5s-12.167 42.5 -13.5 65.5
s-0.333008 43.167 3 60.5z" />
    <glyph glyph-name="FL005Ch" unicode="\" horiz-adv-x="338" 
d="M327 670l-9 -670h-176l8 670h177z" />
    <glyph glyph-name="FL005Dh" unicode="]" horiz-adv-x="327" 
d="M392 512c3.33301 17.333 4.16699 37.5 2.5 60.5s-6.33398 44.833 -14.001 65.5s-19 38.167 -34 52.5s-33.833 21.5 -56.5 21.5h-117l-32 -167h77l-82 -420h-77l-32 -167h117c22.667 0 44.167 7.16699 64.5 21.5s38.333 31.833 54 52.5s28.834 42.5 39.501 65.5
s17.667 43.167 21 60.5z" />
    <glyph glyph-name="FL005Eh" unicode="^" horiz-adv-x="604" 
d="M584 0h-564l253 670h305zM321 168v158l-62 -158h62z" />
    <glyph glyph-name="FL005Fh" unicode="_" horiz-adv-x="461" 
d="M426 0l33 168h-391l-33 -168h391z" />
    <glyph glyph-name="FL0060h" unicode="`" horiz-adv-x="257" 
d="M339 883l22 -168h-186l-34 168h198z" />
    <glyph glyph-name="a" unicode="a" 
d="M574 0h-271l43 223h-91l-43 -223h-177l130 670h399c22.667 0 41.5 -7.16699 56.5 -21.5s26.333 -31.833 34 -52.5s12.167 -42.5 13.5 -65.5s0.333008 -43.167 -3 -60.5zM310 503l-22 -110h91l22 110h-91z" />
    <glyph glyph-name="b" unicode="b" 
d="M35 0l130.003 670h399c22.667 0 41.5 -7.16699 56.5 -21.5s26.333 -31.833 34 -52.5s12.167 -42.5 13.5 -65.5s0.333008 -43.167 -3 -60.5l-9 -50c-1.33301 -6.66699 -3.83301 -14 -7.5 -22s-8 -16 -13 -24s-10.333 -15.333 -16 -22s-11.167 -12.334 -16.5 -17.001
c7.33301 -12.667 13.166 -26.667 17.499 -42s5.16602 -29.666 2.49902 -42.999l-10 -50c-3.33301 -17.333 -10.333 -37.5 -21 -60.5s-23.834 -44.833 -39.501 -65.5s-33.667 -38.167 -54 -52.5s-41.833 -21.5 -64.5 -21.5h-399zM434.003 167l17 84h-96l-17 -84h96z
M404.003 503l-16 -82h96l16 82h-96z" />
    <glyph glyph-name="c" unicode="c" horiz-adv-x="516" 
d="M74 200l52 270c3.33301 17.333 10.333 37.5 21 60.5s23.834 44.833 39.501 65.5s33.5 38.167 53.5 52.5s41.667 21.5 65 21.5h306l-32 -167h-175l-66 -336h175l-32 -167h-306c-23.333 0 -42.333 7.16699 -57 21.5s-25.834 31.833 -33.501 52.5s-12.167 42.5 -13.5 65.5
s-0.333008 43.167 3 60.5z" />
    <glyph glyph-name="d" unicode="d" 
d="M613 200c-3.33301 -17.333 -10.332 -37.5 -20.999 -60.5s-23.834 -44.833 -39.501 -65.5s-33.667 -38.167 -54 -52.5s-41.833 -21.5 -64.5 -21.5h-399l130 670h399c22.667 0 41.5 -7.16699 56.5 -21.5s26.333 -31.833 34 -52.5s12.167 -42.5 13.5 -65.5
s0.333008 -43.167 -3 -60.5zM310.001 503l-66 -336h91l66 336h-91z" />
    <glyph glyph-name="e" unicode="e" horiz-adv-x="516" 
d="M126 470c3.33301 17.333 10.333 37.5 21 60.5s23.834 44.833 39.501 65.5s33.5 38.167 53.5 52.5s41.667 21.5 65 21.5h306l-32 -167h-175l-16 -82h162l-33 -170h-162l-17 -84h175l-32 -167h-306c-23.333 0 -42.333 7.16699 -57 21.5s-25.834 31.833 -33.501 52.5
s-12.167 42.5 -13.5 65.5s-0.333008 43.167 3 60.5z" />
    <glyph glyph-name="f" unicode="f" horiz-adv-x="516" 
d="M126 470c3.33301 17.333 10.332 37.5 20.999 60.5s23.834 44.833 39.501 65.5s33.5 38.167 53.5 52.5s41.667 21.5 65 21.5h306l-32 -167h-175l-16 -82h162l-33 -170h-162l-49 -251h-271z" />
    <glyph glyph-name="g" unicode="g" 
d="M74 200l52 270c3.33301 17.333 10.333 37.5 21 60.5s23.834 44.833 39.501 65.5s33.5 38.167 53.5 52.5s41.667 21.5 65 21.5h399l-32 -167h-268l-66 -336h91l46 233h177l-78 -400h-399c-23.333 0 -42.333 7.16699 -57 21.5s-25.834 31.833 -33.501 52.5
s-12.167 42.5 -13.5 65.5s-0.333008 43.167 3 60.5z" />
    <glyph glyph-name="h" unicode="h" 
d="M574 0l130 670h-177l-48 -249h-91l48 249h-271l-130 -670h271l49 251h91l-49 -251h177z" />
    <glyph glyph-name="i" unicode="i" horiz-adv-x="341" 
d="M306 0l130 670h-271l-130 -670h271z" />
    <glyph glyph-name="j" unicode="j" horiz-adv-x="488" 
d="M492 200l90.999 470h-271l-98 -503h-147l-32 -167h278c22.667 0 44.167 7.16699 64.5 21.5s38.333 31.833 54 52.5s28.834 42.5 39.501 65.5s17.667 43.167 21 60.5z" />
    <glyph glyph-name="FL006Bh" unicode="k" horiz-adv-x="614" 
d="M35 0h271l32 163l43 -163h213l-96 335l226 335h-213l-106 -163l31 163h-271z" />
    <glyph glyph-name="l" unicode="l" horiz-adv-x="487" 
d="M35 0l130 670h271l-98 -503h146l-32 -167h-417z" />
    <glyph glyph-name="m" unicode="m" horiz-adv-x="876" 
d="M841 0h-271l98 503h-91l-98 -503h-177l98 503h-90l-98 -503h-177l130 670h666c22.667 0 41.5 -7.16699 56.5 -21.5s26.333 -31.833 34 -52.5s12.167 -42.5 13.5 -65.5s0.333008 -43.167 -3 -60.5z" />
    <glyph glyph-name="n" unicode="n" 
d="M574 0l91 470c3.33301 17.333 4.33301 37.5 3 60.5s-5.83301 44.833 -13.5 65.5s-19 38.167 -34 52.5s-33.833 21.5 -56.5 21.5h-399l-130 -670h177l98 503h91l-98 -503h271z" />
    <glyph glyph-name="o" unicode="o" 
d="M613 200c-3.33301 -17.333 -10.332 -37.5 -20.999 -60.5s-23.834 -44.833 -39.501 -65.5s-33.667 -38.167 -54 -52.5s-41.833 -21.5 -64.5 -21.5h-259c-23.333 0 -42.333 7.16699 -57 21.5s-25.834 31.833 -33.501 52.5s-12.167 42.5 -13.5 65.5s-0.333008 43.167 3 60.5
l52 270c3.33301 17.333 10.333 37.5 21 60.5s23.834 44.833 39.501 65.5s33.5 38.167 53.5 52.5s41.667 21.5 65 21.5h259c22.667 0 41.5 -7.16699 56.5 -21.5s26.333 -31.833 34 -52.5s12.167 -42.5 13.5 -65.5s0.333008 -43.167 -3 -60.5zM305.001 503l-66 -336h96l66 336
h-96z" />
    <glyph glyph-name="p" unicode="p" 
d="M306 0h-271.001l130 670h399c22.667 0 41.5 -7.16699 56.5 -21.5s26.333 -31.833 34 -52.5s12.167 -42.5 13.5 -65.5s0.333008 -43.167 -3 -60.5l-9 -48c-3.33301 -17.333 -10.166 -37.5 -20.499 -60.5s-23.5 -44.833 -39.5 -65.5s-34.167 -38.167 -54.5 -52.5
s-41.833 -21.5 -64.5 -21.5h-128zM499.999 503h-96l-22 -110h96z" />
    <glyph glyph-name="q" unicode="q" 
d="M613 200c-2 -12 -5.83105 -25.167 -11.498 -39.5s-12.834 -29 -21.501 -44s-18.334 -29.667 -29.001 -44s-22 -26.833 -34 -37.5l34 -95h-191l-26 60h-159c-23.333 0 -42.333 7.16699 -57 21.5s-25.834 31.833 -33.501 52.5s-12.167 42.5 -13.5 65.5
s-0.333008 43.167 3 60.5l52 270c3.33301 17.333 10.333 37.5 21 60.5s23.834 44.833 39.501 65.5s33.5 38.167 53.5 52.5s41.667 21.5 65 21.5h259c22.667 0 41.5 -7.16699 56.5 -21.5s26.333 -31.833 34 -52.5s12.167 -42.5 13.5 -65.5s0.333008 -43.167 -3 -60.5z
M266.002 304h96l39 199h-96zM283.002 167l-27 83l-17 -83h44z" />
    <glyph glyph-name="r" unicode="r" 
d="M306 0l-271 0.000976562l130 670h399c22.667 0 41.5 -7.16699 56.5 -21.5s26.333 -31.833 34 -52.5s12.167 -42.5 13.5 -65.5s0.333008 -43.167 -3 -60.5l-9 -49c-2.66699 -14 -7.66699 -29.833 -15 -47.5s-16.333 -35.334 -27 -53.001s-23 -34.167 -37 -49.5
s-29 -27.333 -45 -36l62 -235h-213l-43 164zM500 503.001h-96l-22 -111h96z" />
    <glyph glyph-name="s" unicode="s" horiz-adv-x="537" 
d="M84 251l42 219c3.33301 17.333 10.333 37.5 21 60.5s23.834 44.833 39.501 65.5s33.5 38.167 53.5 52.5s41.667 21.5 65 21.5h327l-32 -167h-200l-16 -82h200l-43 -221c-3.33301 -17.333 -10.333 -37.5 -21 -60.5s-23.834 -44.833 -39.501 -65.5
s-33.667 -38.167 -54 -52.5s-41.833 -21.5 -64.5 -21.5h-327l32 167h200l17 84h-200z" />
    <glyph glyph-name="t" unicode="t" horiz-adv-x="549" 
d="M612 503h-104l-98 -503h-271l98 503h-104l32 167h479z" />
    <glyph glyph-name="u" unicode="u" 
d="M165 670l-91.001 -470c-3.33301 -17.333 -4.33301 -37.5 -3 -60.5s5.83301 -44.833 13.5 -65.5s18.834 -38.167 33.501 -52.5s33.667 -21.5 57 -21.5h399l130 670h-177l-98 -503h-91l98 503h-271z" />
    <glyph glyph-name="v" unicode="v" horiz-adv-x="579" 
d="M689 670l-264 -670h-283l8 670h177l-4 -276l95 276h271z" />
    <glyph glyph-name="w" unicode="w" horiz-adv-x="876" 
d="M165 670h271.001l-98 -503h91l98 503h177l-98 -503h90l98 503h177l-130 -670h-666c-23.333 0 -42.333 7.16699 -57 21.5s-25.834 31.833 -33.501 52.5s-12.167 42.5 -13.5 65.5s-0.333008 43.167 3 60.5z" />
    <glyph glyph-name="FL007Bh" unicode="x" horiz-adv-x="583" 
d="M197 0l104 273l-9 -273h271l-4 342l134 328h-271l-97 -273l2 273h-177l-5 -340l-125 -330h177z" />
    <glyph glyph-name="FL0079h" unicode="y" 
d="M613 200l90.998 470h-177l-49 -255h-91l49 255h-271l-43 -222c-3.33301 -17.333 -4.16602 -37.5 -2.49902 -60.5s6.33398 -44.833 14.001 -65.5s18.667 -38.167 33 -52.5s33.166 -21.5 56.499 -21.5h222l-16 -81h-362l-32 -167h399c22.667 0 44.167 7.16699 64.5 21.5
s38.333 31.833 54 52.5s28.834 42.5 39.501 65.5s17.667 43.167 21 60.5z" />
    <glyph glyph-name="FL007Ah" unicode="z" horiz-adv-x="537" 
d="M591 457l41 213h-467l-32 -167h204l-260 -289l-42 -214h467l32 167h-204z" />
    <glyph glyph-name="FL007Ch" unicode="{" 
d="M165 668l-130.001 -668h271l60 307h91l-60 -307h177l169 868h-399c-23.333 0 -45 -7.16699 -65 -21.5s-38 -31.833 -54 -52.5s-29.167 -42.5 -39.5 -65.5s-17.166 -43.167 -20.499 -60.5zM532.999 701l-43 -224h-91l43 224h91z" />
    <glyph glyph-name="FL007Eh" unicode="|" horiz-adv-x="523" 
d="M429 167h91l-32 -167h-453l32 167h91l104 534h-91l33 167h453l-33 -167h-91z" />
    <glyph glyph-name="FL007Dh" unicode="}" 
d="M35 0h271.001l43 223h91l-43 -223h177l130 670h-399c-23.333 0 -45 -7.16699 -65 -21.5s-37.833 -31.833 -53.5 -52.5s-28.834 -42.5 -39.501 -65.5s-17.667 -43.167 -21 -60.5zM495.001 503l-22 -110h-91l22 110h91z" />
    <glyph glyph-name="FL0030h" unicode="~" 
d="M74 200c-3.33301 -17.333 -4.33398 -37.5 -3.00098 -60.5s5.83301 -44.833 13.5 -65.5s18.834 -38.167 33.501 -52.5s33.667 -21.5 57 -21.5h259c22.667 0 44.167 7.16699 64.5 21.5s38.333 31.833 54 52.5s28.834 42.5 39.501 65.5s17.667 43.167 21 60.5l52 270
c3.33301 17.333 4.33301 37.5 3 60.5s-5.83301 44.833 -13.5 65.5s-19 38.167 -34 52.5s-33.833 21.5 -56.5 21.5h-259c-23.333 0 -45 -7.16699 -65 -21.5s-37.833 -31.833 -53.5 -52.5s-28.834 -42.5 -39.501 -65.5s-17.667 -43.167 -21 -60.5zM499.999 503l-66 -336h-96
l66 336h96z" />
    <glyph glyph-name="FL007Fh" horiz-adv-x="175" 
 />
    <glyph glyph-name="FL00A1h" unicode="&#xa1;" horiz-adv-x="341" 
d="M428 868l-33 -168h-177l33 168h177zM430 636l-124 -636h-271l124 636h271z" />
    <glyph glyph-name="FL00A2h" unicode="&#xa2;" horiz-adv-x="516" 
d="M90 285l20.0039 99c3.33301 17.333 10.166 37.5 20.499 60.5s23.5 44.833 39.5 65.5s34 38.167 54 52.5s41.667 21.5 65 21.5h49l16 86h177l-16 -86h80l-33 -167h-175l-32 -165h175l-32 -167h-80l-17 -85h-177l17 85h-49c-23.333 0 -42.333 7.16699 -57 21.5
s-25.834 31.833 -33.501 52.5s-12.334 42.5 -14.001 65.5s-0.833984 43.167 2.49902 60.5z" />
    <glyph glyph-name="FL00A3h" unicode="&#xa3;" horiz-adv-x="589" 
d="M84 251l32.999 170h73l9 49c3.33301 17.333 10.333 37.5 21 60.5s23.834 44.833 39.501 65.5s33.5 38.167 53.5 52.5s41.667 21.5 65 21.5h178l-32 -167h-47l-16 -82h108l-33 -170h-108l-17 -84h175l-32 -167h-519l33 170h73l16 81h-73z" />
    <glyph glyph-name="FL00A4h" unicode="&#xa4;" horiz-adv-x="583" 
d="M292 0l2 60h-74l-23 -60h-177l125 330l5 340h177l-1 -57h76l20 57h271l-134 -328l4 -342h-271zM307 475l-54 -277h75l54 277h-75z" />
    <glyph glyph-name="FL00A5h" unicode="&#xa5;" horiz-adv-x="583" 
d="M82 243l33 169h61l-26 258h177l21 -156l74 156h271l-120 -258h57l-33 -169h-104l-17 -37h114l-33 -169h-119l-7 -37h-271l7 37h-125l33 169h122l-3 37h-112z" />
    <glyph glyph-name="FL00A6h" unicode="&#xa6;" horiz-adv-x="523" 
d="M429 167h91l-32 -167h-453l32 167h91l66 336h-91l32 167h453l-32 -167h-91z" />
    <glyph glyph-name="FL00A7h" unicode="&#xa7;" horiz-adv-x="583" 
d="M168 445c2.66699 14 8.16504 30.5 16.498 49.5s18.833 37 31.5 54s26.834 31.5 42.501 43.5s32.5 18 50.5 18h185l22 60h177l-125 -330l-23 -118c-2.66699 -14 -8.16699 -30.5 -16.5 -49.5s-18.666 -37 -30.999 -54s-26.5 -31.5 -42.5 -43.5s-33 -18 -51 -18h-93l-20 -57
h-271l143 343zM405.998 195l54 277h-75l-54 -277h75z" />
    <glyph glyph-name="FL00A8h" unicode="&#xa8;" horiz-adv-x="481" 
d="M429 714l32 168h156l-32 -168h-156zM174 714l32 168h198l-32 -168h-198z" />
    <glyph glyph-name="copyright" unicode="&#xa9;" horiz-adv-x="290" 
d="M314 868c8.66699 0 26.999 -4.66602 54.999 -13.999c18.667 -12 31 -27 37 -45c7.33301 -18 9 -38 5 -60c-4 -20.667 -13.333 -40.334 -28 -59.001c-7.33301 -10.667 -15.166 -19.334 -23.499 -26.001s-18.166 -13 -29.499 -19c-37.333 -10 -58.333 -15 -63 -15
c-22.667 0 -41.334 5 -56.001 15c-8 6 -14.833 12.333 -20.5 19s-10.5 15.334 -14.5 26.001c-7.33301 20 -9 39.667 -5 59c2.66699 18 12 38 28 60c13.333 19.333 31 34.333 53 45c33.333 9.33301 54 14 62 14zM309.999 849.001c-17.333 0 -34.501 -3.99902 -51.501 -11.999
s-32.167 -20.667 -45.5 -38c-10.667 -14.667 -17.667 -31.334 -21 -50.001c-4 -17.333 -3.33301 -33.666 2 -48.999c3.33301 -7.33301 7.33301 -13.833 12 -19.5s10.667 -11.5 18 -17.5c12.667 -8.66699 28.334 -13 47.001 -13c18 0 35.333 4.33301 52 13
c16.667 7.33301 31.334 19.666 44.001 36.999c11.333 14 19 30.333 23 49c3.33301 19.333 2 36 -4 50c-7.33301 16 -17 28.333 -29 37c-7.33301 5.33301 -14.833 8.83301 -22.5 10.5s-15.834 2.5 -24.501 2.5zM325.998 730.002l18.002 -5
c-6.66699 -14 -15.834 -24.833 -27.501 -32.5s-24.834 -11.5 -39.501 -11.5c-19.333 0 -33.5 5.66699 -42.5 17s-11.167 28.333 -6.5 51c4 22.667 13 39.667 27 51s30.667 17 50 17c28.667 0 44 -13 46 -39l-19 -4c-4 16.667 -14.333 25 -31 25c-28 0 -45 -16.667 -51 -50
c-6.66699 -32.667 3.33301 -49 30 -49c20.667 0 36 10 46 30z" />
    <glyph glyph-name="FL00AAh" unicode="&#xaa;" 
d="M665 470l-91 -470h-539l82 421h268l16 82h-268l32 167h399c22.667 0 41.5 -7.16699 56.5 -21.5s26.333 -31.833 34 -52.5s12.167 -42.5 13.5 -65.5s0.333008 -43.167 -3 -60.5zM352 251h-91l-17 -84h91z" />
    <glyph glyph-name="FL00ABh" unicode="&#xab;" horiz-adv-x="457" 
d="M486 329l-86 28l97 29l30 156l-181 -67l-54 -277l155 -67zM267 329l-86 28l97 29l30 156l-181 -67l-54 -277l155 -67z" />
    <glyph glyph-name="FL00ACh" unicode="&#xac;" horiz-adv-x="420" 
d="M117 421h350l-55 -283h-170l22 113h-180z" />
    <glyph glyph-name="FL00ADh" unicode="&#xad;" horiz-adv-x="291" 
d="M84 251l33 170h221l-33 -170h-221z" />
    <glyph glyph-name="FL00AEh" unicode="&#xae;" horiz-adv-x="290" 
d="M314 868c8.66699 0 26.999 -4.66602 54.999 -13.999c18.667 -12 31 -27 37 -45c7.33301 -18 9 -38 5 -60c-4 -20.667 -13.333 -40.334 -28 -59.001c-7.33301 -10.667 -15.166 -19.334 -23.499 -26.001s-18.166 -13 -29.499 -19c-37.333 -10 -58.333 -15 -63 -15
c-22.667 0 -41.334 5 -56.001 15c-8 6 -14.833 12.333 -20.5 19s-10.5 15.334 -14.5 26.001c-7.33301 20 -9 39.667 -5 59c2.66699 18 12 38 28 60c13.333 19.333 31 34.333 53 45c33.333 9.33301 54 14 62 14zM309.999 849.001c-17.333 0 -34.501 -3.99902 -51.501 -11.999
s-32.167 -20.667 -45.5 -38c-10.667 -14.667 -17.667 -31.334 -21 -50.001c-4 -17.333 -3.33301 -33.666 2 -48.999c3.33301 -7.33301 7.33301 -13.833 12 -19.5s10.667 -11.5 18 -17.5c12.667 -8.66699 28.334 -13 47.001 -13c18 0 35.333 4.33301 52 13
c16.667 7.33301 31.334 19.666 44.001 36.999c11.333 14 19 30.333 23 49c3.33301 19.333 2 36 -4 50c-7.33301 16 -17 28.333 -29 37c-7.33301 5.33301 -14.833 8.83301 -22.5 10.5s-15.834 2.5 -24.501 2.5zM226.998 684.002l24.999 128h42
c18.667 0 29.667 -1.33301 33 -4c6.66699 -3.33301 11 -7.33301 13 -12c2.66699 -4.66699 3.33398 -11 2.00098 -19c-4 -21.333 -18.667 -33.333 -44 -36c6 -3.33301 10.333 -7 13 -11s6 -10.333 10 -19l13 -27h-26l-6 19l-10 20c-2.66699 5.33301 -5 9 -7 11
c-2.66699 2.66699 -8 4 -16 4h-12l-10 -54h-20zM260.997 755.002h23.999c12.667 0 21.334 1.66699 26.001 5s7.66699 8 9 14c2 10 -0.666992 16.333 -8 19c-0.666992 0.666992 -8 1 -22 1h-22z" />
    <glyph glyph-name="FL00AFh" unicode="&#xaf;" horiz-adv-x="461" 
d="M562 700l33 168h-391l-33 -168h391z" />
    <glyph glyph-name="FL00B0h" unicode="&#xb0;" horiz-adv-x="268" 
d="M174 714l32 168h198l-32 -168h-198zM262 823l-10 -51h64l10 51h-64z" />
    <glyph glyph-name="FL00B1h" unicode="&#xb1;" horiz-adv-x="465" 
d="M267 618h170l-22 -112h113l-33 -170h-113l-22 -113h-170l22 113h-112l33 170h112zM68 170h395l-33 -170h-395z" />
    <glyph glyph-name="FL00B2h" unicode="&#xb2;" horiz-adv-x="327" 
d="M177 729l-45 -230.001h257l22 114h-103l5 23h103l23 121c2 9.33301 2.5 20.333 1.5 33s-3.5 24.834 -7.5 36.501s-10 21.5 -18 29.5s-18.333 12 -31 12h-180l-22 -113h103l-5 -26h-103z" />
    <glyph glyph-name="FL00B3h" unicode="&#xb3;" horiz-adv-x="316" 
d="M428 757c2 9.33301 2.50098 20.334 1.50098 33.001s-3.5 24.834 -7.5 36.501s-10 21.5 -18 29.5s-18.333 12 -31 12h-169l-22 -113h92l-5 -24h-85l-18 -94h85l-5 -24h-92l-22 -114h169c12.667 0 24.5 4 35.5 12s20.833 17.667 29.5 29s15.834 23.333 21.501 36
s9.5 23.667 11.5 33l6 27c1.33301 7.33301 0.833008 15.166 -1.5 23.499s-5.5 16.166 -9.5 23.499c5.33301 5.33301 10.666 12.333 15.999 21s9.66602 16.667 12.999 24z" />
    <glyph glyph-name="FL00B4h" unicode="&#xb4;" horiz-adv-x="213" 
d="M260 882h156l-99 -168h-143z" />
    <glyph glyph-name="FL00B5h" unicode="&#xb5;" 
d="M704 670l-90.999 -470c-3.33301 -17.333 -10.333 -37.5 -21 -60.5s-23.834 -44.833 -39.501 -65.5s-33.667 -38.167 -54 -52.5s-41.833 -21.5 -64.5 -21.5h-399l130 670h177l-98 -503h91l98 503h271z" />
    <glyph glyph-name="FL00B6h" unicode="&#xb6;" horiz-adv-x="785" 
d="M573 701l-151.998 -783h-177l75 388h-85c-23.333 0 -42.166 7.16699 -56.499 21.5s-25.333 31.833 -33 52.5s-12.334 42.5 -14.001 65.5s-0.833984 43.167 2.49902 60.5l32 162c3.33301 17.333 10.166 37.5 20.499 60.5s23.5 44.833 39.5 65.5s34 38.167 54 52.5
s41.667 21.5 65 21.5h575l-185 -950h-271l152 783h-42z" />
    <glyph glyph-name="FL00B7h" unicode="&#xb7;" horiz-adv-x="247" 
d="M261 252l33 168h-177l-33 -168h177z" />
    <glyph glyph-name="FL00B8h" unicode="&#xb8;" horiz-adv-x="211" 
d="M35 0h141l-33 -170h-199l25 130h58z" />
    <glyph glyph-name="FL00BBh" unicode="&#xb9;" horiz-adv-x="265" 
d="M327 499h-152l50 256h-43l22 113h195z" />
    <glyph glyph-name="FL00BAh" unicode="&#xba;" horiz-adv-x="367" 
d="M286 755l-28 -142h40l28 142h-40zM450 609c-2 -9.33301 -5.83301 -20.333 -11.5 -33s-12.834 -24.667 -21.501 -36s-18.5 -21 -29.5 -29s-22.833 -12 -35.5 -12h-143c-12.667 0 -23 4 -31 12s-14.167 17.667 -18.5 29s-7 23.333 -8 36s-0.5 23.667 1.5 33l29 148
c2 9.33301 5.83301 20.333 11.5 33s12.834 24.834 21.501 36.501s18.667 21.5 30 29.5s23.333 12 36 12h143c12.667 0 23 -4 31 -12s14 -17.833 18 -29.5s6.5 -23.834 7.5 -36.501s0.5 -23.667 -1.5 -33z" />
    <glyph glyph-name="FL00BDh" unicode="&#xbb;" horiz-adv-x="457" 
d="M486 329l-86 28l97 29l30 156l-181 -67l-54 -277l155 -67zM267 329l-86 28l97 29l30 156l-181 -67l-54 -277l155 -67z" />
    <glyph glyph-name="FL00BEh" unicode="&#xbc;" horiz-adv-x="823" 
d="M211 0l252 670h176l-253 -670h-175zM563 369h104l-25 -126h39l25 126h154l-72 -369h-154l25 129h-143zM289 301h-152l49 256h-43l22 113h195z" />
    <glyph glyph-name="FL02E0h" unicode="&#xbd;" horiz-adv-x="783" 
d="M137 301h152l71 369h-195l-22 -113h43zM463 670l-252 -670h175l253 670h-176zM536 230l-45 -230.001h257l22 114h-103l5 23h103l23 121c2 9.33301 2.5 20.333 1.5 33s-3.5 24.834 -7.5 36.501s-10 21.5 -18 29.5s-18.333 12 -31 12h-180l-22 -113h103l-5 -26h-103z" />
    <glyph glyph-name="FL0293h" unicode="&#xbe;" horiz-adv-x="858" 
d="M390 559l-6.00098 -29.001c-3.33301 -7.33301 -7.66602 -15.333 -12.999 -24s-10.666 -15.667 -15.999 -21c4 -7.33301 7.16699 -15.166 9.5 -23.499s2.83301 -16.166 1.5 -23.499l-5 -27c-2 -9.33301 -5.83301 -20.333 -11.5 -33s-12.834 -24.667 -21.501 -36
s-18.5 -21 -29.5 -29s-22.833 -12 -35.5 -12h-169l22 114h92l4 24h-85l19 94h85l4 24h-92l22 113h169c12.667 0 23 -4 31 -12s14.167 -17.833 18.5 -29.5s7 -23.834 8 -36.501s0.5 -23.667 -1.5 -33zM245.999 -0.000976562l252 670h176l-253 -670h-175zM597.999 368.999h104
l-25 -126h39l25 126h154l-72 -369h-154l25 129h-143z" />
    <glyph glyph-name="FL00BFh" unicode="&#xbf;" horiz-adv-x="537" 
d="M136 519l-62.001 -319c-3.33301 -17.333 -4.33301 -37.5 -3 -60.5s5.83301 -44.833 13.5 -65.5s18.834 -38.167 33.501 -52.5s33.667 -21.5 57 -21.5h327l32 167h-200l36 182h200l56 287h-268l-23 -117h-199zM447.999 868l-33 -168h177l33 168h-177z" />
    <glyph glyph-name="FL00C0h" unicode="&#xc0;" 
d="M528 883l22 -168h-186l-34 168h198zM574 0h-271l43 223h-91l-43 -223h-177l130 670h399c22.667 0 41.5 -7.16699 56.5 -21.5s26.333 -31.833 34 -52.5s12.167 -42.5 13.5 -65.5s0.333008 -43.167 -3 -60.5zM310 503l-22 -110h91l22 110h-91z" />
    <glyph glyph-name="FL00C1h" unicode="&#xc1;" 
d="M429 882h156l-99 -168h-143zM574 0h-271l43 223h-91l-43 -223h-177l130 670h399c22.667 0 41.5 -7.16699 56.5 -21.5s26.333 -31.833 34 -52.5s12.167 -42.5 13.5 -65.5s0.333008 -43.167 -3 -60.5zM310 503l-22 -110h91l22 110h-91z" />
    <glyph glyph-name="FL00C2h" unicode="&#xc2;" 
d="M451 714l-11 91l-46 -91h-156l99 168h277l35 -168h-198zM574 0h-271l43 223h-91l-43 -223h-177l130 670h399c22.667 0 41.5 -7.16699 56.5 -21.5s26.333 -31.833 34 -52.5s12.167 -42.5 13.5 -65.5s0.333008 -43.167 -3 -60.5zM310 503l-22 -110h91l22 110h-91z" />
    <glyph glyph-name="FL00C3h" unicode="&#xc3;" horiz-adv-x="597" 
d="M359 793l-40 -79h-144l99 168h259l16 -80l41 80h142l-99 -168h-257zM574 0h-271l43 223h-91l-43 -223h-177l130 670h399c22.667 0 41.5 -7.16699 56.5 -21.5s26.333 -31.833 34 -52.5s12.167 -42.5 13.5 -65.5s0.333008 -43.167 -3 -60.5zM310 503l-22 -110h91l22 110
h-91z" />
    <glyph glyph-name="FL00C4h" unicode="&#xc4;" 
d="M493 714l32 168h156l-32 -168h-156zM238 714l32 168h198l-32 -168h-198zM574 0h-271l43 223h-91l-43 -223h-177l130 670h399c22.667 0 41.5 -7.16699 56.5 -21.5s26.333 -31.833 34 -52.5s12.167 -42.5 13.5 -65.5s0.333008 -43.167 -3 -60.5zM310 503l-22 -110h91
l22 110h-91z" />
    <glyph glyph-name="FL00C5h" unicode="&#xc5;" 
d="M344 714l32 168h198l-32 -168h-198zM574 0h-271l43 223h-91l-43 -223h-177l130 670h399c22.667 0 41.5 -7.16699 56.5 -21.5s26.333 -31.833 34 -52.5s12.167 -42.5 13.5 -65.5s0.333008 -43.167 -3 -60.5zM310 503l-22 -110h91l22 110h-91zM432 823l-10 -51h64l10 51
h-64z" />
    <glyph glyph-name="FL00C6h" unicode="&#xc6;" horiz-adv-x="783" 
d="M204 868l-169 -868h177l62 320h91l-62 -320h445l32 167h-174l36 181h161l33 170h-161l35 183h174l33 167h-713zM348 701h91l-41 -211h-91z" />
    <glyph glyph-name="FL00C7h" unicode="&#xc7;" horiz-adv-x="516" 
d="M165 668c3.33301 17.333 10.168 37.5 20.501 60.5s23.5 44.833 39.5 65.5s34 38.167 54 52.5s41.667 21.5 65 21.5h306l-33 -167h-175l-104 -534h175l-32 -167h-99l-33 -170h-199l25 130h58l8 40h-66c-23.333 0 -42.333 7.16699 -57 21.5s-25.834 31.833 -33.501 52.5
s-12.167 42.5 -13.5 65.5s-0.333008 43.167 3 60.5z" />
    <glyph glyph-name="FL00C8h" unicode="&#xc8;" horiz-adv-x="516" 
d="M74 200l52 270c3.33301 17.333 10.333 37.5 21 60.5s23.834 44.833 39.501 65.5s33.5 38.167 53.5 52.5s41.667 21.5 65 21.5h306l-32 -167h-175l-16 -82h162l-33 -170h-162l-17 -84h175l-32 -167h-306c-23.333 0 -42.333 7.16699 -57 21.5s-25.834 31.833 -33.501 52.5
s-12.167 42.5 -13.5 65.5s-0.333008 43.167 3 60.5zM528 883l22 -168h-186l-34 168h198z" />
    <glyph glyph-name="FL00C9h" unicode="&#xc9;" horiz-adv-x="516" 
d="M74 200l52 270c3.33301 17.333 10.333 37.5 21 60.5s23.834 44.833 39.501 65.5s33.5 38.167 53.5 52.5s41.667 21.5 65 21.5h306l-32 -167h-175l-16 -82h162l-33 -170h-162l-17 -84h175l-32 -167h-306c-23.333 0 -42.333 7.16699 -57 21.5s-25.834 31.833 -33.501 52.5
s-12.167 42.5 -13.5 65.5s-0.333008 43.167 3 60.5zM429 882h156l-99 -168h-143z" />
    <glyph glyph-name="FL00CAh" unicode="&#xca;" horiz-adv-x="516" 
d="M389 714l45 91l12 -91h156l-35 168h-277l-99 -168h198zM74 200c-3.33301 -17.333 -4.33301 -37.5 -3 -60.5s5.83301 -44.833 13.5 -65.5s18.834 -38.167 33.501 -52.5s33.667 -21.5 57 -21.5h306l32 167h-175l17 84h162l33 170h-162l16 82h175l32 167h-306
c-23.333 0 -45 -7.16699 -65 -21.5s-37.833 -31.833 -53.5 -52.5s-28.834 -42.5 -39.501 -65.5s-17.667 -43.167 -21 -60.5z" />
    <glyph glyph-name="FL00CBh" unicode="&#xcb;" horiz-adv-x="516" 
d="M389 714l32 168h-198l-32 -168h198zM602 714l32 168h-156l-32 -168h156zM74 200c-3.33301 -17.333 -4.33301 -37.5 -3 -60.5s5.83301 -44.833 13.5 -65.5s18.834 -38.167 33.501 -52.5s33.667 -21.5 57 -21.5h306l32 167h-175l17 84h162l33 170h-162l16 82h175l32 167
h-306c-23.333 0 -45 -7.16699 -65 -21.5s-37.833 -31.833 -53.5 -52.5s-28.834 -42.5 -39.501 -65.5s-17.667 -43.167 -21 -60.5z" />
    <glyph glyph-name="FL00CCh" unicode="&#xcc;" horiz-adv-x="341" 
d="M392 882h-156l35 -168h143zM165 670l-130 -670h271l130 670h-271z" />
    <glyph glyph-name="FL00CDh" unicode="&#xcd;" horiz-adv-x="341" 
d="M271 883l-88 -168h186l100 168h-198zM306 0l130 670h-271l-130 -670h271z" />
    <glyph glyph-name="FL00CEh" unicode="&#xce;" horiz-adv-x="341" 
d="M302 714l45 91l12 -91h156l-35 168h-277l-99 -168h198zM306 0l130 670h-271l-130 -670h271z" />
    <glyph glyph-name="FL00CFh" unicode="&#xcf;" horiz-adv-x="341" 
d="M302 714l32 168h-198l-32 -168h198zM515 714l32 168h-156l-32 -168h156zM306 0l130 670h-271l-130 -670h271z" />
    <glyph glyph-name="FL00D0h" unicode="&#xd0;" horiz-adv-x="661" 
d="M84 251l33.001 170h52l48 249h399c22.667 0 41.5 -7.16699 56.5 -21.5s26.333 -31.833 34 -52.5s12.167 -42.5 13.5 -65.5s0.333008 -43.167 -3 -60.5l-52 -270c-3.33301 -17.333 -10.333 -37.5 -21 -60.5s-23.834 -44.833 -39.501 -65.5s-33.667 -38.167 -54 -52.5
s-41.833 -21.5 -64.5 -21.5h-399l49 251h-52zM362.001 503l-16 -82h52l-33 -170h-52l-17 -84h91l66 336h-91z" />
    <glyph glyph-name="FL00D1h" unicode="&#xd1;" 
d="M365 793l-40 -79h-144l99 168h259l16 -80l41 80h142l-99 -168h-257zM303 0l98 503h-91l-98 -503h-177l130 670h399c22.667 0 41.5 -7.16699 56.5 -21.5s26.333 -31.833 34 -52.5s12.167 -42.5 13.5 -65.5s0.333008 -43.167 -3 -60.5l-91 -470h-271z" />
    <glyph glyph-name="FL00D2h" unicode="&#xd2;" 
d="M528 883l22 -168h-186l-34 168h198zM613 200c-3.33301 -17.333 -10.332 -37.5 -20.999 -60.5s-23.834 -44.833 -39.501 -65.5s-33.667 -38.167 -54 -52.5s-41.833 -21.5 -64.5 -21.5h-259c-23.333 0 -42.333 7.16699 -57 21.5s-25.834 31.833 -33.501 52.5
s-12.167 42.5 -13.5 65.5s-0.333008 43.167 3 60.5l52 270c3.33301 17.333 10.333 37.5 21 60.5s23.834 44.833 39.501 65.5s33.5 38.167 53.5 52.5s41.667 21.5 65 21.5h259c22.667 0 41.5 -7.16699 56.5 -21.5s26.333 -31.833 34 -52.5s12.167 -42.5 13.5 -65.5
s0.333008 -43.167 -3 -60.5zM305.001 503l-66 -336h96l66 336h-96z" />
    <glyph glyph-name="FL00D3h" unicode="&#xd3;" 
d="M429 882h156l-99 -168h-143zM613 200c-3.33301 -17.333 -10.332 -37.5 -20.999 -60.5s-23.834 -44.833 -39.501 -65.5s-33.667 -38.167 -54 -52.5s-41.833 -21.5 -64.5 -21.5h-259c-23.333 0 -42.333 7.16699 -57 21.5s-25.834 31.833 -33.501 52.5
s-12.167 42.5 -13.5 65.5s-0.333008 43.167 3 60.5l52 270c3.33301 17.333 10.333 37.5 21 60.5s23.834 44.833 39.501 65.5s33.5 38.167 53.5 52.5s41.667 21.5 65 21.5h259c22.667 0 41.5 -7.16699 56.5 -21.5s26.333 -31.833 34 -52.5s12.167 -42.5 13.5 -65.5
s0.333008 -43.167 -3 -60.5zM305.001 503l-66 -336h96l66 336h-96z" />
    <glyph glyph-name="FL00D4h" unicode="&#xd4;" 
d="M451 714l-11 91l-46 -91h-156l99 168h277l35 -168h-198zM613 200c-3.33301 -17.333 -10.332 -37.5 -20.999 -60.5s-23.834 -44.833 -39.501 -65.5s-33.667 -38.167 -54 -52.5s-41.833 -21.5 -64.5 -21.5h-259c-23.333 0 -42.333 7.16699 -57 21.5
s-25.834 31.833 -33.501 52.5s-12.167 42.5 -13.5 65.5s-0.333008 43.167 3 60.5l52 270c3.33301 17.333 10.333 37.5 21 60.5s23.834 44.833 39.501 65.5s33.5 38.167 53.5 52.5s41.667 21.5 65 21.5h259c22.667 0 41.5 -7.16699 56.5 -21.5s26.333 -31.833 34 -52.5
s12.167 -42.5 13.5 -65.5s0.333008 -43.167 -3 -60.5zM305.001 503l-66 -336h96l66 336h-96z" />
    <glyph glyph-name="FL00D5h" unicode="&#xd5;" horiz-adv-x="597" 
d="M239 167h96l66 336h-96zM613 200c-3.33301 -17.333 -10.332 -37.5 -20.999 -60.5s-23.834 -44.833 -39.501 -65.5s-33.667 -38.167 -54 -52.5s-41.833 -21.5 -64.5 -21.5h-259c-23.333 0 -42.333 7.16699 -57 21.5s-25.834 31.833 -33.501 52.5s-12.167 42.5 -13.5 65.5
s-0.333008 43.167 3 60.5l52 270c3.33301 17.333 10.333 37.5 21 60.5s23.834 44.833 39.501 65.5s33.5 38.167 53.5 52.5s41.667 21.5 65 21.5h259c22.667 0 41.5 -7.16699 56.5 -21.5s26.333 -31.833 34 -52.5s12.167 -42.5 13.5 -65.5s0.333008 -43.167 -3 -60.5z
M359.001 793l-40 -79h-144l99 168h259l16 -80l41 80h142l-99 -168h-257z" />
    <glyph glyph-name="FL00D6h" unicode="&#xd6;" 
d="M451 714l32 168h198l-32 -168h-198zM238 714l32 168h156l-32 -168h-156zM613 200c-3.33301 -17.333 -10.332 -37.5 -20.999 -60.5s-23.834 -44.833 -39.501 -65.5s-33.667 -38.167 -54 -52.5s-41.833 -21.5 -64.5 -21.5h-259c-23.333 0 -42.333 7.16699 -57 21.5
s-25.834 31.833 -33.501 52.5s-12.167 42.5 -13.5 65.5s-0.333008 43.167 3 60.5l52 270c3.33301 17.333 10.333 37.5 21 60.5s23.834 44.833 39.501 65.5s33.5 38.167 53.5 52.5s41.667 21.5 65 21.5h259c22.667 0 41.5 -7.16699 56.5 -21.5s26.333 -31.833 34 -52.5
s12.167 -42.5 13.5 -65.5s0.333008 -43.167 -3 -60.5zM305.001 503l-66 -336h96l66 336h-96z" />
    <glyph glyph-name="FL0078h" unicode="&#xd7;" horiz-adv-x="579" 
d="M689 670h-271l-95 -276l4 276h-177l-4 -352l-126 -318h271l96 276l-5 -276h177l4 355z" />
    <glyph glyph-name="FL00D8h" unicode="&#xd8;" 
d="M613 200c-3.33301 -17.333 -10.334 -37.5 -21.001 -60.5s-23.834 -44.833 -39.501 -65.5s-33.667 -38.167 -54 -52.5s-41.833 -21.5 -64.5 -21.5h-259c-23.333 0 -42.333 7.16699 -57 21.5s-25.834 31.833 -33.501 52.5s-12.167 42.5 -13.5 65.5s-0.333008 43.167 3 60.5
l91 468c3.33301 17.333 10.166 37.5 20.499 60.5s23.5 44.833 39.5 65.5s34 38.167 54 52.5s41.667 21.5 65 21.5h259c22.667 0 41.334 -7.16699 56.001 -21.5s25.834 -31.833 33.501 -52.5s12.334 -42.5 14.001 -65.5s0.833984 -43.167 -2.49902 -60.5zM238.999 167h96
l68 349l-154 -299zM342.999 701l-66 -340l153 294l9 46h-96z" />
    <glyph glyph-name="FL00D9h" unicode="&#xd9;" 
d="M165 670l-91.001 -470c-3.33301 -17.333 -4.33301 -37.5 -3 -60.5s5.83301 -44.833 13.5 -65.5s18.834 -38.167 33.501 -52.5s33.667 -21.5 57 -21.5h399l130 670h-177l-98 -503h-91l98 503h-271zM521.999 882h-156l35 -168h143z" />
    <glyph glyph-name="FL00DAh" unicode="&#xda;" 
d="M165 670l-91.001 -470c-3.33301 -17.333 -4.33301 -37.5 -3 -60.5s5.83301 -44.833 13.5 -65.5s18.834 -38.167 33.501 -52.5s33.667 -21.5 57 -21.5h399l130 670h-177l-98 -503h-91l98 503h-271zM424.999 883l-88 -168h186l100 168h-198z" />
    <glyph glyph-name="FL00DBh" unicode="&#xdb;" 
d="M165 670l-91.001 -470c-3.33301 -17.333 -4.33301 -37.5 -3 -60.5s5.83301 -44.833 13.5 -65.5s18.834 -38.167 33.501 -52.5s33.667 -21.5 57 -21.5h399l130 670h-177l-98 -503h-91l98 503h-271zM435.999 714l45 91l12 -91h156l-35 168h-277l-99 -168h198z" />
    <glyph glyph-name="FL00DCh" unicode="&#xdc;" 
d="M436 714l32 168h-198l-32 -168h198zM649 714l32 168h-156l-32 -168h156zM165 670l-91.001 -470c-3.33301 -17.333 -4.33301 -37.5 -3 -60.5s5.83301 -44.833 13.5 -65.5s18.834 -38.167 33.501 -52.5s33.667 -21.5 57 -21.5h399l130 670h-177l-98 -503h-91l98 503h-271z
" />
    <glyph glyph-name="FL00DDh" unicode="&#xdd;" 
d="M613 200l90.998 470h-177l-49 -255h-91l49 255h-271l-43 -222c-3.33301 -17.333 -4.16602 -37.5 -2.49902 -60.5s6.33398 -44.833 14.001 -65.5s18.667 -38.167 33 -52.5s33.166 -21.5 56.499 -21.5h222l-16 -81h-362l-32 -167h399c22.667 0 44.167 7.16699 64.5 21.5
s38.333 31.833 54 52.5s28.834 42.5 39.501 65.5s17.667 43.167 21 60.5zM424.998 883l-88 -168h186l100 168h-198z" />
    <glyph glyph-name="FL00DEh" unicode="&#xde;" 
d="M35 0l169.001 868h271l-30 -153h128c22.667 0 41.5 -7.16699 56.5 -21.5s26.333 -31.833 34 -52.5s12.167 -42.5 13.5 -65.5s0.333008 -43.167 -3 -60.5l-31 -162c-3.33301 -17.333 -10.333 -37.5 -21 -60.5s-23.834 -44.833 -39.501 -65.5s-33.667 -38.167 -54 -52.5
s-41.833 -21.5 -64.5 -21.5h-128l-30 -153h-271zM509.001 548h-96l-44 -224h96z" />
    <glyph glyph-name="FL00DFh" unicode="&#xdf;" 
d="M404 503l-120.998 -620.001h-271l114 587c3.33301 17.333 10.333 37.5 21 60.5s23.834 44.833 39.501 65.5s33.5 38.167 53.5 52.5s41.667 21.5 65 21.5h259c22.667 0 41.5 -7.16699 56.5 -21.5s26.333 -31.833 34 -52.5s12.167 -42.5 13.5 -65.5
s0.333008 -43.167 -3 -60.5l-10 -54c-4 -13.333 -11.167 -28 -21.5 -44s-20.5 -28.333 -30.5 -37c7.33301 -12.667 13.166 -26.667 17.499 -42s5.16602 -29.666 2.49902 -42.999l-10 -50c-3.33301 -17.333 -10.333 -37.5 -21 -60.5s-23.834 -44.833 -39.501 -65.5
s-33.667 -38.167 -54 -52.5s-41.833 -21.5 -64.5 -21.5h-87l32 167h55l17 84h-55l33 170h55l16 82h-96z" />
    <glyph glyph-name="FL00E0h" unicode="&#xe0;" 
d="M528 883l22 -168h-186l-34 168h198zM574 0h-271l43 223h-91l-43 -223h-177l130 670h399c22.667 0 41.5 -7.16699 56.5 -21.5s26.333 -31.833 34 -52.5s12.167 -42.5 13.5 -65.5s0.333008 -43.167 -3 -60.5zM310 503l-22 -110h91l22 110h-91z" />
    <glyph glyph-name="FL00E1h" unicode="&#xe1;" 
d="M429 882h156l-99 -168h-143zM574 0h-271l43 223h-91l-43 -223h-177l130 670h399c22.667 0 41.5 -7.16699 56.5 -21.5s26.333 -31.833 34 -52.5s12.167 -42.5 13.5 -65.5s0.333008 -43.167 -3 -60.5zM310 503l-22 -110h91l22 110h-91z" />
    <glyph glyph-name="FL00E2h" unicode="&#xe2;" 
d="M451 714l-11 91l-46 -91h-156l99 168h277l35 -168h-198zM574 0h-271l43 223h-91l-43 -223h-177l130 670h399c22.667 0 41.5 -7.16699 56.5 -21.5s26.333 -31.833 34 -52.5s12.167 -42.5 13.5 -65.5s0.333008 -43.167 -3 -60.5zM310 503l-22 -110h91l22 110h-91z" />
    <glyph glyph-name="FL00E4h" unicode="&#xe3;" horiz-adv-x="597" 
d="M359 793l-40 -79h-144l99 168h259l16 -80l41 80h142l-99 -168h-257zM574 0h-271l43 223h-91l-43 -223h-177l130 670h399c22.667 0 41.5 -7.16699 56.5 -21.5s26.333 -31.833 34 -52.5s12.167 -42.5 13.5 -65.5s0.333008 -43.167 -3 -60.5zM310 503l-22 -110h91l22 110
h-91z" />
    <glyph glyph-name="FL00E3h" unicode="&#xe4;" 
d="M493 714l32 168h156l-32 -168h-156zM238 714l32 168h198l-32 -168h-198zM574 0h-271l43 223h-91l-43 -223h-177l130 670h399c22.667 0 41.5 -7.16699 56.5 -21.5s26.333 -31.833 34 -52.5s12.167 -42.5 13.5 -65.5s0.333008 -43.167 -3 -60.5zM310 503l-22 -110h91
l22 110h-91z" />
    <glyph glyph-name="FL00E5h" unicode="&#xe5;" 
d="M344 714l32 168h198l-32 -168h-198zM574 0h-271l43 223h-91l-43 -223h-177l130 670h399c22.667 0 41.5 -7.16699 56.5 -21.5s26.333 -31.833 34 -52.5s12.167 -42.5 13.5 -65.5s0.333008 -43.167 -3 -60.5zM310 503l-22 -110h91l22 110h-91zM432 823l-10 -51h64l10 51
h-64z" />
    <glyph glyph-name="FL00E6h" unicode="&#xe6;" horiz-adv-x="783" 
d="M165 670l-130 -670h177l43 223h91l-43 -223h445l32 167h-174l17 84h161l33 170h-161l16 82h174l32 167h-713zM310 503h91l-22 -110h-91z" />
    <glyph glyph-name="FL00E7h" unicode="&#xe7;" horiz-adv-x="516" 
d="M74 200l52 270c3.33301 17.333 10.333 37.5 21 60.5s23.834 44.833 39.501 65.5s33.5 38.167 53.5 52.5s41.667 21.5 65 21.5h306l-32 -167h-175l-66 -336h175l-32 -167h-99l-33 -170h-199l25 130h58l8 40h-66c-23.333 0 -42.333 7.16699 -57 21.5
s-25.834 31.833 -33.501 52.5s-12.167 42.5 -13.5 65.5s-0.333008 43.167 3 60.5z" />
    <glyph glyph-name="FL00E8h" unicode="&#xe8;" horiz-adv-x="516" 
d="M74 200l52 270c3.33301 17.333 10.333 37.5 21 60.5s23.834 44.833 39.501 65.5s33.5 38.167 53.5 52.5s41.667 21.5 65 21.5h306l-32 -167h-175l-16 -82h162l-33 -170h-162l-17 -84h175l-32 -167h-306c-23.333 0 -42.333 7.16699 -57 21.5s-25.834 31.833 -33.501 52.5
s-12.167 42.5 -13.5 65.5s-0.333008 43.167 3 60.5zM528 883l22 -168h-186l-34 168h198z" />
    <glyph glyph-name="FL00E9h" unicode="&#xe9;" horiz-adv-x="516" 
d="M74 200l52 270c3.33301 17.333 10.333 37.5 21 60.5s23.834 44.833 39.501 65.5s33.5 38.167 53.5 52.5s41.667 21.5 65 21.5h306l-32 -167h-175l-16 -82h162l-33 -170h-162l-17 -84h175l-32 -167h-306c-23.333 0 -42.333 7.16699 -57 21.5s-25.834 31.833 -33.501 52.5
s-12.167 42.5 -13.5 65.5s-0.333008 43.167 3 60.5zM429 882h156l-99 -168h-143z" />
    <glyph glyph-name="FL00EAh" unicode="&#xea;" horiz-adv-x="516" 
d="M389 714l45 91l12 -91h156l-35 168h-277l-99 -168h198zM74 200c-3.33301 -17.333 -4.33301 -37.5 -3 -60.5s5.83301 -44.833 13.5 -65.5s18.834 -38.167 33.501 -52.5s33.667 -21.5 57 -21.5h306l32 167h-175l17 84h162l33 170h-162l16 82h175l32 167h-306
c-23.333 0 -45 -7.16699 -65 -21.5s-37.833 -31.833 -53.5 -52.5s-28.834 -42.5 -39.501 -65.5s-17.667 -43.167 -21 -60.5z" />
    <glyph glyph-name="FL00EBh" unicode="&#xeb;" horiz-adv-x="516" 
d="M389 714l32 168h-198l-32 -168h198zM602 714l32 168h-156l-32 -168h156zM74 200c-3.33301 -17.333 -4.33301 -37.5 -3 -60.5s5.83301 -44.833 13.5 -65.5s18.834 -38.167 33.501 -52.5s33.667 -21.5 57 -21.5h306l32 167h-175l17 84h162l33 170h-162l16 82h175l32 167
h-306c-23.333 0 -45 -7.16699 -65 -21.5s-37.833 -31.833 -53.5 -52.5s-28.834 -42.5 -39.501 -65.5s-17.667 -43.167 -21 -60.5z" />
    <glyph glyph-name="FL00ECh" unicode="&#xec;" horiz-adv-x="341" 
d="M392 882h-156l35 -168h143zM165 670l-130 -670h271l130 670h-271z" />
    <glyph glyph-name="FL00EDh" unicode="&#xed;" horiz-adv-x="341" 
d="M271 883l-88 -168h186l100 168h-198zM306 0l130 670h-271l-130 -670h271z" />
    <glyph glyph-name="FL00EEh" unicode="&#xee;" horiz-adv-x="341" 
d="M302 714l45 91l12 -91h156l-35 168h-277l-99 -168h198zM306 0l130 670h-271l-130 -670h271z" />
    <glyph glyph-name="FL00EFh" unicode="&#xef;" horiz-adv-x="341" 
d="M302 714l32 168h-198l-32 -168h198zM515 714l32 168h-156l-32 -168h156zM306 0l130 670h-271l-130 -670h271z" />
    <glyph glyph-name="FL00F0h" unicode="&#xf0;" 
d="M613 200c-3.33301 -17.333 -10.332 -37.5 -20.999 -60.5s-23.834 -44.833 -39.501 -65.5s-33.667 -38.167 -54 -52.5s-41.833 -21.5 -64.5 -21.5h-399l82 421h268l16 82h-268l32 167h148l18 93h177l-18 -93h74c22.667 0 41.5 -7.16699 56.5 -21.5
s26.333 -31.833 34 -52.5s12.167 -42.5 13.5 -65.5s0.333008 -43.167 -3 -60.5zM261.001 251l-17 -84h91l17 84h-91z" />
    <glyph glyph-name="FL00F1h" unicode="&#xf1;" 
d="M365 793l-40 -79h-144l99 168h259l16 -80l41 80h142l-99 -168h-257zM303 0l98 503h-91l-98 -503h-177l130 670h399c22.667 0 41.5 -7.16699 56.5 -21.5s26.333 -31.833 34 -52.5s12.167 -42.5 13.5 -65.5s0.333008 -43.167 -3 -60.5l-91 -470h-271z" />
    <glyph glyph-name="FL00F3h" unicode="&#xf2;" 
d="M528 883l22 -168h-186l-34 168h198zM613 200c-3.33301 -17.333 -10.332 -37.5 -20.999 -60.5s-23.834 -44.833 -39.501 -65.5s-33.667 -38.167 -54 -52.5s-41.833 -21.5 -64.5 -21.5h-259c-23.333 0 -42.333 7.16699 -57 21.5s-25.834 31.833 -33.501 52.5
s-12.167 42.5 -13.5 65.5s-0.333008 43.167 3 60.5l52 270c3.33301 17.333 10.333 37.5 21 60.5s23.834 44.833 39.501 65.5s33.5 38.167 53.5 52.5s41.667 21.5 65 21.5h259c22.667 0 41.5 -7.16699 56.5 -21.5s26.333 -31.833 34 -52.5s12.167 -42.5 13.5 -65.5
s0.333008 -43.167 -3 -60.5zM305.001 503l-66 -336h96l66 336h-96z" />
    <glyph glyph-name="FL00F2h" unicode="&#xf3;" 
d="M429 882h156l-99 -168h-143zM613 200c-3.33301 -17.333 -10.332 -37.5 -20.999 -60.5s-23.834 -44.833 -39.501 -65.5s-33.667 -38.167 -54 -52.5s-41.833 -21.5 -64.5 -21.5h-259c-23.333 0 -42.333 7.16699 -57 21.5s-25.834 31.833 -33.501 52.5
s-12.167 42.5 -13.5 65.5s-0.333008 43.167 3 60.5l52 270c3.33301 17.333 10.333 37.5 21 60.5s23.834 44.833 39.501 65.5s33.5 38.167 53.5 52.5s41.667 21.5 65 21.5h259c22.667 0 41.5 -7.16699 56.5 -21.5s26.333 -31.833 34 -52.5s12.167 -42.5 13.5 -65.5
s0.333008 -43.167 -3 -60.5zM305.001 503l-66 -336h96l66 336h-96z" />
    <glyph glyph-name="FL00F4h" unicode="&#xf4;" 
d="M451 714l-11 91l-46 -91h-156l99 168h277l35 -168h-198zM613 200c-3.33301 -17.333 -10.332 -37.5 -20.999 -60.5s-23.834 -44.833 -39.501 -65.5s-33.667 -38.167 -54 -52.5s-41.833 -21.5 -64.5 -21.5h-259c-23.333 0 -42.333 7.16699 -57 21.5
s-25.834 31.833 -33.501 52.5s-12.167 42.5 -13.5 65.5s-0.333008 43.167 3 60.5l52 270c3.33301 17.333 10.333 37.5 21 60.5s23.834 44.833 39.501 65.5s33.5 38.167 53.5 52.5s41.667 21.5 65 21.5h259c22.667 0 41.5 -7.16699 56.5 -21.5s26.333 -31.833 34 -52.5
s12.167 -42.5 13.5 -65.5s0.333008 -43.167 -3 -60.5zM305.001 503l-66 -336h96l66 336h-96z" />
    <glyph glyph-name="FL00F5h" unicode="&#xf5;" horiz-adv-x="597" 
d="M239 167h96l66 336h-96zM613 200c-3.33301 -17.333 -10.332 -37.5 -20.999 -60.5s-23.834 -44.833 -39.501 -65.5s-33.667 -38.167 -54 -52.5s-41.833 -21.5 -64.5 -21.5h-259c-23.333 0 -42.333 7.16699 -57 21.5s-25.834 31.833 -33.501 52.5s-12.167 42.5 -13.5 65.5
s-0.333008 43.167 3 60.5l52 270c3.33301 17.333 10.333 37.5 21 60.5s23.834 44.833 39.501 65.5s33.5 38.167 53.5 52.5s41.667 21.5 65 21.5h259c22.667 0 41.5 -7.16699 56.5 -21.5s26.333 -31.833 34 -52.5s12.167 -42.5 13.5 -65.5s0.333008 -43.167 -3 -60.5z
M359.001 793l-40 -79h-144l99 168h259l16 -80l41 80h142l-99 -168h-257z" />
    <glyph glyph-name="FL00F6h" unicode="&#xf6;" 
d="M451 714l32 168h198l-32 -168h-198zM238 714l32 168h156l-32 -168h-156zM613 200c-3.33301 -17.333 -10.332 -37.5 -20.999 -60.5s-23.834 -44.833 -39.501 -65.5s-33.667 -38.167 -54 -52.5s-41.833 -21.5 -64.5 -21.5h-259c-23.333 0 -42.333 7.16699 -57 21.5
s-25.834 31.833 -33.501 52.5s-12.167 42.5 -13.5 65.5s-0.333008 43.167 3 60.5l52 270c3.33301 17.333 10.333 37.5 21 60.5s23.834 44.833 39.501 65.5s33.5 38.167 53.5 52.5s41.667 21.5 65 21.5h259c22.667 0 41.5 -7.16699 56.5 -21.5s26.333 -31.833 34 -52.5
s12.167 -42.5 13.5 -65.5s0.333008 -43.167 -3 -60.5zM305.001 503l-66 -336h96l66 336h-96z" />
    <glyph glyph-name="FL00F7h" unicode="&#xf7;" horiz-adv-x="499" 
d="M260 459l33 168h156l-33 -168h-156zM84 251l33 170h429l-33 -170h-429zM180 45l32 168h156l-32 -168h-156z" />
    <glyph glyph-name="FL00F8h" unicode="&#xf8;" 
d="M613 200c-3.33301 -17.333 -10.332 -37.5 -20.999 -60.5s-23.834 -44.833 -39.501 -65.5s-33.667 -38.167 -54 -52.5s-41.833 -21.5 -64.5 -21.5h-259c-23.333 0 -42.333 7.16699 -57 21.5s-25.834 31.833 -33.501 52.5s-12.167 42.5 -13.5 65.5s-0.333008 43.167 3 60.5
l52 270c3.33301 17.333 10.333 37.5 21 60.5s23.834 44.833 39.501 65.5s33.5 38.167 53.5 52.5s41.667 21.5 65 21.5h259c22.667 0 41.5 -7.16699 56.5 -21.5s26.333 -31.833 34 -52.5s12.167 -42.5 13.5 -65.5s0.333008 -43.167 -3 -60.5zM305.001 503l-52 -265l127 265
h-75zM265.001 167h70l49 249z" />
    <glyph glyph-name="FL00F9h" unicode="&#xf9;" 
d="M165 670l-91.001 -470c-3.33301 -17.333 -4.33301 -37.5 -3 -60.5s5.83301 -44.833 13.5 -65.5s18.834 -38.167 33.501 -52.5s33.667 -21.5 57 -21.5h399l130 670h-177l-98 -503h-91l98 503h-271zM521.999 882h-156l35 -168h143z" />
    <glyph glyph-name="FL00FAh" unicode="&#xfa;" 
d="M165 670l-91.001 -470c-3.33301 -17.333 -4.33301 -37.5 -3 -60.5s5.83301 -44.833 13.5 -65.5s18.834 -38.167 33.501 -52.5s33.667 -21.5 57 -21.5h399l130 670h-177l-98 -503h-91l98 503h-271zM424.999 883l-88 -168h186l100 168h-198z" />
    <glyph glyph-name="FL00FBh" unicode="&#xfb;" 
d="M165 670l-91.001 -470c-3.33301 -17.333 -4.33301 -37.5 -3 -60.5s5.83301 -44.833 13.5 -65.5s18.834 -38.167 33.501 -52.5s33.667 -21.5 57 -21.5h399l130 670h-177l-98 -503h-91l98 503h-271zM435.999 714l45 91l12 -91h156l-35 168h-277l-99 -168h198z" />
    <glyph glyph-name="FL00FCh" unicode="&#xfc;" 
d="M436 714l32 168h-198l-32 -168h198zM649 714l32 168h-156l-32 -168h156zM165 670l-91.001 -470c-3.33301 -17.333 -4.33301 -37.5 -3 -60.5s5.83301 -44.833 13.5 -65.5s18.834 -38.167 33.501 -52.5s33.667 -21.5 57 -21.5h399l130 670h-177l-98 -503h-91l98 503h-271z
" />
    <glyph glyph-name="FL00FDh" unicode="&#xfd;" 
d="M613 200l90.998 470h-177l-49 -255h-91l49 255h-271l-43 -222c-3.33301 -17.333 -4.16602 -37.5 -2.49902 -60.5s6.33398 -44.833 14.001 -65.5s18.667 -38.167 33 -52.5s33.166 -21.5 56.499 -21.5h222l-16 -81h-362l-32 -167h399c22.667 0 44.167 7.16699 64.5 21.5
s38.333 31.833 54 52.5s28.834 42.5 39.501 65.5s17.667 43.167 21 60.5zM424.998 883l-88 -168h186l100 168h-198z" />
    <glyph glyph-name="FL00FEh" unicode="&#xfe;" 
d="M306 0l22.0049 111h128c22.667 0 44.167 7.16699 64.5 21.5s38.333 31.833 54 52.5s28.667 42.5 39 65.5s17.166 43.167 20.499 60.5l10 48c3.33301 17.333 4.16602 37.5 2.49902 60.5s-6.33398 44.833 -14.001 65.5s-18.834 38.167 -33.501 52.5
s-33.334 21.5 -56.001 21.5h-128l21 111h-271l-130 -670h271zM457.005 282h-96l21 110h96z" />
    <glyph glyph-name="FL00FFh" unicode="&#xff;" 
d="M613 200l90.998 470h-177l-49 -255h-91l49 255h-271l-43 -222c-3.33301 -17.333 -4.16602 -37.5 -2.49902 -60.5s6.33398 -44.833 14.001 -65.5s18.667 -38.167 33 -52.5s33.166 -21.5 56.499 -21.5h222l-16 -81h-362l-32 -167h399c22.667 0 44.167 7.16699 64.5 21.5
s38.333 31.833 54 52.5s28.834 42.5 39.501 65.5s17.667 43.167 21 60.5zM435.998 714l32 168h-198l-32 -168h198zM648.998 714l32 168h-156l-32 -168h156z" />
    <glyph glyph-name="FL0152h" unicode="&#x152;" horiz-adv-x="921" 
d="M74 200c-3.33301 -17.333 -4.33496 -37.5 -3.00195 -60.5s5.83301 -44.833 13.5 -65.5s18.834 -38.167 33.501 -52.5s33.667 -21.5 57 -21.5h711l32 167h-175l36 182h162l33 170h-162l35 182h175l33 167h-711c-23.333 0 -45 -7.16699 -65 -21.5s-38 -31.833 -54 -52.5
s-29.167 -42.5 -39.5 -65.5s-17.166 -43.167 -20.499 -60.5zM471.998 167h-134l104 534h134z" />
    <glyph glyph-name="FL0153h" unicode="&#x153;" horiz-adv-x="921" 
d="M74 200c-3.33301 -17.333 -4.33301 -37.5 -3 -60.5s5.83301 -44.833 13.5 -65.5s18.834 -38.167 33.501 -52.5s33.667 -21.5 57 -21.5h711l32 167h-175l17 84h162l33 170h-162l16 82h175l32 167h-711c-23.333 0 -45 -7.16699 -65 -21.5s-37.833 -31.833 -53.5 -52.5
s-28.834 -42.5 -39.501 -65.5s-17.667 -43.167 -21 -60.5zM472 167h-134l66 336h134z" />
    <glyph glyph-name="FL0160h" unicode="&#x160;" horiz-adv-x="537" 
d="M447 882l-45 -91l-12 91h-156l35 -168h277l99 168h-198zM126 470l-42 -219h200l-17 -84h-200l-32 -167h327c22.667 0 44.167 7.16699 64.5 21.5s38.333 31.833 54 52.5s28.834 42.5 39.501 65.5s17.667 43.167 21 60.5l43 221h-200l16 82h200l32 167h-327
c-23.333 0 -45 -7.16699 -65 -21.5s-37.833 -31.833 -53.5 -52.5s-28.834 -42.5 -39.501 -65.5s-17.667 -43.167 -21 -60.5z" />
    <glyph glyph-name="FL0161h" unicode="&#x161;" horiz-adv-x="537" 
d="M447 882l-45 -91l-12 91h-156l35 -168h277l99 168h-198zM126 470l-42 -219h200l-17 -84h-200l-32 -167h327c22.667 0 44.167 7.16699 64.5 21.5s38.333 31.833 54 52.5s28.834 42.5 39.501 65.5s17.667 43.167 21 60.5l43 221h-200l16 82h200l32 167h-327
c-23.333 0 -45 -7.16699 -65 -21.5s-37.833 -31.833 -53.5 -52.5s-28.834 -42.5 -39.501 -65.5s-17.667 -43.167 -21 -60.5z" />
    <glyph glyph-name="FL0178h" unicode="&#x178;" 
d="M613 200l90.998 470h-177l-49 -255h-91l49 255h-271l-43 -222c-3.33301 -17.333 -4.16602 -37.5 -2.49902 -60.5s6.33398 -44.833 14.001 -65.5s18.667 -38.167 33 -52.5s33.166 -21.5 56.499 -21.5h222l-16 -81h-362l-32 -167h399c22.667 0 44.167 7.16699 64.5 21.5
s38.333 31.833 54 52.5s28.834 42.5 39.501 65.5s17.667 43.167 21 60.5zM435.998 714l32 168h-198l-32 -168h198zM648.998 714l32 168h-156l-32 -168h156z" />
    <glyph glyph-name="FL017Dh" unicode="&#x17d;" horiz-adv-x="537" 
d="M447 882l-45 -91l-12 91h-156l35 -168h277l99 168h-198zM591 457l41 213h-467l-32 -167h204l-260 -289l-42 -214h467l32 167h-204z" />
    <glyph glyph-name="FL017Eh" unicode="&#x17e;" horiz-adv-x="537" 
d="M447 882l-45 -91l-12 91h-156l35 -168h277l99 168h-198zM591 457l41 213h-467l-32 -167h204l-260 -289l-42 -214h467l32 167h-204z" />
    <glyph glyph-name="FL0039h" unicode="&#x192;" 
d="M303 0h271l130 670h-399c-23.333 0 -45 -7.16699 -65 -21.5s-37.833 -31.833 -53.5 -52.5s-28.834 -42.5 -39.501 -65.5s-17.667 -43.167 -21 -60.5l-9 -48c-3.33301 -17.333 -4.16602 -37.5 -2.49902 -60.5s6.33398 -44.833 14.001 -65.5s18.667 -38.167 33 -52.5
s33.166 -21.5 56.499 -21.5h128zM305 503h96l-22 -110h-96z" />
    <glyph glyph-name="FL02C6h" unicode="&#x2c6;" horiz-adv-x="481" 
d="M387 714l-11 91l-46 -91h-156l99 168h277l35 -168h-198z" />
    <glyph glyph-name="FL02DCh" unicode="&#x2dc;" horiz-adv-x="527" 
d="M358 793l-40 -79h-144l99 168h259l16 -80l41 80h142l-99 -168h-257z" />
    <glyph glyph-name="FL2013h" unicode="&#x2013;" horiz-adv-x="359" 
d="M84 251l33 170h289l-33 -170h-289z" />
    <glyph glyph-name="FL2014h" unicode="&#x2014;" horiz-adv-x="499" 
d="M84 251l33 170h429l-33 -170h-429z" />
    <glyph glyph-name="FL2018h" unicode="&#x2018;" horiz-adv-x="247" 
d="M231 700l-22 -116l139 116l33 168h-177l-33 -168h60z" />
    <glyph glyph-name="FL2019h" unicode="&#x2019;" horiz-adv-x="247" 
d="M193 502l-23 -116l140 116l32 168h-177l-32 -168h60z" />
    <glyph glyph-name="FL201Ah" unicode="&#x201a;" horiz-adv-x="247" 
d="M95 0l-23 -116l140 116l33 168h-177l-33 -168h60z" />
    <glyph glyph-name="FL201Ch" unicode="&#x201c;" horiz-adv-x="465" 
d="M449 700l-22 -116l139 116l33 168h-177l-33 -168h60zM231 700l-22 -116l139 116l33 168h-177l-33 -168h60z" />
    <glyph glyph-name="FL201Dh" unicode="&#x201d;" horiz-adv-x="465" 
d="M411 502l-23 -116l140 116l32 168h-177l-32 -168h60zM193 502l-23 -116l140 116l32 168h-177l-32 -168h60z" />
    <glyph glyph-name="FL201Eh" unicode="&#x201e;" horiz-adv-x="464" 
d="M312 0l-23 -116l140 116l33 168h-177l-33 -168h60zM95 0l-23 -116l140 116l33 168h-177l-33 -168h60z" />
    <glyph glyph-name="FL2020h" unicode="&#x2020;" horiz-adv-x="518" 
d="M141 544h88l24 126h271l-24 -126h89l-33 -170h-89l-73 -374h-271l73 374h-88z" />
    <glyph glyph-name="FL2021h" unicode="&#x2021;" horiz-adv-x="518" 
d="M141 544h88l24 126h271l-24 -126h89l-33 -170h-89l-15 -78h89l-34 -170h-89l-24 -126h-271l24 126h-88l34 170h88l15 78h-88z" />
    <glyph glyph-name="FL2022h" unicode="&#x2022;" 
d="M613 200c-3.33301 -17.333 -10.332 -37.5 -20.999 -60.5s-23.834 -44.833 -39.501 -65.5s-33.667 -38.167 -54 -52.5s-41.833 -21.5 -64.5 -21.5h-259c-23.333 0 -42.333 7.16699 -57 21.5s-25.834 31.833 -33.501 52.5s-12.167 42.5 -13.5 65.5s-0.333008 43.167 3 60.5
l52 270c3.33301 17.333 10.333 37.5 21 60.5s23.834 44.833 39.501 65.5s33.5 38.167 53.5 52.5s41.667 21.5 65 21.5h259c22.667 0 41.5 -7.16699 56.5 -21.5s26.333 -31.833 34 -52.5s12.167 -42.5 13.5 -65.5s0.333008 -43.167 -3 -60.5z" />
    <glyph glyph-name="FL2026h" unicode="&#x2026;" horiz-adv-x="705" 
d="M670 0l33 168h-177l-33 -168h177zM441 0l33 168h-177l-33 -168h177zM212 0l33 168h-177l-33 -168h177z" />
    <glyph glyph-name="FL2030h" unicode="&#x2030;" horiz-adv-x="1219" 
d="M297 0l252 670h176l-253 -670h-175zM717 256l-28 -142h40l28 142h-40zM881 110c-2 -9.33301 -5.83301 -20.333 -11.5 -33s-12.834 -24.667 -21.501 -36s-18.5 -21 -29.5 -29s-22.833 -12 -35.5 -12h-143c-12.667 0 -23 4 -31 12s-14.167 17.667 -18.5 29s-7 23.333 -8 36
s-0.5 23.667 1.5 33l29 148c2 9.33301 5.83301 20.333 11.5 33s12.834 24.834 21.501 36.501s18.667 21.5 30 29.5s23.333 12 36 12h143c12.667 0 23 -4 31 -12s14 -17.833 18 -29.5s6.5 -23.834 7.5 -36.501s0.5 -23.667 -1.5 -33zM247 557l-27 -142h40l27 142h-40z
M412 411c-2 -9.33301 -5.83105 -20.333 -11.498 -33s-12.834 -24.667 -21.501 -36s-18.5 -21 -29.5 -29s-22.833 -12 -35.5 -12h-143c-12.667 0 -23 4 -31 12s-14.167 17.667 -18.5 29s-7 23.333 -8 36s-0.5 23.667 1.5 33l29 148c2 9.33301 5.83301 20.333 11.5 33
s12.667 24.834 21 36.501s18.166 21.5 29.499 29.5s23.333 12 36 12h143c12.667 0 23 -4 31 -12s14.167 -17.833 18.5 -29.5s7 -23.834 8 -36.501s0.5 -23.667 -1.5 -33zM1041 256l-28 -142h40l28 142h-40zM1205 110c-2 -9.33301 -5.83301 -20.333 -11.5 -33
s-12.834 -24.667 -21.501 -36s-18.5 -21 -29.5 -29s-22.833 -12 -35.5 -12h-143c-12.667 0 -23 4 -31 12s-14.167 17.667 -18.5 29s-7 23.333 -8 36s-0.5 23.667 1.5 33l29 148c2 9.33301 5.83301 20.333 11.5 33s12.834 24.834 21.501 36.501s18.667 21.5 30 29.5
s23.333 12 36 12h143c12.667 0 23 -4 31 -12s14 -17.833 18 -29.5s6.5 -23.834 7.5 -36.501s0.5 -23.667 -1.5 -33z" />
    <glyph glyph-name="FL2039h" unicode="&#x2039;" horiz-adv-x="238" 
d="M267 329l-86 28l97 29l30 156l-181 -67l-54 -277l155 -67z" />
    <glyph glyph-name="FL203Ah" unicode="&#x203a;" horiz-adv-x="238" 
d="M99 329l96 28l-85 29l30 156l155 -67l-54 -277l-181 -67z" />
    <glyph glyph-name="FL20ACh" unicode="&#x20ac;" horiz-adv-x="585" 
d="M105 362l32.9971 169h78c8 16.667 17.333 33.167 28 49.5s22.834 31.166 36.501 44.499s28.334 24.166 44.001 32.499s32.167 12.5 49.5 12.5h306l-32 -167h-93l-28 -141h-82l-10 -52h82l-28 -143h93l-32 -167h-306c-17.333 0 -32.333 4.16699 -45 12.5
s-23.167 19.333 -31.5 33s-14.666 28.834 -18.999 45.501s-7.5 33.334 -9.5 50.001h-77l33 169h69l10 52h-69z" />
    <glyph glyph-name="FL2122h" unicode="&#x2122;" horiz-adv-x="616" 
d="M383 801h-42l-39 -201h-108l39 201h-42l13 67h192zM698 600l-109 -0.000976562l39 201h-36l-39 -201h-71l39 201h-36l-39 -201h-71l52 268h267c9.33301 0 17 -2.83301 23 -8.5s10.5 -12.667 13.5 -21s4.66699 -17.166 5 -26.499s-0.166992 -17.333 -1.5 -24z" />
    <glyph glyph-name=".null" horiz-adv-x="0" 
 />
    <glyph glyph-name="nonmarkingreturn" horiz-adv-x="500" 
 />
    </font>
</defs>
</svg>
