<?xml version="1.0" standalone="no"?>
<!DOCTYPE svg PUBLIC "-//W3C//DTD SVG 1.1//EN" "http://www.w3.org/Graphics/SVG/1.1/DTD/svg11.dtd" >
<svg xmlns="http://www.w3.org/2000/svg" xmlns:xlink="http://www.w3.org/1999/xlink" version="1.1">
<metadata>
Created by FontForge 20170924 at Thu May  3 21:01:15 2018
 By www-data
2018 Iconian Fonts - www.iconian.com
</metadata>
<defs>
<font id="CampJusticeOutlineItalic" horiz-adv-x="595" >
  <font-face 
    font-family="Camp Justice Outline Italic"
    font-weight="400"
    font-style="italic"
    font-stretch="normal"
    units-per-em="1000"
    panose-1="0 0 0 0 0 0 0 0 0 0"
    ascent="800"
    descent="-200"
    x-height="656.999"
    cap-height="859"
    bbox="-93.44 -161 1273.72 873.001"
    underline-thickness="50"
    underline-position="-125"
    unicode-range="U+0020-2122"
  />
<missing-glyph horiz-adv-x="500" 
 />
    <glyph glyph-name=".notdef" horiz-adv-x="500" 
 />
    <glyph glyph-name="space" unicode=" " horiz-adv-x="287" 
 />
    <glyph glyph-name="space" unicode="&#xa0;" horiz-adv-x="287" 
 />
    <glyph glyph-name="FL0021h" unicode="!" horiz-adv-x="327" 
d="M268 19c-4 -12.667 -12.333 -19 -25 -19h-168c-12.667 -0 -17 6.33301 -13 19l52 159c4 12.667 12.333 19 25 19h168c12.667 0 17 -6.33301 13 -19zM383 238c-4 -12.667 -12.333 -19 -25 -19h-256c-12.667 0 -17 6.33301 -13 19l196 602c4 12.667 12.333 19 25 19h256
c12.667 0 17 -6.33301 13 -19zM560 840h-256l-196 -602h256zM301 178h-168l-52 -159h168z" />
    <glyph glyph-name="FL0022h" unicode="&#x22;" horiz-adv-x="451" 
d="M482 634l-37 -0.00195312c-12.667 0 -17 6.33301 -13 19l52 159c4 12.667 12.333 19 25 19h167c12.667 0 17 -6.33301 13 -19l-52 -159c-0.666992 -1.33301 -2 -3.66602 -4 -6.99902s-4 -5.66602 -6 -6.99902l-146 -109c-8.66699 -6.66699 -16.5 -8.5 -23.5 -5.5
s-8.83301 9.16699 -5.5 18.5zM276 633.998l-38 -0.00195312c-12.667 0 -17 6.33301 -13 19l52 159c4 12.667 12.333 19 25 19h168c12.667 0 17 -6.33301 13 -19l-52 -159c-0.666992 -1.33301 -2 -3.66602 -4 -6.99902s-4 -5.66602 -6 -6.99902l-147 -109
c-8 -6.66699 -15.5 -8.5 -22.5 -5.5s-8.83301 9.16699 -5.5 18.5zM265 542.996l147 110l52 159h-168l-52 -159h57zM471 542.996l147 110l52 159h-167l-52 -159h56z" />
    <glyph glyph-name="FL0023h" unicode="#" horiz-adv-x="739" 
d="M559 373l-24 -74h-68l24 74h68zM210 534l-53 -161h78l-24 -74h-78l-52 -161h78l-39 -119h256l39 119h68l-39 -119h169l39 119h75l52 161h-75l24 74h75l53 161h-75l38 119h-169l-38 -119h-68l38 119h-256l-38 -119h-78zM274 552l33 101c4 12.667 12.333 19 25 19h256
c12.667 0 17 -6.33301 13 -19l-33 -101h30l33 101c4 12.667 12.333 19 25 19h169c12.667 0 17 -6.33301 13 -19l-33 -101h56c12 0 16.667 -6 14 -18l-53 -161c-4 -12.667 -12.333 -19 -25 -19h-56l-12 -36h56c12.667 0 17 -6.33301 13 -19l-52 -161
c-4 -12.667 -12.333 -19 -25 -19h-56l-33 -100c-4 -12.667 -12.333 -19 -25 -19h-169c-12.667 -0 -17 6.33301 -13 19l33 100h-30l-33 -100c-4 -12.667 -12.333 -19 -25 -19h-256c-12.667 -0 -17 6.33301 -13 19l33 100h-59c-12.667 0 -17 6.33301 -13 19l52 161
c4 12.667 12.333 19 25 19h59l12 36h-59c-12.667 0 -17 6.33301 -13 19l53 161c2.66699 12 10.667 18 24 18h59zM504 354l-12 -36h30l12 36h-30z" />
    <glyph glyph-name="FL0024h" unicode="$" horiz-adv-x="523" 
d="M116 256l190 0.00195312l-25 -79h-190l-52 -158h138l-24 -75h167l24 75h5c21.333 0 42.5 6.83301 63.5 20.5s40.167 30.167 57.5 49.5s32.5 40 45.5 62s22.167 41 27.5 57l67 209h-189l26 78h189l51 158h-137l25 75h-167l-25 -75h-5c-22 0 -43.5 -6.83301 -64.5 -20.5
s-40.167 -30.334 -57.5 -50.001s-32.333 -40.334 -45 -62.001s-21.667 -40.5 -27 -56.5zM165 464.002c5.33301 16.667 14.6641 36.333 27.9971 59s29.166 44.334 47.499 65.001s38.5 38.834 60.5 54.501s45 25.167 69 28.5l19 57c4 12.667 12.333 19 25 19h167
c12.667 0 17 -6.33301 13 -19l-19 -56h118c12.667 0 17 -6.33301 13 -19l-51 -158c-4 -12.667 -12.333 -19 -25 -19h-170l-13 -40h170c12.667 0 16.667 -6.33301 12 -19l-67 -209c-5.33301 -16.667 -14.666 -36.334 -27.999 -59.001s-29.166 -44.5 -47.499 -65.5
s-38.666 -39.333 -60.999 -55s-45.166 -24.834 -68.499 -27.501l-18 -57c-4 -12.667 -12.333 -19 -25 -19h-167c-12.667 0 -17 6.33301 -13 19l18 56h-119c-12.667 0 -17 6.33301 -13 19l52 158c4 12.667 12.333 19 25 19h171l13 41h-171c-12.667 0 -17 6.33301 -13 19z" />
    <glyph glyph-name="FL0025h" unicode="%" horiz-adv-x="881" 
d="M497 548c2.66699 8.66699 4.33105 19 4.99805 31s-0.166016 23.5 -2.49902 34.5s-6.83301 20.333 -13.5 28s-16 11.5 -28 11.5h-135c-12 0 -23.667 -3.83301 -35 -11.5s-22 -17 -32 -28s-18.5 -22.5 -25.5 -34.5s-11.833 -22.333 -14.5 -31l-45 -140
c-3.33301 -9.33301 -5.33301 -19.833 -6 -31.5s0.333008 -23 3 -34s7.33398 -20.167 14.001 -27.5s16 -11 28 -11h135c12 0 23.833 3.66699 35.5 11s22.167 16.5 31.5 27.5s17.5 22.333 24.5 34s12.167 22.167 15.5 31.5zM313.997 546h37l-43 -135h-37zM903.997 263
c2.66699 8.66699 4.33203 19 4.99902 31s-0.333008 23.5 -3 34.5s-7.16699 20.333 -13.5 28s-15.166 11.5 -26.499 11.5h-136c-12 0 -23.833 -3.83301 -35.5 -11.5s-22.167 -17 -31.5 -28s-17.666 -22.5 -24.999 -34.5s-12.333 -22.333 -15 -31l-45 -140
c-2.66699 -8.66699 -4.5 -19 -5.5 -31s-0.166992 -23.333 2.5 -34s7.16699 -19.834 13.5 -27.501s15.5 -11.5 27.5 -11.5h136c11.333 0 22.666 3.83301 33.999 11.5s22 16.834 32 27.501s18.667 22 26 34s12.333 22.333 15 31zM720.995 261h38l-44 -134h-38zM291.995 19h166
l322 634h-167zM595.995 656c2 4.66699 5.33301 8.5 10 11.5s9 4.5 13 4.5h167c6 0 10.333 -2.33301 13 -7s2.33398 -10 -0.999023 -16l-323 -634c-2 -4 -5.33301 -7.5 -10 -10.5s-9 -4.5 -13 -4.5h-166c-6 0 -10.333 2.16699 -13 6.5s-2.33398 9.83301 0.999023 16.5z
M877.995 123c-3.33301 -10.667 -9.33398 -23 -18.001 -37s-19 -27.333 -31 -40s-25.167 -23.5 -39.5 -32.5s-28.833 -13.5 -43.5 -13.5h-136c-15.333 0 -27.166 4.5 -35.499 13.5s-14.333 19.833 -18 32.5s-5 26 -4 40s3.16699 26.333 6.5 37l45 140
c3.33301 10.667 9.33301 23 18 37s19 27.5 31 40.5s25 24 39 33s28.667 13.5 44 13.5h136c14.667 0 26.334 -4.5 35.001 -13.5s14.667 -20 18 -33s4.66602 -26.5 3.99902 -40.5s-2.66699 -26.333 -6 -37zM470.994 408c-3.33301 -10.667 -9.33398 -23 -18.001 -37
s-19 -27.333 -31 -40s-25.167 -23.5 -39.5 -32.5s-28.833 -13.5 -43.5 -13.5h-135c-15.333 0 -27.166 4.5 -35.499 13.5s-14.333 19.833 -18 32.5s-5.16699 26 -4.5 40s2.66699 26.333 6 37l45 140c3.33301 10 9.16602 22.167 17.499 36.5s18.5 28 30.5 41
s25.167 24 39.5 33s29.166 13.5 44.499 13.5h135c14.667 0 26.334 -4.5 35.001 -13.5s14.834 -20 18.501 -33s5.16699 -26.667 4.5 -41s-2.66699 -26.5 -6 -36.5z" />
    <glyph glyph-name="FL0026h" unicode="&#x26;" horiz-adv-x="634" 
d="M374 256h79l-25 -79h-79zM452 495l185.001 0.00292969l51 158h-309c-22 0 -43.333 -6.83301 -64 -20.5s-39.667 -30.334 -57 -50.001s-32.333 -40.334 -45 -62.001s-21.667 -40.5 -27 -56.5l-17 -52c-2.66699 -12 -3.16699 -25.667 -1.5 -41s5.16699 -27 10.5 -35
c-12.667 -12 -24.834 -25.333 -36.501 -40s-19.5 -28.334 -23.5 -41.001l-15 -47c-5.33301 -16 -8.83301 -35 -10.5 -57s-0.166992 -42.667 4.5 -62s13 -35.833 25 -49.5s29 -20.5 51 -20.5h365l77 237h50l52 161h-291zM452.001 436.003l272 -0.00195312
c12.667 0 16.667 -6.33301 12 -19l-52 -161c-4 -12.667 -12.333 -19 -25 -19h-31l-71 -218c-4 -12.667 -12.333 -19 -25 -19h-365c-25.333 0 -45 7.5 -59 22.5s-23.667 33.167 -29 54.5s-7.33301 44 -6 68s5 45 11 63l15 47c4.66699 13.333 12 26.833 22 40.5
s21 26.834 33 39.501c-4 10.667 -6.33301 23 -7 37s0.333008 27 3 39l17 53c6 18 16 38.833 30 62.5s30.667 46.334 50 68.001s40.833 40 64.5 55s48.167 22.5 73.5 22.5h309c12.667 0 17 -6.33301 13 -19l-51 -158c-4 -12.667 -12.333 -19 -25 -19h-166zM374.001 196.001
h41l13 41h-41z" />
    <glyph glyph-name="FL0027h" unicode="'" horiz-adv-x="233" 
d="M273 634l-38 -0.00195312c-12 0 -16 6.33301 -12 19l52 159c4 12.667 12 19 24 19h168c12.667 0 17 -6.33301 13 -19l-52 -159c-0.666992 -1.33301 -2 -3.66602 -4 -6.99902s-4 -5.66602 -6 -6.99902l-147 -109c-8 -6.66699 -15.5 -8.5 -22.5 -5.5
s-8.83301 9.16699 -5.5 18.5zM262 542.998l147 110l52 159h-168l-52 -159h57z" />
    <glyph glyph-name="FL0028h" unicode="(" horiz-adv-x="404" 
d="M100 208c-5.33301 -16 -8.83301 -35 -10.5 -57s-0.166992 -42.667 4.5 -62s13 -35.833 25 -49.5s29 -20.5 51 -20.5h197l52 158h-73l164 505h73l51 158h-197c-22 0 -43.333 -6.83301 -64 -20.5s-39.667 -30.167 -57 -49.5s-32.333 -40 -45 -62s-21.667 -41 -27 -57z
M225 651c6 18 16.001 39 30.001 63s30.667 46.667 50 68s40.833 39.5 64.5 54.5s48.167 22.5 73.5 22.5h197c12.667 0 17 -6.33301 13 -19l-51 -158c-4.66699 -12.667 -13.334 -19 -26.001 -19h-54l-151 -467h54c12.667 0 17 -6.33301 13 -19l-52 -158
c-4 -12.667 -12.333 -19 -25 -19h-197c-25.333 0 -45 7.5 -59 22.5s-23.667 33.167 -29 54.5s-7.33301 44 -6 68s5 45 11 63z" />
    <glyph glyph-name="FL0029h" unicode=")" horiz-adv-x="312" 
d="M360 208c-6 -18 -16.167 -39 -30.5 -63s-31.333 -46.667 -51 -68s-41.5 -39.5 -65.5 -54.5s-48.333 -22.5 -73 -22.5h-109c-12.667 -0 -17 6.33301 -13 19l52 158c4 12.667 12.333 19 25 19h53l151 467h-53c-12.667 0 -16.667 6.33301 -12 19l51 158
c4 12.667 12.333 19 25 19h109c24.667 0 44.167 -7.5 58.5 -22.5s24.333 -33.167 30 -54.5s8 -44 7 -68s-4.5 -45 -10.5 -63zM485 651c5.33301 16 8.66699 35 10 57s-0.5 42.667 -5.5 62s-13.5 35.833 -25.5 49.5s-29 20.5 -51 20.5h-109l-51 -158h72l-164 -505h-72
l-52 -158h109c22 0 43.5 6.83301 64.5 20.5s40.167 30.167 57.5 49.5s32.5 40 45.5 62s22.167 41 27.5 57z" />
    <glyph glyph-name="FL0419h" unicode="*" horiz-adv-x="332" 
d="M366 552l123 87l-39 41l72 13l1 114l-71 -37l37 70h-118l-9 -68l-41 40l-70 -119l56 -12l-63 -42l67 -87l47 69zM343 570l-15.002 -22.9971c-5.33301 -7.33301 -11.166 -11.833 -17.499 -13.5s-11.5 -0.166992 -15.5 4.5l-68 87c-3.33301 4.66699 -4.33301 9.66699 -3 15
s5.33301 10 12 14l26 16l-21 4c-11.333 2.66699 -13.333 10.667 -6 24l69 118c4.66699 7.33301 10.334 12.166 17.001 14.499s12.334 1.16602 17.001 -3.50098l10 -11l3 21c0.666992 6 3.66699 11.167 9 15.5s11 6.5 17 6.5h118c6.66699 0 11.167 -2.16699 13.5 -6.5
s1.83301 -9.83301 -1.5 -16.5l-15 -26l25 13c7.33301 4 13.5 5 18.5 3s7.5 -6.33301 7.5 -13l-1 -114c0 -5.33301 -2.33301 -10.5 -7 -15.5s-10.334 -8.16699 -17.001 -9.5l-27 -4l14 -16c3.33301 -4 4.33301 -8.83301 3 -14.5s-5 -10.834 -11 -15.501l-123 -86
c-7.33301 -4.66699 -13.333 -6.16699 -18 -4.5s-7.66699 5.5 -9 11.5z" />
    <glyph glyph-name="FL002Bh" unicode="+" horiz-adv-x="451" 
d="M308 523l-35 -106h-106l-52 -161h106l-35 -107h161l35 107h107l52 161h-107l35 106h-161zM475 542c12.667 0 17 -6.33301 13 -19l-28 -87h88c12.667 0 16.667 -6.33301 12 -19l-52 -161c-4 -12.667 -12.333 -19 -25 -19h-88l-29 -88c-3.33301 -12 -11.333 -18 -24 -18
h-161c-12.667 0 -17.334 6 -14.001 18l29 88h-87c-12.667 0 -17 6.33301 -13 19l52 161c4.66699 12.667 13.334 19 26.001 19h87l28 87c4 12.667 12.333 19 25 19h161z" />
    <glyph glyph-name="FL002Ch" unicode="," horiz-adv-x="233" 
d="M67 0h-38c-12 -0 -16 6.33301 -12 19l52 159c4 12.667 12 19 24 19h168c12.667 0 17 -6.33301 13 -19l-52 -159c-0.666992 -4 -4 -8.33301 -10 -13l-147 -110c-8 -6 -15.5 -7.66699 -22.5 -5s-8.83301 8.66699 -5.5 18zM56 -91l147 110l52 159h-168l-52 -159h57z" />
    <glyph glyph-name="FL002Dh" unicode="-" horiz-adv-x="345" 
d="M114 256h273l52 161h-273zM147 417c4.66699 12.667 13.333 19 26 19h273c12.667 0 16.667 -6.33301 12 -19l-52 -161c-4 -12.667 -12.333 -19 -25 -19h-273c-12.667 0 -17 6.33301 -13 19z" />
    <glyph glyph-name="FL002Eh" unicode="." horiz-adv-x="233" 
d="M222 19c-4 -12.667 -12.333 -19 -25 -19h-168c-12 -0 -16 6.33301 -12 19l52 159c4 12.667 12 19 24 19h168c12.667 0 17 -6.33301 13 -19zM255 178h-168l-52 -159h168z" />
    <glyph glyph-name="FL002Fh" unicode="/" horiz-adv-x="432" 
d="M614 653h-256l-334 -634h257zM299 15c-3.33301 -4 -7 -7.5 -11 -10.5s-8.33301 -4.5 -13 -4.5h-257c-6 0 -10.333 2.16699 -13 6.5s-2.33398 9.83301 0.999023 16.5l334 633c6.66699 10.667 14.667 16 24 16h256c6 0 10.333 -2.33301 13 -7s2.33398 -10 -0.999023 -16z
" />
    <glyph glyph-name="acute" unicode="0" 
d="M227 653c4 12.667 12.333 19 25 19h510c12.667 0 17 -6.33301 13 -19l-206 -634c-4 -12.667 -12.333 -19 -25 -19h-510c-12.667 -0 -17 6.33301 -13 19zM513 476h-48l-91 -280h48zM435 177h-86l103 318h86zM40 19h510l206 634h-510z" />
    <glyph glyph-name="FL0031h" unicode="1" horiz-adv-x="402" 
d="M365 19l206 634h-327l-51 -158h71l-155 -476h256zM103 0c-12.667 0 -17 6.33301 -13 19l149 457h-52c-12.667 0 -17 6.33301 -13 19l51 158c4 12.667 12.333 19 25 19h327c12.667 0 17 -6.33301 13 -19l-206 -634c-4 -12.667 -12.333 -19 -25 -19h-256z" />
    <glyph glyph-name="FL0032h" unicode="2" horiz-adv-x="523" 
d="M149 415c4 12.667 12.332 19.001 24.999 19.001h171l14 42h-171c-12.667 0 -17 6.33301 -13 19l51 158c4 12.667 12.333 19 25 19h310c24.667 0 44.167 -7.5 58.5 -22.5s24.333 -33.333 30 -55s7.83398 -44.334 6.50098 -68.001s-5 -44.5 -11 -62.5l-68 -210
c-4 -12 -12.333 -18 -25 -18h-170l-13 -40h170c12.667 0 17 -6.33301 13 -19l-52 -158c-4 -12.667 -12.333 -19 -25 -19h-442c-12.667 -0 -17 6.33301 -13 19zM38.999 19.001l442.001 -0.00195312l52 158h-189l25 77h189l68 210c5.33301 16 8.66602 34.833 9.99902 56.5
s-0.5 42.334 -5.5 62.001s-13.5 36.334 -25.5 50.001s-28.667 20.5 -50 20.5h-310l-51 -158h190l-26 -80h-190z" />
    <glyph glyph-name="FL00BCh" unicode="3" horiz-adv-x="502" 
d="M608 411c-5.33301 -12 -12.835 -24.998 -22.502 -38.998s-20.167 -26.333 -31.5 -37c4 -12.667 6.66699 -25.834 8 -39.501s-0.333984 -27.167 -5.00098 -40.5l-15 -47c-6 -18 -16.167 -39 -30.5 -63s-31.166 -46.667 -50.499 -68s-41 -39.5 -65 -54.5
s-48.333 -22.5 -73 -22.5h-290c-12.667 0 -17 6.33301 -13 19l52 158c4 12.667 12.333 19 25 19h147l13 41h-135c-12.667 0 -17 6.33301 -13 19l52 161c4.66699 12.667 13.334 19 26.001 19h135l13 40h-147c-12.667 0 -17 6.33301 -13 19l51 158c4 12.667 12.333 19 25 19
h290c24.667 0 44.167 -7.5 58.5 -22.5s24.333 -33.333 30 -55s7.83398 -44.334 6.50098 -68.001s-5 -44.5 -11 -62.5zM605.998 464.002c5.33301 16 8.66602 34.8301 9.99902 56.4971s-0.5 42.334 -5.5 62.001s-13.5 36.334 -25.5 50.001s-28.667 20.5 -50 20.5h-290
l-51 -158h166l-26 -78h-154l-52 -161h154l-25 -79h-166l-52 -158h290c21.333 0 42.5 6.83301 63.5 20.5s40.167 30.167 57.5 49.5s32.5 40 45.5 62s22.167 41 27.5 57l15 47c4 12.667 4.83301 26.334 2.5 41.001s-5.83301 28 -10.5 40c10.667 8 21.834 19.667 33.501 35
s20.167 29 25.5 41z" />
    <glyph glyph-name="FL0034h" unicode="4" 
d="M246 653l-129 -397h254l-77 -237h256l206 634h-256l-77 -236h-86l77 236h-168zM420 672c12.667 0 17 -6.33301 13 -19l-70 -217h48l70 217c4 12.667 12.333 19 25 19h256c12.667 0 17 -6.33301 13 -19l-206 -634c-4 -12.667 -12.333 -19 -25 -19h-256
c-12.667 -0 -17 6.33301 -13 19l71 218h-235c-12.667 0 -17 6.33301 -13 19l129 397c4 12.667 12.333 19 25 19h168z" />
    <glyph glyph-name="FL0035h" unicode="5" horiz-adv-x="523" 
d="M116 256h190l-25 -79h-190l-52 -158h310c21.333 0 42.5 6.83301 63.5 20.5s40.167 30.167 57.5 49.5s32.5 40 45.5 62s22.167 41 27.5 57l67 209h-197l26 78h197l51 158h-442zM226 653c4 12.667 12.332 19 24.999 19h442c12.667 0 17 -6.33301 13 -19l-51 -158
c-4 -12.667 -12.333 -19 -25 -19h-178l-13 -40h178c12.667 0 16.667 -6.33301 12 -19l-67 -209c-6 -18 -16.167 -39 -30.5 -63s-31.166 -46.667 -50.499 -68s-41 -39.5 -65 -54.5s-48.333 -22.5 -73 -22.5h-310c-12.667 -0 -17 6.33301 -13 19l52 158
c4 12.667 12.333 19 25 19h171l13 41h-171c-12.667 0 -17 6.33301 -13 19z" />
    <glyph glyph-name="FL0036h" unicode="6" 
d="M166 464c6 18 16 38.832 30 62.499s30.833 46.334 50.5 68.001s41.334 40 65.001 55s48.167 22.5 73.5 22.5h377c12.667 0 17 -6.33301 13 -19l-51 -158c-4 -12.667 -12.333 -19 -25 -19h-234l-13 -40h234c12.667 0 16.667 -6.33301 12 -19l-129 -398
c-4 -12.667 -12.333 -19 -25 -19h-377c-25.333 0 -45 7.5 -59 22.5s-23.833 33.167 -29.5 54.5s-7.83398 44 -6.50098 68s5 45 11 63zM387 236.999l-13 -41h48l13 41h-48zM460 255.999l-25 -79h-86l25 79h86zM102 207.999c-5.33301 -16 -8.83301 -34.998 -10.5 -56.998
s-0.166992 -42.667 4.5 -62s13.167 -35.833 25.5 -49.5s29.5 -20.5 51.5 -20.5h377l129 398h-253l26 78h253l51 158h-377c-22 0 -43.5 -6.83301 -64.5 -20.5s-40.167 -30.334 -57.5 -50.001s-32.333 -40.334 -45 -62.001s-21.667 -40.5 -27 -56.5z" />
    <glyph glyph-name="FL0037h" unicode="7" horiz-adv-x="523" 
d="M639 447l-342 -436c-2.66699 -2.66699 -6.16699 -5.16699 -10.5 -7.5s-7.83301 -3.5 -10.5 -3.5h-243c-7.33301 0 -12 2.66699 -14 8s-0.666992 11.333 4 18l330 450h-165c-12.667 0 -17 6.33301 -13 19l51 158c4 12.667 12.333 19 25 19h442
c12.667 0 17 -6.33301 13 -19zM687 653h-442l-51 -158h193l-348 -476h243l340 432z" />
    <glyph glyph-name="FL003Bh" unicode="8" 
d="M697 411c-5.33301 -12 -12.834 -25 -22.501 -39s-20.167 -26.333 -31.5 -37c4 -12.667 6.66699 -25.834 8 -39.501s-0.333984 -27.167 -5.00098 -40.5l-15 -47c-6 -18 -16.167 -39 -30.5 -63s-31.166 -46.667 -50.499 -68s-41 -39.5 -65 -54.5s-48.333 -22.5 -73 -22.5
h-245c-25.333 0 -45 7.5 -59 22.5s-23.833 33.167 -29.5 54.5s-7.83398 44 -6.50098 68s5 45 11 63l15 47c4.66699 13.333 12.167 26.833 22.5 40.5s21.5 26.834 33.5 39.501c-4 10.667 -6.5 23 -7.5 37s-0.166992 27 2.5 39l17 53c6 18 16 38.833 30 62.5
s30.833 46.334 50.5 68.001s41.334 40 65.001 55s48.167 22.5 73.5 22.5h245c24.667 0 44.167 -7.5 58.5 -22.5s24.333 -33.333 30 -55s7.83398 -44.334 6.50098 -68.001s-5 -44.5 -11 -62.5zM386.999 237l-13 -41h53l13 41h-53zM464.999 476l-13 -40h53l13 40h-53z
M541.999 495l-26 -78h-90l26 78h90zM463.999 256l-25 -79h-90l25 79h90zM694.999 464c5.33301 16 8.66699 34.833 10 56.5s-0.5 42.334 -5.5 62.001s-13.5 36.334 -25.5 50.001s-28.667 20.5 -50 20.5h-245c-22 0 -43.5 -6.83301 -64.5 -20.5s-40.167 -30.334 -57.5 -50.001
s-32.333 -40.334 -45 -62.001s-21.667 -40.5 -27 -56.5l-17 -52c-2.66699 -12 -3.16699 -25.667 -1.5 -41s5.16699 -27 10.5 -35c-12.667 -12 -24.834 -25.333 -36.501 -40s-19.5 -28.334 -23.5 -41.001l-15 -47c-5.33301 -16 -8.83301 -35 -10.5 -57
s-0.166992 -42.667 4.5 -62s13.167 -35.833 25.5 -49.5s29.5 -20.5 51.5 -20.5h245c21.333 0 42.5 6.83301 63.5 20.5s40.167 30.167 57.5 49.5s32.5 40 45.5 62s22.167 41 27.5 57l15 47c4 12.667 4.83301 26.334 2.5 41.001s-5.83301 28 -10.5 40
c10.667 8 21.834 19.667 33.501 35s20.167 29 25.5 41z" />
    <glyph glyph-name="FL003Ah" unicode="9" 
d="M630 208c-6 -18 -16.1689 -38.999 -30.502 -62.999s-31.166 -46.667 -50.499 -68s-41 -39.5 -65 -54.5s-48.333 -22.5 -73 -22.5h-378c-12.667 0 -17 6.33301 -13 19l52 158c4 12.667 12.333 19 25 19h235l13 40h-235c-12.667 0 -17 6 -13 18l67 209
c6 18 16.333 39 31 63s32 46.833 52 68.5s41.833 40 65.5 55s47.5 22.5 71.5 22.5h245c24.667 0 44.167 -7.5 58.5 -22.5s24.333 -33.333 30 -55s7.83398 -44.334 6.50098 -68.001s-5 -44.5 -11 -62.5zM408.998 434.001l14 42h-48l-14 -42h48zM335.998 415.001l26 80h86
l-26 -80h-86zM693.998 464.001c5.33301 16 8.66699 34.832 10 56.499s-0.5 42.334 -5.5 62.001s-13.5 36.334 -25.5 50.001s-28.667 20.5 -50 20.5h-245c-21.333 0 -42.333 -6.83301 -63 -20.5s-39.834 -30.334 -57.501 -50.001s-33.167 -40.5 -46.5 -62.5
s-22.666 -41 -27.999 -57l-67 -209h254l-25 -77h-254l-52 -158h378c21.333 0 42.5 6.83301 63.5 20.5s40.167 30.167 57.5 49.5s32.5 40 45.5 62s22.167 41 27.5 57z" />
    <glyph glyph-name="FL003Dh" unicode=":" horiz-adv-x="233" 
d="M222 19c-4 -12.667 -12.333 -19 -25 -19h-168c-12 -0 -16 6.33301 -12 19l52 159c4 12.667 12 19 24 19h168c12.667 0 17 -6.33301 13 -19zM317 310c-4 -12.667 -12.333 -19 -25 -19h-168c-12 0 -16 6.33301 -12 19l51 159c4.66699 12.667 13 19 25 19h168
c12.667 0 16.667 -6.33301 12 -19zM349 469h-168l-51 -159h168zM255 178h-168l-52 -159h168z" />
    <glyph glyph-name="FL003Fh" unicode=";" horiz-adv-x="233" 
d="M317 310c-4 -12.667 -12.333 -19 -25 -19h-168c-12 0 -16 6.33301 -12 19l51 159c4.66699 12.667 13 19 25 19h168c12.667 0 16.667 -6.33301 12 -19zM67 0h-38c-12 -0 -16 6.33301 -12 19l52 159c4 12.667 12 19 24 19h168c12.667 0 17 -6.33301 13 -19l-52 -159
c-0.666992 -4 -4 -8.33301 -10 -13l-147 -110c-8 -6 -15.5 -7.66699 -22.5 -5s-8.83301 8.66699 -5.5 18zM56 -91l147 110l52 159h-168l-52 -159h57zM349 469h-168l-51 -159h168z" />
    <glyph glyph-name="FL003Ch" unicode="&#x3c;" horiz-adv-x="508" 
d="M219 0c-2.66699 0 -5.33398 1.00098 -8.00098 3.00098s-4.66699 4 -6 6l-98 312c0 3.33301 0.666992 6.66602 2 9.99902c0.666992 4 2.33398 7.33301 5.00098 10l303 322c2.66699 2 6 4 10 6s7.33301 3 10 3h256c8 0 12.833 -3.16699 14.5 -9.5
s-0.833008 -12.833 -7.5 -19.5l-281 -301l81 -314c2 -6.66699 0.333008 -13 -5 -19s-12 -9 -20 -9h-256zM481 19.001l-83 323l289 311h-256l-304 -322l98 -312h256z" />
    <glyph glyph-name="FL004Bh" unicode="=" horiz-adv-x="369" 
d="M82 156h296l52 161h-296zM147 357h296l52 160h-296zM180 517c4 12.667 12.333 19 25 19h296c12.667 0 17 -6.33301 13 -19l-52 -160c-4 -12.667 -12.333 -19 -25 -19h-296c-12.667 0 -17 6.33301 -13 19zM115 317c4 12.667 12.332 19 24.999 19h296
c12.667 0 17 -6.33301 13 -19l-52 -161c-4.66699 -12.667 -13 -19 -25 -19h-296c-13.333 0 -17.666 6.33301 -12.999 19z" />
    <glyph glyph-name="FL003Eh" unicode="&#x3e;" horiz-adv-x="476" 
d="M207 8c-2 -1.33301 -5.00195 -3.00098 -9.00195 -5.00098s-7 -3 -9 -3h-170c-9.33301 0 -14.5 3.33301 -15.5 10s2.16699 13.334 9.5 20.001l341 301c-23.333 52 -47.166 103.667 -71.499 155s-48.166 103 -71.499 155c-3.33301 7.33301 -2.16602 14.333 3.50098 21
s13.167 10 22.5 10h170c2 0 4.16699 -0.833008 6.5 -2.5s4.16602 -3.16699 5.49902 -4.5l154 -310c4.66699 -7.33301 2.66699 -15.333 -6 -24zM554.998 341.999l-154 311h-170l147 -322l-353 -312h170z" />
    <glyph glyph-name="FL0040h" unicode="?" horiz-adv-x="523" 
d="M606 349c-4 -12.667 -12.334 -19 -25.001 -19h-169l-30 -92c-4 -12.667 -12.333 -19 -25 -19h-254c-12.667 0 -17 6.33301 -13 19l89 272c4 12.667 12.333 19 25 19h171l43 134h-171c-12.667 0 -16.667 6.33301 -12 19l51 158c4 12.667 12.333 19 25 19h310
c24.667 0 44.167 -7.5 58.5 -22.5s24.333 -33.167 30 -54.5s7.83398 -44 6.50098 -68s-5 -45 -11 -63zM267.999 19c-4 -12.667 -12.333 -19 -25 -19h-167c-12.667 -0 -17 6.33301 -13 19l52 159c4 12.667 12.333 19 25 19h167c12.667 0 17 -6.33301 13 -19zM300.999 178
h-167l-52 -159h167zM685.999 651c5.33301 16 8.66699 35 10 57s-0.5 42.667 -5.5 62s-13.5 35.833 -25.5 49.5s-28.667 20.5 -50 20.5h-310l-51 -158h190l-56 -172h-190l-89 -272h254l36 111h188z" />
    <glyph glyph-name="FL07B6h" unicode="@" horiz-adv-x="1103" 
d="M624 384l30 92h70l-30 -92h-70zM970 445c4.66699 16 7.66895 34.834 9.00195 56.501s-0.333984 42.334 -5.00098 62.001s-13 36.334 -25 50.001s-28.667 20.5 -50 20.5h-224c-22 0 -43.5 -6.83301 -64.5 -20.5s-40.333 -30.334 -58 -50.001
s-32.834 -40.334 -45.501 -62.001s-21.334 -40.5 -26.001 -56.5l-10 -30c-5.33301 -16 -8.66602 -35 -9.99902 -57s0.333984 -42.667 5.00098 -62s13 -35.833 25 -49.5s29 -20.5 51 -20.5h430c21.333 0 42.5 6.83301 63.5 20.5s40.333 30.167 58 49.5s33 40 46 62
s22.167 41 27.5 57l77 236c5.33301 16 8.66602 35 9.99902 57s-0.5 42.667 -5.5 62s-13.667 35.833 -26 49.5s-29.166 20.5 -50.499 20.5h-725c-22 0 -43.5 -6.83301 -64.5 -20.5s-40.167 -30.167 -57.5 -49.5s-32.333 -40 -45 -62s-21.667 -41 -27 -57l-144 -443
c-5.33301 -16 -8.83301 -35 -10.5 -57s-0.166992 -42.667 4.5 -62s13.167 -35.833 25.5 -49.5s29.5 -20.5 51.5 -20.5h825l52 158h-701l164 505h566l-97 -298h-41c2 5.33301 4.16699 10.666 6.5 15.999s4.16602 10.333 5.49902 15zM976.002 403.001l84 260h-529l-151 -467
h683c12.667 0 17 -6.33301 13 -19l-52 -158c-4 -12.667 -12.333 -19 -25 -19h-825c-25.333 0 -45 7.5 -59 22.5s-23.833 33.167 -29.5 54.5s-7.83398 44 -6.50098 68s5 45 11 63l144 443c6 18 16 39 30 63s30.833 46.667 50.5 68s41.334 39.5 65.001 54.5
s48.167 22.5 73.5 22.5h725c24.667 0 44 -7.5 58 -22.5s24 -33.167 30 -54.5s8.5 -44 7.5 -68s-4.5 -45 -10.5 -63l-77 -236c-6 -18 -16.167 -39 -30.5 -63s-31.5 -46.667 -51.5 -68s-41.833 -39.5 -65.5 -54.5s-47.834 -22.5 -72.501 -22.5h-430
c-25.333 0 -45 7.5 -59 22.5s-23.833 33.167 -29.5 54.5s-7.83398 44 -6.50098 68s5 45 11 63l10 30c6 18 16 38.833 30 62.5s30.833 46.334 50.5 68.001s41.334 40 65.001 55s48.167 22.5 73.5 22.5h224c24.667 0 44.167 -7.5 58.5 -22.5s24.333 -33.333 30 -55
s7.83398 -44.334 6.50098 -68.001s-5 -44.5 -11 -62.5l-14 -42h1zM681.002 403.001l17 54h-32l-17 -54h32z" />
    <glyph glyph-name="FL0041h" unicode="A" 
d="M424 682h86l-69 -212h-86zM756 651c5.33301 16 8.66699 35 10 57s-0.5 42.667 -5.5 62s-13.5 35.833 -25.5 49.5s-28.667 20.5 -50 20.5h-378l-267 -821h168l94 290h86l-94 -290h256zM569.001 19c-4 -12.667 -12.334 -19 -25.001 -19h-256c-12.667 -0 -17 6.33301 -13 19
l88 271h-48l-88 -271c-4 -12.667 -12.333 -19 -25 -19h-168c-12.667 -0 -17 6.33301 -13 19l267 821c4 12.667 12.333 19 25 19h378c24.667 0 44.167 -7.5 58.5 -22.5s24.333 -33.167 30 -54.5s7.83398 -44 6.50098 -68s-5 -45 -11 -63zM380 489h48l56 174h-48z" />
    <glyph glyph-name="FL0042h" unicode="B" 
d="M513 682h90l-56 -172h-90zM439 177h-90l55 172h90zM40 19l378 -0.000976562c21.333 0 42.5 6.83301 63.5 20.5s40.167 30.167 57.5 49.5s32.5 40 45.5 62s22.167 41 27.5 57l45 140c4 12.667 5 26.334 3 41.001s-5.66699 28 -11 40c12.667 8 24.834 20.167 36.501 36.5
s19.5 30.833 23.5 43.5l47 142c5.33301 16 8.66602 35 9.99902 57s-0.5 42.667 -5.5 62s-13.5 35.833 -25.5 49.5s-28.667 20.5 -50 20.5h-378zM288 839.999c4 12.667 12.332 19 24.999 19h378c24.667 0 44.167 -7.5 58.5 -22.5s24.333 -33.167 30 -54.5
s7.83398 -44 6.50098 -68s-5 -45 -11 -63l-47 -142c-3.33301 -12 -10.5 -25.667 -21.5 -41s-22.167 -28.666 -33.5 -39.999c4 -12.667 6.66699 -25.834 8 -39.501s-0.333984 -27.167 -5.00098 -40.5l-45 -140c-6 -18 -16.167 -39 -30.5 -63s-31.166 -46.667 -50.499 -68
s-41 -39.5 -65 -54.5s-48.333 -22.5 -73 -22.5h-378c-12.667 0 -17 6.33301 -13 19zM469.999 329.999h-53l-43 -134h53zM481.999 528.999h53l43 134h-53z" />
    <glyph glyph-name="FL0043h" unicode="C" horiz-adv-x="502" 
d="M101 208c-5.33301 -16 -8.83301 -35 -10.5 -57s-0.166992 -42.667 4.5 -62s13.167 -35.833 25.5 -49.5s29.5 -20.5 51.5 -20.5h289l52 158h-166l164 505h166l51 158h-289c-22 0 -43.5 -6.83301 -64.5 -20.5s-40.167 -30.167 -57.5 -49.5s-32.333 -40 -45 -62
s-21.667 -41 -27 -57zM226 651c6 18 16.001 39 30.001 63s30.833 46.667 50.5 68s41.334 39.5 65.001 54.5s48.167 22.5 73.5 22.5h289c12.667 0 17 -6.33301 13 -19l-51 -158c-4.66699 -12.667 -13.334 -19 -26.001 -19h-147l-151 -467h147c12.667 0 17 -6.33301 13 -19
l-52 -158c-4 -12.667 -12.333 -19 -25 -19h-289c-25.333 0 -45 7.5 -59 22.5s-23.833 33.167 -29.5 54.5s-7.83398 44 -6.50098 68s5 45 11 63z" />
    <glyph glyph-name="FL0044h" unicode="D" 
d="M424 682h86l-164 -505h-86zM756 651c5.33301 16 8.66699 35 10 57s-0.5 42.667 -5.5 62s-13.5 35.833 -25.5 49.5s-28.667 20.5 -50 20.5h-378l-267 -821h378c21.333 0 42.5 6.83301 63.5 20.5s40.167 30.167 57.5 49.5s32.5 40 45.5 62s22.167 41 27.5 57zM631.001 208
c-6 -18 -16.1689 -39 -30.502 -63s-31.166 -46.667 -50.499 -68s-41 -39.5 -65 -54.5s-48.333 -22.5 -73 -22.5h-378c-12.667 -0 -17 6.33301 -13 19l267 821c4 12.667 12.333 19 25 19h378c24.667 0 44.167 -7.5 58.5 -22.5s24.333 -33.167 30 -54.5
s7.83398 -44 6.50098 -68s-5 -45 -11 -63zM284.999 196h48l151 467h-48z" />
    <glyph glyph-name="FL0045h" unicode="E" horiz-adv-x="502" 
d="M101 208c-5.33301 -16 -8.83301 -35 -10.5 -57s-0.166992 -42.667 4.5 -62s13.167 -35.833 25.5 -49.5s29.5 -20.5 51.5 -20.5h289l52 158h-166l55 172h154l53 161h-154l56 172h166l51 158h-289c-22 0 -43.5 -6.83301 -64.5 -20.5s-40.167 -30.167 -57.5 -49.5
s-32.333 -40 -45 -62s-21.667 -41 -27 -57zM226 651c6 18 16.001 39 30.001 63s30.833 46.667 50.5 68s41.334 39.5 65.001 54.5s48.167 22.5 73.5 22.5h289c12.667 0 17 -6.33301 13 -19l-51 -158c-4.66699 -12.667 -13.334 -19 -26.001 -19h-147l-43 -134h135
c12.667 0 17 -6.33301 13 -19l-53 -161c-4 -12.667 -12.333 -19 -25 -19h-135l-43 -134h147c12.667 0 17 -6.33301 13 -19l-52 -158c-4 -12.667 -12.333 -19 -25 -19h-289c-25.333 0 -45 7.5 -59 22.5s-23.833 33.167 -29.5 54.5s-7.83398 44 -6.50098 68s5 45 11 63z" />
    <glyph glyph-name="FL0046h" unicode="F" horiz-adv-x="502" 
d="M39 19h256l107 330h154l53 161h-154l56 172h166l51 158h-289c-22 0 -43.5 -6.83301 -64.5 -20.5s-40.167 -30.167 -57.5 -49.5s-32.333 -40 -45 -62s-21.667 -41 -27 -57zM226 651c6 18 16 39 30 63s30.833 46.667 50.5 68s41.334 39.5 65.001 54.5
s48.167 22.5 73.5 22.5h289c12.667 0 17 -6.33301 13 -19l-51 -158c-4.66699 -12.667 -13.334 -19 -26.001 -19h-147l-43 -134h135c12.667 0 17 -6.33301 13 -19l-53 -161c-4 -12.667 -12.333 -19 -25 -19h-135l-101 -311c-4 -12.667 -12.333 -19 -25 -19h-256
c-12.667 -0 -17 6.33301 -13 19z" />
    <glyph glyph-name="FL0047h" unicode="G" 
d="M102 208c-5.33301 -16 -8.83301 -35 -10.5 -57s-0.166992 -42.667 4.5 -62s13.167 -35.833 25.5 -49.5s29.5 -20.5 51.5 -20.5h377l172 528h-167l-120 -370h-86l164 505h253l51 158h-377c-22 0 -43.5 -6.83301 -64.5 -20.5s-40.167 -30.167 -57.5 -49.5
s-32.333 -40 -45 -62s-21.667 -41 -27 -57zM227 651c6 18 16.001 39 30.001 63s30.833 46.667 50.5 68s41.334 39.5 65.001 54.5s48.167 22.5 73.5 22.5h377c12.667 0 17 -6.33301 13 -19l-51 -158c-4.66699 -12.667 -13.334 -19 -26.001 -19h-234l-151 -467h48l114 351
c4 12.667 12.333 19 25 19h167c12.667 0 17 -6.33301 13 -19l-172 -528c-4 -12.667 -12.333 -19 -25 -19h-377c-25.333 0 -45 7.5 -59 22.5s-23.833 33.167 -29.5 54.5s-7.83398 44 -6.50098 68s5 45 11 63z" />
    <glyph glyph-name="FL0048h" unicode="H" 
d="M569 19c-4 -12.667 -12.333 -19 -25 -19h-167c-12.667 -0 -17 6.33301 -13 19l101 311h-48l-101 -311c-4 -12.667 -12.333 -19 -25 -19h-257c-12.667 -0 -17 6.33301 -13 19l267 821c4 12.667 12.333 19 25 19h257c12.667 0 17 -6.33301 13 -19l-101 -311h48l101 311
c4 12.667 12.333 19 25 19h167c12.667 0 17 -6.33301 13 -19zM817 840h-167l-107 -330h-86l107 330h-257l-267 -821h257l107 330h86l-107 -330h167z" />
    <glyph glyph-name="FL0049h" unicode="I" horiz-adv-x="327" 
d="M37 19h256l267 821h-256zM285 840c4 12.667 12.333 19 25 19h256c12.667 0 17 -6.33301 13 -19l-267 -821c-4 -12.667 -12.333 -19 -25 -19h-256c-12.667 -0 -17 6.33301 -13 19z" />
    <glyph glyph-name="FL004Ah" unicode="J" horiz-adv-x="474" 
d="M515 208c-6 -18 -16.168 -39 -30.501 -63s-31.166 -46.667 -50.499 -68s-41 -39.5 -65 -54.5s-48.333 -22.5 -73 -22.5h-263c-12.667 -0 -17 6.33301 -13 19l52 158c4 12.667 12.333 19 25 19h120l209 644c4 12.667 12.333 19 25 19h256c12.667 0 17 -6.33301 13 -19z
M700.999 840h-256l-215 -663h-139l-52 -158h263c21.333 0 42.5 6.83301 63.5 20.5s40.167 30.167 57.5 49.5s32.5 40 45.5 62s22.167 41 27.5 57z" />
    <glyph glyph-name="FL0051h" unicode="K" horiz-adv-x="600" 
d="M35 0c-12.667 0 -17.001 6.33301 -13.001 19l267 821c4 12.667 12.333 19 25 19h256c12.667 0 17 -6.33301 13 -19l-35 -107l72 113c2.66699 3.33301 6 6.33301 10 9s8 4 12 4h201c7.33301 0 12.166 -2.5 14.499 -7.5s0.833008 -11.167 -4.5 -18.5l-278 -404l14 -403
c0.666992 -7.33301 -1.66602 -13.5 -6.99902 -18.5s-11.666 -7.5 -18.999 -7.5h-201c-8 -0 -12.667 4.33301 -14 13l2 110l-34 -104c-4 -12.667 -12.333 -19 -25 -19h-256zM296.999 19l75 231l-4 -231h201l-15 410l283 411h-201l-147 -230l75 230h-256l-267 -821h256z" />
    <glyph glyph-name="FL004Ch" unicode="L" horiz-adv-x="473" 
d="M39 19h394l52 158h-138l215 663h-256zM287 840c4 12.667 12.333 19 25 19h256c12.667 0 17 -6.33301 13 -19l-209 -644h119c12.667 0 17 -6.33301 13 -19l-52 -158c-4 -12.667 -12.333 -19 -25 -19h-394c-12.667 -0 -17 6.33301 -13 19z" />
    <glyph glyph-name="FL004Dh" unicode="M" horiz-adv-x="862" 
d="M806 19l206.002 634c5.33301 16 8.66602 35 9.99902 57s-0.333984 42.667 -5.00098 62s-13 35.833 -25 49.5s-28.667 20.5 -50 20.5h-630l-268 -823h167l216 665h86l-216 -665h167l216 665h86l-216 -665h256zM544.002 0c-12.667 0 -16.999 6.33301 -12.999 19l210 646
h-48l-210 -646c-4 -12.667 -12.333 -19 -25 -19h-167c-12.667 -0 -17 6.33301 -13 19l210 646h-48l-210 -646c-4 -12.667 -12.333 -19 -25 -19h-167c-12.667 -0 -17 6.33301 -13 19l268 823c4 12.667 12.333 19 25 19h630c24.667 0 44.167 -7.5 58.5 -22.5
s24.166 -33.167 29.499 -54.5s7.33301 -44 6 -68s-5 -45 -11 -63l-206 -634c-4 -12.667 -12.333 -19 -25 -19h-256z" />
    <glyph glyph-name="FL004Eh" unicode="N" 
d="M569 19c-4 -12.667 -12.334 -19 -25.001 -19h-256c-12.667 -0 -17 6.33301 -13 19l209 644h-48l-209 -644c-4 -12.667 -12.333 -19 -25 -19h-168c-12.667 -0 -17 6.33301 -13 19l267 821c4 12.667 12.333 19 25 19h378c24.667 0 44.167 -7.5 58.5 -22.5
s24.333 -33.167 30 -54.5s7.83398 -44 6.50098 -68s-5 -45 -11 -63zM755.999 651c5.33301 16 8.66699 35 10 57s-0.5 42.667 -5.5 62s-13.5 35.833 -25.5 49.5s-28.667 20.5 -50 20.5h-378l-267 -821h168l216 663h86l-216 -663h256z" />
    <glyph glyph-name="FL004Fh" unicode="O" 
d="M419 682h91l-164 -505h-91zM756 651c5.33301 16 8.66699 35 10 57s-0.5 42.667 -5.5 62s-13.5 35.833 -25.5 49.5s-28.667 20.5 -50 20.5h-245c-22 0 -43.5 -6.83301 -64.5 -20.5s-40.167 -30.167 -57.5 -49.5s-32.333 -40 -45 -62s-21.667 -41 -27 -57l-144 -443
c-5.33301 -16 -8.83301 -35 -10.5 -57s-0.166992 -42.667 4.5 -62s13.167 -35.833 25.5 -49.5s29.5 -20.5 51.5 -20.5h245c21.333 0 42.5 6.83301 63.5 20.5s40.167 30.167 57.5 49.5s32.5 40 45.5 62s22.167 41 27.5 57zM631.001 208c-6 -18 -16.1689 -39 -30.502 -63
s-31.166 -46.667 -50.499 -68s-41 -39.5 -65 -54.5s-48.333 -22.5 -73 -22.5h-245c-25.333 0 -45 7.5 -59 22.5s-23.833 33.167 -29.5 54.5s-7.83398 44 -6.50098 68s5 45 11 63l144 443c6 18 16 39 30 63s30.833 46.667 50.5 68s41.334 39.5 65.001 54.5
s48.167 22.5 73.5 22.5h245c24.667 0 44.167 -7.5 58.5 -22.5s24.333 -33.167 30 -54.5s7.83398 -44 6.50098 -68s-5 -45 -11 -63zM279.999 196h53l151 467h-53z" />
    <glyph glyph-name="FL0050h" unicode="P" 
d="M603 682l-69 -212h-90l69 212h90zM297 19l94.001 288.997h121c21.333 0 42.5 6.83301 63.5 20.5s40.167 30.334 57.5 50.001s32.5 40.334 45.5 62.001s22.167 40.834 27.5 57.501l50 153c5.33301 16 8.66602 35 9.99902 57s-0.5 42.667 -5.5 62s-13.5 35.833 -25.5 49.5
s-28.667 20.5 -50 20.5h-378l-267 -821h257zM34.001 -0.00292969c-12.667 0 -17.002 6.33301 -13.002 19l267 821c4 12.667 12.333 19 25 19h378c24.667 0 44.167 -7.5 58.5 -22.5s24.333 -33.167 30 -54.5s7.83398 -44 6.50098 -68s-5 -45 -11 -63l-50 -153
c-6 -18 -16.167 -39 -30.5 -63s-31.166 -46.833 -50.499 -68.5s-41 -40 -65 -55s-48.333 -22.5 -73 -22.5h-102l-88 -270c-4 -12.667 -12.333 -19 -25 -19h-257zM524.999 662.997l-56 -174h53l56 174h-53z" />
    <glyph glyph-name="FL0056h" unicode="Q" 
d="M301 177h-46l29 90zM304 328l115 354h91l-115 -354h-91zM756 651c5.33301 16 8.66602 35 9.99902 57s-0.5 42.667 -5.5 62s-13.5 35.833 -25.5 49.5s-28.667 20.5 -50 20.5h-245c-22 0 -43.5 -6.83301 -64.5 -20.5s-40.167 -30.167 -57.5 -49.5s-32.333 -40 -45 -62
s-21.667 -41 -27 -57l-144 -443c-5.33301 -16 -8.83301 -35 -10.5 -57s-0.166992 -42.667 4.5 -62s13.167 -35.833 25.5 -49.5s29.5 -20.5 51.5 -20.5h154l16 -57h179l-21 90c13.333 10.667 25.833 22.667 37.5 36s22.334 27 32.001 41s18 27.833 25 41.5
s12.5 26.167 16.5 37.5zM631 208c-8 -23.333 -21.168 -49.833 -39.501 -79.5s-41.166 -56.167 -68.499 -79.5c3.33301 -12 6.66602 -24.833 9.99902 -38.5s6.33301 -26.5 9 -38.5c1.33301 -7.33301 -1 -14 -7 -20s-12.667 -9 -20 -9h-179
c-2.66699 0 -5.16699 1.16699 -7.5 3.5s-3.83301 4.5 -4.5 6.5l-13 47h-144c-25.333 0 -45 7.5 -59 22.5s-23.833 33.167 -29.5 54.5s-7.83398 44 -6.50098 68s5 45 11 63l144 443c6 18 16 39 30 63s30.833 46.667 50.5 68s41.334 39.5 65.001 54.5s48.167 22.5 73.5 22.5
h245c24.667 0 44.167 -7.5 58.5 -22.5s24.333 -33.167 30 -54.5s7.83398 -44 6.50098 -68s-5 -45 -11 -63zM381.999 347l102 316h-53l-102 -316h53zM274.999 196h-14l13 -19l3 11z" />
    <glyph glyph-name="FL0052h" unicode="R" 
d="M604 682l-69 -212h-91l69 212h91zM297 19l79.002 243.998l-3 -244h196l8 310c15.333 9.33301 29.833 21 43.5 35s26.167 28.833 37.5 44.5s21.166 31.334 29.499 47.001s14.5 29.834 18.5 42.501l50 153c5.33301 16 8.66602 35 9.99902 57s-0.5 42.667 -5.5 62
s-13.5 35.833 -25.5 49.5s-28.667 20.5 -50 20.5h-377l-267 -821h256zM35.002 -0.00195312c-12.667 0 -17.002 6.33496 -13.002 19.002l267 821c4 12.667 12.333 19 25 19h377c24.667 0 44.167 -7.5 58.5 -22.5s24.333 -33.167 30 -54.5s7.83398 -44 6.50098 -68
s-5 -45 -11 -63l-50 -153c-4 -12.667 -10.167 -26.834 -18.5 -42.501s-18 -31.5 -29 -47.5s-23.5 -31.333 -37.5 -46s-28.667 -27.334 -44 -38.001c-0.666992 -50 -1.66699 -99.833 -3 -149.5s-2.66602 -99.5 -3.99902 -149.5c0 -16.667 -8.66699 -25 -26 -25h-196
c-9.33301 0 -14 4.33301 -14 13l2 125l-39 -119c-4 -12.667 -12.333 -19 -25 -19h-256zM525 663l-56 -174h53l56 174h-53z" />
    <glyph glyph-name="FL0053h" unicode="S" horiz-adv-x="523" 
d="M146 349h190l-55 -172h-190l-52 -158h310c21.333 0 42.5 6.83301 63.5 20.5s40.167 30.167 57.5 49.5s32.5 40 45.5 62s22.167 41 27.5 57l98 302h-189l56 172h189l51 158h-309c-22 0 -43.5 -6.83301 -64.5 -20.5s-40.167 -30.167 -57.5 -49.5s-32.333 -40 -45 -62
s-21.667 -41 -27 -57zM226 651c6 18 15.999 39 29.999 63s30.833 46.667 50.5 68s41.334 39.5 65.001 54.5s48.167 22.5 73.5 22.5h309c12.667 0 17 -6.33301 13 -19l-51 -158c-4.66699 -12.667 -13.334 -19 -26.001 -19h-170l-43 -134h170c12.667 0 17 -6.33301 13 -19
l-98 -302c-6 -18 -16.167 -39 -30.5 -63s-31.166 -46.667 -50.499 -68s-41 -39.5 -65 -54.5s-48.333 -22.5 -73 -22.5h-310c-12.667 -0 -17 6.33301 -13 19l52 158c4 12.667 12.333 19 25 19h171l43 134h-171c-12.667 0 -17 6.33301 -13 19z" />
    <glyph glyph-name="FL0054h" unicode="T" horiz-adv-x="535" 
d="M709 682l51 158h-453l-51 -158h98l-216 -663h256l216 663h99zM622 663l-208.999 -644c-4 -12.667 -12.333 -19 -25 -19h-256c-12.667 -0 -17 6.33301 -13 19l209 644h-79c-12.667 0 -16.667 6.33301 -12 19l51 158c4 12.667 12.333 19 25 19h453
c12.667 0 17 -6.33301 13 -19l-51 -158c-4.66699 -12.667 -13.334 -19 -26.001 -19h-80z" />
    <glyph glyph-name="FL0055h" unicode="U" 
d="M288 840c4 12.667 12.334 19 25.001 19h257c12.667 0 17 -6.33301 13 -19l-209 -644h48l209 644c4 12.667 12.333 19 25 19h167c12.667 0 17 -6.33301 13 -19l-267 -821c-4 -12.667 -12.333 -19 -25 -19h-377c-25.333 0 -45 7.5 -59 22.5s-23.833 33.167 -29.5 54.5
s-7.83398 44 -6.50098 68s5 45 11 63zM102.001 208c-5.33301 -16 -8.83301 -35 -10.5 -57s-0.166992 -42.667 4.5 -62s13.167 -35.833 25.5 -49.5s29.5 -20.5 51.5 -20.5h377l267 821h-167l-215 -663h-86l215 663h-257z" />
    <glyph glyph-name="FL0058h" unicode="V" horiz-adv-x="565" 
d="M803 840h-257l-143 -328l57 328h-167l-152 -821h268zM427 16c-1.33301 -4 -4.66602 -7.66699 -9.99902 -11s-10 -5 -14 -5h-268c-4.66699 0 -8.33398 1.66699 -11.001 5s-3.66699 7 -3 11l152 821c0.666992 6 3.5 11.167 8.5 15.5s10.833 6.5 17.5 6.5h167
c4.66699 0 8.5 -1.66699 11.5 -5s3.83301 -7 2.5 -11l-31 -182l79 181c2 4.66699 5.33301 8.66699 10 12s9.33398 5 14.001 5h257c6 0 10.167 -2.16699 12.5 -6.5s2.16602 -9.5 -0.500977 -15.5z" />
    <glyph glyph-name="FL0057h" unicode="W" horiz-adv-x="862" 
d="M311 840l-205 -632c-5.33301 -16 -8.83301 -35 -10.5 -57s-0.166992 -42.667 4.5 -62s13 -35.833 25 -49.5s29 -20.5 51 -20.5h630l267 821h-167l-215 -663h-85l215 663h-168l-215 -663h-86l215 663h-256zM573 859c12.667 0 17 -6.33301 13 -19l-209 -644h48l209 644
c4 12.667 12.333 19 25 19h168c12.667 0 17 -6.33301 13 -19l-209 -644h47l209 644c4 12.667 12.333 19 25 19h167c12.667 0 17 -6.33301 13 -19l-267 -821c-4 -12.667 -12.333 -19 -25 -19h-630c-25.333 0 -45 7.5 -59 22.5s-23.667 33.167 -29 54.5s-7.33301 44 -6 68
s5 45 11 63l205 632c4 12.667 12.333 19 25 19h256z" />
    <glyph glyph-name="FL0FE7h" unicode="X" horiz-adv-x="565" 
d="M803 840h-257l-143 -328l57 328h-167l-77 -411l-190 -410h167l157 328l-71 -328h257l69 410zM624 429l-67.998 -407c-1.33301 -6.66699 -4.5 -12 -9.5 -16s-10.5 -6 -16.5 -6h-257c-4.66699 0 -8.33398 1.66699 -11.001 5s-3.33398 7.33301 -2.00098 12l39 182l-88 -183
c-1.33301 -4 -4.5 -7.66699 -9.5 -11s-9.83301 -5 -14.5 -5h-167c-6.66699 0 -11.167 2.16699 -13.5 6.5s-1.83301 9.5 1.5 15.5l190 407l75 408c0.666992 6 3.5 11.167 8.5 15.5s10.833 6.5 17.5 6.5h167c4.66699 0 8.5 -1.66699 11.5 -5s3.83301 -7 2.5 -11l-31 -182
l79 181c2 4.66699 5.33301 8.66699 10 12s9.33398 5 14.001 5h257c6 0 10.167 -2.16699 12.5 -6.5s2.16602 -9.5 -0.500977 -15.5z" />
    <glyph glyph-name="FL0059h" unicode="Y" 
d="M631 208c-6 -18 -16.167 -39 -30.5 -63s-31.166 -46.667 -50.499 -68s-41 -39.5 -65 -54.5s-48.333 -22.5 -73 -22.5h-378c-12.667 -0 -17 6.33301 -13 19l52 158c4 12.667 12.333 19 25 19h324l43 134h-191c-25.333 0 -45 7.5 -59 22.5s-23.833 33.167 -29.5 54.5
s-7.83398 44 -6.50098 68s5 45 11 63l99 304c4 12.667 12.333 19 25 19h257c12.667 0 17 -6.33301 13 -19l-103 -316h48l103 316c4 12.667 12.333 19 25 19h167c12.667 0 17 -6.33301 13 -19zM818 842h-167.002l-109 -335h-86l109 335h-257l-99 -304
c-5.33301 -16 -8.66602 -35 -9.99902 -57s0.333984 -42.667 5.00098 -62s13 -35.833 25 -49.5s29 -20.5 51 -20.5h210l-55 -172h-343l-52 -158h378c21.333 0 42.5 6.83301 63.5 20.5s40.167 30.167 57.5 49.5s32.5 40 45.5 62s22.167 41 27.5 57z" />
    <glyph glyph-name="FL005Ah" unicode="Z" horiz-adv-x="523" 
d="M702 640l-330 -444h167c12.667 0 17 -6.33301 13 -19l-52 -158c-4 -12.667 -12.333 -19 -25 -19h-442c-12.667 -0 -17 6.33301 -13 19l65 200l331 444h-168c-12.667 0 -16.667 6.33301 -12 19l51 158c4 12.667 12.333 19 25 19h442c12.667 0 17 -6.33301 13 -19zM748 840
h-442l-51 -158h195l-346 -465l-65 -198h442l52 158h-195l346 466z" />
    <glyph glyph-name="FL005Bh" unicode="[" horiz-adv-x="404" 
d="M87 168c-5.33301 -16 -8.66504 -34.8291 -9.99805 -56.4961s0.166992 -42.334 4.5 -62.001s12.5 -36.334 24.5 -50.001s29 -20.5 51 -20.5h197l52 158h-73l129 397h73l51 158h-197c-22 0 -43.333 -6.66699 -64 -20s-39.834 -29.833 -57.501 -49.5
s-32.834 -40.334 -45.501 -62.001s-21.667 -40.834 -27 -57.501zM176.001 503.004c6 18 16.168 39 30.501 63s31.166 46.667 50.499 68s40.833 39.5 64.5 54.5s48.167 22.5 73.5 22.5h197c12.667 0 17 -6.33301 13 -19l-51 -158c-4 -12 -12.333 -18 -25 -18h-54l-117 -360
h54c12.667 0 17 -6.33301 13 -19l-52 -158c-4 -12.667 -12.333 -19 -25 -19h-197c-25.333 0 -45 7.5 -59 22.5s-23.667 33.167 -29 54.5s-7.33301 44 -6 68s5 45 11 63z" />
    <glyph glyph-name="FL005Ch" unicode="\" horiz-adv-x="324" 
d="M396 653h-168l-90 -634h166zM324 23c-0.666992 -6.66699 -3.5 -12.167 -8.5 -16.5s-10.833 -6.5 -17.5 -6.5h-166c-4.66699 0 -8.16699 1.5 -10.5 4.5s-3.5 6.5 -3.5 10.5l91 634c0.666992 6 3.5 11.333 8.5 16s10.5 7 16.5 7h168c10 0 14.667 -5.33301 14 -16z" />
    <glyph glyph-name="FL005Dh" unicode="]" horiz-adv-x="313" 
d="M348 168c-6 -18 -16.168 -39 -30.501 -63s-31.333 -46.667 -51 -68s-41.5 -39.5 -65.5 -54.5s-48.333 -22.5 -73 -22.5h-110c-12.667 0 -17 6.33301 -13 19l52 158c4 12.667 12.333 19 25 19h53l117 360h-53c-12.667 0 -17 6 -13 18l51 158c4 12.667 12.333 19 25 19h110
c24.667 0 44.167 -7.5 58.5 -22.5s24.333 -33.167 30 -54.5s7.83398 -44 6.50098 -68s-5 -45 -11 -63zM436.999 503c5.33301 16.667 8.66699 35.8301 10 57.4971s-0.333984 42.334 -5.00098 62.001s-13.167 36.167 -25.5 49.5s-29.166 20 -50.499 20h-110l-51 -158h72
l-129 -397h-72l-52 -158h110c21.333 0 42.5 6.83301 63.5 20.5s40.333 30.334 58 50.001s33 40.334 46 62.001s22.167 40.5 27.5 56.5z" />
    <glyph glyph-name="FL005Eh" unicode="^" horiz-adv-x="590" 
d="M332 178h-59l78 149zM560 19l77 634h-289l-322 -634h534zM20 0c-6 0 -10.332 2.16699 -12.999 6.5s-2.33398 9.83301 0.999023 16.5l323 633c2 4.66699 5.33301 8.5 10 11.5s9 4.5 13 4.5h289c10 0 14.667 -5.33301 14 -16l-77 -633
c-0.666992 -6.66699 -3.66699 -12.167 -9 -16.5s-11 -6.5 -17 -6.5h-534zM318.001 229c-3.33301 -5.33301 -6 -10.5 -8 -15.5s-4.66699 -10.5 -8 -16.5h12z" />
    <glyph glyph-name="FL005Fh" unicode="_" horiz-adv-x="447" 
d="M427 19c-4 -12.667 -12.333 -19 -25 -19h-370c-12.667 -0 -17 6.33301 -13 19l52 159c4 12.667 12.333 19 25 19h370c12.667 0 17 -6.33301 13 -19zM460 178h-370l-52 -159h370z" />
    <glyph glyph-name="FL0060h" unicode="`" horiz-adv-x="243" 
d="M431 854h-188l13 -159h176zM452 701c-0.666992 -6.66699 -3.49805 -12.5 -8.49805 -17.5s-10.833 -7.5 -17.5 -7.5h-176c-8 0 -12.667 4.33301 -14 13l-12 159c-0.666992 6.66699 1.66602 12.5 6.99902 17.5s11.666 7.5 18.999 7.5h188c8.66699 0 13 -4.33301 13 -13z
" />
    <glyph glyph-name="a" unicode="a" 
d="M358 484h84l-33 -102h-84zM542 19l142.001 435c4.66699 16 7.66699 34.667 9 56s-0.333984 41.5 -5.00098 60.5s-13 35.167 -25 48.5s-28.333 20 -49 20h-369l-202 -620h164l67 206h84l-67 -206h251zM285.001 0c-12.667 0 -17.002 6.33203 -13.002 18.999l61 187h-47
l-61 -187c-4 -12.667 -12 -19 -24 -19h-164c-12.667 0 -17 6.33301 -13 19l202 620c4 12 12 18 24 18h369c24 0 43 -7.33301 57 -22s23.833 -32.5 29.5 -53.5s7.83398 -43.167 6.50098 -66.5s-4.66602 -43.666 -9.99902 -60.999l-142 -435c-4 -12.667 -12 -19 -24 -19h-251z
M348.999 400.999h47l21 65h-47z" />
    <glyph glyph-name="b" unicode="b" 
d="M445 484h88l-24 -76h-88zM432 173h-88l26 78h88zM43 19l369 0.00195312c20.667 0 41.334 6.66699 62.001 20s39.5 29.5 56.5 48.5s31.833 39.167 44.5 60.5s21.667 40 27 56l15 46c4 12.667 4.83301 26 2.5 40s-5.83301 27 -10.5 39c6 4 12 9.16699 18 15.5
s11.833 13.166 17.5 20.499s10.5 14.666 14.5 21.999s7 14 9 20l16 47c4.66699 16 7.66699 34.667 9 56s-0.333984 41.5 -5.00098 60.5s-13 35.167 -25 48.5s-28.333 20 -49 20h-369zM226 639.002c4 12 11.9951 18 23.9951 18h369c24 0 43 -7.33301 57 -22
s23.833 -32.5 29.5 -53.5s7.83398 -43.167 6.50098 -66.5s-4.66602 -43.666 -9.99902 -60.999l-16 -47c-3.33301 -11.333 -10.166 -24.5 -20.499 -39.5s-21.166 -28.167 -32.499 -39.5c3.33301 -12 5.5 -24.833 6.5 -38.5s-0.5 -26.834 -4.5 -39.501l-15 -46
c-6 -18 -15.833 -38.667 -29.5 -62s-30.167 -45.5 -49.5 -66.5s-40.666 -38.833 -63.999 -53.5s-47 -22 -71 -22h-369c-12.667 0 -17 6.33301 -13 19zM432.995 232.002h-52l-13 -40h52zM444.995 427.002h52l12 39h-52z" />
    <glyph glyph-name="c" unicode="c" horiz-adv-x="502" 
d="M101 204c-5.33301 -16 -8.66699 -34.667 -10 -56s0.333984 -41.5 5.00098 -60.5s13 -35.167 25 -48.5s28.667 -20 50 -20h283l50 154h-162l101 311h162l51 155h-283c-21.333 0 -42.333 -6.66699 -63 -20s-39.5 -29.5 -56.5 -48.5s-31.833 -39.167 -44.5 -60.5
s-21.334 -40 -26.001 -56zM163.999 454c5.33301 17.333 14.835 37.667 28.502 61s30.167 45.5 49.5 66.5s40.666 38.833 63.999 53.5s47.333 22 72 22h283c12.667 0 17 -6 13 -18l-51 -155c-4 -12 -12 -18 -24 -18h-144l-89 -274h144c12 0 16 -6.33301 12 -19l-50 -154
c-4 -12.667 -12 -19 -24 -19h-283c-24.667 -0 -44 7.33301 -58 22s-23.833 32.5 -29.5 53.5s-7.83398 43.167 -6.50098 66.5s5 44 11 62z" />
    <glyph glyph-name="d" unicode="d" 
d="M358 484h84l-101 -311h-84zM684 454c4.66699 16 7.66699 34.667 9 56s-0.333984 41.5 -5.00098 60.5s-13 35.167 -25 48.5s-28.333 20 -49 20h-369l-202 -620h369c20.667 0 41.334 6.66699 62.001 20s39.5 29.5 56.5 48.5s31.833 39.167 44.5 60.5s21.667 40 27 56z
M620 204c-6 -18 -15.8359 -38.668 -29.5029 -62.001s-30.167 -45.5 -49.5 -66.5s-40.666 -38.833 -63.999 -53.5s-47 -22 -71 -22h-369c-12.667 0 -17 6.33301 -13 19l202 620c4 12 12 18 24 18h369c24 0 43 -7.33301 57 -22s23.833 -32.5 29.5 -53.5
s7.83398 -43.167 6.50098 -66.5s-4.66602 -43.666 -9.99902 -60.999zM280.997 191.999h47l89 274h-47z" />
    <glyph glyph-name="e" unicode="e" horiz-adv-x="502" 
d="M101 204c-5.33301 -16 -8.66699 -34.667 -10 -56s0.333984 -41.5 5.00098 -60.5s13 -35.167 25 -48.5s28.667 -20 50 -20h283l50 154h-162l26 78h150l51 157h-150l24 76h162l51 155h-283c-21.333 0 -42.333 -6.66699 -63 -20s-39.5 -29.5 -56.5 -48.5
s-31.833 -39.167 -44.5 -60.5s-21.334 -40 -26.001 -56zM163.999 454c5.33301 17.333 14.835 37.667 28.502 61s30.167 45.5 49.5 66.5s40.666 38.833 63.999 53.5s47.333 22 72 22h283c12.667 0 17 -6 13 -18l-51 -155c-4 -12 -12 -18 -24 -18h-144l-12 -39h132
c12 0 16 -6.33301 12 -19l-51 -157c-4.66699 -12.667 -13 -19 -25 -19h-132l-13 -40h144c12 0 16 -6.33301 12 -19l-50 -154c-4 -12.667 -12 -19 -24 -19h-283c-24.667 -0 -44 7.33301 -58 22s-23.833 32.5 -29.5 53.5s-7.83398 43.167 -6.50098 66.5s5 44 11 62z" />
    <glyph glyph-name="f" unicode="f" horiz-adv-x="502" 
d="M41 19h251.001l76 232h150l51 157h-150l24 76h162l51 155h-283c-21.333 0 -42.333 -6.66699 -63 -20s-39.5 -29.5 -56.5 -48.5s-31.833 -39.167 -44.5 -60.5s-21.334 -40 -26.001 -56zM164.001 454c5.33301 17.333 14.834 37.667 28.501 61s30.167 45.5 49.5 66.5
s40.666 38.833 63.999 53.5s47.333 22 72 22h283c12.667 0 17 -6 13 -18l-51 -155c-4 -12 -12 -18 -24 -18h-144l-12 -39h132c12 0 16 -6.33301 12 -19l-51 -157c-4.66699 -12.667 -13 -19 -25 -19h-132l-69 -213c-4 -12.667 -12 -19 -24 -19h-251
c-12.667 -0 -17 6.33301 -13 19z" />
    <glyph glyph-name="g" unicode="g" 
d="M103 204c-5.33301 -16 -8.66895 -34.667 -10.002 -56s0.333984 -41.5 5.00098 -60.5s12.834 -35.167 24.501 -48.5s28.167 -20 49.5 -20h370l120 370h-164l-70 -216h-84l101 311h248l51 155h-370c-21.333 0 -42.166 -6.66699 -62.499 -20s-39 -29.5 -56 -48.5
s-31.833 -39.167 -44.5 -60.5s-21.334 -40 -26.001 -56zM165.997 454c5.33301 17.333 15 37.667 29 61s30.5 45.5 49.5 66.5s40.167 38.833 63.5 53.5s47 22 71 22h370c12.667 0 17 -6 13 -18l-51 -155c-4 -12 -12 -18 -24 -18h-230l-89 -274h47l64 197
c4 12 12.333 18 25 18h164c12 0 16 -6 12 -18l-120 -370c-4 -12.667 -12 -19 -24 -19h-370c-24 -0 -43 7.33301 -57 22s-23.667 32.5 -29 53.5s-7.5 43.167 -6.5 66.5s4.5 44 10.5 62z" />
    <glyph glyph-name="h" unicode="h" 
d="M560 19c-4 -12.667 -12 -19 -24 -19h-164c-12.667 -0 -17 6.33301 -13 19l69 213h-47l-69 -213c-4 -12.667 -12 -19 -24 -19h-251c-12.667 -0 -17 6.33301 -13 19l202 620c4 12 12 18 24 18h251c12.667 0 17 -6 13 -18l-69 -212h47l69 212c4 12 12 18 24 18h164
c12.667 0 17 -6 13 -18zM744 639h-164l-75 -231h-84l75 231h-251l-202 -620h251l76 232h84l-76 -232h164z" />
    <glyph glyph-name="i" unicode="i" horiz-adv-x="327" 
d="M307 19c-4 -12.667 -12 -19 -24 -19h-251c-12.667 -0 -17 6.33301 -13 19l202 620c4 12 12 18 24 18h251c12.667 0 17 -6 13 -18zM491 639h-251l-202 -620h251z" />
    <glyph glyph-name="j" unicode="j" horiz-adv-x="474" 
d="M506 204c-6 -18 -15.834 -38.667 -29.501 -62s-30.167 -45.5 -49.5 -66.5s-40.666 -38.833 -63.999 -53.5s-47 -22 -71 -22h-258c-12 -0 -16 6.33301 -12 19l50 154c4 12.667 12 19 24 19h118l146 447c4 12 12 18 24 18h250c13.333 0 18 -6 14 -18zM628.999 639h-249.998
l-152 -466h-137l-50 -154h258c21.333 0 42.166 6.66699 62.499 20s39 29.5 56 48.5s31.667 39.167 44 60.5s21.166 40 26.499 56z" />
    <glyph glyph-name="FL006Bh" unicode="k" horiz-adv-x="600" 
d="M37 0c-12 0 -16.0039 6.33398 -12.0039 19.001l202 620c4 12 11.667 18 23 18h251c13.333 0 18 -6 14 -18l-22 -68l58 75c2.66699 3.33301 5.83398 6 9.50098 8s6.83398 3 9.50098 3h198c7.33301 0 11.833 -2.66699 13.5 -8s-0.166016 -11.333 -5.49902 -18l-243 -302
l47 -302c1.33301 -6.66699 -0.666992 -12.834 -6 -18.501s-11.666 -8.5 -18.999 -8.5h-198c-2.66699 0 -5.16699 1.16699 -7.5 3.5s-3.83301 4.83301 -4.5 7.5l-10 76l-22 -68c-4 -12.667 -12.333 -19 -25 -19h-251zM293.996 19.001l49 150l20 -150h198l-48 310l250 310
h-198l-118 -151l49 151h-251l-202 -620h251z" />
    <glyph glyph-name="l" unicode="l" horiz-adv-x="473" 
d="M40 19h387l50 154h-136l152 466h-251zM224 639c4 12 11.667 18 23 18h251c13.333 0 18 -6 14 -18l-146 -447h117c12 0 16 -6.33301 12 -19l-50 -154c-4 -12.667 -12 -19 -24 -19h-387c-12 -0 -16 6.33301 -12 19z" />
    <glyph glyph-name="m" unicode="m" horiz-adv-x="862" 
d="M794 19l142.001 435c4.66699 16 7.66699 34.667 9 56s-0.333984 41.5 -5.00098 60.5s-13 35.167 -25 48.5s-28.333 20 -49 20h-616l-202 -620h164l151 465h83l-151 -465h164l151 465h84l-151 -465h251zM537.001 0c-12.667 0 -17.0039 6.33203 -13.0039 18.999l145 447
h-47l-145 -447c-4 -12.667 -12 -19 -24 -19h-164c-12.667 0 -17 6.33301 -13 19l145 447h-46l-145 -447c-4 -12.667 -12 -19 -24 -19h-164c-12.667 0 -17 6.33301 -13 19l202 620c4 12 12 18 24 18h616c24.667 0 43.834 -7.33301 57.501 -22s23.334 -32.5 29.001 -53.5
s7.83398 -43.167 6.50098 -66.5s-4.66602 -43.666 -9.99902 -60.999l-142 -435c-4 -12.667 -12 -19 -24 -19h-251z" />
    <glyph glyph-name="n" unicode="n" 
d="M560 19c-4 -12.667 -12.002 -19.001 -24.002 -19.001h-251c-12.667 0 -17 6.33301 -13 19l145 447h-47l-145 -447c-4 -12.667 -12 -19 -24 -19h-164c-12.667 0 -17 6.33301 -13 19l202 620c4 12 12 18 24 18h369c24 0 43 -7.33301 57 -22s23.833 -32.5 29.5 -53.5
s7.83398 -43.167 6.50098 -66.5s-4.66602 -43.666 -9.99902 -60.999zM683.998 453.999c4.66699 16 7.66797 34.667 9.00098 56s-0.333984 41.5 -5.00098 60.5s-13 35.167 -25 48.5s-28.333 20 -49 20h-369l-202 -620h164l151 465h84l-151 -465h251z" />
    <glyph glyph-name="o" unicode="o" 
d="M353 484h89l-101 -311h-89zM684 454c4.66699 16 7.66406 34.667 8.99707 56s-0.333984 41.5 -5.00098 60.5s-13 35.167 -25 48.5s-28.333 20 -49 20h-240c-21.333 0 -42.166 -6.66699 -62.499 -20s-39 -29.5 -56 -48.5s-31.833 -39.167 -44.5 -60.5
s-21.334 -40 -26.001 -56l-82 -250c-5.33301 -16 -8.66602 -34.667 -9.99902 -56s0.333984 -41.5 5.00098 -60.5s12.834 -35.167 24.501 -48.5s28.167 -20 49.5 -20h240c20.667 0 41.334 6.66699 62.001 20s39.5 29.5 56.5 48.5s31.833 39.167 44.5 60.5s21.667 40 27 56z
M619.997 204c-6 -18 -15.8359 -38.667 -29.5029 -62s-30.167 -45.5 -49.5 -66.5s-40.666 -38.833 -63.999 -53.5s-47 -22 -71 -22h-240c-24 -0 -43 7.33301 -57 22s-23.667 32.5 -29 53.5s-7.5 43.167 -6.5 66.5s4.5 44 10.5 62l82 250c5.33301 17.333 15 37.666 29 60.999
s30.5 45.5 49.5 66.5s40.167 38.833 63.5 53.5s47 22 71 22h240c24 0 43 -7.33301 57 -22s23.833 -32.5 29.5 -53.5s7.83398 -43.167 6.50098 -66.5s-4.66602 -43.666 -9.99902 -60.999zM275.994 192h52l89 274h-52z" />
    <glyph glyph-name="p" unicode="p" 
d="M533 484l-33 -102h-88l33 102h88zM294 19l67 205h118c20.667 0 41.334 6.66699 62.001 20s39.5 29.5 56.5 48.5s31.833 39.167 44.5 60.5s21.667 40 27 56l15 45c4.66699 16 7.66699 34.667 9 56s-0.333984 41.5 -5.00098 60.5s-13 35.167 -25 48.5s-28.333 20 -49 20
h-369l-202 -620h251zM37 0c-12.667 0 -17.0029 6.33105 -13.0029 18.998l202 620c4 12 12 18 24 18h369c24 0 43 -7.33301 57 -22s23.833 -32.5 29.5 -53.5s7.83398 -43.167 6.50098 -66.5s-4.66602 -43.666 -9.99902 -60.999l-15 -45
c-6 -17.333 -15.833 -37.666 -29.5 -60.999s-30.167 -45.5 -49.5 -66.5s-40.666 -38.833 -63.999 -53.5s-47 -22 -71 -22h-100l-61 -187c-4 -12.667 -12 -19 -24 -19h-251zM456.997 465.998l-21 -65h52l21 65h-52z" />
    <glyph glyph-name="q" unicode="q" 
d="M293 173h-41l25 77zM293 300l60 184h89l-60 -184h-89zM684 454c4.66699 16 7.66309 34.668 8.99609 56.001s-0.333984 41.5 -5.00098 60.5s-13 35.167 -25 48.5s-28.333 20 -49 20h-240c-21.333 0 -42.166 -6.66699 -62.499 -20s-39 -29.5 -56 -48.5
s-31.833 -39.167 -44.5 -60.5s-21.334 -40 -26.001 -56l-82 -250c-5.33301 -16 -8.66602 -34.667 -9.99902 -56s0.333984 -41.5 5.00098 -60.5s12.834 -35.167 24.501 -48.5s28.167 -20 49.5 -20h148l17 -56h177l-21 88c12.667 10 24.834 21.667 36.501 35
s22.334 26.833 32.001 40.5s18 27.167 25 40.5s12.167 25.666 15.5 36.999zM619.996 204.001c-7.33301 -23.333 -19.8359 -49.5 -37.5029 -78.5s-39.834 -54.833 -66.501 -77.5c3.33301 -12 6.33301 -24.667 9 -38s5.33398 -26 8.00098 -38
c2 -6.66699 0.166992 -13 -5.5 -19s-12.167 -9 -19.5 -9h-177c-2.66699 0 -5.16699 1.16699 -7.5 3.5s-4.16602 4.5 -5.49902 6.5l-15 46h-137c-24 0 -43 7.33301 -57 22s-23.667 32.5 -29 53.5s-7.5 43.167 -6.5 66.5s4.5 44 10.5 62l82 250
c5.33301 17.333 15 37.666 29 60.999s30.5 45.5 49.5 66.5s40.167 38.833 63.5 53.5s47 22 71 22h240c24 0 43 -7.33301 57 -22s23.833 -32.5 29.5 -53.5s7.83398 -43.167 6.50098 -66.5s-4.66602 -43.666 -9.99902 -60.999zM369.993 319.001l47 147h-52l-47 -147h52z
M267.993 192.001h-10l12 -19l1 3z" />
    <glyph glyph-name="r" unicode="r" 
d="M534 484l-33 -103h-89l33 103h89zM294 19l49 151.002l20 -151h198l-29 217c16 8 31.333 19.167 46 33.5s28 29.666 40 45.999s22.5 32.666 31.5 48.999s15.5 30.833 19.5 43.5l15 46c4.66699 16 7.66699 34.667 9 56s-0.166992 41.5 -4.5 60.5s-12.5 35.167 -24.5 48.5
s-28.333 20 -49 20h-370l-202 -620h251zM37 0.00195312c-12 0 -16.002 6.33203 -12.002 18.999l202 620c4 12 11.667 18 23 18h370c24 0 43 -7.33301 57 -22s23.833 -32.5 29.5 -53.5s7.83398 -43.167 6.50098 -66.5s-4.66602 -43.666 -9.99902 -60.999l-15 -46
c-4.66699 -13.333 -11.167 -28.166 -19.5 -44.499s-18.333 -32.833 -30 -49.5s-24.667 -32.334 -39 -47.001s-29.833 -27 -46.5 -37l26 -204c1.33301 -6.66699 -0.5 -12.667 -5.5 -18s-11.167 -8 -18.5 -8h-198c-2.66699 0 -5.16699 1.16699 -7.5 3.5
s-3.83301 4.83301 -4.5 7.5l-10 76l-22 -68c-4 -12.667 -12.333 -19 -25 -19h-251zM457.998 466.001l-21 -66h51l21 66h-51z" />
    <glyph glyph-name="s" unicode="s" horiz-adv-x="523" 
d="M117 251h185.998l-26 -78h-186l-50 -154h303c20.667 0 41.334 6.66699 62.001 20s39.5 29.5 56.5 48.5s31.833 39.167 44.5 60.5s21.667 40 27 56l67 204h-185l24 76h185l51 155h-303c-21.333 0 -42.166 -6.66699 -62.499 -20s-39.166 -29.5 -56.499 -48.5
s-32.333 -39.167 -45 -60.5s-21.334 -40 -26.001 -56zM164.998 454c5.33301 17.333 14.999 37.667 28.999 61s30.5 45.5 49.5 66.5s40.167 38.833 63.5 53.5s47 22 71 22h303c12.667 0 17 -6 13 -18l-51 -155c-4 -12 -12 -18 -24 -18h-167l-12 -39h167
c12 0 16 -6.33301 12 -19l-67 -204c-6 -18 -15.833 -38.667 -29.5 -62s-30.167 -45.5 -49.5 -66.5s-40.666 -38.833 -63.999 -53.5s-47 -22 -71 -22h-303c-12 -0 -16 6.33301 -12 19l50 154c4 12.667 12 19 24 19h167l13 40h-167c-12 0 -15.667 6.33301 -11 19z" />
    <glyph glyph-name="t" unicode="t" horiz-adv-x="535" 
d="M636 484l51 155h-443l-51 -155h96l-151 -465h251l151 465h96zM552 466l-145 -447c-4 -12.667 -12 -19 -24 -19h-251c-12.667 -0 -17 6.33301 -13 19l145 447h-77c-12.667 0 -17 6 -13 18l51 155c4 12 12 18 24 18h443c13.333 0 18 -6 14 -18l-51 -155
c-4 -12 -12.333 -18 -25 -18h-78z" />
    <glyph glyph-name="u" unicode="u" 
d="M226 639c4 12 12 18 24 18h251c12.667 0 17 -6 13 -18l-146 -447h47l146 447c4 12 12 18 24 18h164c12.667 0 17 -6 13 -18l-202 -620c-4 -12.667 -12 -19 -24 -19h-370c-24 -0 -43 7.33301 -57 22s-23.667 32.5 -29 53.5s-7.5 43.167 -6.5 66.5s4.5 44 10.5 62zM103 204
c-5.33301 -16 -8.66895 -34.667 -10.002 -56s0.333984 -41.5 5.00098 -60.5s12.834 -35.167 24.501 -48.5s28.167 -20 49.5 -20h370l202 620h-164l-152 -466h-84l152 466h-251z" />
    <glyph glyph-name="v" unicode="v" horiz-adv-x="565" 
d="M729 639h-251l-123 -256l39 256h-164l-89 -620h262zM421 15c-5.33301 -10 -13.333 -15 -24 -15h-262c-8.66699 0 -13 5 -13 15l88 620c0.666992 6 3.5 11.167 8.5 15.5s10.5 6.5 16.5 6.5h164c4 0 7.66699 -1.5 11 -4.5s4.66602 -6.5 3.99902 -10.5l-21 -143l68 143
c1.33301 4 4.33301 7.5 9 10.5s9 4.5 13 4.5h251c6 0 10.333 -2.16699 13 -6.5s2.33398 -9.5 -0.999023 -15.5z" />
    <glyph glyph-name="w" unicode="w" horiz-adv-x="862" 
d="M250 639l-142.003 -435c-5.33301 -16 -8.66602 -34.667 -9.99902 -56s0.333984 -41.5 5.00098 -60.5s12.834 -35.167 24.501 -48.5s28.167 -20 49.5 -20h617l202 620h-164l-152 -466h-83l152 466h-164l-152 -466h-84l152 466h-251zM505.997 657c12.667 0 17 -6 13 -18
l-146 -447h47l146 447c4 12 12 18 24 18h164c12.667 0 17 -6 13 -18l-146 -447h47l146 447c4 12 11.667 18 23 18h164c12.667 0 17 -6 13 -18l-202 -620c-4 -12.667 -12 -19 -24 -19h-617c-24 -0 -43 7.33301 -57 22s-23.667 32.5 -29 53.5s-7.5 43.167 -6.5 66.5
s4.5 44 10.5 62l142 435c4 12 12 18 24 18h251z" />
    <glyph glyph-name="FL007Bh" unicode="x" horiz-adv-x="569" 
d="M210 15c-5.33301 -10 -13.3359 -15 -24.0029 -15h-164c-6 0 -10.167 2.16699 -12.5 6.5s-1.83301 9.5 1.5 15.5l154 303l46 311c0.666992 6 3.33398 11 8.00098 15s10 6 16 6h164c10 0 15 -4.66699 15 -14l-21 -148c12.667 24.667 24.834 49.167 36.501 73.5
s23.5 48.833 35.5 73.5c1.33301 4 4.33301 7.5 9 10.5s9 4.5 13 4.5h251c6 0 10.333 -2.16699 13 -6.5s2.33398 -9.5 -0.999023 -15.5l-161 -300l-38 -313c-0.666992 -6 -3.66699 -11.167 -9 -15.5s-11 -6.5 -17 -6.5h-251c-4 0 -7.5 1.5 -10.5 4.5
s-3.83301 6.83301 -2.5 11.5l23 145zM320.997 271l-41 -252h251l38 316l164 304h-251l-124 -253l36 253h-164l-46 -315l-156 -305h164z" />
    <glyph glyph-name="FL0079h" unicode="y" 
d="M620 204c-6 -18 -15.834 -38.666 -29.501 -61.999s-30.167 -45.5 -49.5 -66.5s-40.666 -38.833 -63.999 -53.5s-47 -22 -71 -22h-369c-12.667 0 -17 6.33301 -13 19l50 154c4 12.667 12.333 19 25 19h316l13 38h-187c-24 0 -43 7.33301 -57 22s-23.667 32.5 -29 53.5
s-7.5 43.167 -6.5 66.5s4.5 43.666 10.5 60.999l67 206c4 12 12 18 24 18h251c12.667 0 17 -6 13 -18l-71 -218h47l71 218c4 12 12 18 24 18h164c12.667 0 17 -6 13 -18zM743.999 639.001h-164.004l-77 -236h-84l77 236h-251l-67 -206
c-5.33301 -16 -8.66602 -34.667 -9.99902 -56s0.333984 -41.5 5.00098 -60.5s12.834 -35.167 24.501 -48.5s28.167 -20 49.5 -20h206l-25 -75h-335l-50 -154h369c20.667 0 41.334 6.66699 62.001 20s39.5 29.5 56.5 48.5s31.833 39.167 44.5 60.5s21.667 40 27 56z" />
    <glyph glyph-name="FL007Ah" unicode="z" horiz-adv-x="523" 
d="M628 436l-251 -244h153c12 0 16 -6.33301 12 -19l-50 -154c-4 -12.667 -12 -19 -24 -19h-433c-12 -0 -16 6.33301 -12 19l66 203l250 244h-153c-12 0 -16 6 -12 18l51 155c4 12 11.667 18 23 18h433c12.667 0 17 -6 13 -18zM676 639h-433l-51 -155h189l-275 -267
l-65 -198h433l50 154h-189l277 269z" />
    <glyph glyph-name="FL007Ch" unicode="{" 
d="M227 651c6 18 15.999 39 29.999 63s30.833 46.667 50.5 68s41.334 39.5 65.001 54.5s48.167 22.5 73.5 22.5h377c12.667 0 17 -6.33301 13 -19l-267 -821c-4 -12.667 -12.333 -19 -25 -19h-167c-12.667 -0 -17 6.33301 -13 19l88 271h-48l-88 -271
c-4 -12.667 -12.333 -19 -25 -19h-257c-12.667 -0 -17 6.33301 -13 19zM572.999 663h-48l-56 -174h48zM529.999 470h-86l69 212h86zM39.999 19h257l94 290h86l-94 -290h167l267 821h-377c-22 0 -43.5 -6.83301 -64.5 -20.5s-40.167 -30.167 -57.5 -49.5s-32.333 -40 -45 -62
s-21.667 -41 -27 -57z" />
    <glyph glyph-name="FL007Eh" unicode="|" horiz-adv-x="509" 
d="M434 177l164 505h86l51 158h-429l-51 -158h86l-164 -505h-86l-52 -158h429l52 158h-86zM526 196c12.667 0 17.001 -6.33301 13.001 -19l-52 -158c-4 -12.667 -12.333 -19 -25 -19h-429c-12.667 -0 -17 6.33301 -13 19l52 158c4 12.667 12.333 19 25 19h67l151 467h-67
c-12.667 0 -16.667 6.33301 -12 19l51 158c4 12.667 12.333 19 25 19h429c12.667 0 17 -6.33301 13 -19l-51 -158c-4.66699 -12.667 -13.334 -19 -26.001 -19h-67l-151 -467h67z" />
    <glyph glyph-name="FL007Dh" unicode="}" 
d="M34 0c-12.667 0 -17.001 6.33203 -13.001 18.999l145 445c6 18 16 38.833 30 62.5s30.833 46.334 50.5 68.001s41.334 40 65.001 55s48.167 22.5 73.5 22.5h377c12.667 0 17 -6.33301 13 -19l-206 -634c-4 -12.667 -12.333 -19 -25 -19h-167
c-12.667 -0 -17 6.33301 -13 19l63 192h-48l-63 -192c-4 -12.667 -12.333 -19 -25 -19h-257zM512.999 475.999h-48l-22 -66h48zM503.999 390.999h-86l34 104h86zM296.999 18.999l69 211.002h86l-69 -211h167l206 634h-377c-22 0 -43.5 -6.83301 -64.5 -20.5
s-40.167 -30.334 -57.5 -50.001s-32.333 -40.334 -45 -62.001s-21.667 -40.5 -27 -56.5l-145 -445h257z" />
    <glyph glyph-name="FL0030h" unicode="~" 
d="M166 464c6 18 15.998 38.833 29.998 62.5s30.833 46.334 50.5 68.001s41.334 40 65.001 55s48.167 22.5 73.5 22.5h245c24.667 0 44.167 -7.5 58.5 -22.5s24.333 -33.333 30 -55s7.83398 -44.334 6.50098 -68.001s-5 -44.5 -11 -62.5l-83 -256
c-6 -18 -16.167 -39 -30.5 -63s-31.166 -46.667 -50.499 -68s-41 -39.5 -65 -54.5s-48.333 -22.5 -73 -22.5h-245c-25.333 0 -45 7.5 -59 22.5s-23.833 33.167 -29.5 54.5s-7.83398 44 -6.50098 68s5 45 11 63zM517.998 476h-53l-91 -280h53zM438.998 177h-90l103 318h90z
M101.998 208c-5.33301 -16 -8.83203 -35 -10.499 -57s-0.166992 -42.667 4.5 -62s13.167 -35.833 25.5 -49.5s29.5 -20.5 51.5 -20.5h245c21.333 0 42.5 6.83301 63.5 20.5s40.167 30.167 57.5 49.5s32.5 40 45.5 62s22.167 41 27.5 57l83 256
c5.33301 16 8.66602 34.833 9.99902 56.5s-0.5 42.334 -5.5 62.001s-13.5 36.334 -25.5 50.001s-28.667 20.5 -50 20.5h-245c-22 0 -43.5 -6.83301 -64.5 -20.5s-40.167 -30.334 -57.5 -50.001s-32.333 -40.334 -45 -62.001s-21.667 -40.5 -27 -56.5z" />
    <glyph glyph-name="FL007Fh" horiz-adv-x="175" 
 />
    <glyph glyph-name="FL00A1h" unicode="&#xa1;" horiz-adv-x="327" 
d="M489 621h-256l-196 -602h256zM516 840h-168l-52 -159h168zM483 681c-4 -12.667 -12.333 -19 -25 -19h-168c-12.667 0 -17 6.33301 -13 19l52 159c4 12.667 12.333 19 25 19h168c12.667 0 17 -6.33301 13 -19zM312 19c-4 -12.667 -12.333 -19 -25 -19h-256
c-12.667 -0 -17 6.33301 -13 19l196 602c4 12 12.333 18 25 18h256c12.667 0 17 -6 13 -18z" />
    <glyph glyph-name="FL00A2h" unicode="&#xa2;" horiz-adv-x="502" 
d="M127 289c-5.33301 -16.667 -8.83203 -35.8291 -10.499 -57.4961s-0.166992 -42.334 4.5 -62.001s13.167 -36.334 25.5 -50.001s29.5 -20.5 51.5 -20.5h46l-26 -80h167l26 80h76l52 158h-166l50 156h166l52 158h-76l26 82h-167l-26 -82h-46
c-22 0 -43.5 -6.66699 -64.5 -20s-40.333 -29.833 -58 -49.5s-32.834 -40.334 -45.501 -62.001s-21.667 -40.834 -27 -57.501zM138.001 382.005c6 18 16.167 39 30.5 63s31.333 46.667 51 68s41.334 39.5 65.001 54.5s48.167 22.5 73.5 22.5h27l20 63
c4 12.667 12.333 19 25 19h167c12.667 0 17 -6.33301 13 -19l-20 -63h57c12.667 0 17 -6.33301 13 -19l-52 -158c-4 -12.667 -12.333 -19 -25 -19h-147l-38 -118h147c12.667 0 17 -6.33301 13 -19l-52 -158c-4 -12.667 -12.333 -19 -25 -19h-57l-20 -61
c-4 -12.667 -12.333 -19 -25 -19h-167c-12.667 0 -17 6.33301 -13 19l20 61h-27c-25.333 0 -45 7.5 -59 22.5s-23.833 33.333 -29.5 55s-7.83398 44.5 -6.50098 68.5s5 45 11 63z" />
    <glyph glyph-name="FL00A3h" unicode="&#xa3;" horiz-adv-x="575" 
d="M117 256l69 0.00195312l-25 -76h-69l-52 -161h491l52 158h-166l25 79h103l52 161h-103l26 78h45l51 158h-168c-22 0 -43.5 -6.83301 -64.5 -20.5s-40.167 -30.334 -57.5 -50.001s-32.333 -40.334 -45 -62.001s-21.667 -40.5 -27 -56.5l-16 -47h-69zM150 417.002
c4.66699 12.667 13.3311 18.999 25.998 18.999h50l9 28c6 18 16 38.833 30 62.5s30.833 46.334 50.5 68.001s41.334 40 65.001 55s48.167 22.5 73.5 22.5h168c12.667 0 17 -6.33301 13 -19l-51 -158c-4 -12.667 -12.333 -19 -25 -19h-26l-13 -40h84
c12.667 0 16.667 -6.33301 12 -19l-52 -161c-4 -12.667 -12.333 -19 -25 -19h-84l-13 -41h147c12.667 0 17 -6.33301 13 -19l-52 -158c-4 -12.667 -12.333 -19 -25 -19h-491c-12.667 0 -17 6.33301 -13 19l52 161c4.66699 12.667 13.334 19 26.001 19h50l12 38h-50
c-12.667 0 -17 6.33301 -13 19z" />
    <glyph glyph-name="FL00A4h" unicode="&#xa4;" horiz-adv-x="569" 
d="M356 468h71l-85 -262h-71zM283 19h256l39 323l167 311h-256l-25 -54h-72l7 54h-167l-47 -322l-159 -312h167l30 57h70zM270 57l-37 -0.00195312c-4 -7.33301 -7.66699 -14.166 -11 -20.499s-7 -13.166 -11 -20.499c-1.33301 -4 -4.5 -7.66699 -9.5 -11
s-9.83301 -5 -14.5 -5h-167c-6.66699 0 -11.167 2.16699 -13.5 6.5s-1.83301 9.83301 1.5 16.5l158 309l46 318c0.666992 6 3.5 11.167 8.5 15.5s10.833 6.5 17.5 6.5h167c4.66699 0 8.5 -1.66699 11.5 -5s3.83301 -7 2.5 -11l-5 -38h39l18 38c2 4 5.5 7.66699 10.5 11
s9.5 5 13.5 5h256c6.66699 0 11.167 -2.33301 13.5 -7s1.83301 -10 -1.5 -16l-165 -307l-39 -319c-0.666992 -6.66699 -3.5 -12.167 -8.5 -16.5s-10.833 -6.5 -17.5 -6.5h-256c-4 0 -7.16699 1.66699 -9.5 5s-3.83301 7 -4.5 11zM296 224.998h33l73 224h-33z" />
    <glyph glyph-name="FL00A5h" unicode="&#xa5;" horiz-adv-x="569" 
d="M115 249h106l-2 -35h-115l-52 -160h118l-12 -35h257l12 35h112l52 160h-108l21 35h98l52 160h-54l145 244h-256l-90 -148v148h-167l-7 -244h-58zM148 409c4 12.667 12.3359 19 25.0029 19h33l6 219c0 6.66699 2.66699 12.5 8 17.5s11.333 7.5 18 7.5h167
c4 0 7.16699 -1.5 9.5 -4.5s3.83301 -6.16699 4.5 -9.5l1 -88c9.33301 15.333 18.166 29.833 26.499 43.5s16.833 28.167 25.5 43.5c3.33301 4 7.16602 7.5 11.499 10.5s8.16602 4.5 11.499 4.5h256c7.33301 0 11.833 -2.5 13.5 -7.5s0.833984 -10.5 -2.49902 -16.5
l-131 -220h29c12.667 0 17 -6.33301 13 -19l-52 -160c-3.33301 -9.33301 -9.33301 -15.333 -18 -18c6.66699 -2.66699 9 -8.33398 7 -17.001l-52 -160c-4.66699 -12.667 -13.334 -19 -26.001 -19h-94l-5 -16c-4 -12.667 -12 -19 -24 -19h-257c-12.667 0 -17 6.33301 -13 19
l5 16h-99c-12.667 0 -16.667 6.33301 -12 19l52 160c2 6.66699 7.33301 12.334 16 17.001c-6 3.33301 -7.66699 9.33301 -5 18z" />
    <glyph glyph-name="FL00A6h" unicode="&#xa6;" horiz-adv-x="509" 
d="M434 177l103 318h86l51 158h-429l-51 -158h86l-103 -318h-86l-52 -158h429l52 158h-86zM526 196c12.667 0 17 -6.33301 13 -19l-52 -158c-4 -12.667 -12.333 -19 -25 -19h-429c-12.667 -0 -17 6.33301 -13 19l52 158c4 12.667 12.333 19 25 19h67l91 280h-67
c-12.667 0 -17 6.33301 -13 19l51 158c4 12.667 12.333 19 25 19h429c12.667 0 17 -6.33301 13 -19l-51 -158c-4 -12.667 -12.333 -19 -25 -19h-67l-91 -280h67z" />
    <glyph glyph-name="FL00A7h" unicode="&#xa7;" horiz-adv-x="569" 
d="M415 203h-71l85 262h71zM203 343l-177.003 -324h256l27 54h88c16.667 0 33.334 5.66699 50.001 17s31.834 25 45.501 41s25.667 33 36 51s17.5 33.667 21.5 47l37 112l158 312h-167l-28 -57h-175c-17.333 0 -34.166 -5.66699 -50.499 -17s-31.5 -25 -45.5 -41
s-26.167 -33 -36.5 -51s-17.5 -33.667 -21.5 -47zM202.997 440c4.66699 14.667 12.835 32.0039 24.502 52.0039s25.5 39.167 41.5 57.5s33.667 33.833 53 46.5s39 19 59 19h159c4 7.33301 7.33301 14.166 10 20.499s6 13.166 10 20.499c2 4 5.33301 7.66699 10 11
s9.33398 5 14.001 5h167c6.66699 0 11.167 -2.33301 13.5 -7s1.83301 -10 -1.5 -16l-159 -312l-35 -108c-4.66699 -15.333 -12.834 -33 -24.501 -53s-25.5 -39 -41.5 -57s-33.667 -33.333 -53 -46s-39 -19 -59 -19h-72l-19 -38c-1.33301 -4 -4.5 -7.66699 -9.5 -11
s-9.83301 -5 -14.5 -5h-256c-6.66699 0 -11.167 2.16699 -13.5 6.5s-1.83301 9.83301 1.5 16.5l177 323c3.33301 15.333 6.16602 30.666 8.49902 45.999s5.16602 30.666 8.49902 45.999zM474.998 446.004h-33l-73 -224h33z" />
    <glyph glyph-name="FL00A8h" unicode="&#xa8;" horiz-adv-x="467" 
d="M258 694h187l52 159h-187zM499 694h147l52 159h-147zM532 853c4 12.667 12.333 19 25 19h147c12.667 0 17 -6.33301 13 -19l-52 -159c-4 -12.667 -12.333 -19 -25 -19h-147c-12.667 0 -17 6.33301 -13 19zM291 853c4 12.667 12.333 19 25 19h187
c12.667 0 17 -6.33301 13 -19l-52 -159c-4 -12.667 -12.333 -19 -25 -19h-187c-12.667 0 -17 6.33301 -13 19z" />
    <glyph glyph-name="copyright" unicode="&#xa9;" horiz-adv-x="276" 
d="M401 709c-12 -18.667 -27.6689 -28 -47.002 -28c-25.333 0 -33 15.333 -23 46c10.667 32 29.334 48 56.001 48c15.333 0 24 -8 26 -24l18 4c0.666992 24.667 -12.333 37 -39 37c-18 0 -34.333 -5.33301 -49 -16s-25.667 -27 -33 -49
c-7.33301 -21.333 -7.16602 -37.333 0.500977 -48s20.5 -16 38.5 -16c30 0 53 14 69 42zM400.998 822c16.667 0 30.5 -4.16797 41.5 -12.501s19.167 -19.833 24.5 -34.5c4.66699 -11.333 3.66699 -27.333 -3 -48c-5.33301 -17.333 -14.666 -32.666 -27.999 -45.999
c-14.667 -16.667 -30 -28.334 -46 -35.001c-16 -8 -32.667 -12 -50 -12c-18 0 -32.333 4 -43 12c-12.667 10.667 -20.667 22.334 -24 35.001c-2.66699 14 -1.66699 29.333 3 46c6 17.333 15.333 33.333 28 48c13.333 16 28.666 27.833 45.999 35.5s34.333 11.5 51 11.5z
M406.998 839.999c-10 0 -30.001 -4.33301 -60.001 -13c-23.333 -11.333 -41.666 -25.666 -54.999 -42.999c-17.333 -19.333 -29 -38.333 -35 -57c-6 -20 -6.66699 -38.333 -2 -55c2.66699 -10.667 6.16699 -19 10.5 -25s9.83301 -12 16.5 -18c14.667 -9.33301 32 -14 52 -14
c2 0 8 1.16699 18 3.5s24.333 5.83301 43 10.5c11.333 6 21.5 12 30.5 18s17.167 14.333 24.5 25c16.667 16.667 28 35 34 55c6.66699 20.667 7.66699 39.667 3 57c-4 17.333 -13.667 31.666 -29 42.999c-23.333 8.66699 -40.333 13 -51 13zM412.997 858.999
c4.66699 0 11.5 -1.16797 20.5 -3.50098s21.167 -5.83301 36.5 -10.5c18.667 -14.667 31 -31.667 37 -51c2 -10 2.66699 -21 2 -33s-2.66699 -23.333 -6 -34c-6.66699 -22 -19.667 -43.667 -39 -65v1c-9.33301 -12 -19.166 -21.667 -29.499 -29
s-22.833 -14.666 -37.5 -21.999c-38.667 -10.667 -61.667 -16 -69 -16c-24 0 -44.333 5.66699 -61 17c-15.333 11.333 -25.666 27.666 -30.999 48.999c-2 10.667 -3 21.667 -3 33s1.66699 22 5 32c7.33301 21.333 20.666 43.333 39.999 66c8 10.667 17.667 20.167 29 28.5
s23.666 15.833 36.999 22.5c17.333 4.66699 31.833 8.33398 43.5 11.001s20.167 4 25.5 4zM394.997 802.998c13.333 0 24.3301 -2.99707 32.9971 -8.99707c4.66699 -4 8.66699 -8.33301 12 -13s5.66602 -10.334 6.99902 -17.001l1 1
c2.66699 -10.667 1.66699 -23.334 -3 -38.001c-4 -13.333 -11 -25.333 -21 -36c-11.333 -14 -24 -23.667 -38 -29c-13.333 -6 -26.666 -9 -39.999 -9c-7.33301 0 -13.5 0.666992 -18.5 2s-9.83301 3.33301 -14.5 6c-3.33301 4 -7.16602 8.66699 -11.499 14
s-7.16602 10.666 -8.49902 15.999v-1c-2.66699 10 -2 22.333 2 37c5.33301 16 13 29 23 39v-1c11.333 13.333 23.833 23 37.5 29s26.834 9 39.501 9zM411.994 727.001c-11.333 2.66699 -20.334 -1.33398 -27.001 -12.001c-6 -10 -14.333 -15 -25 -15c-12.667 0 -16 9 -10 27
c6 19.333 16.333 29 31 29c6 0 10 -4.33301 12 -13c0.666992 -3.33301 2.66699 -6.16602 6 -8.49902s7 -3.16602 11 -2.49902l18 4c6 1.33301 11.167 4.16602 15.5 8.49902s6.83301 9.5 7.5 15.5c2 34 -15.333 51 -52 51c-24 0 -45.5 -7 -64.5 -21s-33.167 -35 -42.5 -63
s-9.16602 -48.833 0.500977 -62.5s26.5 -20.5 50.5 -20.5c37.333 0 67.666 18.667 90.999 56c3.33301 5.33301 4.33301 10.333 3 15s-4.66602 7.66699 -9.99902 9z" />
    <glyph glyph-name="FL00AAh" unicode="&#xaa;" 
d="M371 256l-25 -79h-86l25 79h86zM695 464c5.33301 16 8.66699 34.8311 10 56.498s-0.5 42.334 -5.5 62.001s-13.5 36.334 -25.5 50.001s-28.667 20.5 -50 20.5h-378l-51 -158h254l-26 -78h-254l-129 -398h510zM569.001 18.998c-4 -12.667 -12.335 -18.999 -25.002 -18.999
h-510c-12.667 0 -17 6.33301 -13 19l129 398c4.66699 12.667 13.334 19 26.001 19h235l13 40h-235c-12.667 0 -17 6.33301 -13 19l51 158c4 12.667 12.333 19 25 19h378c24.667 0 44.167 -7.5 58.5 -22.5s24.333 -33.333 30 -55s7.83398 -44.334 6.50098 -68.001
s-5 -44.5 -11 -62.5zM297.999 236.999l-13 -41h48l13 41h-48z" />
    <glyph glyph-name="FL00ABh" unicode="&#xab;" horiz-adv-x="443" 
d="M517 348c8 -2.66699 10.3311 -8.66699 6.99805 -18l-61 -187c-2 -7.33301 -6.16699 -13 -12.5 -17s-12.166 -4.33301 -17.499 -1l-139 63c-7.33301 2.66699 -9.33301 8.66699 -6 18l85 262c2.66699 8.66699 8.66699 14.667 18 18l180 64
c7.33301 2.66699 13 2.16699 17 -1.5s4.66699 -9.16699 2 -16.5l-48 -148c-3.33301 -9.33301 -9.66602 -15.333 -18.999 -18l-32 -9zM309.998 348c8 -2.66699 10.3301 -8.66699 6.99707 -18l-61 -187c-2 -7.33301 -6.16699 -13 -12.5 -17s-12.166 -4.33301 -17.499 -1
l-139 63c-7.33301 3.33301 -9.66602 9.33301 -6.99902 18l85 262c1.33301 3.33301 3.83301 6.83301 7.5 10.5s7.5 6.16699 11.5 7.5l180 64c7.33301 2.66699 13 2.16699 17 -1.5s4.66699 -9.16699 2 -16.5l-48 -148c-3.33301 -9.33301 -9.66602 -15.333 -18.999 -18l-32 -9z
M220.995 357l95 27l48 148l-180 -64l-85 -262l138 -63l61 187zM427.995 357l95 27l48 148l-180 -64l-85 -262l138 -63l61 187z" />
    <glyph glyph-name="FL00ACh" unicode="&#xac;" horiz-adv-x="406" 
d="M167 417l-52 -161h170l-35 -107h161l87 268h-331zM505 436c12.667 0 16.667 -6.33301 12 -19l-87 -268c-3.33301 -12 -11.333 -18 -24 -18h-161c-12.667 0 -17.334 6 -14.001 18l29 88h-151c-12.667 0 -17 6.33301 -13 19l52 161c4.66699 12.667 13.334 19 26.001 19h331
z" />
    <glyph glyph-name="FL00ADh" unicode="&#xad;" horiz-adv-x="277" 
d="M113 256h209l52 161h-209zM146 417c4.66699 12.667 13.333 19 26 19h209c12.667 0 16.667 -6.33301 12 -19l-52 -161c-4 -12.667 -12.333 -19 -25 -19h-209c-12.667 0 -17 6.33301 -13 19z" />
    <glyph glyph-name="FL00AEh" unicode="&#xae;" horiz-adv-x="276" 
d="M343 733l11.999 36.999h21c12.667 0 19.334 -0.333008 20.001 -1c6.66699 -3.33301 8.66699 -9.33301 6 -18c-2 -5.33301 -5.66699 -9.66602 -11 -12.999s-14 -5 -26 -5h-22zM301.999 665.999h19l17 51h11c7.33301 0 12 -1.33301 14 -4
c1.33301 -2 2.83301 -5.5 4.5 -10.5s4.16699 -11.167 7.5 -18.5l3 -18h25l-8 25c-3.33301 8.66699 -5.83301 14.834 -7.5 18.501s-5.16699 7.16699 -10.5 10.5c24.667 3.33301 40 14.666 46 33.999c2 6 2 12 0 18c-1.33301 4 -5 7.66699 -11 11
c-3.33301 2.66699 -13.333 4 -30 4h-40zM400.999 821.999c16.667 0 30.5 -4.16797 41.5 -12.501s19.167 -19.833 24.5 -34.5c4.66699 -11.333 3.66699 -27.333 -3 -48c-5.33301 -17.333 -14.666 -32.666 -27.999 -45.999c-14.667 -16.667 -30 -28.334 -46 -35.001
c-16 -8 -32.667 -12 -50 -12c-18 0 -32.333 4 -43 12c-12.667 10.667 -20.667 22.334 -24 35.001c-2.66699 14 -1.66699 29.333 3 46c6 17.333 15.333 33.333 28 48c13.333 16 28.666 27.833 45.999 35.5s34.333 11.5 51 11.5zM406.999 839.998
c-10 0 -30.001 -4.33301 -60.001 -13c-23.333 -11.333 -41.666 -25.666 -54.999 -42.999c-17.333 -19.333 -29 -38.333 -35 -57c-6 -20 -6.66699 -38.333 -2 -55c2.66699 -10.667 6.16699 -19 10.5 -25s9.83301 -12 16.5 -18c14.667 -9.33301 32 -14 52 -14
c2 0 8 1.16699 18 3.5s24.333 5.83301 43 10.5c11.333 6 21.5 12 30.5 18s17.167 14.333 24.5 25c16.667 16.667 28 35 34 55c6.66699 20.667 7.66699 39.667 3 57c-4 17.333 -13.667 31.666 -29 42.999c-23.333 8.66699 -40.333 13 -51 13zM412.998 858.998
c4.66699 0 11.5 -1.16797 20.5 -3.50098s21.167 -5.83301 36.5 -10.5c18.667 -14.667 31 -31.667 37 -51c2 -10 2.66699 -21 2 -33s-2.66699 -23.333 -6 -34c-6.66699 -22 -19.667 -43.667 -39 -65v1c-9.33301 -12 -19.166 -21.667 -29.499 -29
s-22.833 -14.666 -37.5 -21.999c-38.667 -10.667 -61.667 -16 -69 -16c-24 0 -44.333 5.66699 -61 17c-15.333 11.333 -25.666 27.666 -30.999 48.999c-2 10.667 -3 21.667 -3 33s1.66699 22 5 32c7.33301 21.333 20.666 43.333 39.999 66c8 10.667 17.667 20.167 29 28.5
s23.666 15.833 36.999 22.5c17.333 4.66699 31.833 8.33398 43.5 11.001s20.167 4 25.5 4zM394.998 802.997c-12.667 0 -25.8311 -3.00293 -39.498 -9.00293s-26.167 -15.667 -37.5 -29v1c-10 -10 -17.667 -23 -23 -39c-4 -14.667 -4.66699 -27 -2 -37v1
c1.33301 -5.33301 4.16602 -10.666 8.49902 -15.999s8.16602 -10 11.499 -14c4.66699 -2.66699 9.5 -4.66699 14.5 -6s11.167 -2 18.5 -2c13.333 0 26.666 3 39.999 9c14 5.33301 26.667 15 38 29c10 10.667 17 22.667 21 36c4.66699 14.667 5.66699 27.334 3 38.001l-1 -1
c-1.33301 6.66699 -3.66602 12.334 -6.99902 17.001s-7.33301 9 -12 13c-8.66699 6 -19.667 9 -33 9zM283.001 665.994c-4 -12.667 0.332031 -18.999 12.999 -18.999h19c12.667 0 21 6.33301 25 19l9 26l4 -11l2 -6l3 -18c1.33301 -2 3.33301 -4.16699 6 -6.5
s5.33398 -3.5 8.00098 -3.5h25c8 0 15.167 3.16699 21.5 9.5s7.83301 12.833 4.5 19.5l-10 26c-0.666992 4 -2 7.33301 -4 10c7.33301 5.33301 13.833 11.5 19.5 18.5s10.167 14.833 13.5 23.5c3.33301 9.33301 3.33301 18.666 0 27.999v-1
c-3.33301 8.66699 -8.33301 14.667 -15 18c-5.33301 4.66699 -18.333 7 -39 7h-40c-12.667 0 -21 -6.33301 -25 -19zM368 751.995l6 18l-25 -19h21c8 0 11.667 0.333008 11 1h-10h-3zM383 750.995c-0.666992 0.666992 -1.33301 1 -2 1l1 -1h1z" />
    <glyph glyph-name="FL00AFh" unicode="&#xaf;" horiz-adv-x="447" 
d="M642 681c-4 -12.667 -12.333 -19 -25 -19h-370c-12.667 0 -17 6.33301 -13 19l52 159c4 12.667 12.333 19 25 19h370c12.667 0 17 -6.33301 13 -19zM675 840h-370l-52 -159h370z" />
    <glyph glyph-name="FL00B0h" unicode="&#xb0;" horiz-adv-x="254" 
d="M352 797h61l-16 -48h-61zM255 694h187l52 159h-187zM288 853c4 12.667 12.333 19 25 19h187c12.667 0 17 -6.33301 13 -19l-52 -159c-4 -12.667 -12.333 -19 -25 -19h-187c-12.667 0 -17 6.33301 -13 19zM362 768h23l3 11h-23z" />
    <glyph glyph-name="FL00B1h" unicode="&#xb1;" horiz-adv-x="451" 
d="M90 180l-52 -161h374l52 161h-374zM334 604l-34 -106h-106l-53 -161h106l-34 -107h161l34 107h107l53 161h-107l34 106h-161zM501 622c12.667 0 17 -6 13 -18l-28 -88h88c12.667 0 17 -6 13 -18l-53 -161c-4 -12.667 -12.333 -19 -25 -19h-88l-28 -88
c-4 -12.667 -12.333 -19 -25 -19h-161c-12.667 0 -17 6.33301 -13 19l28 88h-87c-12.667 0 -17 6.33301 -13 19l53 161c4 12 12.333 18 25 18h87l28 88c4 12 12.333 18 25 18h161zM471 199c12.667 0 16.666 -6.33301 11.999 -19l-52 -161c-4 -12.667 -12.333 -19 -25 -19
h-374c-12.667 -0 -17 6.33301 -13 19l52 161c4.66699 12.667 13.334 19 26.001 19h374z" />
    <glyph glyph-name="FL00B2h" unicode="&#xb2;" horiz-adv-x="313" 
d="M242 709c2.66699 5.33301 5 9.33301 7 12c-0.666992 2 -0.333984 6 0.999023 12l35 107c4 12.667 12.333 19 25 19h170c14.667 0 26.334 -4.5 35.001 -13.5s14.834 -20 18.501 -33s5.16699 -26.5 4.5 -40.5s-2.66699 -26.333 -6 -37l-37 -114c-2 -6 -4.66699 -10 -8 -12
c2 -2.66699 2.33301 -6 1 -10l-35 -108c-4.66699 -12.667 -13.334 -19 -26.001 -19h-243c-12.667 0 -16.667 6.33301 -12 19zM191 491h242.999l35 108h-98l7 22h98l37 114c2.66699 8.66699 4.33398 19 5.00098 31s-0.333008 23.5 -3 34.5s-7.16699 20.333 -13.5 28
s-15.5 11.5 -27.5 11.5h-170l-35 -107h97l-8 -24h-97z" />
    <glyph glyph-name="FL00B3h" unicode="&#xb3;" horiz-adv-x="302" 
d="M511 704c-3.33301 -6 -7.5 -12.832 -12.5 -20.499s-10.167 -14.167 -15.5 -19.5c1.33301 -5.33301 2.16602 -12.5 2.49902 -21.5s-0.166992 -16.167 -1.5 -21.5l-9 -26c-3.33301 -10.667 -9.16602 -23 -17.499 -37s-18.5 -27.333 -30.5 -40s-25.333 -23.5 -40 -32.5
s-29.334 -13.5 -44.001 -13.5h-160c-12.667 0 -16.667 6.33301 -12 19l35 108c2 6.66699 6.33301 11.667 13 15c-0.666992 0.666992 -0.333984 3 0.999023 7l29 89c0.666992 3.33301 1.66699 5.66602 3 6.99902c-4 4 -5 9.33301 -3 16l35 107c4 12.667 12.333 19 25 19h160
c14.667 0 26.334 -4.5 35.001 -13.5s14.834 -20 18.501 -33s5.16699 -26.5 4.5 -40.5s-2.66699 -26.333 -6 -37zM502 735.001c2.66699 8.66699 4.33105 18.999 4.99805 30.999s-0.166016 23.5 -2.49902 34.5s-6.83301 20.333 -13.5 28s-16 11.5 -28 11.5h-160l-35 -107h87
l-7 -23h-80l-29 -89h80l-7 -22h-87l-35 -108h160c12 0 23.833 3.83301 35.5 11.5s22.167 16.834 31.5 27.501s17.5 22 24.5 34s11.833 22.333 14.5 31l9 26c2 6.66699 2.5 14 1.5 22s-3.16699 15.333 -6.5 22c6.66699 5.33301 12.834 12 18.501 20s10.5 15.667 14.5 23z" />
    <glyph glyph-name="FL00B4h" unicode="&#xb4;" horiz-adv-x="199" 
d="M358 853l-103 -159h135l116 159h-148zM512 872c7.33301 0 11.998 -2.5 13.998 -7.5s0.666992 -10.833 -4 -17.5l-115 -159c-3.33301 -3.33301 -7.16602 -6.33301 -11.499 -9s-8.16602 -4 -11.499 -4h-135c-6.66699 0 -11 2.5 -13 7.5s-1 10.833 3 17.5l103 159
c6 8.66699 13.333 13 22 13h148z" />
    <glyph glyph-name="FL00B5h" unicode="&#xb5;" 
d="M756 653h-256l-154 -476h-86l154 476h-168l-206 -634h378c21.333 0 42.5 6.83301 63.5 20.5s40.167 30.167 57.5 49.5s32.5 40 45.5 62s22.167 41 27.5 57zM631 208c-6 -18 -16.168 -39 -30.501 -63s-31.166 -46.667 -50.499 -68s-41 -39.5 -65 -54.5
s-48.333 -22.5 -73 -22.5h-378c-12.667 -0 -17 6.33301 -13 19l206 634c4 12.667 12.333 19 25 19h168c12.667 0 17 -6.33301 13 -19l-148 -457h48l148 457c4 12.667 12.333 19 25 19h256c12.667 0 17 -6.33301 13 -19z" />
    <glyph glyph-name="FL00B6h" unicode="&#xb6;" horiz-adv-x="771" 
d="M639 682l40 0.00292969l-241 -741h256l292 899h-544c-22 0 -43.333 -6.83301 -64 -20.5s-39.667 -30.167 -57 -49.5s-32.333 -40 -45 -62s-21.667 -41 -27 -57l-50 -153c-5.33301 -16.667 -8.83301 -35.834 -10.5 -57.501s-0.166992 -42.334 4.5 -62.001
s13 -36.334 25 -50.001s29 -20.5 51 -20.5h81l-119 -367h167zM417 -58.9971c-4 -12.667 -12.333 -19 -25 -19h-167c-12.667 0 -17 6.33301 -13 19l113 348h-62c-25.333 0 -45 7.5 -59 22.5s-23.667 33.333 -29 55s-7.33301 44.5 -6 68.5s5 45 11 63l50 153c6 18 16 39 30 63
s30.667 46.667 50 68s40.833 39.5 64.5 54.5s48.167 22.5 73.5 22.5h544c12.667 0 17 -6.33301 13 -19l-292 -899c-4 -12.667 -12.333 -19 -25 -19h-256c-12.667 0 -17 6.33301 -13 19l234 722h-2z" />
    <glyph glyph-name="FL00B7h" unicode="&#xb7;" horiz-adv-x="233" 
d="M300 257c-4.66699 -12.667 -13.333 -19 -26 -19h-168c-12 0 -15.667 6.33301 -11 19l51 159c4 12.667 12 19 24 19h168c12.667 0 17 -6.33301 13 -19zM332.001 416h-168l-51 -159h168z" />
    <glyph glyph-name="FL00B8h" unicode="&#xb8;" horiz-adv-x="197" 
d="M34 19l-12 -38h-55l-40 -123h189l52 161h-134zM174 38c12 0 16 -6.33301 12 -19l-52 -161c-4 -12.667 -12 -19 -24 -19h-189c-12.667 0 -17 6.33301 -13 19l40 123c4 12.667 12.333 19 25 19h36l6 19c4 12.667 12.333 19 25 19h134z" />
    <glyph glyph-name="FL00BBh" unicode="&#xb9;" horiz-adv-x="251" 
d="M374 491l113 349h-184l-35 -107h40l-78 -242h144zM223 472c-12.667 0 -16.666 6.33301 -11.999 19l72 223h-21c-12.667 0 -17 6.33301 -13 19l35 107c4 12.667 12.333 19 25 19h184c12.667 0 17 -6.33301 13 -19l-113 -349c-4.66699 -12.667 -13.334 -19 -26.001 -19
h-144z" />
    <glyph glyph-name="FL00BAh" unicode="&#xba;" horiz-adv-x="353" 
d="M551 735c2.66699 8.66699 4.33301 19 5 31s-0.166016 23.5 -2.49902 34.5s-6.83301 20.333 -13.5 28s-16 11.5 -28 11.5h-135c-12 0 -23.833 -3.83301 -35.5 -11.5s-22.334 -17 -32.001 -28s-18 -22.5 -25 -34.5s-11.833 -22.333 -14.5 -31l-46 -140
c-2.66699 -8.66699 -4.33398 -19 -5.00098 -31s0.333008 -23.333 3 -34s7.33398 -19.834 14.001 -27.501s16 -11.5 28 -11.5h135c12 0 23.833 3.83301 35.5 11.5s22.167 16.834 31.5 27.501s17.5 22 24.5 34s11.833 22.333 14.5 31zM366.999 733h38l-43 -134h-38z
M523.999 595c-3.33301 -10.667 -9.16699 -23 -17.5 -37s-18.5 -27.333 -30.5 -40s-25.333 -23.5 -40 -32.5s-29.334 -13.5 -44.001 -13.5h-135c-15.333 0 -27.166 4.5 -35.499 13.5s-14.333 19.833 -18 32.5s-5.16699 26 -4.5 40s2.66699 26.333 6 37l46 140
c3.33301 10.667 9.16602 23 17.499 37s18.5 27.5 30.5 40.5s25.167 24 39.5 33s29.166 13.5 44.499 13.5h135c14.667 0 26.334 -4.5 35.001 -13.5s14.834 -20 18.501 -33s5.16699 -26.5 4.5 -40.5s-2.66699 -26.333 -6 -37z" />
    <glyph glyph-name="FL00BDh" unicode="&#xbb;" horiz-adv-x="443" 
d="M517 348c8 -2.66699 10.3311 -8.66699 6.99805 -18l-61 -187c-2 -7.33301 -6.16699 -13 -12.5 -17s-12.166 -4.33301 -17.499 -1l-139 63c-7.33301 2.66699 -9.33301 8.66699 -6 18l85 262c2.66699 8.66699 8.66699 14.667 18 18l180 64
c7.33301 2.66699 13 2.16699 17 -1.5s4.66699 -9.16699 2 -16.5l-48 -148c-3.33301 -9.33301 -9.66602 -15.333 -18.999 -18l-32 -9zM309.998 348c8 -2.66699 10.3301 -8.66699 6.99707 -18l-61 -187c-2 -7.33301 -6.16699 -13 -12.5 -17s-12.166 -4.33301 -17.499 -1
l-139 63c-7.33301 3.33301 -9.66602 9.33301 -6.99902 18l85 262c1.33301 3.33301 3.83301 6.83301 7.5 10.5s7.5 6.16699 11.5 7.5l180 64c7.33301 2.66699 13 2.16699 17 -1.5s4.66699 -9.16699 2 -16.5l-48 -148c-3.33301 -9.33301 -9.66602 -15.333 -18.999 -18l-32 -9z
M220.995 357l95 27l48 148l-180 -64l-85 -262l138 -63l61 187zM427.995 357l95 27l48 148l-180 -64l-85 -262l138 -63l61 187z" />
    <glyph glyph-name="FL00BEh" unicode="&#xbc;" horiz-adv-x="809" 
d="M321 304l113 349h-185l-35 -107h41l-78 -242h144zM589 368l-74 -227h135l-40 -122h146l114 349h-146l-39 -119h-37l39 119h-98zM210 19h165l323 634h-167zM513 656c6.66699 10.667 14.668 16 24.001 16h167c6 0 10.167 -2.33301 12.5 -7s2.16602 -10 -0.500977 -16
l-323 -634c-3.33301 -4 -7 -7.5 -11 -10.5s-8.33301 -4.5 -13 -4.5h-165c-6.66699 0 -11.167 2.16699 -13.5 6.5s-1.83301 9.83301 1.5 16.5zM693.001 387c8.66699 0 13 -4.66699 13 -14c6 9.33301 14 14 24 14h146c12 0 16 -6.33301 12 -19l-114 -349
c-4 -12.667 -12 -19 -24 -19h-146c-12.667 -0 -17 6.33301 -13 19l34 103h-116c-12.667 0 -17 6.33301 -13 19l74 227c4 12.667 12.333 19 25 19h98zM171.001 285c-12.667 0 -17 6.33301 -13 19l72 223h-22c-12.667 0 -17 6.33301 -13 19l35 107c4 12.667 12.333 19 25 19
h185c12.667 0 17 -6.33301 13 -19l-113 -349c-4 -12.667 -12.333 -19 -25 -19h-144z" />
    <glyph glyph-name="FL02E0h" unicode="&#xbd;" horiz-adv-x="769" 
d="M170 285c-12.667 0 -17 6.33301 -13 19l72 223h-21c-12.667 0 -17 6.33301 -13 19l35 107c4 12.667 12.333 19 25 19h184c12.667 0 17 -6.33301 13 -19l-113 -349c-4 -12.667 -12.333 -19 -25 -19h-144zM513 656c6.66699 10.667 14.666 16 23.999 16h166
c6 0 10.333 -2.33301 13 -7s2.33398 -10 -0.999023 -16l-322 -634c-3.33301 -4 -7.16602 -7.5 -11.499 -10.5s-8.5 -4.5 -12.5 -4.5h-166c-6 0 -10.333 2.16699 -13 6.5s-2.33398 9.83301 0.999023 16.5zM525.999 236c2 6 4.66699 10.333 8 13c-2 2.66699 -2 6.66699 0 12
l35 107c4 12.667 12.333 19 25 19h170c14.667 0 26.334 -4.5 35.001 -13.5s14.667 -20 18 -33s4.66602 -26.5 3.99902 -40.5s-2.66699 -26.333 -6 -37l-37 -114c-0.666992 -4 -3 -8 -7 -12c1.33301 -2 1.33301 -5.33301 0 -10l-35 -108c-4 -12.667 -12.333 -19 -25 -19h-243
c-12.667 -0 -17 6.33301 -13 19zM473.999 19h243.002l35 108h-97l7 22h97l37 114c2.66699 8.66699 4.66699 19 6 31s0.666016 23.5 -2.00098 34.5s-7.33398 20.333 -14.001 28s-16 11.5 -28 11.5h-170l-35 -107h97l-8 -25h-97zM209.001 19h166l322 634h-166zM320.001 304
l113 349h-184l-35 -107h40l-78 -242h144z" />
    <glyph glyph-name="FL0293h" unicode="&#xbe;" horiz-adv-x="844" 
d="M622 368l-74 -227h135l-40 -122h146l114 349h-146l-39 -119h-36l39 119h-99zM243 19h166l322 634h-166zM448 548c2.66699 8.66699 4.49609 19 5.49609 31s0.166992 23.5 -2.5 34.5s-7.16699 20.333 -13.5 28s-15.5 11.5 -27.5 11.5h-160l-35 -107h87l-7 -23h-81l-29 -89
h81l-7 -23h-87l-35 -107h160c12 0 23.667 3.66699 35 11s21.833 16.5 31.5 27.5s17.834 22.333 24.501 34s11.667 22.167 15 31.5l8 25c2.66699 7.33301 3.33398 14.833 2.00098 22.5s-3.66602 15.167 -6.99902 22.5c6 4.66699 12.333 11.167 19 19.5
s11.334 15.833 14.001 22.5zM456.996 516c-3.33301 -5.33301 -7.49707 -11.8301 -12.4971 -19.4971s-10.167 -14.167 -15.5 -19.5c1.33301 -6 2.16602 -13.5 2.49902 -22.5s-0.166992 -16.167 -1.5 -21.5l-8 -25c-3.33301 -10.667 -9.33301 -23 -18 -37
s-18.834 -27.333 -30.501 -40s-24.667 -23.5 -39 -32.5s-28.833 -13.5 -43.5 -13.5h-160c-12.667 0 -17 6.33301 -13 19l35 107c2 7.33301 6 12.666 12 15.999c-0.666992 0.666992 -0.333984 3 0.999023 7l29 89c0.666992 3.33301 1.66699 5.66602 3 6.99902
c-3.33301 5.33301 -4 10.666 -2 15.999l35 107c4 12.667 12.333 19 25 19h160c14.667 0 26.167 -4.5 34.5 -13.5s14.333 -20 18 -33s5.16699 -26.667 4.5 -41s-2.66699 -26.5 -6 -36.5zM546.999 656.003c6.66699 10.667 14.666 16 23.999 16h166c6 0 10.333 -2.33301 13 -7
s2.33398 -10 -0.999023 -16l-322 -634c-3.33301 -4 -7.16602 -7.5 -11.499 -10.5s-8.5 -4.5 -12.5 -4.5h-166c-6 0 -10.333 2.16699 -13 6.5s-2.33398 9.83301 0.999023 16.5zM726.998 387.003c8.66699 0 13 -4.66699 13 -14c6 9.33301 13.667 14 23 14h146
c12.667 0 17 -6.33301 13 -19l-114 -349c-4 -12.667 -12.333 -19 -25 -19h-146c-12 0 -16 6.33301 -12 19l34 103h-117c-12.667 0 -17 6.33301 -13 19l74 227c4 12.667 12.333 19 25 19h99z" />
    <glyph glyph-name="FL00BFh" unicode="&#xbf;" horiz-adv-x="523" 
d="M180 510c4 12.667 12.334 19 25.001 19h170l30 92c4 12 12.333 18 25 18h253c12.667 0 17 -6 13 -18l-89 -272c-4 -12.667 -12.333 -19 -25 -19h-170l-43 -134h170c12.667 0 17 -6.33301 13 -19l-52 -158c-4 -12.667 -12.333 -19 -25 -19h-309
c-25.333 0 -45 7.5 -59 22.5s-23.833 33.167 -29.5 54.5s-7.83398 44 -6.50098 68s5 45 11 63zM518.001 840c4 12.667 12.333 19 25 19h168c12.667 0 17 -6.33301 13 -19l-52 -159c-4 -12.667 -12.333 -19 -25 -19h-168c-12.667 0 -17 6.33301 -13 19zM485.001 681h168
l52 159h-168zM101.001 208c-5.33301 -16 -8.83301 -35 -10.5 -57s-0.166992 -42.667 4.5 -62s13.167 -35.833 25.5 -49.5s29.5 -20.5 51.5 -20.5h309l52 158h-189l55 172h189l89 272h-253l-36 -111h-189z" />
    <glyph glyph-name="FL00C0h" unicode="&#xc0;" 
d="M363 495h86l-34 -104h-86zM550 19l145.001 444.998c5.33301 16 8.66602 34.833 9.99902 56.5s-0.5 42.334 -5.5 62.001s-13.5 36.334 -25.5 50.001s-28.667 20.5 -50 20.5h-378l-206 -634h168l69 211h86l-69 -211h256zM615.001 853.998h-187l12 -159h176z
M636.001 700.998c0 -6.66699 -2.66797 -12.5 -8.00098 -17.5s-11.333 -7.5 -18 -7.5h-176c-8 0 -12.667 4.33301 -14 13l-11 159c-1.33301 6.66699 0.833984 12.5 6.50098 17.5s12.167 7.5 19.5 7.5h187c8.66699 0 13 -4.33301 13 -13zM288 -0.00195312
c-12.667 0 -17.001 6.33398 -13.001 19.001l63 192h-48l-63 -192c-4 -12.667 -12.333 -19 -25 -19h-168c-12.667 0 -17 6.33301 -13 19l206 634c4 12.667 12.333 19 25 19h378c24.667 0 44.167 -7.5 58.5 -22.5s24.333 -33.333 30 -55s7.83398 -44.334 6.50098 -68.001
s-5 -44.5 -11 -62.5l-145 -445c-4 -12.667 -12.333 -19 -25 -19h-256zM353.999 409.999h48l22 66h-48z" />
    <glyph glyph-name="FL00C1h" unicode="&#xc1;" 
d="M363 495h86l-34 -104h-86zM550 19l145.001 444.998c5.33301 16 8.66602 34.833 9.99902 56.5s-0.5 42.334 -5.5 62.001s-13.5 36.334 -25.5 50.001s-28.667 20.5 -50 20.5h-378l-206 -634h168l69 211h86l-69 -211h256zM522.001 852.998l-103 -159h135l116 159h-148z
M676.001 871.998c7.33301 0 11.999 -2.5 13.999 -7.5s0.666992 -10.833 -4 -17.5l-115 -159c-3.33301 -3.33301 -7.16602 -6.33301 -11.499 -9s-8.16602 -4 -11.499 -4h-135c-6.66699 0 -11 2.5 -13 7.5s-1 10.833 3 17.5l103 159c2.66699 3.33301 6.16699 6.33301 10.5 9
s8.16602 4 11.499 4h148zM288 -0.00195312c-12.667 0 -17.001 6.33398 -13.001 19.001l63 192h-48l-63 -192c-4 -12.667 -12.333 -19 -25 -19h-168c-12.667 0 -17 6.33301 -13 19l206 634c4 12.667 12.333 19 25 19h378c24.667 0 44.167 -7.5 58.5 -22.5
s24.333 -33.333 30 -55s7.83398 -44.334 6.50098 -68.001s-5 -44.5 -11 -62.5l-145 -445c-4 -12.667 -12.333 -19 -25 -19h-256zM353.999 409.999h48l22 66h-48z" />
    <glyph glyph-name="FL00C2h" unicode="&#xc2;" 
d="M363 495h86l-34 -104h-86zM550 19l145.001 444.998c5.33301 16 8.66602 34.833 9.99902 56.5s-0.5 42.334 -5.5 62.001s-13.5 36.334 -25.5 50.001s-28.667 20.5 -50 20.5h-378l-206 -634h168l69 211h86l-69 -211h256zM521.001 693.998h188l-12 159h-262l-115 -159h147
l56 86zM503.001 717.998l-19.001 -29c-2 -4 -5.33301 -7.33301 -10 -10s-9 -4 -13 -4h-147c-7.33301 0 -12 2.66699 -14 8s-0.333008 11.333 5 18l114 159c6 8 13.333 12 22 12h262c9.33301 0 14 -4 14 -12l13 -159c0.666992 -6.66699 -1.83301 -12.667 -7.5 -18
s-12.167 -8 -19.5 -8h-188c-3.33301 0 -6.16602 1.5 -8.49902 4.5s-3.83301 6.16699 -4.5 9.5zM288 -0.00195312c-12.667 0 -17.001 6.33398 -13.001 19.001l63 192h-48l-63 -192c-4 -12.667 -12.333 -19 -25 -19h-168c-12.667 0 -17 6.33301 -13 19l206 634
c4 12.667 12.333 19 25 19h378c24.667 0 44.167 -7.5 58.5 -22.5s24.333 -33.333 30 -55s7.83398 -44.334 6.50098 -68.001s-5 -44.5 -11 -62.5l-145 -445c-4 -12.667 -12.333 -19 -25 -19h-256zM353.999 409.999h48l22 66h-48z" />
    <glyph glyph-name="FL00C3h" unicode="&#xc3;" horiz-adv-x="583" 
d="M363 495h86l-34 -104h-86zM550 19l145.001 444.998c5.33301 16 8.66602 34.833 9.99902 56.5s-0.5 42.334 -5.5 62.001s-13.5 36.334 -25.5 50.001s-28.667 20.5 -50 20.5h-378l-206 -634h168l69 211h86l-69 -211h256zM445.001 768.998l5 -75h244l115 159h-134l-49 -75
l-5 75h-245l-116 -159h136zM413.001 688.998c-1.33301 -3.33301 -4.49902 -6.5 -9.49902 -9.5s-9.5 -4.5 -13.5 -4.5h-136c-7.33301 0 -11.833 2.66699 -13.5 8s-0.166992 11.333 4.5 18l115 159c6 8 13.333 12 22 12h245c9.33301 0 14 -4 14 -12l2 -27l16 26
c1.33301 3.33301 4.33301 6.33301 9 9s9 4 13 4h134c7.33301 0 12.166 -2.5 14.499 -7.5s0.833008 -10.833 -4.5 -17.5l-115 -159c-3.33301 -3.33301 -7 -6.33301 -11 -9s-7.66699 -4 -11 -4h-244c-8.66699 0 -13 4.33301 -13 13l-2 26zM288.002 -0.00195312
c-12.667 0 -17.001 6.33398 -13.001 19.001l63 192h-48l-63 -192c-4 -12.667 -12.333 -19 -25 -19h-168c-12.667 0 -17 6.33301 -13 19l206 634c4 12.667 12.333 19 25 19h378c24.667 0 44.167 -7.5 58.5 -22.5s24.333 -33.333 30 -55s7.83398 -44.334 6.50098 -68.001
s-5 -44.5 -11 -62.5l-145 -445c-4 -12.667 -12.333 -19 -25 -19h-256zM354.001 409.999h48l22 66h-48z" />
    <glyph glyph-name="FL00C4h" unicode="&#xc4;" 
d="M363 495h86l-34 -104h-86zM550 19l145.001 444.998c5.33301 16 8.66602 34.833 9.99902 56.5s-0.5 42.334 -5.5 62.001s-13.5 36.334 -25.5 50.001s-28.667 20.5 -50 20.5h-378l-206 -634h168l69 211h86l-69 -211h256zM320.001 693.998h187l52 159h-187zM561.001 693.998
h148l52 159h-148zM594.001 852.998c4 12.667 12.333 19 25 19h148c12.667 0 17 -6.33301 13 -19l-52 -159c-4 -12.667 -12.333 -19 -25 -19h-148c-12.667 0 -17 6.33301 -13 19zM353.001 852.998c4 12.667 12.333 19 25 19h187c12.667 0 17 -6.33301 13 -19l-52 -159
c-4 -12.667 -12.333 -19 -25 -19h-187c-12.667 0 -17 6.33301 -13 19zM288.001 -0.00195312c-12.667 0 -17.001 6.33398 -13.001 19.001l63 192h-48l-63 -192c-4 -12.667 -12.333 -19 -25 -19h-168c-12.667 0 -17 6.33301 -13 19l206 634c4 12.667 12.333 19 25 19h378
c24.667 0 44.167 -7.5 58.5 -22.5s24.333 -33.333 30 -55s7.83398 -44.334 6.50098 -68.001s-5 -44.5 -11 -62.5l-145 -445c-4 -12.667 -12.333 -19 -25 -19h-256zM354 409.999h48l22 66h-48z" />
    <glyph glyph-name="FL00C5h" unicode="&#xc5;" 
d="M518 797h60l-16 -48h-60zM363 495h86l-34 -104h-86zM550 19l145.001 444.998c5.33301 16 8.66602 34.833 9.99902 56.5s-0.5 42.334 -5.5 62.001s-13.5 36.334 -25.5 50.001s-28.667 20.5 -50 20.5h-378l-206 -634h168l69 211h86l-69 -211h256zM420.001 693.998h187
l52 159h-187zM453.001 852.998c4 12.667 12.333 19 25 19h187c12.667 0 17 -6.33301 13 -19l-52 -159c-4 -12.667 -12.333 -19 -25 -19h-187c-12.667 0 -17 6.33301 -13 19zM288.001 -0.00195312c-12.667 0 -17.001 6.33398 -13.001 19.001l63 192h-48l-63 -192
c-4 -12.667 -12.333 -19 -25 -19h-168c-12.667 0 -17 6.33301 -13 19l206 634c4 12.667 12.333 19 25 19h378c24.667 0 44.167 -7.5 58.5 -22.5s24.333 -33.333 30 -55s7.83398 -44.334 6.50098 -68.001s-5 -44.5 -11 -62.5l-145 -445c-4 -12.667 -12.333 -19 -25 -19h-256z
M354 409.999h48l22 66h-48zM527 767.999h23l3 11h-23z" />
    <glyph glyph-name="FL00C6h" unicode="&#xc6;" horiz-adv-x="769" 
d="M291 840c4 12.667 12.334 19 25.001 19h674c12.667 0 17 -6.33301 13 -19l-51 -158c-4.66699 -12.667 -13.334 -19 -26.001 -19h-146l-43 -135h134c12.667 0 16.667 -6.33301 12 -19l-52 -161c-4 -12.667 -12.333 -19 -25 -19h-134l-43 -133h146
c12.667 0 17 -6.33301 13 -19l-52 -158c-4 -12.667 -12.333 -19 -25 -19h-421c-12.667 -0 -17 6.33301 -13 19l92 284h-48l-92 -284c-4 -12.667 -12.333 -19 -25 -19h-167c-12.667 -0 -17 6.33301 -13 19zM438.001 663l-52 -162h48l52 162h-48zM512.001 682l-65 -200h-86
l65 200h86zM43.001 19h167l99 303h86l-99 -303h421l52 158h-164l55 171h152l52 161h-152l57 173h164l51 158h-674z" />
    <glyph glyph-name="FL00C7h" unicode="&#xc7;" horiz-adv-x="502" 
d="M101 208c-5.33301 -16 -8.83301 -35 -10.5 -57s-0.166992 -42.667 4.5 -62s13.167 -35.833 25.5 -49.5s29.5 -20.5 51.5 -20.5h62l-12 -38h-55l-40 -123h188l52 161h94l52 158h-166l164 505h166l51 158h-289c-22 0 -43.5 -6.83301 -64.5 -20.5
s-40.167 -30.167 -57.5 -49.5s-32.333 -40 -45 -62s-21.667 -41 -27 -57zM226 651c6 18 16 39.001 30 63.001s30.833 46.667 50.5 68s41.334 39.5 65.001 54.5s48.167 22.5 73.5 22.5h289c12.667 0 17 -6.33301 13 -19l-51 -158c-4.66699 -12.667 -13.334 -19 -26.001 -19
h-147l-151 -467h147c12.667 0 17 -6.33301 13 -19l-52 -158c-4 -12.667 -12.333 -19 -25 -19h-75l-46 -142c-4 -12.667 -12.333 -19 -25 -19h-188c-12.667 0 -17 6.33301 -13 19l40 123c1.33301 5.33301 4.33301 9.66602 9 12.999s9.33398 5.33301 14.001 6h-5
c-25.333 0 -45 7.5 -59 22.5s-23.833 33.167 -29.5 54.5s-7.83398 44 -6.50098 68s5 45 11 63z" />
    <glyph glyph-name="FL00C8h" unicode="&#xc8;" horiz-adv-x="502" 
d="M614 854h-188l13 -159h176zM101 208c-5.33301 -16 -8.83301 -34.998 -10.5 -56.998s-0.166992 -42.667 4.5 -62s13.167 -35.833 25.5 -49.5s29.5 -20.5 51.5 -20.5h289l52 158h-166l25 79h154l52 161h-154l26 78h166l51 158h-289c-22 0 -43.5 -6.83301 -64.5 -20.5
s-40.167 -30.334 -57.5 -50.001s-32.333 -40.334 -45 -62.001s-21.667 -40.5 -27 -56.5zM165 464.002c6 18 16 38.832 30 62.499s30.833 46.334 50.5 68.001s41.334 40 65.001 55s48.167 22.5 73.5 22.5h289c12.667 0 17 -6.33301 13 -19l-51 -158
c-4 -12.667 -12.333 -19 -25 -19h-147l-13 -40h135c12.667 0 16.667 -6.33301 12 -19l-52 -161c-4 -12.667 -12.333 -19 -25 -19h-135l-13 -41h147c12.667 0 17 -6.33301 13 -19l-52 -158c-4 -12.667 -12.333 -19 -25 -19h-289c-25.333 0 -45 7.5 -59 22.5
s-23.833 33.167 -29.5 54.5s-7.83398 44 -6.50098 68s5 45 11 63zM635 701.001c0 -6.66699 -2.66504 -12.5 -7.99805 -17.5s-11.333 -7.5 -18 -7.5h-176c-8 0 -12.667 4.33301 -14 13l-12 159c-0.666992 6.66699 1.66602 12.5 6.99902 17.5s11.666 7.5 18.999 7.5h188
c8.66699 0 13 -4.33301 13 -13z" />
    <glyph glyph-name="FL00C9h" unicode="&#xc9;" horiz-adv-x="502" 
d="M521 853l-103 -159h135l116 159h-148zM101 208c-5.33301 -16 -8.83301 -34.998 -10.5 -56.998s-0.166992 -42.667 4.5 -62s13.167 -35.833 25.5 -49.5s29.5 -20.5 51.5 -20.5h289l52 158h-166l25 79h154l52 161h-154l26 78h166l51 158h-289
c-22 0 -43.5 -6.83301 -64.5 -20.5s-40.167 -30.334 -57.5 -50.001s-32.333 -40.334 -45 -62.001s-21.667 -40.5 -27 -56.5zM165 464.002c6 18 16 38.832 30 62.499s30.833 46.334 50.5 68.001s41.334 40 65.001 55s48.167 22.5 73.5 22.5h289c12.667 0 17 -6.33301 13 -19
l-51 -158c-4 -12.667 -12.333 -19 -25 -19h-147l-13 -40h135c12.667 0 16.667 -6.33301 12 -19l-52 -161c-4 -12.667 -12.333 -19 -25 -19h-135l-13 -41h147c12.667 0 17 -6.33301 13 -19l-52 -158c-4 -12.667 -12.333 -19 -25 -19h-289c-25.333 0 -45 7.5 -59 22.5
s-23.833 33.167 -29.5 54.5s-7.83398 44 -6.50098 68s5 45 11 63zM675 872.001c7.33301 0 11.998 -2.5 13.998 -7.5s0.666992 -10.833 -4 -17.5l-115 -159c-3.33301 -3.33301 -7.16602 -6.33301 -11.499 -9s-8.16602 -4 -11.499 -4h-135c-6.66699 0 -11 2.5 -13 7.5
s-1 10.833 3 17.5l103 159c6 8.66699 13.333 13 22 13h148z" />
    <glyph glyph-name="FL00CAh" unicode="&#xca;" horiz-adv-x="502" 
d="M478 689c-2 -4 -5.33301 -7.33301 -10 -10s-9 -4 -13 -4h-187c-7.33301 0 -11.833 2.66699 -13.5 8s-0.166992 11.333 4.5 18l115 159c6 8 13.333 12 22 12h262c9.33301 0 14 -4 14 -12l12 -159c1.33301 -6.66699 -1 -12.667 -7 -18s-12.667 -8 -20 -8h-148
c-8.66699 0 -13 4.66699 -13 14v29zM165 464c6 18 16 38.832 30 62.499s30.833 46.334 50.5 68.001s41.334 40 65.001 55s48.167 22.5 73.5 22.5h289c12.667 0 17 -6.33301 13 -19l-51 -158c-4 -12.667 -12.333 -19 -25 -19h-147l-13 -40h135
c12.667 0 16.667 -6.33301 12 -19l-52 -161c-4 -12.667 -12.333 -19 -25 -19h-135l-13 -41h147c12.667 0 17 -6.33301 13 -19l-52 -158c-4 -12.667 -12.333 -19 -25 -19h-289c-25.333 0 -45 7.5 -59 22.5s-23.833 33.167 -29.5 54.5s-7.83398 44 -6.50098 68s5 45 11 63z
M101 207.999c-5.33301 -16 -8.83301 -34.998 -10.5 -56.998s-0.166992 -42.667 4.5 -62s13.167 -35.833 25.5 -49.5s29.5 -20.5 51.5 -20.5h289l52 158h-166l25 79h154l52 161h-154l26 78h166l51 158h-289c-22 0 -43.5 -6.83301 -64.5 -20.5s-40.167 -30.334 -57.5 -50.001
s-32.333 -40.334 -45 -62.001s-21.667 -40.5 -27 -56.5zM516 780.001l-1 -86h148l-11 159h-262l-116 -159h187z" />
    <glyph glyph-name="FL00CBh" unicode="&#xcb;" horiz-adv-x="502" 
d="M480 694c-4 -12.667 -12.333 -19 -25 -19h-187c-12.667 0 -17 6.33301 -13 19l52 159c4 12.667 12.333 19 25 19h187c12.667 0 17 -6.33301 13 -19zM682 694c-4 -12.667 -12.333 -19 -25 -19h-148c-12.667 0 -17 6.33301 -13 19l52 159c4 12.667 12.333 19 25 19h148
c12.667 0 17 -6.33301 13 -19zM165 464c6 18 16 38.832 30 62.499s30.833 46.334 50.5 68.001s41.334 40 65.001 55s48.167 22.5 73.5 22.5h289c12.667 0 17 -6.33301 13 -19l-51 -158c-4 -12.667 -12.333 -19 -25 -19h-147l-13 -40h135c12.667 0 16.667 -6.33301 12 -19
l-52 -161c-4 -12.667 -12.333 -19 -25 -19h-135l-13 -41h147c12.667 0 17 -6.33301 13 -19l-52 -158c-4 -12.667 -12.333 -19 -25 -19h-289c-25.333 0 -45 7.5 -59 22.5s-23.833 33.167 -29.5 54.5s-7.83398 44 -6.50098 68s5 45 11 63zM101 207.999
c-5.33301 -16 -8.83301 -34.998 -10.5 -56.998s-0.166992 -42.667 4.5 -62s13.167 -35.833 25.5 -49.5s29.5 -20.5 51.5 -20.5h289l52 158h-166l25 79h154l52 161h-154l26 78h166l51 158h-289c-22 0 -43.5 -6.83301 -64.5 -20.5s-40.167 -30.334 -57.5 -50.001
s-32.333 -40.334 -45 -62.001s-21.667 -40.5 -27 -56.5zM715 853.001h-148l-52 -159h148zM513 853.001h-187l-52 -159h187z" />
    <glyph glyph-name="FL00CCh" unicode="&#xcc;" horiz-adv-x="327" 
d="M490 872c8 0 12.666 -4.33301 13.999 -13l-1 -159c-0.666992 -6.66699 -3.5 -12.5 -8.5 -17.5s-10.833 -7.5 -17.5 -7.5h-136c-8.66699 0 -13 4.33301 -13 13l-12 159c-1.33301 6.66699 0.833984 12.5 6.50098 17.5s12.167 7.5 19.5 7.5h148zM223.999 653
c4 12.667 12.333 19 25 19h256c12.667 0 17 -6.33301 13 -19l-206 -634c-4 -12.667 -12.333 -19 -25 -19h-256c-12.667 -0 -17 6.33301 -13 19zM36.999 19h256l206 634h-256zM335.999 853l11 -159h136l1 159h-148z" />
    <glyph glyph-name="FL00CDh" unicode="&#xcd;" horiz-adv-x="327" 
d="M352 860c3.33301 3.33301 7.16699 6.33301 11.5 9s8.16602 4 11.499 4h188c7.33301 0 12 -2.5 14 -7.5s0.666992 -10.833 -4 -17.5l-116 -159c-2.66699 -3.33301 -6.16699 -6.33301 -10.5 -9s-8.16602 -4 -11.499 -4h-176c-6.66699 0 -11 2.5 -13 7.5s-1 10.833 3 17.5z
M312.001 19c-4 -12.667 -12.333 -19 -25 -19h-256c-12.667 -0 -17 6.33301 -13 19l206 634c4 12.667 12.333 19 25 19h256c12.667 0 17 -6.33301 13 -19zM499.001 653h-256l-206 -634h256zM265.001 695h176l115 159h-188z" />
    <glyph glyph-name="FL00CEh" unicode="&#xce;" horiz-adv-x="327" 
d="M394 689c-6 -9.33301 -13.666 -14 -22.999 -14h-188c-7.33301 0 -11.833 2.66699 -13.5 8s0.166016 11.333 5.49902 18l114 159c6 8 13.333 12 22 12h262c9.33301 0 14 -4 14 -12l12 -159c1.33301 -6.66699 -1 -12.667 -7 -18s-12.667 -8 -20 -8h-147
c-8.66699 0 -13 4.66699 -13 14l-1 29zM312.001 19c-4 -12.667 -12.333 -19 -25 -19h-256c-12.667 -0 -17 6.33301 -13 19l206 634c4 12.667 12.333 19 25 19h256c12.667 0 17 -6.33301 13 -19zM499.001 653h-256l-206 -634h256zM431.001 780v-86h147l-11 159h-262
l-116 -159h188z" />
    <glyph glyph-name="FL00CFh" unicode="&#xcf;" horiz-adv-x="327" 
d="M396 694c-4 -12.667 -12.333 -19 -25 -19h-188c-12 0 -16 6.33301 -12 19l52 159c4 12.667 12 19 24 19h188c12.667 0 17 -6.33301 13 -19zM597 694c-4 -12.667 -12.333 -19 -25 -19h-147c-12.667 0 -17 6.33301 -13 19l52 159c4 12.667 12.333 19 25 19h147
c12.667 0 17 -6.33301 13 -19zM312 19c-4 -12.667 -12.333 -19 -25 -19h-256c-12.667 -0 -17 6.33301 -13 19l206 634c4 12.667 12.333 19 25 19h256c12.667 0 17 -6.33301 13 -19zM499 653h-256l-206 -634h256zM630 853h-147l-52 -159h147zM429 853h-188l-52 -159h188z" />
    <glyph glyph-name="FL00D0h" unicode="&#xd0;" horiz-adv-x="647" 
d="M413 495h86l-103 -318h-86l25 79h49l52 161h-49zM118 256l49.001 -0.00195312l-77 -237h378c21.333 0 42.5 6.83301 63.5 20.5s40.167 30.167 57.5 49.5s32.5 40 45.5 62s22.167 41 27.5 57l83 256c5.33301 16 8.66602 34.833 9.99902 56.5s-0.5 42.334 -5.5 62.001
s-13.5 36.334 -25.5 50.001s-28.667 20.5 -50 20.5h-378l-77 -236h-49zM151.001 416.998c4.66699 12.667 13.3311 19.001 25.998 19.001h30l70 217c4 12.667 12.333 19 25 19h378c24.667 0 44.167 -7.5 58.5 -22.5s24.333 -33.333 30 -55s7.83398 -44.334 6.50098 -68.001
s-5 -44.5 -11 -62.5l-83 -256c-6 -18 -16.167 -39 -30.5 -63s-31.166 -46.667 -50.499 -68s-41 -39.5 -65 -54.5s-48.333 -22.5 -73 -22.5h-378c-12.667 0 -17 6.33301 -13 19l71 218h-30c-12.667 0 -17 6.33301 -13 19zM382.998 195.999l17 54
c-6 -8.66699 -13.333 -13 -22 -13h-30l-13 -41h48zM412.998 435.999h30c8.66699 0 13 -4.33301 13 -13l18 53h-48zM402.998 255.999l51.998 161c0.666992 1.33301 0.833984 2.33301 0.500977 3s-0.166016 1.66699 0.500977 3l-56 -173l1.5 3z" />
    <glyph glyph-name="FL00D1h" unicode="&#xd1;" 
d="M294 19l256.001 -0.00195312l145 445c5.33301 16 8.66602 34.833 9.99902 56.5s-0.5 42.334 -5.5 62.001s-13.5 36.334 -25.5 50.001s-28.667 20.5 -50 20.5h-378l-206 -634h168l155 476h86zM451.001 768.998l5 -75h243l116 159h-135l-48 -75l-6 75h-245l-115 -159h136z
M419.001 688.998c-2.66699 -3.33301 -6.16797 -6.5 -10.501 -9.5s-8.5 -4.5 -12.5 -4.5h-136c-7.33301 0 -12 2.66699 -14 8s-0.333008 11.333 5 18l114 159c6 8 13.333 12 22 12h245c9.33301 0 14 -4 14 -12l3 -27l15 26c2.66699 3.33301 6.16699 6.33301 10.5 9
s8.16602 4 11.499 4h135c7.33301 0 12 -2.5 14 -7.5s0.666992 -10.833 -4 -17.5l-115 -159c-3.33301 -3.33301 -7.16602 -6.33301 -11.499 -9s-8.16602 -4 -11.499 -4h-243c-8.66699 0 -13 4.33301 -13 13l-2 26zM424 475.998l-48.001 0.000976562l-149 -457
c-4 -12.667 -12.333 -19 -25 -19h-168c-12.667 0 -17 6.33301 -13 19l206 634c4 12.667 12.333 19 25 19h378c24.667 0 44.167 -7.5 58.5 -22.5s24.333 -33.333 30 -55s7.83398 -44.334 6.50098 -68.001s-5 -44.5 -11 -62.5l-145 -445c-4 -12.667 -12.333 -19 -25 -19h-256
c-12.667 0 -17 6.33301 -13 19z" />
    <glyph glyph-name="FL00D2h" unicode="&#xd2;" 
d="M358 495h91l-103 -318h-91zM695 464c5.33301 16 8.66699 34.833 10 56.5s-0.5 42.334 -5.5 62.001s-13.5 36.334 -25.5 50.001s-28.667 20.5 -50 20.5h-245c-22 0 -43.5 -6.83301 -64.5 -20.5s-40.167 -30.334 -57.5 -50.001s-32.333 -40.334 -45 -62.001
s-21.667 -40.5 -27 -56.5l-83 -256c-5.33301 -16 -8.83301 -35 -10.5 -57s-0.166992 -42.667 4.5 -62s13.167 -35.833 25.5 -49.5s29.5 -20.5 51.5 -20.5h245c21.333 0 42.5 6.83301 63.5 20.5s40.167 30.167 57.5 49.5s32.5 40 45.5 62s22.167 41 27.5 57zM615.001 854
h-187l12 -159h176zM636.001 701c0 -6.66699 -2.66797 -12.5 -8.00098 -17.5s-11.333 -7.5 -18 -7.5h-176c-8 0 -12.667 4.33301 -14 13l-11 159c-1.33301 6.66699 0.833984 12.5 6.50098 17.5s12.167 7.5 19.5 7.5h187c8.66699 0 13 -4.33301 13 -13zM631 208
c-6 -18 -16.1689 -39 -30.502 -63s-31.166 -46.667 -50.499 -68s-41 -39.5 -65 -54.5s-48.333 -22.5 -73 -22.5h-245c-25.333 0 -45 7.5 -59 22.5s-23.833 33.167 -29.5 54.5s-7.83398 44 -6.50098 68s5 45 11 63l83 256c6 18 16 38.833 30 62.5s30.833 46.334 50.5 68.001
s41.334 40 65.001 55s48.167 22.5 73.5 22.5h245c24.667 0 44.167 -7.5 58.5 -22.5s24.333 -33.333 30 -55s7.83398 -44.334 6.50098 -68.001s-5 -44.5 -11 -62.5zM279.998 196h53l91 280h-53z" />
    <glyph glyph-name="FL00D3h" unicode="&#xd3;" 
d="M358 495h91l-103 -318h-91zM695 464c5.33301 16 8.66699 34.833 10 56.5s-0.5 42.334 -5.5 62.001s-13.5 36.334 -25.5 50.001s-28.667 20.5 -50 20.5h-245c-22 0 -43.5 -6.83301 -64.5 -20.5s-40.167 -30.334 -57.5 -50.001s-32.333 -40.334 -45 -62.001
s-21.667 -40.5 -27 -56.5l-83 -256c-5.33301 -16 -8.83301 -35 -10.5 -57s-0.166992 -42.667 4.5 -62s13.167 -35.833 25.5 -49.5s29.5 -20.5 51.5 -20.5h245c21.333 0 42.5 6.83301 63.5 20.5s40.167 30.167 57.5 49.5s32.5 40 45.5 62s22.167 41 27.5 57zM522.001 853
l-103 -159h135l116 159h-148zM676.001 872c7.33301 0 11.999 -2.5 13.999 -7.5s0.666992 -10.833 -4 -17.5l-115 -159c-3.33301 -3.33301 -7.16602 -6.33301 -11.499 -9s-8.16602 -4 -11.499 -4h-135c-6.66699 0 -11 2.5 -13 7.5s-1 10.833 3 17.5l103 159
c2.66699 3.33301 6.16699 6.33301 10.5 9s8.16602 4 11.499 4h148zM631 208c-6 -18 -16.1689 -39 -30.502 -63s-31.166 -46.667 -50.499 -68s-41 -39.5 -65 -54.5s-48.333 -22.5 -73 -22.5h-245c-25.333 0 -45 7.5 -59 22.5s-23.833 33.167 -29.5 54.5
s-7.83398 44 -6.50098 68s5 45 11 63l83 256c6 18 16 38.833 30 62.5s30.833 46.334 50.5 68.001s41.334 40 65.001 55s48.167 22.5 73.5 22.5h245c24.667 0 44.167 -7.5 58.5 -22.5s24.333 -33.333 30 -55s7.83398 -44.334 6.50098 -68.001s-5 -44.5 -11 -62.5z
M279.998 196h53l91 280h-53z" />
    <glyph glyph-name="FL00D4h" unicode="&#xd4;" 
d="M358 495h91l-103 -318h-91zM695 464c5.33301 16 8.66699 34.833 10 56.5s-0.5 42.334 -5.5 62.001s-13.5 36.334 -25.5 50.001s-28.667 20.5 -50 20.5h-245c-22 0 -43.5 -6.83301 -64.5 -20.5s-40.167 -30.334 -57.5 -50.001s-32.333 -40.334 -45 -62.001
s-21.667 -40.5 -27 -56.5l-83 -256c-5.33301 -16 -8.83301 -35 -10.5 -57s-0.166992 -42.667 4.5 -62s13.167 -35.833 25.5 -49.5s29.5 -20.5 51.5 -20.5h245c21.333 0 42.5 6.83301 63.5 20.5s40.167 30.167 57.5 49.5s32.5 40 45.5 62s22.167 41 27.5 57zM521.001 694h188
l-12 159h-262l-115 -159h147l56 86zM503.001 718l-19.001 -29c-2 -4 -5.33301 -7.33301 -10 -10s-9 -4 -13 -4h-147c-7.33301 0 -12 2.66699 -14 8s-0.333008 11.333 5 18l114 159c6 8 13.333 12 22 12h262c9.33301 0 14 -4 14 -12l13 -159
c0.666992 -6.66699 -1.83301 -12.667 -7.5 -18s-12.167 -8 -19.5 -8h-188c-3.33301 0 -6.16602 1.5 -8.49902 4.5s-3.83301 6.16699 -4.5 9.5zM631 208c-6 -18 -16.1689 -39 -30.502 -63s-31.166 -46.667 -50.499 -68s-41 -39.5 -65 -54.5s-48.333 -22.5 -73 -22.5h-245
c-25.333 0 -45 7.5 -59 22.5s-23.833 33.167 -29.5 54.5s-7.83398 44 -6.50098 68s5 45 11 63l83 256c6 18 16 38.833 30 62.5s30.833 46.334 50.5 68.001s41.334 40 65.001 55s48.167 22.5 73.5 22.5h245c24.667 0 44.167 -7.5 58.5 -22.5s24.333 -33.333 30 -55
s7.83398 -44.334 6.50098 -68.001s-5 -44.5 -11 -62.5zM279.998 196h53l91 280h-53z" />
    <glyph glyph-name="FL00D5h" unicode="&#xd5;" horiz-adv-x="583" 
d="M445 769l5 -75h244l115 159h-134l-49 -75l-5 75h-245l-116 -159h136zM695 464c5.33301 16 8.66699 34.833 10 56.5s-0.5 42.334 -5.5 62.001s-13.5 36.334 -25.5 50.001s-28.667 20.5 -50 20.5h-245c-22 0 -43.5 -6.83301 -64.5 -20.5s-40.167 -30.334 -57.5 -50.001
s-32.333 -40.334 -45 -62.001s-21.667 -40.5 -27 -56.5l-83 -256c-5.33301 -16 -8.83301 -35 -10.5 -57s-0.166992 -42.667 4.5 -62s13.167 -35.833 25.5 -49.5s29.5 -20.5 51.5 -20.5h245c21.333 0 42.5 6.83301 63.5 20.5s40.167 30.167 57.5 49.5s32.5 40 45.5 62
s22.167 41 27.5 57zM255.001 177l103 318h91l-103 -318h-91zM333.001 196l91 280h-53l-91 -280h53zM631.001 208c-6 -18 -16.1689 -39 -30.502 -63s-31.166 -46.667 -50.499 -68s-41 -39.5 -65 -54.5s-48.333 -22.5 -73 -22.5h-245c-25.333 0 -45 7.5 -59 22.5
s-23.833 33.167 -29.5 54.5s-7.83398 44 -6.50098 68s5 45 11 63l83 256c6 18 16 38.833 30 62.5s30.833 46.334 50.5 68.001s41.334 40 65.001 55s48.167 22.5 73.5 22.5h245c24.667 0 44.167 -7.5 58.5 -22.5s24.333 -33.333 30 -55s7.83398 -44.334 6.50098 -68.001
s-5 -44.5 -11 -62.5zM412.999 689c-1.33301 -3.33301 -4.49902 -6.5 -9.49902 -9.5s-9.5 -4.5 -13.5 -4.5h-136c-7.33301 0 -11.833 2.66699 -13.5 8s-0.166992 11.333 4.5 18l115 159c6 8 13.333 12 22 12h245c9.33301 0 14 -4 14 -12l2 -27l16 26
c1.33301 3.33301 4.33301 6.33301 9 9s9 4 13 4h134c7.33301 0 12.166 -2.5 14.499 -7.5s0.833008 -10.833 -4.5 -17.5l-115 -159c-3.33301 -3.33301 -7 -6.33301 -11 -9s-7.66699 -4 -11 -4h-244c-8.66699 0 -13 4.33301 -13 13l-2 26z" />
    <glyph glyph-name="FL00D6h" unicode="&#xd6;" 
d="M358 495h91l-103 -318h-91zM695 464c5.33301 16 8.66699 34.833 10 56.5s-0.5 42.334 -5.5 62.001s-13.5 36.334 -25.5 50.001s-28.667 20.5 -50 20.5h-245c-22 0 -43.5 -6.83301 -64.5 -20.5s-40.167 -30.334 -57.5 -50.001s-32.333 -40.334 -45 -62.001
s-21.667 -40.5 -27 -56.5l-83 -256c-5.33301 -16 -8.83301 -35 -10.5 -57s-0.166992 -42.667 4.5 -62s13.167 -35.833 25.5 -49.5s29.5 -20.5 51.5 -20.5h245c21.333 0 42.5 6.83301 63.5 20.5s40.167 30.167 57.5 49.5s32.5 40 45.5 62s22.167 41 27.5 57zM320.001 694h147
l52 159h-147zM521.001 694h188l52 159h-188zM554.001 853c4 12.667 12.333 19 25 19h188c12.667 0 17 -6.33301 13 -19l-52 -159c-4 -12.667 -12.333 -19 -25 -19h-188c-12.667 0 -17 6.33301 -13 19zM353.001 853c4 12.667 12.333 19 25 19h147
c12.667 0 17 -6.33301 13 -19l-52 -159c-4 -12.667 -12.333 -19 -25 -19h-147c-12.667 0 -17 6.33301 -13 19zM631.001 208c-6 -18 -16.1689 -39 -30.502 -63s-31.166 -46.667 -50.499 -68s-41 -39.5 -65 -54.5s-48.333 -22.5 -73 -22.5h-245c-25.333 0 -45 7.5 -59 22.5
s-23.833 33.167 -29.5 54.5s-7.83398 44 -6.50098 68s5 45 11 63l83 256c6 18 16 38.833 30 62.5s30.833 46.334 50.5 68.001s41.334 40 65.001 55s48.167 22.5 73.5 22.5h245c24.667 0 44.167 -7.5 58.5 -22.5s24.333 -33.333 30 -55s7.83398 -44.334 6.50098 -68.001
s-5 -44.5 -11 -62.5zM279.999 196h53l91 280h-53z" />
    <glyph glyph-name="FL0078h" unicode="&#xd7;" horiz-adv-x="565" 
d="M748 672c6 0 10.332 -2.33301 12.999 -7s2.33398 -10 -0.999023 -16l-157 -294l-47 -332c-1.33301 -6.66699 -4.5 -12.167 -9.5 -16.5s-10.5 -6.5 -16.5 -6.5h-168c-4 0 -7.16699 1.66699 -9.5 5s-3.83301 7 -4.5 11l22 146l-70 -146c-1.33301 -4 -4.5 -7.66699 -9.5 -11
s-9.83301 -5 -14.5 -5h-256c-6.66699 0 -11.167 2.16699 -13.5 6.5s-1.83301 9.83301 1.5 16.5l156 297l48 329c0.666992 6 3.5 11.333 8.5 16s10.833 7 17.5 7h167c4.66699 0 8.5 -1.66699 11.5 -5s3.83301 -7 2.5 -11l-20 -146l68 146c2 4 5.5 7.66699 10.5 11
s9.5 5 13.5 5h257zM484.999 653l-124 -261l38 261h-167l-48 -333l-158 -301h256l125 261l-39 -261h168l47 336l159 298h-257z" />
    <glyph glyph-name="FL00D8h" unicode="&#xd8;" 
d="M419 682h91l-14 -43l-182 -279zM255 177l15 47l183 283l-107 -330h-91zM756 651c5.33301 16 8.66699 35 10 57s-0.5 42.667 -5.5 62s-13.5 35.833 -25.5 49.5s-28.667 20.5 -50 20.5h-245c-22 0 -43.5 -6.83301 -64.5 -20.5s-40.167 -30.167 -57.5 -49.5
s-32.333 -40 -45 -62s-21.667 -41 -27 -57l-144 -443c-5.33301 -16 -8.83301 -35 -10.5 -57s-0.166992 -42.667 4.5 -62s13.167 -35.833 25.5 -49.5s29.5 -20.5 51.5 -20.5h245c21.333 0 42.5 6.83301 63.5 20.5s40.167 30.167 57.5 49.5s32.5 40 45.5 62s22.167 41 27.5 57
zM631.001 208c-6 -18 -16.1689 -39 -30.502 -63s-31.166 -46.667 -50.499 -68s-41 -39.5 -65 -54.5s-48.333 -22.5 -73 -22.5h-245c-25.333 0 -45 7.5 -59 22.5s-23.833 33.167 -29.5 54.5s-7.83398 44 -6.50098 68s5 45 11 63l144 443c6 18 16 39 30 63
s30.833 46.667 50.5 68s41.334 39.5 65.001 54.5s48.167 22.5 73.5 22.5h245c24.667 0 44.167 -7.5 58.5 -22.5s24.333 -33.167 30 -54.5s7.83398 -44 6.50098 -68s-5 -45 -11 -63zM332.999 196l62 192c-18.667 -28 -36.5 -55.833 -53.5 -83.5s-34.833 -55.5 -53.5 -83.5
l-8 -25h53zM371.999 480l105 160l7 23h-53z" />
    <glyph glyph-name="FL00D9h" unicode="&#xd9;" 
d="M227 653c4 12.667 12.334 19 25.001 19h257c12.667 0 17 -6.33301 13 -19l-148 -457h48l148 457c4 12.667 12.333 19 25 19h167c12.667 0 17 -6.33301 13 -19l-206 -634c-4 -12.667 -12.333 -19 -25 -19h-377c-25.333 0 -45 7.5 -59 22.5s-23.833 33.167 -29.5 54.5
s-7.83398 44 -6.50098 68s5 45 11 63zM616.001 872c9.33301 0 13.999 -4.33301 13.999 -13l-1 -159c0 -6.66699 -2.5 -12.5 -7.5 -17.5s-11.167 -7.5 -18.5 -7.5h-135c-8.66699 0 -13 4.33301 -13 13l-12 159c-1.33301 6.66699 0.833984 12.5 6.50098 17.5
s12.167 7.5 19.5 7.5h147zM463 853l11 -159h135l1 159h-147zM102 208c-5.33301 -16 -8.83301 -35 -10.5 -57s-0.166992 -42.667 4.5 -62s13.167 -35.833 25.5 -49.5s29.5 -20.5 51.5 -20.5h377l206 634h-167l-154 -476h-86l154 476h-257z" />
    <glyph glyph-name="FL00DAh" unicode="&#xda;" 
d="M227 653c4 12.667 12.334 19 25.001 19h257c12.667 0 17 -6.33301 13 -19l-148 -457h48l148 457c4 12.667 12.333 19 25 19h167c12.667 0 17 -6.33301 13 -19l-206 -634c-4 -12.667 -12.333 -19 -25 -19h-377c-25.333 0 -45 7.5 -59 22.5s-23.833 33.167 -29.5 54.5
s-7.83398 44 -6.50098 68s5 45 11 63zM502.001 860c2 3.33301 5.33203 6.33301 9.99902 9s9 4 13 4h187c7.33301 0 12 -2.5 14 -7.5s0.666992 -10.833 -4 -17.5l-116 -159c-2.66699 -3.33301 -6.16699 -6.33301 -10.5 -9s-8.16602 -4 -11.499 -4h-175
c-7.33301 0 -12 2.5 -14 7.5s-0.666992 10.833 4 17.5zM415 695h175l115 159h-187zM102 208c-5.33301 -16 -8.83301 -35 -10.5 -57s-0.166992 -42.667 4.5 -62s13.167 -35.833 25.5 -49.5s29.5 -20.5 51.5 -20.5h377l206 634h-167l-154 -476h-86l154 476h-257z" />
    <glyph glyph-name="FL00DBh" unicode="&#xdb;" 
d="M227 653c4 12.667 12.334 19 25.001 19h257c12.667 0 17 -6.33301 13 -19l-148 -457h48l148 457c4 12.667 12.333 19 25 19h167c12.667 0 17 -6.33301 13 -19l-206 -634c-4 -12.667 -12.333 -19 -25 -19h-377c-25.333 0 -45 7.5 -59 22.5s-23.833 33.167 -29.5 54.5
s-7.83398 44 -6.50098 68s5 45 11 63zM524.001 689c-6 -9.33301 -13.667 -14 -23 -14h-187c-7.33301 0 -12 2.66699 -14 8s-0.333008 11.333 5 18l114 159c6 8 13.333 12 22 12h262c9.33301 0 14 -4 14 -12l13 -159c0.666992 -6.66699 -1.83301 -12.667 -7.5 -18
s-12.167 -8 -19.5 -8h-148c-8.66699 0 -13 4.66699 -13 14v29zM562.001 780l-1 -86h148l-12 159h-262l-115 -159h187zM102.001 208c-5.33301 -16 -8.83301 -35 -10.5 -57s-0.166992 -42.667 4.5 -62s13.167 -35.833 25.5 -49.5s29.5 -20.5 51.5 -20.5h377l206 634h-167
l-154 -476h-86l154 476h-257z" />
    <glyph glyph-name="FL00DCh" unicode="&#xdc;" 
d="M526 694c-4 -12.667 -12.333 -19 -25 -19h-187c-12.667 0 -17 6.33301 -13 19l52 159c4 12.667 12.333 19 25 19h187c12.667 0 17 -6.33301 13 -19zM728 694c-4 -12.667 -12.333 -19 -25 -19h-148c-12.667 0 -17 6.33301 -13 19l52 159c4 12.667 12.333 19 25 19h148
c12.667 0 17 -6.33301 13 -19zM227 653c4 12.667 12.334 19 25.001 19h257c12.667 0 17 -6.33301 13 -19l-148 -457h48l148 457c4 12.667 12.333 19 25 19h167c12.667 0 17 -6.33301 13 -19l-206 -634c-4 -12.667 -12.333 -19 -25 -19h-377c-25.333 0 -45 7.5 -59 22.5
s-23.833 33.167 -29.5 54.5s-7.83398 44 -6.50098 68s5 45 11 63zM102.001 208c-5.33301 -16 -8.83301 -35 -10.5 -57s-0.166992 -42.667 4.5 -62s13.167 -35.833 25.5 -49.5s29.5 -20.5 51.5 -20.5h377l206 634h-167l-154 -476h-86l154 476h-257zM761.001 853h-148
l-52 -159h148zM559.001 853h-187l-52 -159h187z" />
    <glyph glyph-name="FL00DDh" unicode="&#xdd;" 
d="M631 208c-6 -18 -16.167 -39 -30.5 -63s-31.166 -46.667 -50.499 -68s-41 -39.5 -65 -54.5s-48.333 -22.5 -73 -22.5h-378c-12.667 -0 -17 6.33301 -13 19l52 158c4 12.667 12.333 19 25 19h324l12 39h-191c-25.333 0 -45 7.5 -59 22.5s-23.833 33.167 -29.5 54.5
s-7.83398 44 -6.50098 68s5 45 11 63l68 210c4 12.667 12.333 19 25 19h257c12.667 0 17 -6.33301 13 -19l-72 -223h48l72 223c4 12.667 12.333 19 25 19h167c12.667 0 17 -6.33301 13 -19zM502 860c2 3.33301 5.33203 6.33301 9.99902 9s9 4 13 4h187
c7.33301 0 12 -2.5 14 -7.5s0.666992 -10.833 -4 -17.5l-116 -159c-2.66699 -3.33301 -6.16699 -6.33301 -10.5 -9s-8.16602 -4 -11.499 -4h-175c-7.33301 0 -12 2.5 -14 7.5s-0.666992 10.833 4 17.5zM414.999 695h175l115 159h-187zM755.999 653l-167 0.00195312l-78 -242
h-86l78 242h-257l-68 -210c-5.33301 -16.667 -8.83301 -35.834 -10.5 -57.501s0 -42.334 5 -62.001s13.667 -36.167 26 -49.5s29.5 -20 51.5 -20h210l-25 -77h-343l-52 -158h378c21.333 0 42.5 6.83301 63.5 20.5s40.167 30.167 57.5 49.5s32.5 40 45.5 62
s22.167 41 27.5 57z" />
    <glyph glyph-name="FL00DEh" unicode="&#xde;" 
d="M555 537l-68 -212h-90l68 212h90zM40 19l257 -0.00390625l47 145h121c21.333 0 42.5 6.66699 63.5 20s40.167 29.833 57.5 49.5s32.5 40.334 45.5 62.001s22.167 40.834 27.5 57.501l49 153c5.33301 16.667 8.83301 35.834 10.5 57.501s0 42.334 -5 62.001
s-13.5 36.167 -25.5 49.5s-28.667 20 -50 20h-121l47 145h-257zM288 839.996c4 12.667 12.333 19 25 19h257c12.667 0 17 -6.33301 13 -19l-41 -126h102c24.667 0 44.167 -7.5 58.5 -22.5s24.166 -33.167 29.499 -54.5s7.33301 -44 6 -68s-5 -45 -11 -63l-49 -153
c-6 -18 -16.167 -39 -30.5 -63s-31.166 -46.667 -50.499 -68s-41 -39.5 -65 -54.5s-48.333 -22.5 -73 -22.5h-102l-41 -126c-4 -12.667 -12.333 -19 -25 -19h-257c-12.667 0 -17 6.33301 -13 19zM478 517.996l-56 -174h53l56 174h-53z" />
    <glyph glyph-name="FL00DFh" unicode="&#xdf;" 
d="M445 484l88.001 -0.000976562l-24 -76h-50l-51 -157h50l-26 -78h-50l-50 -154h80c20.667 0 41.334 6.66699 62.001 20s39.5 29.5 56.5 48.5s31.833 39.167 44.5 60.5s21.667 40 27 56l15 46c4 12.667 4.83301 26 2.5 40s-5.83301 27 -10.5 39
c10.667 8 21.667 19.333 33 34s19.666 28.334 24.999 41.001l17 50c4.66699 16 7.66699 34.667 9 56s-0.333984 41.5 -5.00098 60.5s-13 35.167 -25 48.5s-28.333 20 -49 20h-240c-21.333 0 -42.166 -6.66699 -62.499 -20s-39 -29.5 -56 -48.5s-31.833 -39.167 -44.5 -60.5
s-21.334 -40 -26.001 -56l-177 -544h251zM277.001 -90.001c-4 -12 -12.0039 -17.999 -24.0039 -17.999h-251c-12.667 0 -17 6 -13 18l177 544c5.33301 17.333 15 37.666 29 60.999s30.5 45.5 49.5 66.5s40.167 38.833 63.5 53.5s47 22 71 22h240c24 0 43 -7.33301 57 -22
s23.833 -32.5 29.5 -53.5s7.83398 -43.167 6.50098 -66.5s-4.66602 -43.666 -9.99902 -60.999l-17 -51c-5.33301 -12 -12.666 -25 -21.999 -39s-19.333 -26 -30 -36c3.33301 -12 5.5 -24.833 6.5 -38.5s-0.5 -26.834 -4.5 -39.501l-15 -46c-6 -18 -15.833 -38.667 -29.5 -62
s-30.167 -45.5 -49.5 -66.5s-40.666 -38.833 -63.999 -53.5s-47 -22 -71 -22h-80c-12.667 0 -17 6.33301 -13 19l50 154c4 12.667 12.333 19 25 19h32l13 40h-32c-12.667 0 -16.667 6.33301 -12 19l51 157c4 12.667 12.333 19 25 19h32l12 39h-52z" />
    <glyph glyph-name="FL00E0h" unicode="&#xe0;" 
d="M358 484h84l-33 -102h-84zM542 19l142.001 435c4.66699 16 7.66699 34.667 9 56s-0.333984 41.5 -5.00098 60.5s-13 35.167 -25 48.5s-28.333 20 -49 20h-369l-202 -620h164l67 206h84l-67 -206h251zM606.001 836h-183l11 -155h172v155zM625.001 686
c0 -6.66699 -2.50098 -12.333 -7.50098 -17s-10.833 -7 -17.5 -7h-172c-9.33301 0 -14 4 -14 12l-11 156c-1.33301 6.66699 0.833984 12.5 6.50098 17.5s12.167 7.5 19.5 7.5h183c3.33301 0 6.5 -1.33301 9.5 -4s4.16699 -5.66699 3.5 -9v-156zM285 0.000976562
c-12.667 0 -17.002 6.33203 -13.002 18.999l61 187h-47l-61 -187c-4 -12.667 -12 -19 -24 -19h-164c-12.667 -0 -17 6.33301 -13 19l202 620c4 12 12 18 24 18h369c24 0 43 -7.33301 57 -22s23.833 -32.5 29.5 -53.5s7.83398 -43.167 6.50098 -66.5
s-4.66602 -43.666 -9.99902 -60.999l-142 -435c-4 -12.667 -12 -19 -24 -19h-251zM348.998 401h47l21 65h-47z" />
    <glyph glyph-name="FL00E1h" unicode="&#xe1;" 
d="M358 484h84l-33 -102h-84zM542 19l142.001 435c4.66699 16 7.66699 34.667 9 56s-0.333984 41.5 -5.00098 60.5s-13 35.167 -25 48.5s-28.333 20 -49 20h-369l-202 -620h164l67 206h84l-67 -206h251zM514.001 835l-100 -155h133l112 155h-145zM665.001 854
c6.66699 0 11.334 -2.50098 14.001 -7.50098s1 -10.833 -5 -17.5l-112 -156c-6 -8 -13 -12 -21 -12h-133c-6.66699 0 -11 2.33301 -13 7s-0.666992 10.334 4 17.001l100 156c2 3.33301 5.16699 6.33301 9.5 9s8.16602 4 11.499 4h145zM285.001 -0.000976562
c-12.667 0 -17.002 6.33203 -13.002 18.999l61 187h-47l-61 -187c-4 -12.667 -12 -19 -24 -19h-164c-12.667 0 -17 6.33301 -13 19l202 620c4 12 12 18 24 18h369c24 0 43 -7.33301 57 -22s23.833 -32.5 29.5 -53.5s7.83398 -43.167 6.50098 -66.5
s-4.66602 -43.666 -9.99902 -60.999l-142 -435c-4 -12.667 -12 -19 -24 -19h-251zM348.999 400.998h47l21 65h-47z" />
    <glyph glyph-name="FL00E2h" unicode="&#xe2;" 
d="M358 484h84l-33 -102h-84zM542 19l142.001 435c4.66699 16 7.66699 34.667 9 56s-0.333984 41.5 -5.00098 60.5s-13 35.167 -25 48.5s-28.333 20 -49 20h-369l-202 -620h164l67 206h84l-67 -206h251zM514.001 680h183l-12 155h-256l-112 -155h144l54 84zM495.001 703
l-17.999 -29c-6 -8.66699 -13.333 -13 -22 -13h-144c-7.33301 0 -12 2.5 -14 7.5s-0.666992 10.833 4 17.5l113 156c4.66699 8 11.667 12 21 12h256c8.66699 0 13.667 -4 15 -12l11 -156c1.33301 -6.66699 -0.833984 -12.5 -6.50098 -17.5s-12.167 -7.5 -19.5 -7.5h-183
c-3.33301 0 -6.5 1.33301 -9.5 4s-4.16699 5.66699 -3.5 9v29zM285.002 0c-12.667 0 -17.002 6.33203 -13.002 18.999l61 187h-47l-61 -187c-4 -12.667 -12 -19 -24 -19h-164c-12.667 0 -17 6.33301 -13 19l202 620c4 12 12 18 24 18h369c24 0 43 -7.33301 57 -22
s23.833 -32.5 29.5 -53.5s7.83398 -43.167 6.50098 -66.5s-4.66602 -43.666 -9.99902 -60.999l-142 -435c-4 -12.667 -12 -19 -24 -19h-251zM349 400.999h47l21 65h-47z" />
    <glyph glyph-name="FL00E4h" unicode="&#xe3;" horiz-adv-x="583" 
d="M358 484h84l-33 -102h-84zM542 19l142.001 435c4.66699 16 7.66699 34.667 9 56s-0.333984 41.5 -5.00098 60.5s-13 35.167 -25 48.5s-28.333 20 -49 20h-369l-202 -620h164l67 206h84l-67 -206h251zM439.001 753l6 -73h238l112 155h-132l-48 -74l-5 74h-239l-112 -155
h133zM408.001 674c-2.66699 -3.33301 -6.16699 -6.33301 -10.5 -9s-8.16602 -4 -11.499 -4h-133c-7.33301 0 -12.166 2.5 -14.499 7.5s-0.833008 10.833 4.5 17.5l113 156c4.66699 8 11.667 12 21 12h239c8.66699 0 13.667 -4 15 -12l1 -26l16 25
c2 3.33301 5.16699 6.33301 9.5 9s8.16602 4 11.499 4h132c7.33301 0 12.166 -2.5 14.499 -7.5s0.5 -10.833 -5.5 -17.5l-112 -156c-6 -8 -13 -12 -21 -12h-238c-9.33301 0 -14 4 -14 12l-2 26zM285.001 0c-12.667 0 -17.002 6.33203 -13.002 18.999l61 187h-47l-61 -187
c-4 -12.667 -12 -19 -24 -19h-164c-12.667 0 -17 6.33301 -13 19l202 620c4 12 12 18 24 18h369c24 0 43 -7.33301 57 -22s23.833 -32.5 29.5 -53.5s7.83398 -43.167 6.50098 -66.5s-4.66602 -43.666 -9.99902 -60.999l-142 -435c-4 -12.667 -12 -19 -24 -19h-251z
M348.999 400.999h47l21 65h-47z" />
    <glyph glyph-name="FL00E3h" unicode="&#xe4;" 
d="M358 484h84l-33 -102h-84zM542 19l142.001 435c4.66699 16 7.66699 34.667 9 56s-0.333984 41.5 -5.00098 60.5s-13 35.167 -25 48.5s-28.333 20 -49 20h-369l-202 -620h164l67 206h84l-67 -206h251zM317.001 680h183l50 155h-183zM553.001 680h144l50 155h-144z
M585.001 835c4.66699 12.667 12.668 19 24.001 19h144c13.333 0 17.666 -6.33301 12.999 -19l-50 -155c-4 -12.667 -12.333 -19 -25 -19h-144c-12 0 -16 6.33301 -12 19zM348.002 835c4.66699 12.667 13.001 19 25.001 19h183c13.333 0 17.666 -6.33301 12.999 -19l-50 -155
c-4 -12.667 -12.333 -19 -25 -19h-183c-12.667 0 -17 6.33301 -13 19zM285.003 0c-12.667 0 -17.002 6.33203 -13.002 18.999l61 187h-47l-61 -187c-4 -12.667 -12 -19 -24 -19h-164c-12.667 0 -17 6.33301 -13 19l202 620c4 12 12 18 24 18h369c24 0 43 -7.33301 57 -22
s23.833 -32.5 29.5 -53.5s7.83398 -43.167 6.50098 -66.5s-4.66602 -43.666 -9.99902 -60.999l-142 -435c-4 -12.667 -12 -19 -24 -19h-251zM349.001 400.999h47l21 65h-47z" />
    <glyph glyph-name="FL00E5h" unicode="&#xe5;" 
d="M510 781h59l-16 -48h-59zM358 484h84l-33 -102h-84zM542 19l142.001 435c4.66699 16 7.66699 34.667 9 56s-0.333984 41.5 -5.00098 60.5s-13 35.167 -25 48.5s-28.333 20 -49 20h-369l-202 -620h164l67 206h84l-67 -206h251zM415.001 680h183l50 155h-183zM447.001 835
c4.66699 12.667 12.668 19 24.001 19h183c13.333 0 17.666 -6.33301 12.999 -19l-50 -155c-4 -12.667 -12.333 -19 -25 -19h-183c-12 0 -16 6.33301 -12 19zM285.002 0c-12.667 0 -17.002 6.33203 -13.002 18.999l61 187h-47l-61 -187c-4 -12.667 -12 -19 -24 -19h-164
c-12.667 0 -17 6.33301 -13 19l202 620c4 12 12 18 24 18h369c24 0 43 -7.33301 57 -22s23.833 -32.5 29.5 -53.5s7.83398 -43.167 6.50098 -66.5s-4.66602 -43.666 -9.99902 -60.999l-142 -435c-4 -12.667 -12 -19 -24 -19h-251zM349 400.999h47l21 65h-47zM519 751.999h22
l4 10h-22z" />
    <glyph glyph-name="FL00E6h" unicode="&#xe6;" horiz-adv-x="769" 
d="M229 639c4 12 12.001 18 24.001 18h660c13.333 0 18 -6 14 -18l-51 -155c-4 -12 -12.333 -18 -25 -18h-143l-12 -39h131c12.667 0 17 -6.33301 13 -19l-51 -157c-4.66699 -12.667 -13.334 -19 -26.001 -19h-131l-13 -40h143c12.667 0 17 -6.33301 13 -19l-50 -154
c-4 -12.667 -12.333 -19 -25 -19h-412c-12 -0 -16 6.33301 -12 19l61 187h-48l-61 -187c-4 -12.667 -12 -19 -24 -19h-164c-12.667 -0 -17 6.33301 -13 19zM373.001 466l-21 -65h48l21 65h-48zM445.001 484l-33 -102h-84l33 102h84zM46.001 19h164l67 206h84l-67 -206h412
l50 154h-161l26 78h149l51 157h-149l24 76h161l51 155h-660z" />
    <glyph glyph-name="FL00E7h" unicode="&#xe7;" horiz-adv-x="502" 
d="M101 204c-5.33301 -16 -8.66699 -34.667 -10 -56s0.333984 -41.5 5.00098 -60.5s13 -35.167 25 -48.5s28.667 -20 50 -20h61l-12 -38h-54l-39 -120h184l51 158h92l50 154h-162l101 311h162l51 155h-283c-21.333 0 -42.333 -6.66699 -63 -20s-39.5 -29.5 -56.5 -48.5
s-31.833 -39.167 -44.5 -60.5s-21.334 -40 -26.001 -56zM163.999 454c5.33301 17.333 14.834 37.668 28.501 61.001s30.167 45.5 49.5 66.5s40.666 38.833 63.999 53.5s47.333 22 72 22h283c12.667 0 17 -6 13 -18l-51 -155c-4 -12 -12 -18 -24 -18h-144l-89 -274h144
c12 0 16 -6.33301 12 -19l-50 -154c-4 -12.667 -12 -19 -24 -19h-73l-45 -139c-4 -12 -12.333 -18 -25 -18h-184c-12.667 0 -17 6 -13 18l39 120c1.33301 5.33301 4.33301 9.66602 9 12.999s9.33398 5.33301 14.001 6h-5c-24.667 -0 -44 7.33301 -58 22
s-23.833 32.5 -29.5 53.5s-7.83398 43.167 -6.50098 66.5s5 44 11 62z" />
    <glyph glyph-name="FL00E8h" unicode="&#xe8;" horiz-adv-x="502" 
d="M604 836h-183l11 -155h172v155zM101 204c-5.33301 -16 -8.66699 -34.667 -10 -56s0.333984 -41.5 5.00098 -60.5s13 -35.167 25 -48.5s28.667 -20 50 -20h283l50 154h-162l26 78h150l51 157h-150l24 76h162l51 155h-283c-21.333 0 -42.333 -6.66699 -63 -20
s-39.5 -29.5 -56.5 -48.5s-31.833 -39.167 -44.5 -60.5s-21.334 -40 -26.001 -56zM163.999 454c5.33301 17.333 14.835 37.667 28.502 61s30.167 45.5 49.5 66.5s40.666 38.833 63.999 53.5s47.333 22 72 22h283c12.667 0 17 -6 13 -18l-51 -155c-4 -12 -12 -18 -24 -18
h-144l-12 -39h132c12 0 16 -6.33301 12 -19l-51 -157c-4.66699 -12.667 -13 -19 -25 -19h-132l-13 -40h144c12 0 16 -6.33301 12 -19l-50 -154c-4 -12.667 -12 -19 -24 -19h-283c-24.667 -0 -44 7.33301 -58 22s-23.833 32.5 -29.5 53.5s-7.83398 43.167 -6.50098 66.5
s5 44 11 62zM624.001 686.001c-0.666992 -6.66699 -3.49805 -12.333 -8.49805 -17s-10.833 -7 -17.5 -7h-172c-9.33301 0 -14 4 -14 12l-11 156c-0.666992 6.66699 1.66602 12.5 6.99902 17.5s11.666 7.5 18.999 7.5h183c8 0 12.667 -4.33301 14 -13v-156z" />
    <glyph glyph-name="FL00E9h" unicode="&#xe9;" horiz-adv-x="502" 
d="M512 835l-100 -155h133l112 155h-145zM101 204c-5.33301 -16 -8.66699 -34.667 -10 -56s0.333984 -41.5 5.00098 -60.5s13 -35.167 25 -48.5s28.667 -20 50 -20h283l50 154h-162l26 78h150l51 157h-150l24 76h162l51 155h-283c-21.333 0 -42.333 -6.66699 -63 -20
s-39.5 -29.5 -56.5 -48.5s-31.833 -39.167 -44.5 -60.5s-21.334 -40 -26.001 -56zM163.999 454c5.33301 17.333 14.835 37.667 28.502 61s30.167 45.5 49.5 66.5s40.666 38.833 63.999 53.5s47.333 22 72 22h283c12.667 0 17 -6 13 -18l-51 -155c-4 -12 -12 -18 -24 -18
h-144l-12 -39h132c12 0 16 -6.33301 12 -19l-51 -157c-4.66699 -12.667 -13 -19 -25 -19h-132l-13 -40h144c12 0 16 -6.33301 12 -19l-50 -154c-4 -12.667 -12 -19 -24 -19h-283c-24.667 -0 -44 7.33301 -58 22s-23.833 32.5 -29.5 53.5s-7.83398 43.167 -6.50098 66.5
s5 44 11 62zM663.001 854.001c7.33301 0 12.167 -2.50098 14.5 -7.50098s0.5 -10.833 -5.5 -17.5l-112 -156c-6 -8 -13 -12 -21 -12h-133c-6.66699 0 -11 2.33301 -13 7s-0.666992 10.334 4 17.001l100 156c3.33301 3.33301 6.83301 6.33301 10.5 9s7.16699 4 10.5 4h145z
" />
    <glyph glyph-name="FL00EAh" unicode="&#xea;" horiz-adv-x="502" 
d="M471 674c-2.66699 -3.33301 -6.16992 -6.33301 -10.5029 -9s-8.16602 -4 -11.499 -4h-183c-7.33301 0 -12 2.5 -14 7.5s-0.666992 10.833 4 17.5l113 156c4.66699 8 11.667 12 21 12h256c8.66699 0 13.667 -4 15 -12l11 -156
c0.666992 -6.66699 -1.66602 -12.5 -6.99902 -17.5s-11.666 -7.5 -18.999 -7.5h-144c-9.33301 0 -14 4.33301 -14 13v29zM163.997 454c5.33301 17.333 14.835 37.667 28.502 61s30.167 45.5 49.5 66.5s40.666 38.833 63.999 53.5s47.333 22 72 22h283c12.667 0 17 -6 13 -18
l-51 -155c-4 -12 -12 -18 -24 -18h-144l-12 -39h132c12 0 16 -6.33301 12 -19l-51 -157c-4.66699 -12.667 -13 -19 -25 -19h-132l-13 -40h144c12 0 16 -6.33301 12 -19l-50 -154c-4 -12.667 -12 -19 -24 -19h-283c-24.667 -0 -44 7.33301 -58 22s-23.833 32.5 -29.5 53.5
s-7.83398 43.167 -6.50098 66.5s5 44 11 62zM100.999 204.001c-5.33301 -16 -8.66699 -34.667 -10 -56s0.333984 -41.5 5.00098 -60.5s13 -35.167 25 -48.5s28.667 -20 50 -20h283l50 154h-162l26 78h150l51 157h-150l24 76h162l51 155h-283
c-21.333 0 -42.333 -6.66699 -63 -20s-39.5 -29.5 -56.5 -48.5s-31.833 -39.167 -44.5 -60.5s-21.334 -40 -26.001 -56zM507.998 764.001v-84h144l-12 155h-256l-112 -155h183z" />
    <glyph glyph-name="FL00EBh" unicode="&#xeb;" horiz-adv-x="502" 
d="M474 680c-4 -12.667 -12.332 -19 -24.999 -19h-183c-12.667 0 -17 6.33301 -13 19l50 155c4.66699 12.667 13 19 25 19h183c13.333 0 17.666 -6.33301 12.999 -19zM671.001 680c-4 -12.667 -12.332 -19 -24.999 -19h-144c-12.667 0 -17 6.33301 -13 19l50 155
c4.66699 12.667 13 19 25 19h144c13.333 0 17.666 -6.33301 12.999 -19zM164.002 454c5.33301 17.333 14.835 37.667 28.502 61s30.167 45.5 49.5 66.5s40.666 38.833 63.999 53.5s47.333 22 72 22h283c12.667 0 17 -6 13 -18l-51 -155c-4 -12 -12 -18 -24 -18h-144l-12 -39
h132c12 0 16 -6.33301 12 -19l-51 -157c-4.66699 -12.667 -13 -19 -25 -19h-132l-13 -40h144c12 0 16 -6.33301 12 -19l-50 -154c-4 -12.667 -12 -19 -24 -19h-283c-24.667 -0 -44 7.33301 -58 22s-23.833 32.5 -29.5 53.5s-7.83398 43.167 -6.50098 66.5s5 44 11 62z
M101.004 204.001c-5.33301 -16 -8.66699 -34.667 -10 -56s0.333984 -41.5 5.00098 -60.5s13 -35.167 25 -48.5s28.667 -20 50 -20h283l50 154h-162l26 78h150l51 157h-150l24 76h162l51 155h-283c-21.333 0 -42.333 -6.66699 -63 -20s-39.5 -29.5 -56.5 -48.5
s-31.833 -39.167 -44.5 -60.5s-21.334 -40 -26.001 -56zM702.003 835.001h-144l-50 -155h144zM505.003 835.001h-183l-50 -155h183z" />
    <glyph glyph-name="FL00ECh" unicode="&#xec;" horiz-adv-x="327" 
d="M481 854c3.33301 0 6.49902 -1.33203 9.49902 -3.99902s4.5 -5.66699 4.5 -9v-156c-1.33301 -6.66699 -4.33301 -12.334 -9 -17.001s-10.334 -7 -17.001 -7h-132c-9.33301 0 -14 4 -14 12l-12 156c-1.33301 6.66699 0.833984 12.5 6.50098 17.5s11.834 7.5 18.501 7.5
h145zM220.999 639.001c4 12 12 18 24 18h251c12.667 0 17 -6 13 -18l-202 -620c-4 -12.667 -12 -19 -24 -19h-251c-12.667 0 -17 6.33301 -13 19zM37.999 19.001h251l202 620h-251zM329.999 835.001l13 -155h132v155h-145z" />
    <glyph glyph-name="FL00EDh" unicode="&#xed;" horiz-adv-x="327" 
d="M347 842c2.66699 3.33301 6.16797 6.33203 10.501 8.99902s8.16602 4 11.499 4h183c7.33301 0 12 -2.5 14 -7.5s0.666992 -10.833 -4 -17.5l-113 -156c-6 -8 -13.333 -12 -22 -12h-172c-6.66699 0 -11 2.33301 -13 7s-1 10.334 3 17.001zM307.001 18.999
c-4 -12.667 -12 -19 -24 -19h-251c-12.667 0 -17 6.33301 -13 19l202 620c4 12 12 18 24 18h251c12.667 0 17 -6 13 -18zM491.001 638.999h-251l-202 -620h251zM261.001 680.999h172l113 155h-183z" />
    <glyph glyph-name="FL00EEh" unicode="&#xee;" horiz-adv-x="327" 
d="M387 674c-6 -8.66699 -13.332 -13 -21.999 -13h-183c-7.33301 0 -12 2.5 -14 7.5s-0.666992 10.833 4 17.5l113 156c4.66699 8 11.667 12 21 12h256c8.66699 0 13.667 -4 15 -12l11 -156c1.33301 -6.66699 -0.833984 -12.5 -6.50098 -17.5s-12.167 -7.5 -19.5 -7.5h-144
c-8 0 -12.667 4.33301 -14 13v29zM307.001 19c-4 -12.667 -12 -19 -24 -19h-251c-12.667 -0 -17 6.33301 -13 19l202 620c4 12 12 18 24 18h251c12.667 0 17 -6 13 -18zM491.001 639h-251l-202 -620h251zM424.001 764v-84h144l-12 155h-256l-112 -155h183z" />
    <glyph glyph-name="FL00EFh" unicode="&#xef;" horiz-adv-x="327" 
d="M390 680c-4 -12.667 -12.332 -19 -24.999 -19h-183c-12.667 0 -17 6.33301 -13 19l50 155c4.66699 12.667 13 19 25 19h183c13.333 0 17.666 -6.33301 12.999 -19zM587.001 680c-4 -12.667 -12.332 -19 -24.999 -19h-144c-12.667 0 -17 6.33301 -13 19l50 155
c4.66699 12.667 13 19 25 19h144c13.333 0 17.666 -6.33301 12.999 -19zM307.002 19c-4 -12.667 -12 -19 -24 -19h-251c-12.667 -0 -17 6.33301 -13 19l202 620c4 12 12 18 24 18h251c12.667 0 17 -6 13 -18zM491.002 639h-251l-202 -620h251zM618.002 835h-144l-50 -155
h144zM421.002 835h-183l-50 -155h183z" />
    <glyph glyph-name="FL00F0h" unicode="&#xf0;" 
d="M283 251h84l-26 -78h-84zM684 454c4.66699 16 7.66699 34.667 9 56s-0.333984 41.5 -5.00098 60.5s-13 35.167 -25 48.5s-28.333 20 -49 20h-68l28 86h-164l-28 -86h-137l-51 -155h248l-24 -76h-248l-127 -389h369c20.667 0 41.334 6.66699 62.001 20
s39.5 29.5 56.5 48.5s31.833 39.167 44.5 60.5s21.667 40 27 56zM620 204c-6 -18 -15.8359 -38.668 -29.5029 -62.001s-30.167 -45.5 -49.5 -66.5s-40.666 -38.833 -63.999 -53.5s-47 -22 -71 -22h-369c-12.667 0 -17 6.33301 -13 19l127 389c4 12.667 12.333 19 25 19h229
l12 39h-229c-12.667 0 -17 6 -13 18l51 155c4 12 12 18 24 18h118l23 68c4 12.667 12.333 19 25 19h164c12 0 16 -6.33301 12 -19l-23 -68h50c24 0 43 -7.33301 57 -22s23.833 -32.5 29.5 -53.5s7.83398 -43.167 6.50098 -66.5s-4.66602 -43.666 -9.99902 -60.999z
M280.997 191.999h47l13 40h-47z" />
    <glyph glyph-name="FL00F1h" unicode="&#xf1;" 
d="M291 19h251.001l142 435c4.66699 16 7.66699 34.667 9 56s-0.333984 41.5 -5.00098 60.5s-13 35.167 -25 48.5s-28.333 20 -49 20h-369l-202 -620h164l151 465h84zM445.001 753l5 -73h238l112 155h-131l-48 -74l-5 74h-240l-112 -155h133zM413.001 674
c-2.66699 -3.33301 -6 -6.33301 -10 -9s-8 -4 -12 -4h-133c-7.33301 0 -12 2.5 -14 7.5s-0.333008 10.833 5 17.5l113 156c4.66699 8 11.334 12 20.001 12h240c8.66699 0 13.667 -4 15 -12l1 -26l15 25c3.33301 3.33301 6.83301 6.33301 10.5 9s7.5 4 11.5 4h131
c7.33301 0 12.166 -2.5 14.499 -7.5s0.833008 -10.833 -4.5 -17.5l-112 -156c-6 -8 -13.333 -12 -22 -12h-238c-8.66699 0 -13 4 -13 12l-3 26zM417.001 466l-47.002 -0.000976562l-145 -447c-4 -12.667 -12 -19 -24 -19h-164c-12.667 0 -17 6.33301 -13 19l202 620
c4 12 12 18 24 18h369c24 0 43 -7.33301 57 -22s23.833 -32.5 29.5 -53.5s7.83398 -43.167 6.50098 -66.5s-4.66602 -43.666 -9.99902 -60.999l-142 -435c-4 -12.667 -12 -19 -24 -19h-251c-12.667 -0 -17 6.33301 -13 19z" />
    <glyph glyph-name="FL00F3h" unicode="&#xf2;" 
d="M353 484h89l-101 -311h-89zM684 454c4.66699 16 7.66406 34.667 8.99707 56s-0.333984 41.5 -5.00098 60.5s-13 35.167 -25 48.5s-28.333 20 -49 20h-240c-21.333 0 -42.166 -6.66699 -62.499 -20s-39 -29.5 -56 -48.5s-31.833 -39.167 -44.5 -60.5
s-21.334 -40 -26.001 -56l-82 -250c-5.33301 -16 -8.66602 -34.667 -9.99902 -56s0.333984 -41.5 5.00098 -60.5s12.834 -35.167 24.501 -48.5s28.167 -20 49.5 -20h240c20.667 0 41.334 6.66699 62.001 20s39.5 29.5 56.5 48.5s31.833 39.167 44.5 60.5s21.667 40 27 56z
M605.997 836h-183l11 -155h172v155zM624.997 686c0 -6.66699 -2.50098 -12.333 -7.50098 -17s-10.833 -7 -17.5 -7h-172c-9.33301 0 -14 4 -14 12l-11 156c-1.33301 6.66699 0.833984 12.5 6.50098 17.5s12.167 7.5 19.5 7.5h183c3.33301 0 6.5 -1.33301 9.5 -4
s4.16699 -5.66699 3.5 -9v-156zM619.996 204.001c-6 -18 -15.8359 -38.667 -29.5029 -62s-30.167 -45.5 -49.5 -66.5s-40.666 -38.833 -63.999 -53.5s-47 -22 -71 -22h-240c-24 0 -43 7.33301 -57 22s-23.667 32.5 -29 53.5s-7.5 43.167 -6.5 66.5s4.5 44 10.5 62l82 250
c5.33301 17.333 15 37.666 29 60.999s30.5 45.5 49.5 66.5s40.167 38.833 63.5 53.5s47 22 71 22h240c24 0 43 -7.33301 57 -22s23.833 -32.5 29.5 -53.5s7.83398 -43.167 6.50098 -66.5s-4.66602 -43.666 -9.99902 -60.999zM275.993 192.001h52l89 274h-52z" />
    <glyph glyph-name="FL00F2h" unicode="&#xf3;" 
d="M353 484h89l-101 -311h-89zM684 454c4.66699 16 7.66406 34.667 8.99707 56s-0.333984 41.5 -5.00098 60.5s-13 35.167 -25 48.5s-28.333 20 -49 20h-240c-21.333 0 -42.166 -6.66699 -62.499 -20s-39 -29.5 -56 -48.5s-31.833 -39.167 -44.5 -60.5
s-21.334 -40 -26.001 -56l-82 -250c-5.33301 -16 -8.66602 -34.667 -9.99902 -56s0.333984 -41.5 5.00098 -60.5s12.834 -35.167 24.501 -48.5s28.167 -20 49.5 -20h240c20.667 0 41.334 6.66699 62.001 20s39.5 29.5 56.5 48.5s31.833 39.167 44.5 60.5s21.667 40 27 56z
M513.997 835l-100 -155h133l112 155h-145zM664.997 854c6.66699 0 11.334 -2.50098 14.001 -7.50098s1 -10.833 -5 -17.5l-112 -156c-6 -8 -13 -12 -21 -12h-133c-6.66699 0 -11 2.33301 -13 7s-0.666992 10.334 4 17.001l100 156c2 3.33301 5.16699 6.33301 9.5 9
s8.16602 4 11.499 4h145zM619.997 203.999c-6 -18 -15.8359 -38.667 -29.5029 -62s-30.167 -45.5 -49.5 -66.5s-40.666 -38.833 -63.999 -53.5s-47 -22 -71 -22h-240c-24 0 -43 7.33301 -57 22s-23.667 32.5 -29 53.5s-7.5 43.167 -6.5 66.5s4.5 44 10.5 62l82 250
c5.33301 17.333 15 37.666 29 60.999s30.5 45.5 49.5 66.5s40.167 38.833 63.5 53.5s47 22 71 22h240c24 0 43 -7.33301 57 -22s23.833 -32.5 29.5 -53.5s7.83398 -43.167 6.50098 -66.5s-4.66602 -43.666 -9.99902 -60.999zM275.994 191.999h52l89 274h-52z" />
    <glyph glyph-name="FL00F4h" unicode="&#xf4;" 
d="M353 484h89l-101 -311h-89zM684 454c4.66699 16 7.66406 34.667 8.99707 56s-0.333984 41.5 -5.00098 60.5s-13 35.167 -25 48.5s-28.333 20 -49 20h-240c-21.333 0 -42.166 -6.66699 -62.499 -20s-39 -29.5 -56 -48.5s-31.833 -39.167 -44.5 -60.5
s-21.334 -40 -26.001 -56l-82 -250c-5.33301 -16 -8.66602 -34.667 -9.99902 -56s0.333984 -41.5 5.00098 -60.5s12.834 -35.167 24.501 -48.5s28.167 -20 49.5 -20h240c20.667 0 41.334 6.66699 62.001 20s39.5 29.5 56.5 48.5s31.833 39.167 44.5 60.5s21.667 40 27 56z
M513.997 680h183l-12 155h-256l-112 -155h144l54 84zM494.997 703l-17.999 -29c-6 -8.66699 -13.333 -13 -22 -13h-144c-7.33301 0 -12 2.5 -14 7.5s-0.666992 10.833 4 17.5l113 156c4.66699 8 11.667 12 21 12h256c8.66699 0 13.667 -4 15 -12l11 -156
c1.33301 -6.66699 -0.833984 -12.5 -6.50098 -17.5s-12.167 -7.5 -19.5 -7.5h-183c-3.33301 0 -6.5 1.33301 -9.5 4s-4.16699 5.66699 -3.5 9v29zM619.998 204c-6 -18 -15.8359 -38.667 -29.5029 -62s-30.167 -45.5 -49.5 -66.5s-40.666 -38.833 -63.999 -53.5
s-47 -22 -71 -22h-240c-24 -0 -43 7.33301 -57 22s-23.667 32.5 -29 53.5s-7.5 43.167 -6.5 66.5s4.5 44 10.5 62l82 250c5.33301 17.333 15 37.666 29 60.999s30.5 45.5 49.5 66.5s40.167 38.833 63.5 53.5s47 22 71 22h240c24 0 43 -7.33301 57 -22
s23.833 -32.5 29.5 -53.5s7.83398 -43.167 6.50098 -66.5s-4.66602 -43.666 -9.99902 -60.999zM275.995 192h52l89 274h-52z" />
    <glyph glyph-name="FL00F5h" unicode="&#xf5;" horiz-adv-x="583" 
d="M439 753l6 -73h238l112 155h-132l-48 -74l-5 74h-239l-112 -155h133zM684 454c4.66699 16 7.66406 34.667 8.99707 56s-0.333984 41.5 -5.00098 60.5s-13 35.167 -25 48.5s-28.333 20 -49 20h-240c-21.333 0 -42.166 -6.66699 -62.499 -20s-39 -29.5 -56 -48.5
s-31.833 -39.167 -44.5 -60.5s-21.334 -40 -26.001 -56l-82 -250c-5.33301 -16 -8.66602 -34.667 -9.99902 -56s0.333984 -41.5 5.00098 -60.5s12.834 -35.167 24.501 -48.5s28.167 -20 49.5 -20h240c20.667 0 41.334 6.66699 62.001 20s39.5 29.5 56.5 48.5
s31.833 39.167 44.5 60.5s21.667 40 27 56zM251.997 173l101 311h89l-101 -311h-89zM327.997 192l89 274h-52l-89 -274h52zM619.997 204c-6 -18 -15.8359 -38.667 -29.5029 -62s-30.167 -45.5 -49.5 -66.5s-40.666 -38.833 -63.999 -53.5s-47 -22 -71 -22h-240
c-24 -0 -43 7.33301 -57 22s-23.667 32.5 -29 53.5s-7.5 43.167 -6.5 66.5s4.5 44 10.5 62l82 250c5.33301 17.333 15 37.666 29 60.999s30.5 45.5 49.5 66.5s40.167 38.833 63.5 53.5s47 22 71 22h240c24 0 43 -7.33301 57 -22s23.833 -32.5 29.5 -53.5
s7.83398 -43.167 6.50098 -66.5s-4.66602 -43.666 -9.99902 -60.999zM407.994 674c-2.66699 -3.33301 -6.16699 -6.33301 -10.5 -9s-8.16602 -4 -11.499 -4h-133c-7.33301 0 -12.166 2.5 -14.499 7.5s-0.833008 10.833 4.5 17.5l113 156c4.66699 8 11.667 12 21 12h239
c8.66699 0 13.667 -4 15 -12l1 -26l16 25c2 3.33301 5.16699 6.33301 9.5 9s8.16602 4 11.499 4h132c7.33301 0 12.166 -2.5 14.499 -7.5s0.5 -10.833 -5.5 -17.5l-112 -156c-6 -8 -13 -12 -21 -12h-238c-9.33301 0 -14 4 -14 12l-2 26z" />
    <glyph glyph-name="FL00F6h" unicode="&#xf6;" 
d="M353 484h89l-101 -311h-89zM684 454c4.66699 16 7.66406 34.667 8.99707 56s-0.333984 41.5 -5.00098 60.5s-13 35.167 -25 48.5s-28.333 20 -49 20h-240c-21.333 0 -42.166 -6.66699 -62.499 -20s-39 -29.5 -56 -48.5s-31.833 -39.167 -44.5 -60.5
s-21.334 -40 -26.001 -56l-82 -250c-5.33301 -16 -8.66602 -34.667 -9.99902 -56s0.333984 -41.5 5.00098 -60.5s12.834 -35.167 24.501 -48.5s28.167 -20 49.5 -20h240c20.667 0 41.334 6.66699 62.001 20s39.5 29.5 56.5 48.5s31.833 39.167 44.5 60.5s21.667 40 27 56z
M316.997 680h144l50 155h-144zM513.997 680h183l50 155h-183zM545.997 835c4.66699 12.667 12.668 19 24.001 19h183c13.333 0 17.666 -6.33301 12.999 -19l-50 -155c-4 -12.667 -12.333 -19 -25 -19h-183c-12 0 -16 6.33301 -12 19zM347.998 835
c4.66699 12.667 13.001 19 25.001 19h144c13.333 0 17.666 -6.33301 12.999 -19l-50 -155c-4 -12.667 -12.333 -19 -25 -19h-144c-12.667 0 -17 6.33301 -13 19zM619.999 204c-6 -18 -15.8359 -38.667 -29.5029 -62s-30.167 -45.5 -49.5 -66.5
s-40.666 -38.833 -63.999 -53.5s-47 -22 -71 -22h-240c-24 -0 -43 7.33301 -57 22s-23.667 32.5 -29 53.5s-7.5 43.167 -6.5 66.5s4.5 44 10.5 62l82 250c5.33301 17.333 15 37.666 29 60.999s30.5 45.5 49.5 66.5s40.167 38.833 63.5 53.5s47 22 71 22h240
c24 0 43 -7.33301 57 -22s23.833 -32.5 29.5 -53.5s7.83398 -43.167 6.50098 -66.5s-4.66602 -43.666 -9.99902 -60.999zM275.996 192h52l89 274h-52z" />
    <glyph glyph-name="FL00F7h" unicode="&#xf7;" horiz-adv-x="485" 
d="M181 61h148l51 159h-148zM116 256h406l52 161h-406zM308 453h148l52 159h-148zM342 612c4 12.667 12 19 24 19h148c12.667 0 17 -6.33301 13 -19l-52 -159c-4 -12.667 -12.333 -19 -25 -19h-148c-12 0 -16 6.33301 -12 19zM149 417c4.66699 12.667 13.333 19 26 19h406
c12.667 0 16.667 -6.33301 12 -19l-52 -161c-4 -12.667 -12.333 -19 -25 -19h-406c-12.667 0 -17 6.33301 -13 19zM213.999 220c4.66699 12.667 13 19 25 19h148c12.667 0 16.667 -6.33301 12 -19l-51 -159c-4 -12 -12.333 -18 -25 -18h-148c-12 0 -16 6 -12 18z" />
    <glyph glyph-name="FL00F8h" unicode="&#xf8;" 
d="M276 173l140 231l-75 -231h-65zM353 484h69l-148 -245zM684 454c4.66699 16 7.66406 34.667 8.99707 56s-0.333984 41.5 -5.00098 60.5s-13 35.167 -25 48.5s-28.333 20 -49 20h-240c-21.333 0 -42.166 -6.66699 -62.499 -20s-39 -29.5 -56 -48.5
s-31.833 -39.167 -44.5 -60.5s-21.334 -40 -26.001 -56l-82 -250c-5.33301 -16 -8.66602 -34.667 -9.99902 -56s0.333984 -41.5 5.00098 -60.5s12.834 -35.167 24.501 -48.5s28.167 -20 49.5 -20h240c20.667 0 41.334 6.66699 62.001 20s39.5 29.5 56.5 48.5
s31.833 39.167 44.5 60.5s21.667 40 27 56zM619.997 204c-6 -18 -15.8359 -38.667 -29.5029 -62s-30.167 -45.5 -49.5 -66.5s-40.666 -38.833 -63.999 -53.5s-47 -22 -71 -22h-240c-24 -0 -43 7.33301 -57 22s-23.667 32.5 -29 53.5s-7.5 43.167 -6.5 66.5s4.5 44 10.5 62
l82 250c5.33301 17.333 15 37.666 29 60.999s30.5 45.5 49.5 66.5s40.167 38.833 63.5 53.5s47 22 71 22h240c24 0 43 -7.33301 57 -22s23.833 -32.5 29.5 -53.5s7.83398 -43.167 6.50098 -66.5s-4.66602 -43.666 -9.99902 -60.999zM334.994 372
c9.33301 15.333 18.667 30.5 28 45.5s19 31.167 29 48.5h-27zM327.995 192l26 80c-7.33301 -12.667 -14.833 -25.5 -22.5 -38.5s-16.167 -26.833 -25.5 -41.5h22z" />
    <glyph glyph-name="FL00F9h" unicode="&#xf9;" 
d="M226 639c4 12 12 18 24 18h251c12.667 0 17 -6 13 -18l-146 -447h47l146 447c4 12 12 18 24 18h164c12.667 0 17 -6 13 -18l-202 -620c-4 -12.667 -12 -19 -24 -19h-370c-24 -0 -43 7.33301 -57 22s-23.667 32.5 -29 53.5s-7.5 43.167 -6.5 66.5s4.5 44 10.5 62zM606 854
c9.33301 0 14 -4.33203 14 -12.999v-156c-0.666992 -6.66699 -3.5 -12.334 -8.5 -17.001s-10.833 -7 -17.5 -7h-132c-9.33301 0 -14 4 -14 12l-12 156c0 6.66699 2.5 12.5 7.5 17.5s11.167 7.5 18.5 7.5h144zM456 835.001l12 -155h132v155h-144zM103 204.001
c-5.33301 -16 -8.66895 -34.667 -10.002 -56s0.333984 -41.5 5.00098 -60.5s12.834 -35.167 24.501 -48.5s28.167 -20 49.5 -20h370l202 620h-164l-152 -466h-84l152 466h-251z" />
    <glyph glyph-name="FL00FAh" unicode="&#xfa;" 
d="M226 639c4 12 12 18 24 18h251c12.667 0 17 -6 13 -18l-146 -447h47l146 447c4 12 12 18 24 18h164c12.667 0 17 -6 13 -18l-202 -620c-4 -12.667 -12 -19 -24 -19h-370c-24 -0 -43 7.33301 -57 22s-23.667 32.5 -29 53.5s-7.5 43.167 -6.5 66.5s4.5 44 10.5 62zM495 842
c2.66699 3.33301 5.99902 6.33203 9.99902 8.99902s8 4 12 4h183c7.33301 0 12 -2.5 14 -7.5s0.333008 -10.833 -5 -17.5l-113 -156c-6 -8 -13 -12 -21 -12h-172c-6.66699 0 -11.167 2.33301 -13.5 7s-1.16602 10.334 3.50098 17.001zM408.999 680.999h172l113 155h-183z
M102.999 203.999c-5.33301 -16 -8.66895 -34.667 -10.002 -56s0.333984 -41.5 5.00098 -60.5s12.834 -35.167 24.501 -48.5s28.167 -20 49.5 -20h370l202 620h-164l-152 -466h-84l152 466h-251z" />
    <glyph glyph-name="FL00FBh" unicode="&#xfb;" 
d="M226 639c4 12 12 18 24 18h251c12.667 0 17 -6 13 -18l-146 -447h47l146 447c4 12 12 18 24 18h164c12.667 0 17 -6 13 -18l-202 -620c-4 -12.667 -12 -19 -24 -19h-370c-24 -0 -43 7.33301 -57 22s-23.667 32.5 -29 53.5s-7.5 43.167 -6.5 66.5s4.5 44 10.5 62zM516 674
c-6 -8.66699 -13.332 -13 -21.999 -13h-183c-7.33301 0 -12 2.5 -14 7.5s-0.666992 10.833 4 17.5l113 156c4.66699 8 11.667 12 21 12h256c8.66699 0 13.667 -4 15 -12l11 -156c1.33301 -6.66699 -0.833984 -12.5 -6.50098 -17.5s-12.167 -7.5 -19.5 -7.5h-144
c-8 0 -12.667 4.33301 -14 13v29zM553.001 764v-84h144l-12 155h-256l-112 -155h183zM103.001 204c-5.33301 -16 -8.66895 -34.667 -10.002 -56s0.333984 -41.5 5.00098 -60.5s12.834 -35.167 24.501 -48.5s28.167 -20 49.5 -20h370l202 620h-164l-152 -466h-84l152 466
h-251z" />
    <glyph glyph-name="FL00FCh" unicode="&#xfc;" 
d="M519 680c-4 -12.667 -12.332 -19 -24.999 -19h-183c-12.667 0 -17 6.33301 -13 19l50 155c4.66699 12.667 13 19 25 19h183c13.333 0 17.666 -6.33301 12.999 -19zM716.001 680c-4 -12.667 -12.332 -19 -24.999 -19h-144c-12 0 -16 6.33301 -12 19l50 155
c4.66699 12.667 12.667 19 24 19h144c13.333 0 17.666 -6.33301 12.999 -19zM226.002 639c4 12 12 18 24 18h251c12.667 0 17 -6 13 -18l-146 -447h47l146 447c4 12 12 18 24 18h164c12.667 0 17 -6 13 -18l-202 -620c-4 -12.667 -12 -19 -24 -19h-370
c-24 -0 -43 7.33301 -57 22s-23.667 32.5 -29 53.5s-7.5 43.167 -6.5 66.5s4.5 44 10.5 62zM103.002 204c-5.33301 -16 -8.66895 -34.667 -10.002 -56s0.333984 -41.5 5.00098 -60.5s12.834 -35.167 24.501 -48.5s28.167 -20 49.5 -20h370l202 620h-164l-152 -466h-84
l152 466h-251zM746.999 835h-144l-50 -155h144zM549.999 835h-183l-50 -155h183z" />
    <glyph glyph-name="FL00FDh" unicode="&#xfd;" 
d="M620 204c-6 -18 -15.834 -38.666 -29.501 -61.999s-30.167 -45.5 -49.5 -66.5s-40.666 -38.833 -63.999 -53.5s-47 -22 -71 -22h-369c-12.667 0 -17 6.33301 -13 19l50 154c4 12.667 12.333 19 25 19h316l13 38h-187c-24 0 -43 7.33301 -57 22s-23.667 32.5 -29 53.5
s-7.5 43.167 -6.5 66.5s4.5 43.666 10.5 60.999l67 206c4 12 12 18 24 18h251c12.667 0 17 -6 13 -18l-71 -218h47l71 218c4 12 12 18 24 18h164c12.667 0 17 -6 13 -18zM494.999 842.001c2.66699 3.33301 5.99902 6.33203 9.99902 8.99902s8 4 12 4h183
c7.33301 0 12 -2.5 14 -7.5s0.333008 -10.833 -5 -17.5l-113 -156c-6 -8 -13 -12 -21 -12h-172c-6.66699 0 -11.167 2.33301 -13.5 7s-1.16602 10.334 3.50098 17.001zM408.998 681h172l113 155h-183zM743.998 639h-164.004l-77 -236h-84l77 236h-251l-67 -206
c-5.33301 -16 -8.66602 -34.667 -9.99902 -56s0.333984 -41.5 5.00098 -60.5s12.834 -35.167 24.501 -48.5s28.167 -20 49.5 -20h206l-25 -75h-335l-50 -154h369c20.667 0 41.334 6.66699 62.001 20s39.5 29.5 56.5 48.5s31.833 39.167 44.5 60.5s21.667 40 27 56z" />
    <glyph glyph-name="FL00FEh" unicode="&#xfe;" 
d="M312 19c-4 -12.667 -12.001 -19.001 -24.001 -19.001h-251c-12.667 0 -17 6.33301 -13 19l202 620c4 12 12 18 24 18h251c12.667 0 17 -6 13 -18l-28 -84h100c24 0 43 -7.33301 57 -22s23.667 -32.5 29 -53.5s7.5 -43.333 6.5 -67s-4.5 -44.167 -10.5 -61.5l-15 -45
c-5.33301 -17.333 -15 -37.666 -29 -60.999s-30.667 -45.5 -50 -66.5s-40.666 -38.833 -63.999 -53.5s-47 -22 -71 -22h-100zM454.999 297.999l21 65h-52l-21 -65h52zM378.999 279.999l33 101h88l-33 -101h-88zM326.999 120.999l118.002 0.000976562
c20.667 0 41.334 6.66699 62.001 20s39.667 29.666 57 48.999s32.166 39.5 44.499 60.5s21.166 39.5 26.499 55.5l15 45c5.33301 16 8.66602 34.667 9.99902 56s-0.5 41.5 -5.5 60.5s-13.5 35.167 -25.5 48.5s-28.333 20 -49 20h-118l34 103h-251l-202 -620h251z" />
    <glyph glyph-name="FL00FFh" unicode="&#xff;" 
d="M620 204c-6 -18 -15.834 -38.666 -29.501 -61.999s-30.167 -45.5 -49.5 -66.5s-40.666 -38.833 -63.999 -53.5s-47 -22 -71 -22h-369c-12.667 0 -17 6.33301 -13 19l50 154c4 12.667 12.333 19 25 19h316l13 38h-187c-24 0 -43 7.33301 -57 22s-23.667 32.5 -29 53.5
s-7.5 43.167 -6.5 66.5s4.5 43.666 10.5 60.999l67 206c4 12 12 18 24 18h251c12.667 0 17 -6 13 -18l-71 -218h47l71 218c4 12 12 18 24 18h164c12.667 0 17 -6 13 -18zM518.999 680.001c-4 -12.667 -12.332 -19 -24.999 -19h-183c-12.667 0 -17 6.33301 -13 19l50 155
c4.66699 12.667 13 19 25 19h183c13.333 0 17.666 -6.33301 12.999 -19zM716 680.001c-4 -12.667 -12.332 -19 -24.999 -19h-144c-12 0 -16 6.33301 -12 19l50 155c4.66699 12.667 12.667 19 24 19h144c13.333 0 17.666 -6.33301 12.999 -19zM747.001 835.001h-144l-50 -155
h144zM550.001 835.001h-183l-50 -155h183zM744.001 639.001h-164.004l-77 -236h-84l77 236h-251l-67 -206c-5.33301 -16 -8.66602 -34.667 -9.99902 -56s0.333984 -41.5 5.00098 -60.5s12.834 -35.167 24.501 -48.5s28.167 -20 49.5 -20h206l-25 -75h-335l-50 -154h369
c20.667 0 41.334 6.66699 62.001 20s39.5 29.5 56.5 48.5s31.833 39.167 44.5 60.5s21.667 40 27 56z" />
    <glyph glyph-name="FL0152h" unicode="&#x152;" horiz-adv-x="907" 
d="M232 651c6 18 16 39 30 63s30.667 46.667 50 68s40.833 39.5 64.5 54.5s48.167 22.5 73.5 22.5h673c12 0 16 -6.33301 12 -19l-51 -158c-4.66699 -12.667 -13 -19 -25 -19h-147l-43 -134h134c12.667 0 17 -6.33301 13 -19l-53 -161c-4 -12.667 -12.333 -19 -25 -19h-134
l-43 -134h147c12 0 16 -6.33301 12 -19l-52 -158c-4 -12.667 -12 -19 -24 -19h-673c-25.333 0 -45 7.5 -59 22.5s-23.667 33.167 -29 54.5s-7.33301 44 -6 68s5 45 11 63zM467 196l151 467h-89l-151 -467h89zM353 177l164 505h127l-164 -505h-127zM107 208
c-5.33301 -16 -8.83301 -35 -10.5 -57s-0.166992 -42.667 4.5 -62s13 -35.833 25 -49.5s29 -20.5 51 -20.5h673l52 158h-166l55 172h153l53 161h-153l56 172h166l51 158h-673c-22 0 -43.333 -6.83301 -64 -20.5s-39.667 -30.167 -57 -49.5s-32.333 -40 -45 -62
s-21.667 -41 -27 -57z" />
    <glyph glyph-name="FL0153h" unicode="&#x153;" horiz-adv-x="907" 
d="M172 454c5.33301 17.333 15.001 37.667 29.001 61s30.5 45.5 49.5 66.5s40.167 38.833 63.5 53.5s47 22 71 22h658c13.333 0 18 -6 14 -18l-51 -155c-4 -12 -12.333 -18 -25 -18h-143l-12 -39h131c12.667 0 17 -6.33301 13 -19l-51 -157
c-4.66699 -12.667 -13.334 -19 -26.001 -19h-131l-13 -40h143c12.667 0 17 -6.33301 13 -19l-50 -154c-4 -12.667 -12.333 -19 -25 -19h-658c-24 -0 -43 7.33301 -57 22s-23.667 32.5 -29 53.5s-7.5 43.167 -6.5 66.5s4.5 44 10.5 62zM461.001 192.001l89 274h-87l-89 -274
h87zM349.001 173.001l101 311h124l-101 -311h-124zM108.001 204.001c-5.33301 -16 -8.66797 -34.667 -10.001 -56s0.5 -41.5 5.5 -60.5s13.333 -35.167 25 -48.5s28.167 -20 49.5 -20h658l50 154h-162l26 78h150l51 157h-150l24 76h162l51 155h-658
c-21.333 0 -42.166 -6.66699 -62.499 -20s-39.166 -29.5 -56.499 -48.5s-32.333 -39.167 -45 -60.5s-21.334 -40 -26.001 -56z" />
    <glyph glyph-name="FL0160h" unicode="&#x160;" horiz-adv-x="523" 
d="M522 859c2.66699 3.33301 6.16504 6.33301 10.498 9s8.16602 4 11.499 4h188c7.33301 0 12 -2.5 14 -7.5s0.666992 -10.833 -4 -17.5l-115 -159c-3.33301 -3.33301 -7.16602 -6.33301 -11.499 -9s-8.16602 -4 -11.499 -4h-262c-8.66699 0 -13 4.33301 -13 13l-12 159
c-1.33301 6.66699 0.833984 12.5 6.50098 17.5s12.167 7.5 19.5 7.5h147c9.33301 0 14 -4.33301 14 -13l1 -29zM164.998 464c6 18 15.998 38.832 29.998 62.499s30.833 46.334 50.5 68.001s41.334 40 65.001 55s48.167 22.5 73.5 22.5h309c12.667 0 17 -6.33301 13 -19
l-51 -158c-4 -12.667 -12.333 -19 -25 -19h-170l-13 -40h170c12.667 0 16.667 -6.33301 12 -19l-67 -209c-6 -18 -16.167 -39 -30.5 -63s-31.166 -46.667 -50.499 -68s-41 -39.5 -65 -54.5s-48.333 -22.5 -73 -22.5h-310c-12.667 -0 -17 6.33301 -13 19l52 158
c4 12.667 12.333 19 25 19h171l13 41h-171c-12.667 0 -17 6.33301 -13 19zM115.996 255.999l190 0.00195312l-25 -79h-190l-52 -158h310c21.333 0 42.5 6.83301 63.5 20.5s40.167 30.167 57.5 49.5s32.5 40 45.5 62s22.167 41 27.5 57l67 209h-189l26 78h189l51 158h-309
c-22 0 -43.5 -6.83301 -64.5 -20.5s-40.167 -30.334 -57.5 -50.001s-32.333 -40.334 -45 -62.001s-21.667 -40.5 -27 -56.5zM483.996 767.001v86h-147l11 -159h262l116 159h-188z" />
    <glyph glyph-name="FL0161h" unicode="&#x161;" horiz-adv-x="523" 
d="M514 841c6 8.66699 13.002 13 21.002 13h184c7.33301 0 12.166 -2.5 14.499 -7.5s0.5 -10.833 -5.5 -17.5l-112 -156c-6 -8 -13 -12 -21 -12h-257c-8.66699 0 -13 4 -13 12l-12 156c-1.33301 6.66699 0.666992 12.5 6 17.5s11.666 7.5 18.999 7.5h145
c8.66699 0 13 -4.33301 13 -13l1 -29zM165.002 454c5.33301 17.333 14.999 37.667 28.999 61s30.5 45.5 49.5 66.5s40.167 38.833 63.5 53.5s47 22 71 22h303c12.667 0 17 -6 13 -18l-51 -155c-4 -12 -12 -18 -24 -18h-167l-12 -39h167c12 0 16 -6.33301 12 -19l-67 -204
c-6 -18 -15.833 -38.667 -29.5 -62s-30.167 -45.5 -49.5 -66.5s-40.666 -38.833 -63.999 -53.5s-47 -22 -71 -22h-303c-12 -0 -16 6.33301 -12 19l50 154c4 12.667 12 19 24 19h167l13 40h-167c-12 0 -15.667 6.33301 -11 19zM117.001 251.001h185.998l-26 -78h-186
l-50 -154h303c20.667 0 41.334 6.66699 62.001 20s39.5 29.5 56.5 48.5s31.833 39.167 44.5 60.5s21.667 40 27 56l67 204h-185l24 76h185l51 155h-303c-21.333 0 -42.166 -6.66699 -62.499 -20s-39.166 -29.5 -56.499 -48.5s-32.333 -39.167 -45 -60.5
s-21.334 -40 -26.001 -56zM476.999 751.001v84h-145l12 -155h257l112 155h-184z" />
    <glyph glyph-name="FL0178h" unicode="&#x178;" 
d="M631 208c-6 -18 -16.167 -39 -30.5 -63s-31.166 -46.667 -50.499 -68s-41 -39.5 -65 -54.5s-48.333 -22.5 -73 -22.5h-378c-12.667 -0 -17 6.33301 -13 19l52 158c4 12.667 12.333 19 25 19h324l12 39h-191c-25.333 0 -45 7.5 -59 22.5s-23.833 33.167 -29.5 54.5
s-7.83398 44 -6.50098 68s5 45 11 63l68 210c4 12.667 12.333 19 25 19h257c12.667 0 17 -6.33301 13 -19l-72 -223h48l72 223c4 12.667 12.333 19 25 19h167c12.667 0 17 -6.33301 13 -19zM526 694c-4 -12.667 -12.333 -19 -25 -19h-187c-12.667 0 -17 6.33301 -13 19
l52 159c4 12.667 12.333 19 25 19h187c12.667 0 17 -6.33301 13 -19zM728 694c-4 -12.667 -12.333 -19 -25 -19h-148c-12.667 0 -17 6.33301 -13 19l52 159c4 12.667 12.333 19 25 19h148c12.667 0 17 -6.33301 13 -19zM761 853h-148l-52 -159h148zM559 853h-187l-52 -159
h187zM756 653l-167 0.00195312l-78 -242h-86l78 242h-257l-68 -210c-5.33301 -16.667 -8.83301 -35.834 -10.5 -57.501s0 -42.334 5 -62.001s13.667 -36.167 26 -49.5s29.5 -20 51.5 -20h210l-25 -77h-343l-52 -158h378c21.333 0 42.5 6.83301 63.5 20.5
s40.167 30.167 57.5 49.5s32.5 40 45.5 62s22.167 41 27.5 57z" />
    <glyph glyph-name="FL017Dh" unicode="&#x17d;" horiz-adv-x="523" 
d="M522 859c2.66699 3.33301 6.16504 6.33301 10.498 9s8.16602 4 11.499 4h188c7.33301 0 12 -2.5 14 -7.5s0.666992 -10.833 -4 -17.5l-115 -159c-3.33301 -3.33301 -7.16602 -6.33301 -11.499 -9s-8.16602 -4 -11.499 -4h-262c-8.66699 0 -13 4.33301 -13 13l-12 159
c-1.33301 6.66699 0.833984 12.5 6.50098 17.5s12.167 7.5 19.5 7.5h147c9.33301 0 14 -4.33301 14 -13l1 -29zM638.998 446l-256 -250h156c12.667 0 17 -6.33301 13 -19l-52 -158c-4 -12.667 -12.333 -19 -25 -19h-442c-12.667 -0 -17 6.33301 -13 19l68 208l256 249h-156
c-12.667 0 -17 6.33301 -13 19l51 158c4 12.667 12.333 19 25 19h442c12.667 0 17 -6.33301 13 -19zM686.998 653h-442l-51 -158h193l-282 -274l-66 -202h442l52 158h-193l282 274zM483.998 767v86h-147l11 -159h262l116 159h-188z" />
    <glyph glyph-name="FL017Eh" unicode="&#x17e;" horiz-adv-x="523" 
d="M514 841c6 8.66699 13.002 13 21.002 13h184c7.33301 0 12.166 -2.5 14.499 -7.5s0.5 -10.833 -5.5 -17.5l-112 -156c-6 -8 -13 -12 -21 -12h-257c-8.66699 0 -13 4 -13 12l-12 156c-1.33301 6.66699 0.666992 12.5 6 17.5s11.666 7.5 18.999 7.5h145
c8.66699 0 13 -4.33301 13 -13l1 -29zM628.002 436l-251 -244h153c12 0 16 -6.33301 12 -19l-50 -154c-4 -12.667 -12 -19 -24 -19h-433c-12 -0 -16 6.33301 -12 19l66 203l250 244h-153c-12 0 -16 6 -12 18l51 155c4 12 11.667 18 23 18h433c12.667 0 17 -6 13 -18z
M676.002 639h-433l-51 -155h189l-275 -267l-65 -198h433l50 154h-189l277 269zM477.002 751v84h-145l12 -155h257l112 155h-184z" />
    <glyph glyph-name="FL0039h" unicode="&#x192;" 
d="M285 0c-12.667 0 -17 6.33496 -13 19.002l61 187h-100c-24 0 -43 7.33301 -57 22s-23.667 32.5 -29 53.5s-7.5 43.167 -6.5 66.5s4.5 43.666 10.5 60.999l15 45c5.33301 17.333 15 37.666 29 60.999s30.5 45.5 49.5 66.5s40.167 38.833 63.5 53.5s47 22 71 22h370
c12.667 0 17 -6 13 -18l-202 -620c-4 -12.667 -12 -19 -24 -19h-251zM365 466.002l-21 -65h52l21 65h-52zM442 484.002l-33 -102h-89l33 102h89zM542 19.002l201.997 620h-370c-21.333 0 -42.166 -6.66699 -62.499 -20s-39 -29.5 -56 -48.5s-31.833 -39.167 -44.5 -60.5
s-21.334 -40 -26.001 -56l-15 -45c-5.33301 -16 -8.66602 -34.667 -9.99902 -56s0.333984 -41.5 5.00098 -60.5s12.834 -35.167 24.501 -48.5s28.167 -20 49.5 -20h119l-67 -205h251z" />
    <glyph glyph-name="FL02C6h" unicode="&#x2c6;" horiz-adv-x="467" 
d="M459 694h187l-11 159h-262l-115 -159h147l56 86zM441 718l-19.001 -29c-6 -9.33301 -13.667 -14 -23 -14h-147c-7.33301 0 -12 2.66699 -14 8s-0.333008 11.333 5 18l114 159c6 8 13.333 12 22 12h262c9.33301 0 14 -4 14 -12l12 -159
c1.33301 -6.66699 -1 -12.667 -7 -18s-12.667 -8 -20 -8h-187c-3.33301 0 -6.16602 1.5 -8.49902 4.5s-3.83301 6.16699 -4.5 9.5z" />
    <glyph glyph-name="FL02DCh" unicode="&#x2dc;" horiz-adv-x="513" 
d="M444 769l5 -75h243l116 159h-135l-48 -75l-5 75h-245l-116 -159h136zM412 689c-2.66699 -3.33301 -6.16699 -6.50098 -10.5 -9.50098s-8.5 -4.5 -12.5 -4.5h-136c-7.33301 0 -12 2.66699 -14 8s-0.333008 11.333 5 18l115 159c6 8 13.333 12 22 12h245
c3.33301 0 6.66602 -1.16699 9.99902 -3.5s4.33301 -5.16602 3 -8.49902l3 -27l15 26c2.66699 3.33301 6.16699 6.33301 10.5 9s8.16602 4 11.499 4h135c7.33301 0 12 -2.5 14 -7.5s0.666992 -10.833 -4 -17.5l-115 -159c-3.33301 -3.33301 -7.16602 -6.33301 -11.499 -9
s-8.16602 -4 -11.499 -4h-243c-8.66699 0 -13 4.33301 -13 13l-2 26z" />
    <glyph glyph-name="FL2013h" unicode="&#x2013;" horiz-adv-x="345" 
d="M114 256h273l52 161h-273zM147 417c4.66699 12.667 13.333 19 26 19h273c12.667 0 16.667 -6.33301 12 -19l-52 -161c-4 -12.667 -12.333 -19 -25 -19h-273c-12.667 0 -17 6.33301 -13 19z" />
    <glyph glyph-name="FL2014h" unicode="&#x2014;" horiz-adv-x="485" 
d="M116 256h406l52 161h-406zM149 417c4.66699 12.667 13.333 19 26 19h406c12.667 0 16.667 -6.33301 12 -19l-52 -161c-4 -12.667 -12.333 -19 -25 -19h-406c-12.667 0 -17 6.33301 -13 19z" />
    <glyph glyph-name="FL2018h" unicode="&#x2018;" horiz-adv-x="233" 
d="M282 662h-37.999c-12 0 -16 6.33301 -12 19l52 159c4 12.667 12 19 24 19h168c12.667 0 17 -6.33301 13 -19l-52 -159c-0.666992 -4 -4 -8.33301 -10 -13l-147 -110c-8 -6 -15.333 -7.66699 -22 -5s-8.33398 8.66699 -5.00098 18zM272.001 571l146 110l52 159h-168
l-52 -159h57z" />
    <glyph glyph-name="FL2019h" unicode="&#x2019;" horiz-adv-x="233" 
d="M221 475l-38 -0.000976562c-12 0 -15.667 6.33301 -11 19l51 159c4 12.667 12 19 24 19h168c12.667 0 17 -6.33301 13 -19l-51 -159c-0.666992 -1.33301 -2.16699 -3.66602 -4.5 -6.99902s-4.5 -5.33301 -6.5 -6l-146 -110c-8 -6 -15.5 -7.66699 -22.5 -5
s-8.83301 8.66699 -5.5 18zM211 383.999l147 110l51 159h-168l-51 -159h57z" />
    <glyph glyph-name="FL201Ah" unicode="&#x201a;" horiz-adv-x="233" 
d="M67 0h-38c-12 -0 -16 6.33301 -12 19l52 159c4 12.667 12 19 24 19h168c12.667 0 17 -6.33301 13 -19l-52 -159c-0.666992 -4 -4 -8.33301 -10 -13l-147 -110c-8 -6 -15.5 -7.66699 -22.5 -5s-8.83301 8.66699 -5.5 18zM56 -91l147 110l52 159h-168l-52 -159h57z" />
    <glyph glyph-name="FL201Ch" unicode="&#x201c;" horiz-adv-x="451" 
d="M491 662h-36.998c-12.667 0 -17 6.33301 -13 19l52 159c4 12.667 12.333 19 25 19h167c12.667 0 17 -6.33301 13 -19l-52 -159c-0.666992 -4 -4 -8.33301 -10 -13l-146 -110c-8.66699 -6 -16.334 -7.66699 -23.001 -5s-8.33398 8.66699 -5.00098 18zM285.002 662h-37.999
c-12.667 0 -17 6.33301 -13 19l52 159c4 12.667 12.333 19 25 19h168c12.667 0 17 -6.33301 13 -19l-52 -159c-0.666992 -4 -4 -8.33301 -10 -13l-147 -110c-8 -6 -15.333 -7.66699 -22 -5s-8.33398 8.66699 -5.00098 18zM275.003 571l146 110l52 159h-168l-52 -159h57z
M481.003 571l146 110l52 159h-167l-52 -159h56z" />
    <glyph glyph-name="FL201Dh" unicode="&#x201d;" horiz-adv-x="451" 
d="M430 475l-37 -0.000976562c-12.667 0 -16.667 6.33301 -12 19l51 159c4 12.667 12.333 19 25 19h167c12.667 0 17 -6.33301 13 -19l-51 -159c-0.666992 -1.33301 -2.16699 -3.66602 -4.5 -6.99902s-4.5 -5.33301 -6.5 -6l-145 -110c-8.66699 -6 -16.5 -7.66699 -23.5 -5
s-8.83301 8.66699 -5.5 18zM224 474.999l-38 -0.000976562c-12.667 0 -16.667 6.33301 -12 19l51 159c4 12.667 12.333 19 25 19h168c12.667 0 17 -6.33301 13 -19l-51 -159c-0.666992 -1.33301 -2.16699 -3.66602 -4.5 -6.99902s-4.5 -5.33301 -6.5 -6l-146 -110
c-8 -6 -15.5 -7.66699 -22.5 -5s-8.83301 8.66699 -5.5 18zM214 383.998l147 110l51 159h-168l-51 -159h57zM420 383.998l147 110l51 159h-167l-51 -159h56z" />
    <glyph glyph-name="FL201Eh" unicode="&#x201e;" horiz-adv-x="450" 
d="M275 0h-37c-12.667 -0 -17 6.33301 -13 19l52 159c4 12.667 12.333 19 25 19h167c12.667 0 17 -6.33301 13 -19l-52 -159c-0.666992 -4 -4 -8.33301 -10 -13l-146 -110c-8.66699 -6 -16.5 -7.66699 -23.5 -5s-8.83301 8.66699 -5.5 18zM70 0h-38
c-12.667 -0 -17 6.33301 -13 19l52 159c4 12.667 12.333 19 25 19h168c12.667 0 17 -6.33301 13 -19l-52 -159c-0.666992 -4 -4 -8.33301 -10 -13l-147 -110c-8 -6 -15.5 -7.66699 -22.5 -5s-8.83301 8.66699 -5.5 18zM59 -91l147 110l52 159h-168l-52 -159h57zM264 -91
l147 110l52 159h-167l-52 -159h56z" />
    <glyph glyph-name="FL2020h" unicode="&#x2020;" horiz-adv-x="504" 
d="M207 534l-53 -161h83l-115 -354h257l115 354h84l53 161h-84l38 119h-257l-38 -119h-83zM276 552l33 101c4 12.667 12.333 19 25 19h257c12.667 0 17 -6.33301 13 -19l-33 -101h65c12 0 16.667 -6 14 -18l-53 -161c-4 -12.667 -12.333 -19 -25 -19h-65l-109 -335
c-4 -12.667 -12.333 -19 -25 -19h-257c-12.667 -0 -17 6.33301 -13 19l109 335h-64c-12.667 0 -17 6.33301 -13 19l53 161c2.66699 12 10.667 18 24 18h64z" />
    <glyph glyph-name="FL2021h" unicode="&#x2021;" horiz-adv-x="504" 
d="M207 534l-53 -161h83l-24 -74h-83l-52 -161h83l-39 -119h257l39 119h84l52 161h-84l24 74h84l53 161h-84l38 119h-257l-38 -119h-83zM276 552l33 101c4 12.667 12.333 19 25 19h257c12.667 0 17 -6.33301 13 -19l-33 -101h65c12 0 16.667 -6 14 -18l-53 -161
c-4 -12.667 -12.333 -19 -25 -19h-65l-12 -36h65c12.667 0 17 -6.33301 13 -19l-52 -161c-4 -12.667 -12.333 -19 -25 -19h-65l-33 -100c-4 -12.667 -12.333 -19 -25 -19h-257c-12.667 -0 -17 6.33301 -13 19l33 100h-64c-12.667 0 -17 6.33301 -13 19l52 161
c4 12.667 12.333 19 25 19h64l12 36h-64c-12.667 0 -17 6.33301 -13 19l53 161c2.66699 12 10.667 18 24 18h64z" />
    <glyph glyph-name="FL2022h" unicode="&#x2022;" 
d="M695 464c5.33301 16 8.66699 34.833 10 56.5s-0.5 42.334 -5.5 62.001s-13.5 36.334 -25.5 50.001s-28.667 20.5 -50 20.5h-245c-22 0 -43.5 -6.83301 -64.5 -20.5s-40.167 -30.334 -57.5 -50.001s-32.333 -40.334 -45 -62.001s-21.667 -40.5 -27 -56.5l-83 -256
c-5.33301 -16 -8.83301 -35 -10.5 -57s-0.166992 -42.667 4.5 -62s13.167 -35.833 25.5 -49.5s29.5 -20.5 51.5 -20.5h245c21.333 0 42.5 6.83301 63.5 20.5s40.167 30.167 57.5 49.5s32.5 40 45.5 62s22.167 41 27.5 57zM631.001 208c-6 -18 -16.1689 -39 -30.502 -63
s-31.166 -46.667 -50.499 -68s-41 -39.5 -65 -54.5s-48.333 -22.5 -73 -22.5h-245c-25.333 0 -45 7.5 -59 22.5s-23.833 33.167 -29.5 54.5s-7.83398 44 -6.50098 68s5 45 11 63l83 256c6 18 16 38.833 30 62.5s30.833 46.334 50.5 68.001s41.334 40 65.001 55
s48.167 22.5 73.5 22.5h245c24.667 0 44.167 -7.5 58.5 -22.5s24.333 -33.333 30 -55s7.83398 -44.334 6.50098 -68.001s-5 -44.5 -11 -62.5z" />
    <glyph glyph-name="FL2026h" unicode="&#x2026;" horiz-adv-x="691" 
d="M661 19c-4 -12.667 -12.333 -19 -25 -19h-167c-12.667 -0 -17 6.33301 -13 19l52 159c4 12.667 12.333 19 25 19h167c12.667 0 17 -6.33301 13 -19zM445 19c-4 -12.667 -12.333 -19 -25 -19h-168c-12.667 -0 -17 6.33301 -13 19l52 159c4 12.667 12.333 19 25 19h168
c12.667 0 17 -6.33301 13 -19zM228 19c-4 -12.667 -12.333 -19 -25 -19h-167c-12.667 -0 -17 6.33301 -13 19l52 159c4 12.667 12.333 19 25 19h167c12.667 0 17 -6.33301 13 -19zM261 178h-167l-52 -159h167zM478 178h-168l-52 -159h168zM694 178h-167l-52 -159h167z" />
    <glyph glyph-name="FL2030h" unicode="&#x2030;" horiz-adv-x="1205" 
d="M1214 263c2.66699 8.66699 4.66699 19 6 31s0.666016 23.5 -2.00098 34.5s-7.16699 20.333 -13.5 28s-15.5 11.5 -27.5 11.5h-136c-12 0 -23.833 -3.83301 -35.5 -11.5s-22.167 -17 -31.5 -28s-17.666 -22.5 -24.999 -34.5s-12.333 -22.333 -15 -31l-45 -140
c-2.66699 -8.66699 -4.5 -19 -5.5 -31s-0.166992 -23.333 2.5 -34s7.16699 -19.834 13.5 -27.501s15.5 -11.5 27.5 -11.5h136c12 0 23.833 3.83301 35.5 11.5s22.167 16.834 31.5 27.501s17.5 22 24.5 34s11.833 22.333 14.5 31zM1032 261h38l-44 -134h-38zM502 548
c2.66699 8.66699 4.33398 19 5.00098 31s-0.5 23.5 -3.5 34.5s-7.66699 20.333 -14 28s-15.166 11.5 -26.499 11.5h-136c-12 0 -23.833 -3.83301 -35.5 -11.5s-22.167 -17 -31.5 -28s-17.5 -22.5 -24.5 -34.5s-11.833 -22.333 -14.5 -31l-45 -140
c-3.33301 -9.33301 -5.33301 -19.833 -6 -31.5s0.166016 -23 2.49902 -34s6.83301 -20.167 13.5 -27.5s16 -11 28 -11h136c11.333 0 22.666 3.66699 33.999 11s22 16.5 32 27.5s18.5 22.333 25.5 34s12.167 22.167 15.5 31.5zM318 546h38l-43 -135h-38zM908 263
c2.66699 8.66699 4.49902 19 5.49902 31s0.333008 23.5 -2 34.5s-6.83301 20.333 -13.5 28s-16 11.5 -28 11.5h-135c-12 0 -23.833 -3.83301 -35.5 -11.5s-22.334 -17 -32.001 -28s-18.167 -22.5 -25.5 -34.5s-12.333 -22.333 -15 -31l-45 -140
c-2.66699 -8.66699 -4.5 -19 -5.5 -31s-0.166992 -23.333 2.5 -34s7.33398 -19.834 14.001 -27.501s16 -11.5 28 -11.5h135c12 0 23.833 3.83301 35.5 11.5s22.334 16.834 32.001 27.501s18 22 25 34s11.833 22.333 14.5 31zM724.999 261h38l-44 -134h-38zM295.999 19h166
l322 634h-166zM599.999 656c6.66699 10.667 14.665 16 23.998 16h166c6.66699 0 11.167 -2.33301 13.5 -7s1.83301 -10 -1.5 -16l-322 -634c-3.33301 -4 -7.16602 -7.5 -11.499 -10.5s-8.5 -4.5 -12.5 -4.5h-166c-6 0 -10.167 2.16699 -12.5 6.5
s-2.16602 9.83301 0.500977 16.5zM881.997 123c-3.33301 -10.667 -9.33301 -23 -18 -37s-19 -27.333 -31 -40s-25.167 -23.5 -39.5 -32.5s-28.833 -13.5 -43.5 -13.5h-135c-15.333 0 -27.166 4.5 -35.499 13.5s-14.333 19.833 -18 32.5s-5.16699 26 -4.5 40
s2.66699 26.333 6 37l45 140c3.33301 10.667 9.33301 23 18 37s19 27.5 31 40.5s25.167 24 39.5 33s29.166 13.5 44.499 13.5h135c14.667 0 26.334 -4.5 35.001 -13.5s14.667 -20 18 -33s4.66602 -26.5 3.99902 -40.5s-2.66699 -26.333 -6 -37zM474.997 408
c-3.33301 -10.667 -9.33203 -23 -17.999 -37s-18.834 -27.333 -30.501 -40s-24.667 -23.5 -39 -32.5s-28.833 -13.5 -43.5 -13.5h-136c-15.333 0 -27.166 4.5 -35.499 13.5s-14.333 19.833 -18 32.5s-5 26 -4 40s3.16699 26.333 6.5 37l45 140
c3.33301 10 9.16602 22.167 17.499 36.5s18.5 28 30.5 41s25 24 39 33s28.667 13.5 44 13.5h136c14.667 0 26.167 -4.5 34.5 -13.5s14.333 -20 18 -33s5.16699 -26.667 4.5 -41s-2.66699 -26.5 -6 -36.5zM1188 123c-3.33301 -10.667 -9.33301 -23 -18 -37
s-18.834 -27.333 -30.501 -40s-24.667 -23.5 -39 -32.5s-28.833 -13.5 -43.5 -13.5h-136c-15.333 0 -27.166 4.5 -35.499 13.5s-14.333 19.833 -18 32.5s-5 26 -4 40s3.16699 26.333 6.5 37l45 140c3.33301 10.667 9.33301 23 18 37s19 27.5 31 40.5s25 24 39 33
s28.667 13.5 44 13.5h136c14.667 0 26.167 -4.5 34.5 -13.5s14.333 -20 18 -33s5 -26.5 4 -40.5s-3.16699 -26.333 -6.5 -37z" />
    <glyph glyph-name="FL2039h" unicode="&#x2039;" horiz-adv-x="224" 
d="M307 348c8 -2.66699 10.3301 -8.66699 6.99707 -18l-61 -187c-2 -7.33301 -6.16699 -13 -12.5 -17s-12.166 -4.33301 -17.499 -1l-139 63c-7.33301 3.33301 -9.66602 9.33301 -6.99902 18l85 262c1.33301 3.33301 3.83301 6.83301 7.5 10.5s7.5 6.16699 11.5 7.5l180 64
c7.33301 2.66699 13 2.16699 17 -1.5s4.66699 -9.16699 2 -16.5l-48 -148c-3.33301 -9.33301 -9.66602 -15.333 -18.999 -18l-32 -9zM217.997 357l95 27l48 148l-180 -64l-85 -262l138 -63l61 187z" />
    <glyph glyph-name="FL203Ah" unicode="&#x203a;" horiz-adv-x="224" 
d="M136 330l-61 -187l180 63l85 262l-138 64l-48 -148l77 -27zM169 357l-26 9.00098c-8 3.33301 -10.667 9.33301 -8 18l48 148c2.66699 7.33301 7.16699 12.833 13.5 16.5s12.5 4.16699 18.5 1.5l138 -64c6.66699 -3.33301 8.66699 -9.33301 6 -18l-85 -262
c-3.33301 -9.33301 -9.33301 -15.333 -18 -18l-179 -63c-8 -3.33301 -14 -3 -18 1s-5 9.66699 -3 17l61 187c1.33301 4 4 7.66699 8 11s8 5.66602 12 6.99902z" />
    <glyph glyph-name="FL20ACh" unicode="&#x20ac;" horiz-adv-x="571" 
d="M151 361l65.001 0.000976562l-16 -49h-65l-52 -160h73c-1.33301 -15.333 -0.833008 -31 1.5 -47s6.66602 -30.333 12.999 -43s15 -23 26 -31s24.833 -12 41.5 -12h289l52 158h-88l43 135h-77l16 49h77l44 134h88l51 158h-289c-16 0 -32.167 -4 -48.5 -12
s-31.666 -18.333 -45.999 -31s-27.833 -26.834 -40.5 -42.501s-23.334 -31.167 -32.001 -46.5h-74zM184.001 521.001c4.66699 12.667 12.9961 19 24.9961 19h60c10 16 21.833 32 35.5 48s28.334 30.167 44.001 42.5s32 22.333 49 30s34.5 11.5 52.5 11.5h289
c12.667 0 17 -6.33301 13 -19l-51 -158c-4 -12.667 -12.333 -19 -25 -19h-69l-38 -115c-4 -12.667 -12.333 -19 -25 -19h-58l-3 -11h58c12.667 0 16.667 -6.33301 12 -19l-37 -116h69c12.667 0 17 -6.33301 13 -19l-52 -158c-4 -12.667 -12.333 -19 -25 -19h-289
c-18 0 -33.167 4 -45.5 12s-22.166 18.167 -29.499 30.5s-12.666 26.5 -15.999 42.5s-5 32 -5 48h-59c-12.667 0 -17 6.33301 -13 19l52 160c4.66699 12.667 13.334 19 26.001 19h46l3 11h-46c-12.667 0 -17 6.33301 -13 19z" />
    <glyph glyph-name="FL2122h" unicode="&#x2122;" horiz-adv-x="602" 
d="M741 586l58 177.999c2 6.66699 3.33301 14.334 4 23.001s0.166992 17 -1.5 25s-5 14.667 -10 20s-11.833 8 -20.5 8h-253l-83 -254h68l62 191h34l-62 -191h67l62 191h34l-62 -191h103zM468 776.999l21 63h-182l-21 -63h40l-62 -191h102l62 191h40zM441 757.999
l-55.999 -172c-3.33301 -12 -11.333 -18 -24 -18h-102c-12.667 0 -17.334 6 -14.001 18l56 172h-21c-12 0 -16 6.33301 -12 19l21 63c4 12.667 12 19 24 19h182c12.667 0 17 -6.33301 13 -19l-21 -63c-4 -12.667 -12.333 -19 -25 -19h-21zM633.001 567.999
c-8.66699 0 -13.3311 3.33301 -13.998 10c-6 -6.66699 -12.667 -10 -20 -10h-67c-9.33301 0 -14 3.33301 -14 10c-6 -6.66699 -12.667 -10 -20 -10h-68c-12.667 0 -17.334 6 -14.001 18l83 254c4 12.667 12.333 19 25 19h253c12 0 21.333 -3.33301 28 -10s11.5 -15 14.5 -25
s4.16699 -20.5 3.5 -31.5s-2.33398 -20.5 -5.00098 -28.5l-58 -178c-3.33301 -12 -11.333 -18 -24 -18h-103z" />
    <glyph glyph-name=".null" horiz-adv-x="0" 
 />
    <glyph glyph-name="nonmarkingreturn" horiz-adv-x="500" 
 />
    </font>
</defs>
</svg>
